%TF.GenerationSoftware,KiCad,Pcbnew,7.0.6*%
%TF.CreationDate,2023-09-05T08:02:31-07:00*%
%TF.ProjectId,KICAD_lightning_trigger,4b494341-445f-46c6-9967-68746e696e67,rev?*%
%TF.SameCoordinates,Original*%
%TF.FileFunction,Legend,Top*%
%TF.FilePolarity,Positive*%
%FSLAX46Y46*%
G04 Gerber Fmt 4.6, Leading zero omitted, Abs format (unit mm)*
G04 Created by KiCad (PCBNEW 7.0.6) date 2023-09-05 08:02:31*
%MOMM*%
%LPD*%
G01*
G04 APERTURE LIST*
%ADD10C,0.150000*%
%ADD11C,0.125000*%
%ADD12C,0.360000*%
%ADD13C,0.200000*%
%ADD14C,0.254000*%
%ADD15C,0.120000*%
%ADD16C,0.100000*%
G04 APERTURE END LIST*
D10*
X135789160Y-107282200D02*
X135932017Y-107329819D01*
X135932017Y-107329819D02*
X136170112Y-107329819D01*
X136170112Y-107329819D02*
X136265350Y-107282200D01*
X136265350Y-107282200D02*
X136312969Y-107234580D01*
X136312969Y-107234580D02*
X136360588Y-107139342D01*
X136360588Y-107139342D02*
X136360588Y-107044104D01*
X136360588Y-107044104D02*
X136312969Y-106948866D01*
X136312969Y-106948866D02*
X136265350Y-106901247D01*
X136265350Y-106901247D02*
X136170112Y-106853628D01*
X136170112Y-106853628D02*
X135979636Y-106806009D01*
X135979636Y-106806009D02*
X135884398Y-106758390D01*
X135884398Y-106758390D02*
X135836779Y-106710771D01*
X135836779Y-106710771D02*
X135789160Y-106615533D01*
X135789160Y-106615533D02*
X135789160Y-106520295D01*
X135789160Y-106520295D02*
X135836779Y-106425057D01*
X135836779Y-106425057D02*
X135884398Y-106377438D01*
X135884398Y-106377438D02*
X135979636Y-106329819D01*
X135979636Y-106329819D02*
X136217731Y-106329819D01*
X136217731Y-106329819D02*
X136360588Y-106377438D01*
X136789160Y-107329819D02*
X136789160Y-106329819D01*
X136789160Y-106806009D02*
X137360588Y-106806009D01*
X137360588Y-107329819D02*
X137360588Y-106329819D01*
X137836779Y-106329819D02*
X137836779Y-107139342D01*
X137836779Y-107139342D02*
X137884398Y-107234580D01*
X137884398Y-107234580D02*
X137932017Y-107282200D01*
X137932017Y-107282200D02*
X138027255Y-107329819D01*
X138027255Y-107329819D02*
X138217731Y-107329819D01*
X138217731Y-107329819D02*
X138312969Y-107282200D01*
X138312969Y-107282200D02*
X138360588Y-107234580D01*
X138360588Y-107234580D02*
X138408207Y-107139342D01*
X138408207Y-107139342D02*
X138408207Y-106329819D01*
X138741541Y-106329819D02*
X139312969Y-106329819D01*
X139027255Y-107329819D02*
X139027255Y-106329819D01*
X139503446Y-106329819D02*
X140074874Y-106329819D01*
X139789160Y-107329819D02*
X139789160Y-106329819D01*
X140408208Y-106806009D02*
X140741541Y-106806009D01*
X140884398Y-107329819D02*
X140408208Y-107329819D01*
X140408208Y-107329819D02*
X140408208Y-106329819D01*
X140408208Y-106329819D02*
X140884398Y-106329819D01*
X141884398Y-107329819D02*
X141551065Y-106853628D01*
X141312970Y-107329819D02*
X141312970Y-106329819D01*
X141312970Y-106329819D02*
X141693922Y-106329819D01*
X141693922Y-106329819D02*
X141789160Y-106377438D01*
X141789160Y-106377438D02*
X141836779Y-106425057D01*
X141836779Y-106425057D02*
X141884398Y-106520295D01*
X141884398Y-106520295D02*
X141884398Y-106663152D01*
X141884398Y-106663152D02*
X141836779Y-106758390D01*
X141836779Y-106758390D02*
X141789160Y-106806009D01*
X141789160Y-106806009D02*
X141693922Y-106853628D01*
X141693922Y-106853628D02*
X141312970Y-106853628D01*
X136027255Y-107939819D02*
X136217731Y-107939819D01*
X136217731Y-107939819D02*
X136312969Y-107987438D01*
X136312969Y-107987438D02*
X136408207Y-108082676D01*
X136408207Y-108082676D02*
X136455826Y-108273152D01*
X136455826Y-108273152D02*
X136455826Y-108606485D01*
X136455826Y-108606485D02*
X136408207Y-108796961D01*
X136408207Y-108796961D02*
X136312969Y-108892200D01*
X136312969Y-108892200D02*
X136217731Y-108939819D01*
X136217731Y-108939819D02*
X136027255Y-108939819D01*
X136027255Y-108939819D02*
X135932017Y-108892200D01*
X135932017Y-108892200D02*
X135836779Y-108796961D01*
X135836779Y-108796961D02*
X135789160Y-108606485D01*
X135789160Y-108606485D02*
X135789160Y-108273152D01*
X135789160Y-108273152D02*
X135836779Y-108082676D01*
X135836779Y-108082676D02*
X135932017Y-107987438D01*
X135932017Y-107987438D02*
X136027255Y-107939819D01*
X136884398Y-107939819D02*
X136884398Y-108749342D01*
X136884398Y-108749342D02*
X136932017Y-108844580D01*
X136932017Y-108844580D02*
X136979636Y-108892200D01*
X136979636Y-108892200D02*
X137074874Y-108939819D01*
X137074874Y-108939819D02*
X137265350Y-108939819D01*
X137265350Y-108939819D02*
X137360588Y-108892200D01*
X137360588Y-108892200D02*
X137408207Y-108844580D01*
X137408207Y-108844580D02*
X137455826Y-108749342D01*
X137455826Y-108749342D02*
X137455826Y-107939819D01*
X137789160Y-107939819D02*
X138360588Y-107939819D01*
X138074874Y-108939819D02*
X138074874Y-107939819D01*
D11*
X55118738Y-88555859D02*
X55071119Y-88651097D01*
X55071119Y-88651097D02*
X55071119Y-88793954D01*
X55071119Y-88793954D02*
X55118738Y-88936811D01*
X55118738Y-88936811D02*
X55213976Y-89032049D01*
X55213976Y-89032049D02*
X55309214Y-89079668D01*
X55309214Y-89079668D02*
X55499690Y-89127287D01*
X55499690Y-89127287D02*
X55642547Y-89127287D01*
X55642547Y-89127287D02*
X55833023Y-89079668D01*
X55833023Y-89079668D02*
X55928261Y-89032049D01*
X55928261Y-89032049D02*
X56023500Y-88936811D01*
X56023500Y-88936811D02*
X56071119Y-88793954D01*
X56071119Y-88793954D02*
X56071119Y-88698716D01*
X56071119Y-88698716D02*
X56023500Y-88555859D01*
X56023500Y-88555859D02*
X55975880Y-88508240D01*
X55975880Y-88508240D02*
X55642547Y-88508240D01*
X55642547Y-88508240D02*
X55642547Y-88698716D01*
X56071119Y-88079668D02*
X55071119Y-88079668D01*
X55071119Y-88079668D02*
X56071119Y-87508240D01*
X56071119Y-87508240D02*
X55071119Y-87508240D01*
X56071119Y-87032049D02*
X55071119Y-87032049D01*
X55071119Y-87032049D02*
X55071119Y-86793954D01*
X55071119Y-86793954D02*
X55118738Y-86651097D01*
X55118738Y-86651097D02*
X55213976Y-86555859D01*
X55213976Y-86555859D02*
X55309214Y-86508240D01*
X55309214Y-86508240D02*
X55499690Y-86460621D01*
X55499690Y-86460621D02*
X55642547Y-86460621D01*
X55642547Y-86460621D02*
X55833023Y-86508240D01*
X55833023Y-86508240D02*
X55928261Y-86555859D01*
X55928261Y-86555859D02*
X56023500Y-86651097D01*
X56023500Y-86651097D02*
X56071119Y-86793954D01*
X56071119Y-86793954D02*
X56071119Y-87032049D01*
D10*
X125850180Y-144713922D02*
X124850180Y-145047255D01*
X124850180Y-145047255D02*
X125850180Y-145380588D01*
X124850180Y-146237731D02*
X124850180Y-145666303D01*
X124850180Y-145952017D02*
X125850180Y-145952017D01*
X125850180Y-145952017D02*
X125707323Y-145856779D01*
X125707323Y-145856779D02*
X125612085Y-145761541D01*
X125612085Y-145761541D02*
X125564466Y-145666303D01*
D12*
X80848270Y-82020994D02*
X81191127Y-82020994D01*
X81191127Y-82020994D02*
X81362556Y-82106708D01*
X81362556Y-82106708D02*
X81533984Y-82278137D01*
X81533984Y-82278137D02*
X81619699Y-82620994D01*
X81619699Y-82620994D02*
X81619699Y-83220994D01*
X81619699Y-83220994D02*
X81533984Y-83563851D01*
X81533984Y-83563851D02*
X81362556Y-83735280D01*
X81362556Y-83735280D02*
X81191127Y-83820994D01*
X81191127Y-83820994D02*
X80848270Y-83820994D01*
X80848270Y-83820994D02*
X80676842Y-83735280D01*
X80676842Y-83735280D02*
X80505413Y-83563851D01*
X80505413Y-83563851D02*
X80419699Y-83220994D01*
X80419699Y-83220994D02*
X80419699Y-82620994D01*
X80419699Y-82620994D02*
X80505413Y-82278137D01*
X80505413Y-82278137D02*
X80676842Y-82106708D01*
X80676842Y-82106708D02*
X80848270Y-82020994D01*
X82391127Y-83820994D02*
X82391127Y-82020994D01*
X82391127Y-82020994D02*
X83419698Y-83820994D01*
X83419698Y-83820994D02*
X83419698Y-82020994D01*
D11*
X55650166Y-94999668D02*
X55650166Y-94237764D01*
X56031119Y-94618716D02*
X55269214Y-94618716D01*
X56031119Y-93713954D02*
X56031119Y-93523478D01*
X56031119Y-93523478D02*
X55983500Y-93428240D01*
X55983500Y-93428240D02*
X55935880Y-93380621D01*
X55935880Y-93380621D02*
X55793023Y-93285383D01*
X55793023Y-93285383D02*
X55602547Y-93237764D01*
X55602547Y-93237764D02*
X55221595Y-93237764D01*
X55221595Y-93237764D02*
X55126357Y-93285383D01*
X55126357Y-93285383D02*
X55078738Y-93333002D01*
X55078738Y-93333002D02*
X55031119Y-93428240D01*
X55031119Y-93428240D02*
X55031119Y-93618716D01*
X55031119Y-93618716D02*
X55078738Y-93713954D01*
X55078738Y-93713954D02*
X55126357Y-93761573D01*
X55126357Y-93761573D02*
X55221595Y-93809192D01*
X55221595Y-93809192D02*
X55459690Y-93809192D01*
X55459690Y-93809192D02*
X55554928Y-93761573D01*
X55554928Y-93761573D02*
X55602547Y-93713954D01*
X55602547Y-93713954D02*
X55650166Y-93618716D01*
X55650166Y-93618716D02*
X55650166Y-93428240D01*
X55650166Y-93428240D02*
X55602547Y-93333002D01*
X55602547Y-93333002D02*
X55554928Y-93285383D01*
X55554928Y-93285383D02*
X55459690Y-93237764D01*
X55031119Y-92952049D02*
X56031119Y-92618716D01*
X56031119Y-92618716D02*
X55031119Y-92285383D01*
D12*
X62138270Y-146930994D02*
X63166842Y-146930994D01*
X62652556Y-148730994D02*
X62652556Y-146930994D01*
X63766842Y-147788137D02*
X64366842Y-147788137D01*
X64623985Y-148730994D02*
X63766842Y-148730994D01*
X63766842Y-148730994D02*
X63766842Y-146930994D01*
X63766842Y-146930994D02*
X64623985Y-146930994D01*
X65309699Y-148645280D02*
X65566842Y-148730994D01*
X65566842Y-148730994D02*
X65995413Y-148730994D01*
X65995413Y-148730994D02*
X66166842Y-148645280D01*
X66166842Y-148645280D02*
X66252556Y-148559565D01*
X66252556Y-148559565D02*
X66338270Y-148388137D01*
X66338270Y-148388137D02*
X66338270Y-148216708D01*
X66338270Y-148216708D02*
X66252556Y-148045280D01*
X66252556Y-148045280D02*
X66166842Y-147959565D01*
X66166842Y-147959565D02*
X65995413Y-147873851D01*
X65995413Y-147873851D02*
X65652556Y-147788137D01*
X65652556Y-147788137D02*
X65481127Y-147702422D01*
X65481127Y-147702422D02*
X65395413Y-147616708D01*
X65395413Y-147616708D02*
X65309699Y-147445280D01*
X65309699Y-147445280D02*
X65309699Y-147273851D01*
X65309699Y-147273851D02*
X65395413Y-147102422D01*
X65395413Y-147102422D02*
X65481127Y-147016708D01*
X65481127Y-147016708D02*
X65652556Y-146930994D01*
X65652556Y-146930994D02*
X66081127Y-146930994D01*
X66081127Y-146930994D02*
X66338270Y-147016708D01*
X66852556Y-146930994D02*
X67881128Y-146930994D01*
X67366842Y-148730994D02*
X67366842Y-146930994D01*
X56070994Y-108848872D02*
X56070994Y-108506015D01*
X56070994Y-108506015D02*
X55985280Y-108334586D01*
X55985280Y-108334586D02*
X55899565Y-108248872D01*
X55899565Y-108248872D02*
X55642422Y-108077443D01*
X55642422Y-108077443D02*
X55299565Y-107991729D01*
X55299565Y-107991729D02*
X54613851Y-107991729D01*
X54613851Y-107991729D02*
X54442422Y-108077443D01*
X54442422Y-108077443D02*
X54356708Y-108163158D01*
X54356708Y-108163158D02*
X54270994Y-108334586D01*
X54270994Y-108334586D02*
X54270994Y-108677443D01*
X54270994Y-108677443D02*
X54356708Y-108848872D01*
X54356708Y-108848872D02*
X54442422Y-108934586D01*
X54442422Y-108934586D02*
X54613851Y-109020300D01*
X54613851Y-109020300D02*
X55042422Y-109020300D01*
X55042422Y-109020300D02*
X55213851Y-108934586D01*
X55213851Y-108934586D02*
X55299565Y-108848872D01*
X55299565Y-108848872D02*
X55385280Y-108677443D01*
X55385280Y-108677443D02*
X55385280Y-108334586D01*
X55385280Y-108334586D02*
X55299565Y-108163158D01*
X55299565Y-108163158D02*
X55213851Y-108077443D01*
X55213851Y-108077443D02*
X55042422Y-107991729D01*
X54270994Y-107477443D02*
X56070994Y-106877443D01*
X56070994Y-106877443D02*
X54270994Y-106277443D01*
X56242422Y-106106015D02*
X56242422Y-104734586D01*
X55128137Y-103706014D02*
X55213851Y-103448871D01*
X55213851Y-103448871D02*
X55299565Y-103363157D01*
X55299565Y-103363157D02*
X55470994Y-103277443D01*
X55470994Y-103277443D02*
X55728137Y-103277443D01*
X55728137Y-103277443D02*
X55899565Y-103363157D01*
X55899565Y-103363157D02*
X55985280Y-103448871D01*
X55985280Y-103448871D02*
X56070994Y-103620300D01*
X56070994Y-103620300D02*
X56070994Y-104306014D01*
X56070994Y-104306014D02*
X54270994Y-104306014D01*
X54270994Y-104306014D02*
X54270994Y-103706014D01*
X54270994Y-103706014D02*
X54356708Y-103534586D01*
X54356708Y-103534586D02*
X54442422Y-103448871D01*
X54442422Y-103448871D02*
X54613851Y-103363157D01*
X54613851Y-103363157D02*
X54785280Y-103363157D01*
X54785280Y-103363157D02*
X54956708Y-103448871D01*
X54956708Y-103448871D02*
X55042422Y-103534586D01*
X55042422Y-103534586D02*
X55128137Y-103706014D01*
X55128137Y-103706014D02*
X55128137Y-104306014D01*
X55556708Y-102591728D02*
X55556708Y-101734586D01*
X56070994Y-102763157D02*
X54270994Y-102163157D01*
X54270994Y-102163157D02*
X56070994Y-101563157D01*
X54270994Y-101220300D02*
X54270994Y-100191729D01*
X56070994Y-100706014D02*
X54270994Y-100706014D01*
X98065413Y-149380994D02*
X98065413Y-147580994D01*
X98065413Y-147580994D02*
X98751127Y-147580994D01*
X98751127Y-147580994D02*
X98922556Y-147666708D01*
X98922556Y-147666708D02*
X99008270Y-147752422D01*
X99008270Y-147752422D02*
X99093984Y-147923851D01*
X99093984Y-147923851D02*
X99093984Y-148180994D01*
X99093984Y-148180994D02*
X99008270Y-148352422D01*
X99008270Y-148352422D02*
X98922556Y-148438137D01*
X98922556Y-148438137D02*
X98751127Y-148523851D01*
X98751127Y-148523851D02*
X98065413Y-148523851D01*
X99865413Y-149380994D02*
X99865413Y-147580994D01*
X99865413Y-148438137D02*
X100893984Y-148438137D01*
X100893984Y-149380994D02*
X100893984Y-147580994D01*
X102093984Y-147580994D02*
X102436841Y-147580994D01*
X102436841Y-147580994D02*
X102608270Y-147666708D01*
X102608270Y-147666708D02*
X102779698Y-147838137D01*
X102779698Y-147838137D02*
X102865413Y-148180994D01*
X102865413Y-148180994D02*
X102865413Y-148780994D01*
X102865413Y-148780994D02*
X102779698Y-149123851D01*
X102779698Y-149123851D02*
X102608270Y-149295280D01*
X102608270Y-149295280D02*
X102436841Y-149380994D01*
X102436841Y-149380994D02*
X102093984Y-149380994D01*
X102093984Y-149380994D02*
X101922556Y-149295280D01*
X101922556Y-149295280D02*
X101751127Y-149123851D01*
X101751127Y-149123851D02*
X101665413Y-148780994D01*
X101665413Y-148780994D02*
X101665413Y-148180994D01*
X101665413Y-148180994D02*
X101751127Y-147838137D01*
X101751127Y-147838137D02*
X101922556Y-147666708D01*
X101922556Y-147666708D02*
X102093984Y-147580994D01*
X103379698Y-147580994D02*
X104408270Y-147580994D01*
X103893984Y-149380994D02*
X103893984Y-147580994D01*
X105351127Y-147580994D02*
X105693984Y-147580994D01*
X105693984Y-147580994D02*
X105865413Y-147666708D01*
X105865413Y-147666708D02*
X106036841Y-147838137D01*
X106036841Y-147838137D02*
X106122556Y-148180994D01*
X106122556Y-148180994D02*
X106122556Y-148780994D01*
X106122556Y-148780994D02*
X106036841Y-149123851D01*
X106036841Y-149123851D02*
X105865413Y-149295280D01*
X105865413Y-149295280D02*
X105693984Y-149380994D01*
X105693984Y-149380994D02*
X105351127Y-149380994D01*
X105351127Y-149380994D02*
X105179699Y-149295280D01*
X105179699Y-149295280D02*
X105008270Y-149123851D01*
X105008270Y-149123851D02*
X104922556Y-148780994D01*
X104922556Y-148780994D02*
X104922556Y-148180994D01*
X104922556Y-148180994D02*
X105008270Y-147838137D01*
X105008270Y-147838137D02*
X105179699Y-147666708D01*
X105179699Y-147666708D02*
X105351127Y-147580994D01*
X106893984Y-149380994D02*
X106893984Y-147580994D01*
X106893984Y-147580994D02*
X107322555Y-147580994D01*
X107322555Y-147580994D02*
X107579698Y-147666708D01*
X107579698Y-147666708D02*
X107751127Y-147838137D01*
X107751127Y-147838137D02*
X107836841Y-148009565D01*
X107836841Y-148009565D02*
X107922555Y-148352422D01*
X107922555Y-148352422D02*
X107922555Y-148609565D01*
X107922555Y-148609565D02*
X107836841Y-148952422D01*
X107836841Y-148952422D02*
X107751127Y-149123851D01*
X107751127Y-149123851D02*
X107579698Y-149295280D01*
X107579698Y-149295280D02*
X107322555Y-149380994D01*
X107322555Y-149380994D02*
X106893984Y-149380994D01*
X108693984Y-149380994D02*
X108693984Y-147580994D01*
X109893984Y-147580994D02*
X110236841Y-147580994D01*
X110236841Y-147580994D02*
X110408270Y-147666708D01*
X110408270Y-147666708D02*
X110579698Y-147838137D01*
X110579698Y-147838137D02*
X110665413Y-148180994D01*
X110665413Y-148180994D02*
X110665413Y-148780994D01*
X110665413Y-148780994D02*
X110579698Y-149123851D01*
X110579698Y-149123851D02*
X110408270Y-149295280D01*
X110408270Y-149295280D02*
X110236841Y-149380994D01*
X110236841Y-149380994D02*
X109893984Y-149380994D01*
X109893984Y-149380994D02*
X109722556Y-149295280D01*
X109722556Y-149295280D02*
X109551127Y-149123851D01*
X109551127Y-149123851D02*
X109465413Y-148780994D01*
X109465413Y-148780994D02*
X109465413Y-148180994D01*
X109465413Y-148180994D02*
X109551127Y-147838137D01*
X109551127Y-147838137D02*
X109722556Y-147666708D01*
X109722556Y-147666708D02*
X109893984Y-147580994D01*
X111436841Y-149380994D02*
X111436841Y-147580994D01*
X111436841Y-147580994D02*
X111865412Y-147580994D01*
X111865412Y-147580994D02*
X112122555Y-147666708D01*
X112122555Y-147666708D02*
X112293984Y-147838137D01*
X112293984Y-147838137D02*
X112379698Y-148009565D01*
X112379698Y-148009565D02*
X112465412Y-148352422D01*
X112465412Y-148352422D02*
X112465412Y-148609565D01*
X112465412Y-148609565D02*
X112379698Y-148952422D01*
X112379698Y-148952422D02*
X112293984Y-149123851D01*
X112293984Y-149123851D02*
X112122555Y-149295280D01*
X112122555Y-149295280D02*
X111865412Y-149380994D01*
X111865412Y-149380994D02*
X111436841Y-149380994D01*
X113236841Y-148438137D02*
X113836841Y-148438137D01*
X114093984Y-149380994D02*
X113236841Y-149380994D01*
X113236841Y-149380994D02*
X113236841Y-147580994D01*
X113236841Y-147580994D02*
X114093984Y-147580994D01*
X69748270Y-82120994D02*
X70091127Y-82120994D01*
X70091127Y-82120994D02*
X70262556Y-82206708D01*
X70262556Y-82206708D02*
X70433984Y-82378137D01*
X70433984Y-82378137D02*
X70519699Y-82720994D01*
X70519699Y-82720994D02*
X70519699Y-83320994D01*
X70519699Y-83320994D02*
X70433984Y-83663851D01*
X70433984Y-83663851D02*
X70262556Y-83835280D01*
X70262556Y-83835280D02*
X70091127Y-83920994D01*
X70091127Y-83920994D02*
X69748270Y-83920994D01*
X69748270Y-83920994D02*
X69576842Y-83835280D01*
X69576842Y-83835280D02*
X69405413Y-83663851D01*
X69405413Y-83663851D02*
X69319699Y-83320994D01*
X69319699Y-83320994D02*
X69319699Y-82720994D01*
X69319699Y-82720994D02*
X69405413Y-82378137D01*
X69405413Y-82378137D02*
X69576842Y-82206708D01*
X69576842Y-82206708D02*
X69748270Y-82120994D01*
X71891127Y-82978137D02*
X71291127Y-82978137D01*
X71291127Y-83920994D02*
X71291127Y-82120994D01*
X71291127Y-82120994D02*
X72148270Y-82120994D01*
X73433984Y-82978137D02*
X72833984Y-82978137D01*
X72833984Y-83920994D02*
X72833984Y-82120994D01*
X72833984Y-82120994D02*
X73691127Y-82120994D01*
D10*
X131110180Y-144823922D02*
X130110180Y-145157255D01*
X130110180Y-145157255D02*
X131110180Y-145490588D01*
X130110180Y-145966779D02*
X130157800Y-145871541D01*
X130157800Y-145871541D02*
X130205419Y-145823922D01*
X130205419Y-145823922D02*
X130300657Y-145776303D01*
X130300657Y-145776303D02*
X130586371Y-145776303D01*
X130586371Y-145776303D02*
X130681609Y-145823922D01*
X130681609Y-145823922D02*
X130729228Y-145871541D01*
X130729228Y-145871541D02*
X130776847Y-145966779D01*
X130776847Y-145966779D02*
X130776847Y-146109636D01*
X130776847Y-146109636D02*
X130729228Y-146204874D01*
X130729228Y-146204874D02*
X130681609Y-146252493D01*
X130681609Y-146252493D02*
X130586371Y-146300112D01*
X130586371Y-146300112D02*
X130300657Y-146300112D01*
X130300657Y-146300112D02*
X130205419Y-146252493D01*
X130205419Y-146252493D02*
X130157800Y-146204874D01*
X130157800Y-146204874D02*
X130110180Y-146109636D01*
X130110180Y-146109636D02*
X130110180Y-145966779D01*
X130776847Y-147157255D02*
X130110180Y-147157255D01*
X130776847Y-146728684D02*
X130253038Y-146728684D01*
X130253038Y-146728684D02*
X130157800Y-146776303D01*
X130157800Y-146776303D02*
X130110180Y-146871541D01*
X130110180Y-146871541D02*
X130110180Y-147014398D01*
X130110180Y-147014398D02*
X130157800Y-147109636D01*
X130157800Y-147109636D02*
X130205419Y-147157255D01*
X130776847Y-147490589D02*
X130776847Y-147871541D01*
X131110180Y-147633446D02*
X130253038Y-147633446D01*
X130253038Y-147633446D02*
X130157800Y-147681065D01*
X130157800Y-147681065D02*
X130110180Y-147776303D01*
X130110180Y-147776303D02*
X130110180Y-147871541D01*
X128620180Y-144763922D02*
X127620180Y-145097255D01*
X127620180Y-145097255D02*
X128620180Y-145430588D01*
X128524942Y-145716303D02*
X128572561Y-145763922D01*
X128572561Y-145763922D02*
X128620180Y-145859160D01*
X128620180Y-145859160D02*
X128620180Y-146097255D01*
X128620180Y-146097255D02*
X128572561Y-146192493D01*
X128572561Y-146192493D02*
X128524942Y-146240112D01*
X128524942Y-146240112D02*
X128429704Y-146287731D01*
X128429704Y-146287731D02*
X128334466Y-146287731D01*
X128334466Y-146287731D02*
X128191609Y-146240112D01*
X128191609Y-146240112D02*
X127620180Y-145668684D01*
X127620180Y-145668684D02*
X127620180Y-146287731D01*
D13*
X68904435Y-130843600D02*
X69161578Y-130929314D01*
X69161578Y-130929314D02*
X69590149Y-130929314D01*
X69590149Y-130929314D02*
X69761578Y-130843600D01*
X69761578Y-130843600D02*
X69847292Y-130757885D01*
X69847292Y-130757885D02*
X69933006Y-130586457D01*
X69933006Y-130586457D02*
X69933006Y-130415028D01*
X69933006Y-130415028D02*
X69847292Y-130243600D01*
X69847292Y-130243600D02*
X69761578Y-130157885D01*
X69761578Y-130157885D02*
X69590149Y-130072171D01*
X69590149Y-130072171D02*
X69247292Y-129986457D01*
X69247292Y-129986457D02*
X69075863Y-129900742D01*
X69075863Y-129900742D02*
X68990149Y-129815028D01*
X68990149Y-129815028D02*
X68904435Y-129643600D01*
X68904435Y-129643600D02*
X68904435Y-129472171D01*
X68904435Y-129472171D02*
X68990149Y-129300742D01*
X68990149Y-129300742D02*
X69075863Y-129215028D01*
X69075863Y-129215028D02*
X69247292Y-129129314D01*
X69247292Y-129129314D02*
X69675863Y-129129314D01*
X69675863Y-129129314D02*
X69933006Y-129215028D01*
X70704435Y-130929314D02*
X70704435Y-129129314D01*
X70704435Y-129986457D02*
X71733006Y-129986457D01*
X71733006Y-130929314D02*
X71733006Y-129129314D01*
X72590149Y-129129314D02*
X72590149Y-130586457D01*
X72590149Y-130586457D02*
X72675863Y-130757885D01*
X72675863Y-130757885D02*
X72761578Y-130843600D01*
X72761578Y-130843600D02*
X72933006Y-130929314D01*
X72933006Y-130929314D02*
X73275863Y-130929314D01*
X73275863Y-130929314D02*
X73447292Y-130843600D01*
X73447292Y-130843600D02*
X73533006Y-130757885D01*
X73533006Y-130757885D02*
X73618720Y-130586457D01*
X73618720Y-130586457D02*
X73618720Y-129129314D01*
X74218720Y-129129314D02*
X75247292Y-129129314D01*
X74733006Y-130929314D02*
X74733006Y-129129314D01*
X75590149Y-129129314D02*
X76618721Y-129129314D01*
X76104435Y-130929314D02*
X76104435Y-129129314D01*
X77218721Y-129986457D02*
X77818721Y-129986457D01*
X78075864Y-130929314D02*
X77218721Y-130929314D01*
X77218721Y-130929314D02*
X77218721Y-129129314D01*
X77218721Y-129129314D02*
X78075864Y-129129314D01*
X79875863Y-130929314D02*
X79275863Y-130072171D01*
X78847292Y-130929314D02*
X78847292Y-129129314D01*
X78847292Y-129129314D02*
X79533006Y-129129314D01*
X79533006Y-129129314D02*
X79704435Y-129215028D01*
X79704435Y-129215028D02*
X79790149Y-129300742D01*
X79790149Y-129300742D02*
X79875863Y-129472171D01*
X79875863Y-129472171D02*
X79875863Y-129729314D01*
X79875863Y-129729314D02*
X79790149Y-129900742D01*
X79790149Y-129900742D02*
X79704435Y-129986457D01*
X79704435Y-129986457D02*
X79533006Y-130072171D01*
X79533006Y-130072171D02*
X78847292Y-130072171D01*
D12*
X81895413Y-111960994D02*
X81895413Y-110160994D01*
X81895413Y-110160994D02*
X82581127Y-110160994D01*
X82581127Y-110160994D02*
X82752556Y-110246708D01*
X82752556Y-110246708D02*
X82838270Y-110332422D01*
X82838270Y-110332422D02*
X82923984Y-110503851D01*
X82923984Y-110503851D02*
X82923984Y-110760994D01*
X82923984Y-110760994D02*
X82838270Y-110932422D01*
X82838270Y-110932422D02*
X82752556Y-111018137D01*
X82752556Y-111018137D02*
X82581127Y-111103851D01*
X82581127Y-111103851D02*
X81895413Y-111103851D01*
X84038270Y-110160994D02*
X84381127Y-110160994D01*
X84381127Y-110160994D02*
X84552556Y-110246708D01*
X84552556Y-110246708D02*
X84723984Y-110418137D01*
X84723984Y-110418137D02*
X84809699Y-110760994D01*
X84809699Y-110760994D02*
X84809699Y-111360994D01*
X84809699Y-111360994D02*
X84723984Y-111703851D01*
X84723984Y-111703851D02*
X84552556Y-111875280D01*
X84552556Y-111875280D02*
X84381127Y-111960994D01*
X84381127Y-111960994D02*
X84038270Y-111960994D01*
X84038270Y-111960994D02*
X83866842Y-111875280D01*
X83866842Y-111875280D02*
X83695413Y-111703851D01*
X83695413Y-111703851D02*
X83609699Y-111360994D01*
X83609699Y-111360994D02*
X83609699Y-110760994D01*
X83609699Y-110760994D02*
X83695413Y-110418137D01*
X83695413Y-110418137D02*
X83866842Y-110246708D01*
X83866842Y-110246708D02*
X84038270Y-110160994D01*
X85409698Y-110160994D02*
X85838270Y-111960994D01*
X85838270Y-111960994D02*
X86181127Y-110675280D01*
X86181127Y-110675280D02*
X86523984Y-111960994D01*
X86523984Y-111960994D02*
X86952556Y-110160994D01*
X87638270Y-111018137D02*
X88238270Y-111018137D01*
X88495413Y-111960994D02*
X87638270Y-111960994D01*
X87638270Y-111960994D02*
X87638270Y-110160994D01*
X87638270Y-110160994D02*
X88495413Y-110160994D01*
X90295412Y-111960994D02*
X89695412Y-111103851D01*
X89266841Y-111960994D02*
X89266841Y-110160994D01*
X89266841Y-110160994D02*
X89952555Y-110160994D01*
X89952555Y-110160994D02*
X90123984Y-110246708D01*
X90123984Y-110246708D02*
X90209698Y-110332422D01*
X90209698Y-110332422D02*
X90295412Y-110503851D01*
X90295412Y-110503851D02*
X90295412Y-110760994D01*
X90295412Y-110760994D02*
X90209698Y-110932422D01*
X90209698Y-110932422D02*
X90123984Y-111018137D01*
X90123984Y-111018137D02*
X89952555Y-111103851D01*
X89952555Y-111103851D02*
X89266841Y-111103851D01*
D10*
X98823333Y-98914819D02*
X98490000Y-98438628D01*
X98251905Y-98914819D02*
X98251905Y-97914819D01*
X98251905Y-97914819D02*
X98632857Y-97914819D01*
X98632857Y-97914819D02*
X98728095Y-97962438D01*
X98728095Y-97962438D02*
X98775714Y-98010057D01*
X98775714Y-98010057D02*
X98823333Y-98105295D01*
X98823333Y-98105295D02*
X98823333Y-98248152D01*
X98823333Y-98248152D02*
X98775714Y-98343390D01*
X98775714Y-98343390D02*
X98728095Y-98391009D01*
X98728095Y-98391009D02*
X98632857Y-98438628D01*
X98632857Y-98438628D02*
X98251905Y-98438628D01*
X99680476Y-98248152D02*
X99680476Y-98914819D01*
X99442381Y-97867200D02*
X99204286Y-98581485D01*
X99204286Y-98581485D02*
X99823333Y-98581485D01*
X116233333Y-128154819D02*
X115900000Y-127678628D01*
X115661905Y-128154819D02*
X115661905Y-127154819D01*
X115661905Y-127154819D02*
X116042857Y-127154819D01*
X116042857Y-127154819D02*
X116138095Y-127202438D01*
X116138095Y-127202438D02*
X116185714Y-127250057D01*
X116185714Y-127250057D02*
X116233333Y-127345295D01*
X116233333Y-127345295D02*
X116233333Y-127488152D01*
X116233333Y-127488152D02*
X116185714Y-127583390D01*
X116185714Y-127583390D02*
X116138095Y-127631009D01*
X116138095Y-127631009D02*
X116042857Y-127678628D01*
X116042857Y-127678628D02*
X115661905Y-127678628D01*
X116566667Y-127154819D02*
X117233333Y-127154819D01*
X117233333Y-127154819D02*
X116804762Y-128154819D01*
X116283333Y-137104819D02*
X115950000Y-136628628D01*
X115711905Y-137104819D02*
X115711905Y-136104819D01*
X115711905Y-136104819D02*
X116092857Y-136104819D01*
X116092857Y-136104819D02*
X116188095Y-136152438D01*
X116188095Y-136152438D02*
X116235714Y-136200057D01*
X116235714Y-136200057D02*
X116283333Y-136295295D01*
X116283333Y-136295295D02*
X116283333Y-136438152D01*
X116283333Y-136438152D02*
X116235714Y-136533390D01*
X116235714Y-136533390D02*
X116188095Y-136581009D01*
X116188095Y-136581009D02*
X116092857Y-136628628D01*
X116092857Y-136628628D02*
X115711905Y-136628628D01*
X116759524Y-137104819D02*
X116950000Y-137104819D01*
X116950000Y-137104819D02*
X117045238Y-137057200D01*
X117045238Y-137057200D02*
X117092857Y-137009580D01*
X117092857Y-137009580D02*
X117188095Y-136866723D01*
X117188095Y-136866723D02*
X117235714Y-136676247D01*
X117235714Y-136676247D02*
X117235714Y-136295295D01*
X117235714Y-136295295D02*
X117188095Y-136200057D01*
X117188095Y-136200057D02*
X117140476Y-136152438D01*
X117140476Y-136152438D02*
X117045238Y-136104819D01*
X117045238Y-136104819D02*
X116854762Y-136104819D01*
X116854762Y-136104819D02*
X116759524Y-136152438D01*
X116759524Y-136152438D02*
X116711905Y-136200057D01*
X116711905Y-136200057D02*
X116664286Y-136295295D01*
X116664286Y-136295295D02*
X116664286Y-136533390D01*
X116664286Y-136533390D02*
X116711905Y-136628628D01*
X116711905Y-136628628D02*
X116759524Y-136676247D01*
X116759524Y-136676247D02*
X116854762Y-136723866D01*
X116854762Y-136723866D02*
X117045238Y-136723866D01*
X117045238Y-136723866D02*
X117140476Y-136676247D01*
X117140476Y-136676247D02*
X117188095Y-136628628D01*
X117188095Y-136628628D02*
X117235714Y-136533390D01*
X122484819Y-142503333D02*
X123199104Y-142503333D01*
X123199104Y-142503333D02*
X123341961Y-142550952D01*
X123341961Y-142550952D02*
X123437200Y-142646190D01*
X123437200Y-142646190D02*
X123484819Y-142789047D01*
X123484819Y-142789047D02*
X123484819Y-142884285D01*
X122484819Y-141598571D02*
X122484819Y-141789047D01*
X122484819Y-141789047D02*
X122532438Y-141884285D01*
X122532438Y-141884285D02*
X122580057Y-141931904D01*
X122580057Y-141931904D02*
X122722914Y-142027142D01*
X122722914Y-142027142D02*
X122913390Y-142074761D01*
X122913390Y-142074761D02*
X123294342Y-142074761D01*
X123294342Y-142074761D02*
X123389580Y-142027142D01*
X123389580Y-142027142D02*
X123437200Y-141979523D01*
X123437200Y-141979523D02*
X123484819Y-141884285D01*
X123484819Y-141884285D02*
X123484819Y-141693809D01*
X123484819Y-141693809D02*
X123437200Y-141598571D01*
X123437200Y-141598571D02*
X123389580Y-141550952D01*
X123389580Y-141550952D02*
X123294342Y-141503333D01*
X123294342Y-141503333D02*
X123056247Y-141503333D01*
X123056247Y-141503333D02*
X122961009Y-141550952D01*
X122961009Y-141550952D02*
X122913390Y-141598571D01*
X122913390Y-141598571D02*
X122865771Y-141693809D01*
X122865771Y-141693809D02*
X122865771Y-141884285D01*
X122865771Y-141884285D02*
X122913390Y-141979523D01*
X122913390Y-141979523D02*
X122961009Y-142027142D01*
X122961009Y-142027142D02*
X123056247Y-142074761D01*
X66254819Y-90953333D02*
X66969104Y-90953333D01*
X66969104Y-90953333D02*
X67111961Y-91000952D01*
X67111961Y-91000952D02*
X67207200Y-91096190D01*
X67207200Y-91096190D02*
X67254819Y-91239047D01*
X67254819Y-91239047D02*
X67254819Y-91334285D01*
X67254819Y-89953333D02*
X67254819Y-90524761D01*
X67254819Y-90239047D02*
X66254819Y-90239047D01*
X66254819Y-90239047D02*
X66397676Y-90334285D01*
X66397676Y-90334285D02*
X66492914Y-90429523D01*
X66492914Y-90429523D02*
X66540533Y-90524761D01*
X104966666Y-136274819D02*
X104966666Y-136989104D01*
X104966666Y-136989104D02*
X104919047Y-137131961D01*
X104919047Y-137131961D02*
X104823809Y-137227200D01*
X104823809Y-137227200D02*
X104680952Y-137274819D01*
X104680952Y-137274819D02*
X104585714Y-137274819D01*
X105871428Y-136608152D02*
X105871428Y-137274819D01*
X105633333Y-136227200D02*
X105395238Y-136941485D01*
X105395238Y-136941485D02*
X106014285Y-136941485D01*
X105958095Y-99234819D02*
X105958095Y-100044342D01*
X105958095Y-100044342D02*
X106005714Y-100139580D01*
X106005714Y-100139580D02*
X106053333Y-100187200D01*
X106053333Y-100187200D02*
X106148571Y-100234819D01*
X106148571Y-100234819D02*
X106339047Y-100234819D01*
X106339047Y-100234819D02*
X106434285Y-100187200D01*
X106434285Y-100187200D02*
X106481904Y-100139580D01*
X106481904Y-100139580D02*
X106529523Y-100044342D01*
X106529523Y-100044342D02*
X106529523Y-99234819D01*
X106958095Y-99330057D02*
X107005714Y-99282438D01*
X107005714Y-99282438D02*
X107100952Y-99234819D01*
X107100952Y-99234819D02*
X107339047Y-99234819D01*
X107339047Y-99234819D02*
X107434285Y-99282438D01*
X107434285Y-99282438D02*
X107481904Y-99330057D01*
X107481904Y-99330057D02*
X107529523Y-99425295D01*
X107529523Y-99425295D02*
X107529523Y-99520533D01*
X107529523Y-99520533D02*
X107481904Y-99663390D01*
X107481904Y-99663390D02*
X106910476Y-100234819D01*
X106910476Y-100234819D02*
X107529523Y-100234819D01*
X80731905Y-106584819D02*
X80731905Y-105584819D01*
X80731905Y-105584819D02*
X80970000Y-105584819D01*
X80970000Y-105584819D02*
X81112857Y-105632438D01*
X81112857Y-105632438D02*
X81208095Y-105727676D01*
X81208095Y-105727676D02*
X81255714Y-105822914D01*
X81255714Y-105822914D02*
X81303333Y-106013390D01*
X81303333Y-106013390D02*
X81303333Y-106156247D01*
X81303333Y-106156247D02*
X81255714Y-106346723D01*
X81255714Y-106346723D02*
X81208095Y-106441961D01*
X81208095Y-106441961D02*
X81112857Y-106537200D01*
X81112857Y-106537200D02*
X80970000Y-106584819D01*
X80970000Y-106584819D02*
X80731905Y-106584819D01*
X82255714Y-106584819D02*
X81684286Y-106584819D01*
X81970000Y-106584819D02*
X81970000Y-105584819D01*
X81970000Y-105584819D02*
X81874762Y-105727676D01*
X81874762Y-105727676D02*
X81779524Y-105822914D01*
X81779524Y-105822914D02*
X81684286Y-105870533D01*
X129004819Y-116456666D02*
X128528628Y-116789999D01*
X129004819Y-117028094D02*
X128004819Y-117028094D01*
X128004819Y-117028094D02*
X128004819Y-116647142D01*
X128004819Y-116647142D02*
X128052438Y-116551904D01*
X128052438Y-116551904D02*
X128100057Y-116504285D01*
X128100057Y-116504285D02*
X128195295Y-116456666D01*
X128195295Y-116456666D02*
X128338152Y-116456666D01*
X128338152Y-116456666D02*
X128433390Y-116504285D01*
X128433390Y-116504285D02*
X128481009Y-116551904D01*
X128481009Y-116551904D02*
X128528628Y-116647142D01*
X128528628Y-116647142D02*
X128528628Y-117028094D01*
X128004819Y-116123332D02*
X128004819Y-115504285D01*
X128004819Y-115504285D02*
X128385771Y-115837618D01*
X128385771Y-115837618D02*
X128385771Y-115694761D01*
X128385771Y-115694761D02*
X128433390Y-115599523D01*
X128433390Y-115599523D02*
X128481009Y-115551904D01*
X128481009Y-115551904D02*
X128576247Y-115504285D01*
X128576247Y-115504285D02*
X128814342Y-115504285D01*
X128814342Y-115504285D02*
X128909580Y-115551904D01*
X128909580Y-115551904D02*
X128957200Y-115599523D01*
X128957200Y-115599523D02*
X129004819Y-115694761D01*
X129004819Y-115694761D02*
X129004819Y-115980475D01*
X129004819Y-115980475D02*
X128957200Y-116075713D01*
X128957200Y-116075713D02*
X128909580Y-116123332D01*
X98407142Y-108694819D02*
X98073809Y-108218628D01*
X97835714Y-108694819D02*
X97835714Y-107694819D01*
X97835714Y-107694819D02*
X98216666Y-107694819D01*
X98216666Y-107694819D02*
X98311904Y-107742438D01*
X98311904Y-107742438D02*
X98359523Y-107790057D01*
X98359523Y-107790057D02*
X98407142Y-107885295D01*
X98407142Y-107885295D02*
X98407142Y-108028152D01*
X98407142Y-108028152D02*
X98359523Y-108123390D01*
X98359523Y-108123390D02*
X98311904Y-108171009D01*
X98311904Y-108171009D02*
X98216666Y-108218628D01*
X98216666Y-108218628D02*
X97835714Y-108218628D01*
X99359523Y-108694819D02*
X98788095Y-108694819D01*
X99073809Y-108694819D02*
X99073809Y-107694819D01*
X99073809Y-107694819D02*
X98978571Y-107837676D01*
X98978571Y-107837676D02*
X98883333Y-107932914D01*
X98883333Y-107932914D02*
X98788095Y-107980533D01*
X99692857Y-107694819D02*
X100311904Y-107694819D01*
X100311904Y-107694819D02*
X99978571Y-108075771D01*
X99978571Y-108075771D02*
X100121428Y-108075771D01*
X100121428Y-108075771D02*
X100216666Y-108123390D01*
X100216666Y-108123390D02*
X100264285Y-108171009D01*
X100264285Y-108171009D02*
X100311904Y-108266247D01*
X100311904Y-108266247D02*
X100311904Y-108504342D01*
X100311904Y-108504342D02*
X100264285Y-108599580D01*
X100264285Y-108599580D02*
X100216666Y-108647200D01*
X100216666Y-108647200D02*
X100121428Y-108694819D01*
X100121428Y-108694819D02*
X99835714Y-108694819D01*
X99835714Y-108694819D02*
X99740476Y-108647200D01*
X99740476Y-108647200D02*
X99692857Y-108599580D01*
D14*
X63594380Y-139239842D02*
X63775809Y-139300318D01*
X63775809Y-139300318D02*
X64078190Y-139300318D01*
X64078190Y-139300318D02*
X64199142Y-139239842D01*
X64199142Y-139239842D02*
X64259618Y-139179365D01*
X64259618Y-139179365D02*
X64320095Y-139058413D01*
X64320095Y-139058413D02*
X64320095Y-138937461D01*
X64320095Y-138937461D02*
X64259618Y-138816508D01*
X64259618Y-138816508D02*
X64199142Y-138756032D01*
X64199142Y-138756032D02*
X64078190Y-138695556D01*
X64078190Y-138695556D02*
X63836285Y-138635080D01*
X63836285Y-138635080D02*
X63715333Y-138574603D01*
X63715333Y-138574603D02*
X63654856Y-138514127D01*
X63654856Y-138514127D02*
X63594380Y-138393175D01*
X63594380Y-138393175D02*
X63594380Y-138272222D01*
X63594380Y-138272222D02*
X63654856Y-138151270D01*
X63654856Y-138151270D02*
X63715333Y-138090794D01*
X63715333Y-138090794D02*
X63836285Y-138030318D01*
X63836285Y-138030318D02*
X64138666Y-138030318D01*
X64138666Y-138030318D02*
X64320095Y-138090794D01*
X64803904Y-138151270D02*
X64864380Y-138090794D01*
X64864380Y-138090794D02*
X64985333Y-138030318D01*
X64985333Y-138030318D02*
X65287714Y-138030318D01*
X65287714Y-138030318D02*
X65408666Y-138090794D01*
X65408666Y-138090794D02*
X65469142Y-138151270D01*
X65469142Y-138151270D02*
X65529619Y-138272222D01*
X65529619Y-138272222D02*
X65529619Y-138393175D01*
X65529619Y-138393175D02*
X65469142Y-138574603D01*
X65469142Y-138574603D02*
X64743428Y-139300318D01*
X64743428Y-139300318D02*
X65529619Y-139300318D01*
D10*
X98251905Y-132894819D02*
X98251905Y-131894819D01*
X98251905Y-131894819D02*
X98490000Y-131894819D01*
X98490000Y-131894819D02*
X98632857Y-131942438D01*
X98632857Y-131942438D02*
X98728095Y-132037676D01*
X98728095Y-132037676D02*
X98775714Y-132132914D01*
X98775714Y-132132914D02*
X98823333Y-132323390D01*
X98823333Y-132323390D02*
X98823333Y-132466247D01*
X98823333Y-132466247D02*
X98775714Y-132656723D01*
X98775714Y-132656723D02*
X98728095Y-132751961D01*
X98728095Y-132751961D02*
X98632857Y-132847200D01*
X98632857Y-132847200D02*
X98490000Y-132894819D01*
X98490000Y-132894819D02*
X98251905Y-132894819D01*
X99156667Y-131894819D02*
X99775714Y-131894819D01*
X99775714Y-131894819D02*
X99442381Y-132275771D01*
X99442381Y-132275771D02*
X99585238Y-132275771D01*
X99585238Y-132275771D02*
X99680476Y-132323390D01*
X99680476Y-132323390D02*
X99728095Y-132371009D01*
X99728095Y-132371009D02*
X99775714Y-132466247D01*
X99775714Y-132466247D02*
X99775714Y-132704342D01*
X99775714Y-132704342D02*
X99728095Y-132799580D01*
X99728095Y-132799580D02*
X99680476Y-132847200D01*
X99680476Y-132847200D02*
X99585238Y-132894819D01*
X99585238Y-132894819D02*
X99299524Y-132894819D01*
X99299524Y-132894819D02*
X99204286Y-132847200D01*
X99204286Y-132847200D02*
X99156667Y-132799580D01*
X101268095Y-132474819D02*
X101268095Y-131474819D01*
X101839523Y-132474819D02*
X101410952Y-131903390D01*
X101839523Y-131474819D02*
X101268095Y-132046247D01*
X85753333Y-132694819D02*
X85420000Y-132218628D01*
X85181905Y-132694819D02*
X85181905Y-131694819D01*
X85181905Y-131694819D02*
X85562857Y-131694819D01*
X85562857Y-131694819D02*
X85658095Y-131742438D01*
X85658095Y-131742438D02*
X85705714Y-131790057D01*
X85705714Y-131790057D02*
X85753333Y-131885295D01*
X85753333Y-131885295D02*
X85753333Y-132028152D01*
X85753333Y-132028152D02*
X85705714Y-132123390D01*
X85705714Y-132123390D02*
X85658095Y-132171009D01*
X85658095Y-132171009D02*
X85562857Y-132218628D01*
X85562857Y-132218628D02*
X85181905Y-132218628D01*
X86705714Y-132694819D02*
X86134286Y-132694819D01*
X86420000Y-132694819D02*
X86420000Y-131694819D01*
X86420000Y-131694819D02*
X86324762Y-131837676D01*
X86324762Y-131837676D02*
X86229524Y-131932914D01*
X86229524Y-131932914D02*
X86134286Y-131980533D01*
X129104819Y-131232857D02*
X128628628Y-131566190D01*
X129104819Y-131804285D02*
X128104819Y-131804285D01*
X128104819Y-131804285D02*
X128104819Y-131423333D01*
X128104819Y-131423333D02*
X128152438Y-131328095D01*
X128152438Y-131328095D02*
X128200057Y-131280476D01*
X128200057Y-131280476D02*
X128295295Y-131232857D01*
X128295295Y-131232857D02*
X128438152Y-131232857D01*
X128438152Y-131232857D02*
X128533390Y-131280476D01*
X128533390Y-131280476D02*
X128581009Y-131328095D01*
X128581009Y-131328095D02*
X128628628Y-131423333D01*
X128628628Y-131423333D02*
X128628628Y-131804285D01*
X129104819Y-130280476D02*
X129104819Y-130851904D01*
X129104819Y-130566190D02*
X128104819Y-130566190D01*
X128104819Y-130566190D02*
X128247676Y-130661428D01*
X128247676Y-130661428D02*
X128342914Y-130756666D01*
X128342914Y-130756666D02*
X128390533Y-130851904D01*
X129104819Y-129328095D02*
X129104819Y-129899523D01*
X129104819Y-129613809D02*
X128104819Y-129613809D01*
X128104819Y-129613809D02*
X128247676Y-129709047D01*
X128247676Y-129709047D02*
X128342914Y-129804285D01*
X128342914Y-129804285D02*
X128390533Y-129899523D01*
X98337142Y-122804819D02*
X98003809Y-122328628D01*
X97765714Y-122804819D02*
X97765714Y-121804819D01*
X97765714Y-121804819D02*
X98146666Y-121804819D01*
X98146666Y-121804819D02*
X98241904Y-121852438D01*
X98241904Y-121852438D02*
X98289523Y-121900057D01*
X98289523Y-121900057D02*
X98337142Y-121995295D01*
X98337142Y-121995295D02*
X98337142Y-122138152D01*
X98337142Y-122138152D02*
X98289523Y-122233390D01*
X98289523Y-122233390D02*
X98241904Y-122281009D01*
X98241904Y-122281009D02*
X98146666Y-122328628D01*
X98146666Y-122328628D02*
X97765714Y-122328628D01*
X99289523Y-122804819D02*
X98718095Y-122804819D01*
X99003809Y-122804819D02*
X99003809Y-121804819D01*
X99003809Y-121804819D02*
X98908571Y-121947676D01*
X98908571Y-121947676D02*
X98813333Y-122042914D01*
X98813333Y-122042914D02*
X98718095Y-122090533D01*
X100146666Y-121804819D02*
X99956190Y-121804819D01*
X99956190Y-121804819D02*
X99860952Y-121852438D01*
X99860952Y-121852438D02*
X99813333Y-121900057D01*
X99813333Y-121900057D02*
X99718095Y-122042914D01*
X99718095Y-122042914D02*
X99670476Y-122233390D01*
X99670476Y-122233390D02*
X99670476Y-122614342D01*
X99670476Y-122614342D02*
X99718095Y-122709580D01*
X99718095Y-122709580D02*
X99765714Y-122757200D01*
X99765714Y-122757200D02*
X99860952Y-122804819D01*
X99860952Y-122804819D02*
X100051428Y-122804819D01*
X100051428Y-122804819D02*
X100146666Y-122757200D01*
X100146666Y-122757200D02*
X100194285Y-122709580D01*
X100194285Y-122709580D02*
X100241904Y-122614342D01*
X100241904Y-122614342D02*
X100241904Y-122376247D01*
X100241904Y-122376247D02*
X100194285Y-122281009D01*
X100194285Y-122281009D02*
X100146666Y-122233390D01*
X100146666Y-122233390D02*
X100051428Y-122185771D01*
X100051428Y-122185771D02*
X99860952Y-122185771D01*
X99860952Y-122185771D02*
X99765714Y-122233390D01*
X99765714Y-122233390D02*
X99718095Y-122281009D01*
X99718095Y-122281009D02*
X99670476Y-122376247D01*
X98357142Y-103894819D02*
X98023809Y-103418628D01*
X97785714Y-103894819D02*
X97785714Y-102894819D01*
X97785714Y-102894819D02*
X98166666Y-102894819D01*
X98166666Y-102894819D02*
X98261904Y-102942438D01*
X98261904Y-102942438D02*
X98309523Y-102990057D01*
X98309523Y-102990057D02*
X98357142Y-103085295D01*
X98357142Y-103085295D02*
X98357142Y-103228152D01*
X98357142Y-103228152D02*
X98309523Y-103323390D01*
X98309523Y-103323390D02*
X98261904Y-103371009D01*
X98261904Y-103371009D02*
X98166666Y-103418628D01*
X98166666Y-103418628D02*
X97785714Y-103418628D01*
X99309523Y-103894819D02*
X98738095Y-103894819D01*
X99023809Y-103894819D02*
X99023809Y-102894819D01*
X99023809Y-102894819D02*
X98928571Y-103037676D01*
X98928571Y-103037676D02*
X98833333Y-103132914D01*
X98833333Y-103132914D02*
X98738095Y-103180533D01*
X99690476Y-102990057D02*
X99738095Y-102942438D01*
X99738095Y-102942438D02*
X99833333Y-102894819D01*
X99833333Y-102894819D02*
X100071428Y-102894819D01*
X100071428Y-102894819D02*
X100166666Y-102942438D01*
X100166666Y-102942438D02*
X100214285Y-102990057D01*
X100214285Y-102990057D02*
X100261904Y-103085295D01*
X100261904Y-103085295D02*
X100261904Y-103180533D01*
X100261904Y-103180533D02*
X100214285Y-103323390D01*
X100214285Y-103323390D02*
X99642857Y-103894819D01*
X99642857Y-103894819D02*
X100261904Y-103894819D01*
D14*
X132836667Y-92574318D02*
X132836667Y-93481461D01*
X132836667Y-93481461D02*
X132776190Y-93662889D01*
X132776190Y-93662889D02*
X132655238Y-93783842D01*
X132655238Y-93783842D02*
X132473809Y-93844318D01*
X132473809Y-93844318D02*
X132352857Y-93844318D01*
X134046190Y-92574318D02*
X133441428Y-92574318D01*
X133441428Y-92574318D02*
X133380952Y-93179080D01*
X133380952Y-93179080D02*
X133441428Y-93118603D01*
X133441428Y-93118603D02*
X133562381Y-93058127D01*
X133562381Y-93058127D02*
X133864762Y-93058127D01*
X133864762Y-93058127D02*
X133985714Y-93118603D01*
X133985714Y-93118603D02*
X134046190Y-93179080D01*
X134046190Y-93179080D02*
X134106667Y-93300032D01*
X134106667Y-93300032D02*
X134106667Y-93602413D01*
X134106667Y-93602413D02*
X134046190Y-93723365D01*
X134046190Y-93723365D02*
X133985714Y-93783842D01*
X133985714Y-93783842D02*
X133864762Y-93844318D01*
X133864762Y-93844318D02*
X133562381Y-93844318D01*
X133562381Y-93844318D02*
X133441428Y-93783842D01*
X133441428Y-93783842D02*
X133380952Y-93723365D01*
D10*
X81204761Y-98160057D02*
X81109523Y-98112438D01*
X81109523Y-98112438D02*
X81014285Y-98017200D01*
X81014285Y-98017200D02*
X80871428Y-97874342D01*
X80871428Y-97874342D02*
X80776190Y-97826723D01*
X80776190Y-97826723D02*
X80680952Y-97826723D01*
X80728571Y-98064819D02*
X80633333Y-98017200D01*
X80633333Y-98017200D02*
X80538095Y-97921961D01*
X80538095Y-97921961D02*
X80490476Y-97731485D01*
X80490476Y-97731485D02*
X80490476Y-97398152D01*
X80490476Y-97398152D02*
X80538095Y-97207676D01*
X80538095Y-97207676D02*
X80633333Y-97112438D01*
X80633333Y-97112438D02*
X80728571Y-97064819D01*
X80728571Y-97064819D02*
X80919047Y-97064819D01*
X80919047Y-97064819D02*
X81014285Y-97112438D01*
X81014285Y-97112438D02*
X81109523Y-97207676D01*
X81109523Y-97207676D02*
X81157142Y-97398152D01*
X81157142Y-97398152D02*
X81157142Y-97731485D01*
X81157142Y-97731485D02*
X81109523Y-97921961D01*
X81109523Y-97921961D02*
X81014285Y-98017200D01*
X81014285Y-98017200D02*
X80919047Y-98064819D01*
X80919047Y-98064819D02*
X80728571Y-98064819D01*
X81538095Y-97160057D02*
X81585714Y-97112438D01*
X81585714Y-97112438D02*
X81680952Y-97064819D01*
X81680952Y-97064819D02*
X81919047Y-97064819D01*
X81919047Y-97064819D02*
X82014285Y-97112438D01*
X82014285Y-97112438D02*
X82061904Y-97160057D01*
X82061904Y-97160057D02*
X82109523Y-97255295D01*
X82109523Y-97255295D02*
X82109523Y-97350533D01*
X82109523Y-97350533D02*
X82061904Y-97493390D01*
X82061904Y-97493390D02*
X81490476Y-98064819D01*
X81490476Y-98064819D02*
X82109523Y-98064819D01*
X85603333Y-127394819D02*
X85270000Y-126918628D01*
X85031905Y-127394819D02*
X85031905Y-126394819D01*
X85031905Y-126394819D02*
X85412857Y-126394819D01*
X85412857Y-126394819D02*
X85508095Y-126442438D01*
X85508095Y-126442438D02*
X85555714Y-126490057D01*
X85555714Y-126490057D02*
X85603333Y-126585295D01*
X85603333Y-126585295D02*
X85603333Y-126728152D01*
X85603333Y-126728152D02*
X85555714Y-126823390D01*
X85555714Y-126823390D02*
X85508095Y-126871009D01*
X85508095Y-126871009D02*
X85412857Y-126918628D01*
X85412857Y-126918628D02*
X85031905Y-126918628D01*
X86460476Y-126394819D02*
X86270000Y-126394819D01*
X86270000Y-126394819D02*
X86174762Y-126442438D01*
X86174762Y-126442438D02*
X86127143Y-126490057D01*
X86127143Y-126490057D02*
X86031905Y-126632914D01*
X86031905Y-126632914D02*
X85984286Y-126823390D01*
X85984286Y-126823390D02*
X85984286Y-127204342D01*
X85984286Y-127204342D02*
X86031905Y-127299580D01*
X86031905Y-127299580D02*
X86079524Y-127347200D01*
X86079524Y-127347200D02*
X86174762Y-127394819D01*
X86174762Y-127394819D02*
X86365238Y-127394819D01*
X86365238Y-127394819D02*
X86460476Y-127347200D01*
X86460476Y-127347200D02*
X86508095Y-127299580D01*
X86508095Y-127299580D02*
X86555714Y-127204342D01*
X86555714Y-127204342D02*
X86555714Y-126966247D01*
X86555714Y-126966247D02*
X86508095Y-126871009D01*
X86508095Y-126871009D02*
X86460476Y-126823390D01*
X86460476Y-126823390D02*
X86365238Y-126775771D01*
X86365238Y-126775771D02*
X86174762Y-126775771D01*
X86174762Y-126775771D02*
X86079524Y-126823390D01*
X86079524Y-126823390D02*
X86031905Y-126871009D01*
X86031905Y-126871009D02*
X85984286Y-126966247D01*
D14*
X57966667Y-110664318D02*
X57966667Y-111571461D01*
X57966667Y-111571461D02*
X57906190Y-111752889D01*
X57906190Y-111752889D02*
X57785238Y-111873842D01*
X57785238Y-111873842D02*
X57603809Y-111934318D01*
X57603809Y-111934318D02*
X57482857Y-111934318D01*
X58510952Y-110785270D02*
X58571428Y-110724794D01*
X58571428Y-110724794D02*
X58692381Y-110664318D01*
X58692381Y-110664318D02*
X58994762Y-110664318D01*
X58994762Y-110664318D02*
X59115714Y-110724794D01*
X59115714Y-110724794D02*
X59176190Y-110785270D01*
X59176190Y-110785270D02*
X59236667Y-110906222D01*
X59236667Y-110906222D02*
X59236667Y-111027175D01*
X59236667Y-111027175D02*
X59176190Y-111208603D01*
X59176190Y-111208603D02*
X58450476Y-111934318D01*
X58450476Y-111934318D02*
X59236667Y-111934318D01*
D10*
X129493333Y-110319580D02*
X129445714Y-110367200D01*
X129445714Y-110367200D02*
X129302857Y-110414819D01*
X129302857Y-110414819D02*
X129207619Y-110414819D01*
X129207619Y-110414819D02*
X129064762Y-110367200D01*
X129064762Y-110367200D02*
X128969524Y-110271961D01*
X128969524Y-110271961D02*
X128921905Y-110176723D01*
X128921905Y-110176723D02*
X128874286Y-109986247D01*
X128874286Y-109986247D02*
X128874286Y-109843390D01*
X128874286Y-109843390D02*
X128921905Y-109652914D01*
X128921905Y-109652914D02*
X128969524Y-109557676D01*
X128969524Y-109557676D02*
X129064762Y-109462438D01*
X129064762Y-109462438D02*
X129207619Y-109414819D01*
X129207619Y-109414819D02*
X129302857Y-109414819D01*
X129302857Y-109414819D02*
X129445714Y-109462438D01*
X129445714Y-109462438D02*
X129493333Y-109510057D01*
X129874286Y-109510057D02*
X129921905Y-109462438D01*
X129921905Y-109462438D02*
X130017143Y-109414819D01*
X130017143Y-109414819D02*
X130255238Y-109414819D01*
X130255238Y-109414819D02*
X130350476Y-109462438D01*
X130350476Y-109462438D02*
X130398095Y-109510057D01*
X130398095Y-109510057D02*
X130445714Y-109605295D01*
X130445714Y-109605295D02*
X130445714Y-109700533D01*
X130445714Y-109700533D02*
X130398095Y-109843390D01*
X130398095Y-109843390D02*
X129826667Y-110414819D01*
X129826667Y-110414819D02*
X130445714Y-110414819D01*
X85703333Y-122904819D02*
X85370000Y-122428628D01*
X85131905Y-122904819D02*
X85131905Y-121904819D01*
X85131905Y-121904819D02*
X85512857Y-121904819D01*
X85512857Y-121904819D02*
X85608095Y-121952438D01*
X85608095Y-121952438D02*
X85655714Y-122000057D01*
X85655714Y-122000057D02*
X85703333Y-122095295D01*
X85703333Y-122095295D02*
X85703333Y-122238152D01*
X85703333Y-122238152D02*
X85655714Y-122333390D01*
X85655714Y-122333390D02*
X85608095Y-122381009D01*
X85608095Y-122381009D02*
X85512857Y-122428628D01*
X85512857Y-122428628D02*
X85131905Y-122428628D01*
X86274762Y-122333390D02*
X86179524Y-122285771D01*
X86179524Y-122285771D02*
X86131905Y-122238152D01*
X86131905Y-122238152D02*
X86084286Y-122142914D01*
X86084286Y-122142914D02*
X86084286Y-122095295D01*
X86084286Y-122095295D02*
X86131905Y-122000057D01*
X86131905Y-122000057D02*
X86179524Y-121952438D01*
X86179524Y-121952438D02*
X86274762Y-121904819D01*
X86274762Y-121904819D02*
X86465238Y-121904819D01*
X86465238Y-121904819D02*
X86560476Y-121952438D01*
X86560476Y-121952438D02*
X86608095Y-122000057D01*
X86608095Y-122000057D02*
X86655714Y-122095295D01*
X86655714Y-122095295D02*
X86655714Y-122142914D01*
X86655714Y-122142914D02*
X86608095Y-122238152D01*
X86608095Y-122238152D02*
X86560476Y-122285771D01*
X86560476Y-122285771D02*
X86465238Y-122333390D01*
X86465238Y-122333390D02*
X86274762Y-122333390D01*
X86274762Y-122333390D02*
X86179524Y-122381009D01*
X86179524Y-122381009D02*
X86131905Y-122428628D01*
X86131905Y-122428628D02*
X86084286Y-122523866D01*
X86084286Y-122523866D02*
X86084286Y-122714342D01*
X86084286Y-122714342D02*
X86131905Y-122809580D01*
X86131905Y-122809580D02*
X86179524Y-122857200D01*
X86179524Y-122857200D02*
X86274762Y-122904819D01*
X86274762Y-122904819D02*
X86465238Y-122904819D01*
X86465238Y-122904819D02*
X86560476Y-122857200D01*
X86560476Y-122857200D02*
X86608095Y-122809580D01*
X86608095Y-122809580D02*
X86655714Y-122714342D01*
X86655714Y-122714342D02*
X86655714Y-122523866D01*
X86655714Y-122523866D02*
X86608095Y-122428628D01*
X86608095Y-122428628D02*
X86560476Y-122381009D01*
X86560476Y-122381009D02*
X86465238Y-122333390D01*
D14*
X69102380Y-95463842D02*
X69283809Y-95524318D01*
X69283809Y-95524318D02*
X69586190Y-95524318D01*
X69586190Y-95524318D02*
X69707142Y-95463842D01*
X69707142Y-95463842D02*
X69767618Y-95403365D01*
X69767618Y-95403365D02*
X69828095Y-95282413D01*
X69828095Y-95282413D02*
X69828095Y-95161461D01*
X69828095Y-95161461D02*
X69767618Y-95040508D01*
X69767618Y-95040508D02*
X69707142Y-94980032D01*
X69707142Y-94980032D02*
X69586190Y-94919556D01*
X69586190Y-94919556D02*
X69344285Y-94859080D01*
X69344285Y-94859080D02*
X69223333Y-94798603D01*
X69223333Y-94798603D02*
X69162856Y-94738127D01*
X69162856Y-94738127D02*
X69102380Y-94617175D01*
X69102380Y-94617175D02*
X69102380Y-94496222D01*
X69102380Y-94496222D02*
X69162856Y-94375270D01*
X69162856Y-94375270D02*
X69223333Y-94314794D01*
X69223333Y-94314794D02*
X69344285Y-94254318D01*
X69344285Y-94254318D02*
X69646666Y-94254318D01*
X69646666Y-94254318D02*
X69828095Y-94314794D01*
X71037619Y-95524318D02*
X70311904Y-95524318D01*
X70674761Y-95524318D02*
X70674761Y-94254318D01*
X70674761Y-94254318D02*
X70553809Y-94435746D01*
X70553809Y-94435746D02*
X70432857Y-94556699D01*
X70432857Y-94556699D02*
X70311904Y-94617175D01*
D10*
X73136905Y-121224819D02*
X73136905Y-120224819D01*
X73136905Y-120224819D02*
X73375000Y-120224819D01*
X73375000Y-120224819D02*
X73517857Y-120272438D01*
X73517857Y-120272438D02*
X73613095Y-120367676D01*
X73613095Y-120367676D02*
X73660714Y-120462914D01*
X73660714Y-120462914D02*
X73708333Y-120653390D01*
X73708333Y-120653390D02*
X73708333Y-120796247D01*
X73708333Y-120796247D02*
X73660714Y-120986723D01*
X73660714Y-120986723D02*
X73613095Y-121081961D01*
X73613095Y-121081961D02*
X73517857Y-121177200D01*
X73517857Y-121177200D02*
X73375000Y-121224819D01*
X73375000Y-121224819D02*
X73136905Y-121224819D01*
X74089286Y-120320057D02*
X74136905Y-120272438D01*
X74136905Y-120272438D02*
X74232143Y-120224819D01*
X74232143Y-120224819D02*
X74470238Y-120224819D01*
X74470238Y-120224819D02*
X74565476Y-120272438D01*
X74565476Y-120272438D02*
X74613095Y-120320057D01*
X74613095Y-120320057D02*
X74660714Y-120415295D01*
X74660714Y-120415295D02*
X74660714Y-120510533D01*
X74660714Y-120510533D02*
X74613095Y-120653390D01*
X74613095Y-120653390D02*
X74041667Y-121224819D01*
X74041667Y-121224819D02*
X74660714Y-121224819D01*
X106923333Y-127929580D02*
X106875714Y-127977200D01*
X106875714Y-127977200D02*
X106732857Y-128024819D01*
X106732857Y-128024819D02*
X106637619Y-128024819D01*
X106637619Y-128024819D02*
X106494762Y-127977200D01*
X106494762Y-127977200D02*
X106399524Y-127881961D01*
X106399524Y-127881961D02*
X106351905Y-127786723D01*
X106351905Y-127786723D02*
X106304286Y-127596247D01*
X106304286Y-127596247D02*
X106304286Y-127453390D01*
X106304286Y-127453390D02*
X106351905Y-127262914D01*
X106351905Y-127262914D02*
X106399524Y-127167676D01*
X106399524Y-127167676D02*
X106494762Y-127072438D01*
X106494762Y-127072438D02*
X106637619Y-127024819D01*
X106637619Y-127024819D02*
X106732857Y-127024819D01*
X106732857Y-127024819D02*
X106875714Y-127072438D01*
X106875714Y-127072438D02*
X106923333Y-127120057D01*
X107256667Y-127024819D02*
X107875714Y-127024819D01*
X107875714Y-127024819D02*
X107542381Y-127405771D01*
X107542381Y-127405771D02*
X107685238Y-127405771D01*
X107685238Y-127405771D02*
X107780476Y-127453390D01*
X107780476Y-127453390D02*
X107828095Y-127501009D01*
X107828095Y-127501009D02*
X107875714Y-127596247D01*
X107875714Y-127596247D02*
X107875714Y-127834342D01*
X107875714Y-127834342D02*
X107828095Y-127929580D01*
X107828095Y-127929580D02*
X107780476Y-127977200D01*
X107780476Y-127977200D02*
X107685238Y-128024819D01*
X107685238Y-128024819D02*
X107399524Y-128024819D01*
X107399524Y-128024819D02*
X107304286Y-127977200D01*
X107304286Y-127977200D02*
X107256667Y-127929580D01*
X70431009Y-121800952D02*
X70478628Y-121658095D01*
X70478628Y-121658095D02*
X70526247Y-121610476D01*
X70526247Y-121610476D02*
X70621485Y-121562857D01*
X70621485Y-121562857D02*
X70764342Y-121562857D01*
X70764342Y-121562857D02*
X70859580Y-121610476D01*
X70859580Y-121610476D02*
X70907200Y-121658095D01*
X70907200Y-121658095D02*
X70954819Y-121753333D01*
X70954819Y-121753333D02*
X70954819Y-122134285D01*
X70954819Y-122134285D02*
X69954819Y-122134285D01*
X69954819Y-122134285D02*
X69954819Y-121800952D01*
X69954819Y-121800952D02*
X70002438Y-121705714D01*
X70002438Y-121705714D02*
X70050057Y-121658095D01*
X70050057Y-121658095D02*
X70145295Y-121610476D01*
X70145295Y-121610476D02*
X70240533Y-121610476D01*
X70240533Y-121610476D02*
X70335771Y-121658095D01*
X70335771Y-121658095D02*
X70383390Y-121705714D01*
X70383390Y-121705714D02*
X70431009Y-121800952D01*
X70431009Y-121800952D02*
X70431009Y-122134285D01*
X69954819Y-121229523D02*
X69954819Y-120562857D01*
X69954819Y-120562857D02*
X70954819Y-121229523D01*
X70954819Y-121229523D02*
X70954819Y-120562857D01*
X70954819Y-119658095D02*
X70954819Y-120229523D01*
X70954819Y-119943809D02*
X69954819Y-119943809D01*
X69954819Y-119943809D02*
X70097676Y-120039047D01*
X70097676Y-120039047D02*
X70192914Y-120134285D01*
X70192914Y-120134285D02*
X70240533Y-120229523D01*
X65913866Y-117490951D02*
X65913866Y-116729047D01*
X66294819Y-117109999D02*
X65532914Y-117109999D01*
X137534761Y-135070057D02*
X137439523Y-135022438D01*
X137439523Y-135022438D02*
X137344285Y-134927200D01*
X137344285Y-134927200D02*
X137201428Y-134784342D01*
X137201428Y-134784342D02*
X137106190Y-134736723D01*
X137106190Y-134736723D02*
X137010952Y-134736723D01*
X137058571Y-134974819D02*
X136963333Y-134927200D01*
X136963333Y-134927200D02*
X136868095Y-134831961D01*
X136868095Y-134831961D02*
X136820476Y-134641485D01*
X136820476Y-134641485D02*
X136820476Y-134308152D01*
X136820476Y-134308152D02*
X136868095Y-134117676D01*
X136868095Y-134117676D02*
X136963333Y-134022438D01*
X136963333Y-134022438D02*
X137058571Y-133974819D01*
X137058571Y-133974819D02*
X137249047Y-133974819D01*
X137249047Y-133974819D02*
X137344285Y-134022438D01*
X137344285Y-134022438D02*
X137439523Y-134117676D01*
X137439523Y-134117676D02*
X137487142Y-134308152D01*
X137487142Y-134308152D02*
X137487142Y-134641485D01*
X137487142Y-134641485D02*
X137439523Y-134831961D01*
X137439523Y-134831961D02*
X137344285Y-134927200D01*
X137344285Y-134927200D02*
X137249047Y-134974819D01*
X137249047Y-134974819D02*
X137058571Y-134974819D01*
X138439523Y-134974819D02*
X137868095Y-134974819D01*
X138153809Y-134974819D02*
X138153809Y-133974819D01*
X138153809Y-133974819D02*
X138058571Y-134117676D01*
X138058571Y-134117676D02*
X137963333Y-134212914D01*
X137963333Y-134212914D02*
X137868095Y-134260533D01*
X98307142Y-113354819D02*
X97973809Y-112878628D01*
X97735714Y-113354819D02*
X97735714Y-112354819D01*
X97735714Y-112354819D02*
X98116666Y-112354819D01*
X98116666Y-112354819D02*
X98211904Y-112402438D01*
X98211904Y-112402438D02*
X98259523Y-112450057D01*
X98259523Y-112450057D02*
X98307142Y-112545295D01*
X98307142Y-112545295D02*
X98307142Y-112688152D01*
X98307142Y-112688152D02*
X98259523Y-112783390D01*
X98259523Y-112783390D02*
X98211904Y-112831009D01*
X98211904Y-112831009D02*
X98116666Y-112878628D01*
X98116666Y-112878628D02*
X97735714Y-112878628D01*
X99259523Y-113354819D02*
X98688095Y-113354819D01*
X98973809Y-113354819D02*
X98973809Y-112354819D01*
X98973809Y-112354819D02*
X98878571Y-112497676D01*
X98878571Y-112497676D02*
X98783333Y-112592914D01*
X98783333Y-112592914D02*
X98688095Y-112640533D01*
X100116666Y-112688152D02*
X100116666Y-113354819D01*
X99878571Y-112307200D02*
X99640476Y-113021485D01*
X99640476Y-113021485D02*
X100259523Y-113021485D01*
X123663333Y-110369580D02*
X123615714Y-110417200D01*
X123615714Y-110417200D02*
X123472857Y-110464819D01*
X123472857Y-110464819D02*
X123377619Y-110464819D01*
X123377619Y-110464819D02*
X123234762Y-110417200D01*
X123234762Y-110417200D02*
X123139524Y-110321961D01*
X123139524Y-110321961D02*
X123091905Y-110226723D01*
X123091905Y-110226723D02*
X123044286Y-110036247D01*
X123044286Y-110036247D02*
X123044286Y-109893390D01*
X123044286Y-109893390D02*
X123091905Y-109702914D01*
X123091905Y-109702914D02*
X123139524Y-109607676D01*
X123139524Y-109607676D02*
X123234762Y-109512438D01*
X123234762Y-109512438D02*
X123377619Y-109464819D01*
X123377619Y-109464819D02*
X123472857Y-109464819D01*
X123472857Y-109464819D02*
X123615714Y-109512438D01*
X123615714Y-109512438D02*
X123663333Y-109560057D01*
X124615714Y-110464819D02*
X124044286Y-110464819D01*
X124330000Y-110464819D02*
X124330000Y-109464819D01*
X124330000Y-109464819D02*
X124234762Y-109607676D01*
X124234762Y-109607676D02*
X124139524Y-109702914D01*
X124139524Y-109702914D02*
X124044286Y-109750533D01*
X123214819Y-131182857D02*
X122738628Y-131516190D01*
X123214819Y-131754285D02*
X122214819Y-131754285D01*
X122214819Y-131754285D02*
X122214819Y-131373333D01*
X122214819Y-131373333D02*
X122262438Y-131278095D01*
X122262438Y-131278095D02*
X122310057Y-131230476D01*
X122310057Y-131230476D02*
X122405295Y-131182857D01*
X122405295Y-131182857D02*
X122548152Y-131182857D01*
X122548152Y-131182857D02*
X122643390Y-131230476D01*
X122643390Y-131230476D02*
X122691009Y-131278095D01*
X122691009Y-131278095D02*
X122738628Y-131373333D01*
X122738628Y-131373333D02*
X122738628Y-131754285D01*
X123214819Y-130230476D02*
X123214819Y-130801904D01*
X123214819Y-130516190D02*
X122214819Y-130516190D01*
X122214819Y-130516190D02*
X122357676Y-130611428D01*
X122357676Y-130611428D02*
X122452914Y-130706666D01*
X122452914Y-130706666D02*
X122500533Y-130801904D01*
X122214819Y-129611428D02*
X122214819Y-129516190D01*
X122214819Y-129516190D02*
X122262438Y-129420952D01*
X122262438Y-129420952D02*
X122310057Y-129373333D01*
X122310057Y-129373333D02*
X122405295Y-129325714D01*
X122405295Y-129325714D02*
X122595771Y-129278095D01*
X122595771Y-129278095D02*
X122833866Y-129278095D01*
X122833866Y-129278095D02*
X123024342Y-129325714D01*
X123024342Y-129325714D02*
X123119580Y-129373333D01*
X123119580Y-129373333D02*
X123167200Y-129420952D01*
X123167200Y-129420952D02*
X123214819Y-129516190D01*
X123214819Y-129516190D02*
X123214819Y-129611428D01*
X123214819Y-129611428D02*
X123167200Y-129706666D01*
X123167200Y-129706666D02*
X123119580Y-129754285D01*
X123119580Y-129754285D02*
X123024342Y-129801904D01*
X123024342Y-129801904D02*
X122833866Y-129849523D01*
X122833866Y-129849523D02*
X122595771Y-129849523D01*
X122595771Y-129849523D02*
X122405295Y-129801904D01*
X122405295Y-129801904D02*
X122310057Y-129754285D01*
X122310057Y-129754285D02*
X122262438Y-129706666D01*
X122262438Y-129706666D02*
X122214819Y-129611428D01*
X86076666Y-136114819D02*
X86076666Y-136829104D01*
X86076666Y-136829104D02*
X86029047Y-136971961D01*
X86029047Y-136971961D02*
X85933809Y-137067200D01*
X85933809Y-137067200D02*
X85790952Y-137114819D01*
X85790952Y-137114819D02*
X85695714Y-137114819D01*
X86457619Y-136114819D02*
X87076666Y-136114819D01*
X87076666Y-136114819D02*
X86743333Y-136495771D01*
X86743333Y-136495771D02*
X86886190Y-136495771D01*
X86886190Y-136495771D02*
X86981428Y-136543390D01*
X86981428Y-136543390D02*
X87029047Y-136591009D01*
X87029047Y-136591009D02*
X87076666Y-136686247D01*
X87076666Y-136686247D02*
X87076666Y-136924342D01*
X87076666Y-136924342D02*
X87029047Y-137019580D01*
X87029047Y-137019580D02*
X86981428Y-137067200D01*
X86981428Y-137067200D02*
X86886190Y-137114819D01*
X86886190Y-137114819D02*
X86600476Y-137114819D01*
X86600476Y-137114819D02*
X86505238Y-137067200D01*
X86505238Y-137067200D02*
X86457619Y-137019580D01*
X106118095Y-116064819D02*
X106118095Y-116874342D01*
X106118095Y-116874342D02*
X106165714Y-116969580D01*
X106165714Y-116969580D02*
X106213333Y-117017200D01*
X106213333Y-117017200D02*
X106308571Y-117064819D01*
X106308571Y-117064819D02*
X106499047Y-117064819D01*
X106499047Y-117064819D02*
X106594285Y-117017200D01*
X106594285Y-117017200D02*
X106641904Y-116969580D01*
X106641904Y-116969580D02*
X106689523Y-116874342D01*
X106689523Y-116874342D02*
X106689523Y-116064819D01*
X107070476Y-116064819D02*
X107689523Y-116064819D01*
X107689523Y-116064819D02*
X107356190Y-116445771D01*
X107356190Y-116445771D02*
X107499047Y-116445771D01*
X107499047Y-116445771D02*
X107594285Y-116493390D01*
X107594285Y-116493390D02*
X107641904Y-116541009D01*
X107641904Y-116541009D02*
X107689523Y-116636247D01*
X107689523Y-116636247D02*
X107689523Y-116874342D01*
X107689523Y-116874342D02*
X107641904Y-116969580D01*
X107641904Y-116969580D02*
X107594285Y-117017200D01*
X107594285Y-117017200D02*
X107499047Y-117064819D01*
X107499047Y-117064819D02*
X107213333Y-117064819D01*
X107213333Y-117064819D02*
X107118095Y-117017200D01*
X107118095Y-117017200D02*
X107070476Y-116969580D01*
X121630057Y-116595238D02*
X121582438Y-116690476D01*
X121582438Y-116690476D02*
X121487200Y-116785714D01*
X121487200Y-116785714D02*
X121344342Y-116928571D01*
X121344342Y-116928571D02*
X121296723Y-117023809D01*
X121296723Y-117023809D02*
X121296723Y-117119047D01*
X121534819Y-117071428D02*
X121487200Y-117166666D01*
X121487200Y-117166666D02*
X121391961Y-117261904D01*
X121391961Y-117261904D02*
X121201485Y-117309523D01*
X121201485Y-117309523D02*
X120868152Y-117309523D01*
X120868152Y-117309523D02*
X120677676Y-117261904D01*
X120677676Y-117261904D02*
X120582438Y-117166666D01*
X120582438Y-117166666D02*
X120534819Y-117071428D01*
X120534819Y-117071428D02*
X120534819Y-116880952D01*
X120534819Y-116880952D02*
X120582438Y-116785714D01*
X120582438Y-116785714D02*
X120677676Y-116690476D01*
X120677676Y-116690476D02*
X120868152Y-116642857D01*
X120868152Y-116642857D02*
X121201485Y-116642857D01*
X121201485Y-116642857D02*
X121391961Y-116690476D01*
X121391961Y-116690476D02*
X121487200Y-116785714D01*
X121487200Y-116785714D02*
X121534819Y-116880952D01*
X121534819Y-116880952D02*
X121534819Y-117071428D01*
X120534819Y-116309523D02*
X120534819Y-115690476D01*
X120534819Y-115690476D02*
X120915771Y-116023809D01*
X120915771Y-116023809D02*
X120915771Y-115880952D01*
X120915771Y-115880952D02*
X120963390Y-115785714D01*
X120963390Y-115785714D02*
X121011009Y-115738095D01*
X121011009Y-115738095D02*
X121106247Y-115690476D01*
X121106247Y-115690476D02*
X121344342Y-115690476D01*
X121344342Y-115690476D02*
X121439580Y-115738095D01*
X121439580Y-115738095D02*
X121487200Y-115785714D01*
X121487200Y-115785714D02*
X121534819Y-115880952D01*
X121534819Y-115880952D02*
X121534819Y-116166666D01*
X121534819Y-116166666D02*
X121487200Y-116261904D01*
X121487200Y-116261904D02*
X121439580Y-116309523D01*
X85813333Y-118064819D02*
X85480000Y-117588628D01*
X85241905Y-118064819D02*
X85241905Y-117064819D01*
X85241905Y-117064819D02*
X85622857Y-117064819D01*
X85622857Y-117064819D02*
X85718095Y-117112438D01*
X85718095Y-117112438D02*
X85765714Y-117160057D01*
X85765714Y-117160057D02*
X85813333Y-117255295D01*
X85813333Y-117255295D02*
X85813333Y-117398152D01*
X85813333Y-117398152D02*
X85765714Y-117493390D01*
X85765714Y-117493390D02*
X85718095Y-117541009D01*
X85718095Y-117541009D02*
X85622857Y-117588628D01*
X85622857Y-117588628D02*
X85241905Y-117588628D01*
X86718095Y-117064819D02*
X86241905Y-117064819D01*
X86241905Y-117064819D02*
X86194286Y-117541009D01*
X86194286Y-117541009D02*
X86241905Y-117493390D01*
X86241905Y-117493390D02*
X86337143Y-117445771D01*
X86337143Y-117445771D02*
X86575238Y-117445771D01*
X86575238Y-117445771D02*
X86670476Y-117493390D01*
X86670476Y-117493390D02*
X86718095Y-117541009D01*
X86718095Y-117541009D02*
X86765714Y-117636247D01*
X86765714Y-117636247D02*
X86765714Y-117874342D01*
X86765714Y-117874342D02*
X86718095Y-117969580D01*
X86718095Y-117969580D02*
X86670476Y-118017200D01*
X86670476Y-118017200D02*
X86575238Y-118064819D01*
X86575238Y-118064819D02*
X86337143Y-118064819D01*
X86337143Y-118064819D02*
X86241905Y-118017200D01*
X86241905Y-118017200D02*
X86194286Y-117969580D01*
X125908095Y-93254819D02*
X125908095Y-94064342D01*
X125908095Y-94064342D02*
X125955714Y-94159580D01*
X125955714Y-94159580D02*
X126003333Y-94207200D01*
X126003333Y-94207200D02*
X126098571Y-94254819D01*
X126098571Y-94254819D02*
X126289047Y-94254819D01*
X126289047Y-94254819D02*
X126384285Y-94207200D01*
X126384285Y-94207200D02*
X126431904Y-94159580D01*
X126431904Y-94159580D02*
X126479523Y-94064342D01*
X126479523Y-94064342D02*
X126479523Y-93254819D01*
X127479523Y-94254819D02*
X126908095Y-94254819D01*
X127193809Y-94254819D02*
X127193809Y-93254819D01*
X127193809Y-93254819D02*
X127098571Y-93397676D01*
X127098571Y-93397676D02*
X127003333Y-93492914D01*
X127003333Y-93492914D02*
X126908095Y-93540533D01*
X109293333Y-107809580D02*
X109245714Y-107857200D01*
X109245714Y-107857200D02*
X109102857Y-107904819D01*
X109102857Y-107904819D02*
X109007619Y-107904819D01*
X109007619Y-107904819D02*
X108864762Y-107857200D01*
X108864762Y-107857200D02*
X108769524Y-107761961D01*
X108769524Y-107761961D02*
X108721905Y-107666723D01*
X108721905Y-107666723D02*
X108674286Y-107476247D01*
X108674286Y-107476247D02*
X108674286Y-107333390D01*
X108674286Y-107333390D02*
X108721905Y-107142914D01*
X108721905Y-107142914D02*
X108769524Y-107047676D01*
X108769524Y-107047676D02*
X108864762Y-106952438D01*
X108864762Y-106952438D02*
X109007619Y-106904819D01*
X109007619Y-106904819D02*
X109102857Y-106904819D01*
X109102857Y-106904819D02*
X109245714Y-106952438D01*
X109245714Y-106952438D02*
X109293333Y-107000057D01*
X110150476Y-107238152D02*
X110150476Y-107904819D01*
X109912381Y-106857200D02*
X109674286Y-107571485D01*
X109674286Y-107571485D02*
X110293333Y-107571485D01*
X98387142Y-117964819D02*
X98053809Y-117488628D01*
X97815714Y-117964819D02*
X97815714Y-116964819D01*
X97815714Y-116964819D02*
X98196666Y-116964819D01*
X98196666Y-116964819D02*
X98291904Y-117012438D01*
X98291904Y-117012438D02*
X98339523Y-117060057D01*
X98339523Y-117060057D02*
X98387142Y-117155295D01*
X98387142Y-117155295D02*
X98387142Y-117298152D01*
X98387142Y-117298152D02*
X98339523Y-117393390D01*
X98339523Y-117393390D02*
X98291904Y-117441009D01*
X98291904Y-117441009D02*
X98196666Y-117488628D01*
X98196666Y-117488628D02*
X97815714Y-117488628D01*
X99339523Y-117964819D02*
X98768095Y-117964819D01*
X99053809Y-117964819D02*
X99053809Y-116964819D01*
X99053809Y-116964819D02*
X98958571Y-117107676D01*
X98958571Y-117107676D02*
X98863333Y-117202914D01*
X98863333Y-117202914D02*
X98768095Y-117250533D01*
X100244285Y-116964819D02*
X99768095Y-116964819D01*
X99768095Y-116964819D02*
X99720476Y-117441009D01*
X99720476Y-117441009D02*
X99768095Y-117393390D01*
X99768095Y-117393390D02*
X99863333Y-117345771D01*
X99863333Y-117345771D02*
X100101428Y-117345771D01*
X100101428Y-117345771D02*
X100196666Y-117393390D01*
X100196666Y-117393390D02*
X100244285Y-117441009D01*
X100244285Y-117441009D02*
X100291904Y-117536247D01*
X100291904Y-117536247D02*
X100291904Y-117774342D01*
X100291904Y-117774342D02*
X100244285Y-117869580D01*
X100244285Y-117869580D02*
X100196666Y-117917200D01*
X100196666Y-117917200D02*
X100101428Y-117964819D01*
X100101428Y-117964819D02*
X99863333Y-117964819D01*
X99863333Y-117964819D02*
X99768095Y-117917200D01*
X99768095Y-117917200D02*
X99720476Y-117869580D01*
X134064819Y-116526666D02*
X133588628Y-116859999D01*
X134064819Y-117098094D02*
X133064819Y-117098094D01*
X133064819Y-117098094D02*
X133064819Y-116717142D01*
X133064819Y-116717142D02*
X133112438Y-116621904D01*
X133112438Y-116621904D02*
X133160057Y-116574285D01*
X133160057Y-116574285D02*
X133255295Y-116526666D01*
X133255295Y-116526666D02*
X133398152Y-116526666D01*
X133398152Y-116526666D02*
X133493390Y-116574285D01*
X133493390Y-116574285D02*
X133541009Y-116621904D01*
X133541009Y-116621904D02*
X133588628Y-116717142D01*
X133588628Y-116717142D02*
X133588628Y-117098094D01*
X133160057Y-116145713D02*
X133112438Y-116098094D01*
X133112438Y-116098094D02*
X133064819Y-116002856D01*
X133064819Y-116002856D02*
X133064819Y-115764761D01*
X133064819Y-115764761D02*
X133112438Y-115669523D01*
X133112438Y-115669523D02*
X133160057Y-115621904D01*
X133160057Y-115621904D02*
X133255295Y-115574285D01*
X133255295Y-115574285D02*
X133350533Y-115574285D01*
X133350533Y-115574285D02*
X133493390Y-115621904D01*
X133493390Y-115621904D02*
X134064819Y-116193332D01*
X134064819Y-116193332D02*
X134064819Y-115574285D01*
D15*
%TO.C,R4*%
X95720000Y-94570000D02*
X102260000Y-94570000D01*
X95720000Y-94900000D02*
X95720000Y-94570000D01*
X95720000Y-96980000D02*
X95720000Y-97310000D01*
X95720000Y-97310000D02*
X102260000Y-97310000D01*
X102260000Y-94570000D02*
X102260000Y-94900000D01*
X102260000Y-97310000D02*
X102260000Y-96980000D01*
%TO.C,R7*%
X113130000Y-128700000D02*
X119670000Y-128700000D01*
X113130000Y-129030000D02*
X113130000Y-128700000D01*
X113130000Y-131110000D02*
X113130000Y-131440000D01*
X113130000Y-131440000D02*
X119670000Y-131440000D01*
X119670000Y-128700000D02*
X119670000Y-129030000D01*
X119670000Y-131440000D02*
X119670000Y-131110000D01*
%TO.C,R9*%
X119720000Y-135650000D02*
X113180000Y-135650000D01*
X119720000Y-135320000D02*
X119720000Y-135650000D01*
X119720000Y-133240000D02*
X119720000Y-132910000D01*
X119720000Y-132910000D02*
X113180000Y-132910000D01*
X113180000Y-135650000D02*
X113180000Y-135320000D01*
X113180000Y-132910000D02*
X113180000Y-133240000D01*
%TO.C,J6*%
X124030000Y-143500000D02*
X124030000Y-142170000D01*
X125360000Y-143500000D02*
X124030000Y-143500000D01*
X126630000Y-143500000D02*
X131770000Y-143500000D01*
X126630000Y-143500000D02*
X126630000Y-140840000D01*
X131770000Y-143500000D02*
X131770000Y-140840000D01*
X126630000Y-140840000D02*
X131770000Y-140840000D01*
%TO.C,J1*%
X65530000Y-85540000D02*
X57910000Y-85540000D01*
X57910000Y-85540000D02*
X57910000Y-95700000D01*
X65530000Y-95700000D02*
X65530000Y-85540000D01*
X59180000Y-95700000D02*
X59180000Y-85540000D01*
X57910000Y-95700000D02*
X65530000Y-95700000D01*
%TO.C,J4*%
X100220000Y-138090000D02*
X100220000Y-145710000D01*
X100220000Y-145710000D02*
X110380000Y-145710000D01*
X110380000Y-138090000D02*
X100220000Y-138090000D01*
X110380000Y-144440000D02*
X100220000Y-144440000D01*
X110380000Y-145710000D02*
X110380000Y-138090000D01*
%TO.C,U2*%
X110660000Y-94750000D02*
X110660000Y-105030000D01*
X110660000Y-105030000D02*
X115960000Y-105030000D01*
X112310000Y-94750000D02*
X110660000Y-94750000D01*
X115960000Y-94750000D02*
X114310000Y-94750000D01*
X115960000Y-105030000D02*
X115960000Y-94750000D01*
X112310000Y-94750000D02*
G75*
G03*
X114310000Y-94750000I1000000J0D01*
G01*
%TO.C,D1*%
X88355000Y-107605000D02*
X88355000Y-104515000D01*
X82805001Y-106059538D02*
G75*
G03*
X88354999Y-107604830I2989999J-462D01*
G01*
X88355000Y-104515170D02*
G75*
G03*
X82805000Y-106060462I-2560000J-1544830D01*
G01*
X88295000Y-106060000D02*
G75*
G03*
X88295000Y-106060000I-2500000J0D01*
G01*
%TO.C,R3*%
X129550000Y-119560000D02*
X129550000Y-113020000D01*
X129880000Y-119560000D02*
X129550000Y-119560000D01*
X131960000Y-119560000D02*
X132290000Y-119560000D01*
X132290000Y-119560000D02*
X132290000Y-113020000D01*
X129550000Y-113020000D02*
X129880000Y-113020000D01*
X132290000Y-113020000D02*
X131960000Y-113020000D01*
%TO.C,R13*%
X102300000Y-107190000D02*
X95760000Y-107190000D01*
X102300000Y-106860000D02*
X102300000Y-107190000D01*
X102300000Y-104780000D02*
X102300000Y-104450000D01*
X102300000Y-104450000D02*
X95760000Y-104450000D01*
X95760000Y-107190000D02*
X95760000Y-106860000D01*
X95760000Y-104450000D02*
X95760000Y-104780000D01*
D13*
%TO.C,S2*%
X59050000Y-132930000D02*
X59050000Y-135081000D01*
X59050000Y-132930000D02*
X71050000Y-132930000D01*
X59050000Y-144930000D02*
X59050000Y-142779000D01*
X71050000Y-132930000D02*
X71050000Y-135081000D01*
X71050000Y-144930000D02*
X59050000Y-144930000D01*
X71050000Y-144930000D02*
X71050000Y-142779000D01*
X72987000Y-141314000D02*
G75*
G03*
X72987000Y-141314000I-82000J0D01*
G01*
D15*
%TO.C,D3*%
X100710000Y-131440000D02*
X97270000Y-131440000D01*
X100710000Y-131260000D02*
X100710000Y-131440000D01*
X100710000Y-128780000D02*
X100710000Y-128600000D01*
X100710000Y-128600000D02*
X97270000Y-128600000D01*
X100230000Y-131440000D02*
X100230000Y-128600000D01*
X100110000Y-131440000D02*
X100110000Y-128600000D01*
X99990000Y-131440000D02*
X99990000Y-128600000D01*
X97270000Y-131440000D02*
X97270000Y-131260000D01*
X97270000Y-128600000D02*
X97270000Y-128780000D01*
%TO.C,R1*%
X82560000Y-128510000D02*
X89100000Y-128510000D01*
X82560000Y-128840000D02*
X82560000Y-128510000D01*
X82560000Y-130920000D02*
X82560000Y-131250000D01*
X82560000Y-131250000D02*
X89100000Y-131250000D01*
X89100000Y-128510000D02*
X89100000Y-128840000D01*
X89100000Y-131250000D02*
X89100000Y-130920000D01*
%TO.C,R11*%
X129650000Y-133860000D02*
X129650000Y-127320000D01*
X129980000Y-133860000D02*
X129650000Y-133860000D01*
X132060000Y-133860000D02*
X132390000Y-133860000D01*
X132390000Y-133860000D02*
X132390000Y-127320000D01*
X129650000Y-127320000D02*
X129980000Y-127320000D01*
X132390000Y-127320000D02*
X132060000Y-127320000D01*
%TO.C,R16*%
X95710000Y-118350000D02*
X102250000Y-118350000D01*
X95710000Y-118680000D02*
X95710000Y-118350000D01*
X95710000Y-120760000D02*
X95710000Y-121090000D01*
X95710000Y-121090000D02*
X102250000Y-121090000D01*
X102250000Y-118350000D02*
X102250000Y-118680000D01*
X102250000Y-121090000D02*
X102250000Y-120760000D01*
%TO.C,R12*%
X95800000Y-99650000D02*
X102340000Y-99650000D01*
X95800000Y-99980000D02*
X95800000Y-99650000D01*
X95800000Y-102060000D02*
X95800000Y-102390000D01*
X95800000Y-102390000D02*
X102340000Y-102390000D01*
X102340000Y-99650000D02*
X102340000Y-99980000D01*
X102340000Y-102390000D02*
X102340000Y-102060000D01*
D16*
%TO.C,J5*%
X141150000Y-95580000D02*
X141150000Y-100180000D01*
X140150000Y-95580000D02*
X141150000Y-95580000D01*
X137150000Y-95580000D02*
X136150000Y-95580000D01*
X136150000Y-95580000D02*
X136150000Y-100180000D01*
D15*
%TO.C,Q2*%
X87620000Y-95350000D02*
X84020000Y-95350000D01*
X86640000Y-99649999D02*
G75*
G03*
X87631874Y-95358260I-820000J2449999D01*
G01*
X84011555Y-95372316D02*
G75*
G03*
X85040000Y-99650000I1808445J-1827684D01*
G01*
%TO.C,R6*%
X89040000Y-125940000D02*
X82500000Y-125940000D01*
X89040000Y-125610000D02*
X89040000Y-125940000D01*
X89040000Y-123530000D02*
X89040000Y-123200000D01*
X89040000Y-123200000D02*
X82500000Y-123200000D01*
X82500000Y-125940000D02*
X82500000Y-125610000D01*
X82500000Y-123200000D02*
X82500000Y-123530000D01*
D16*
%TO.C,J2*%
X58460000Y-100270000D02*
X58460000Y-100270000D01*
X58460000Y-100270000D02*
X58460000Y-100270000D01*
X58460000Y-100270000D02*
X58460000Y-109270000D01*
X58460000Y-100270000D02*
X72960000Y-100270000D01*
X58460000Y-109270000D02*
X58460000Y-100270000D01*
X58460000Y-109270000D02*
X58460000Y-109270000D01*
X58460000Y-109270000D02*
X58460000Y-109270000D01*
X58460000Y-109270000D02*
X72960000Y-109270000D01*
X72960000Y-100270000D02*
X58460000Y-100270000D01*
X72960000Y-100270000D02*
X72960000Y-100270000D01*
X72960000Y-100270000D02*
X72960000Y-100270000D01*
X72960000Y-100270000D02*
X72960000Y-101520000D01*
X72960000Y-101520000D02*
X72960000Y-100270000D01*
X72960000Y-101520000D02*
X72960000Y-101520000D01*
X72960000Y-108270000D02*
X72960000Y-108270000D01*
X72960000Y-108270000D02*
X72960000Y-109270000D01*
X72960000Y-109270000D02*
X58460000Y-109270000D01*
X72960000Y-109270000D02*
X72960000Y-108270000D01*
X72960000Y-109270000D02*
X72960000Y-109270000D01*
X72960000Y-109270000D02*
X72960000Y-109270000D01*
D13*
X74860000Y-101970000D02*
X74860000Y-101970000D01*
X74860000Y-101970000D02*
X74860000Y-101970000D01*
X74960000Y-101970000D02*
X74960000Y-101970000D01*
X74960000Y-101970000D02*
G75*
G03*
X74860000Y-101970000I-50000J0D01*
G01*
X74860000Y-101970000D02*
G75*
G03*
X74960000Y-101970000I50000J0D01*
G01*
X74860000Y-101970000D02*
G75*
G03*
X74960000Y-101970000I50000J0D01*
G01*
D15*
%TO.C,C2*%
X127620000Y-106140000D02*
X127620000Y-106765000D01*
X127620000Y-106140000D02*
X131660000Y-106140000D01*
X127620000Y-108355000D02*
X127620000Y-108980000D01*
X127620000Y-108980000D02*
X131660000Y-108980000D01*
X131660000Y-106140000D02*
X131660000Y-106765000D01*
X131660000Y-108355000D02*
X131660000Y-108980000D01*
%TO.C,R8*%
X89140000Y-121450000D02*
X82600000Y-121450000D01*
X89140000Y-121120000D02*
X89140000Y-121450000D01*
X89140000Y-119040000D02*
X89140000Y-118710000D01*
X89140000Y-118710000D02*
X82600000Y-118710000D01*
X82600000Y-121450000D02*
X82600000Y-121120000D01*
X82600000Y-118710000D02*
X82600000Y-119040000D01*
D13*
%TO.C,S1*%
X69450000Y-89450000D02*
X69450000Y-89450000D01*
X69450000Y-89650000D02*
X69450000Y-89650000D01*
D16*
X70000000Y-86020000D02*
X82700000Y-86020000D01*
X70000000Y-92880000D02*
X70000000Y-86020000D01*
X82700000Y-86020000D02*
X82700000Y-92880000D01*
X82700000Y-92880000D02*
X70000000Y-92880000D01*
D13*
X69450000Y-89650000D02*
G75*
G03*
X69450000Y-89450000I0J100000D01*
G01*
X69450000Y-89450000D02*
G75*
G03*
X69450000Y-89650000I0J-100000D01*
G01*
D15*
%TO.C,D2*%
X71315000Y-123185000D02*
X71315000Y-126275000D01*
X76864999Y-124730462D02*
G75*
G03*
X71315001Y-123185170I-2989999J462D01*
G01*
X71315000Y-126274830D02*
G75*
G03*
X76865000Y-124729538I2560000J1544830D01*
G01*
X76375000Y-124730000D02*
G75*
G03*
X76375000Y-124730000I-2500000J0D01*
G01*
%TO.C,C3*%
X105070000Y-128700000D02*
X105070000Y-129325000D01*
X105070000Y-128700000D02*
X109110000Y-128700000D01*
X105070000Y-130915000D02*
X105070000Y-131540000D01*
X105070000Y-131540000D02*
X109110000Y-131540000D01*
X109110000Y-128700000D02*
X109110000Y-129325000D01*
X109110000Y-130915000D02*
X109110000Y-131540000D01*
%TO.C,BZ1*%
X69400000Y-120920000D02*
G75*
G03*
X69400000Y-120920000I-6100000J0D01*
G01*
%TO.C,Q1*%
X139430000Y-128270000D02*
X135830000Y-128270000D01*
X138450000Y-132569999D02*
G75*
G03*
X139441874Y-128278260I-820000J2449999D01*
G01*
X135821555Y-128292316D02*
G75*
G03*
X136850000Y-132570000I1808445J-1827684D01*
G01*
%TO.C,R14*%
X95790000Y-109250000D02*
X102330000Y-109250000D01*
X95790000Y-109580000D02*
X95790000Y-109250000D01*
X95790000Y-111660000D02*
X95790000Y-111990000D01*
X95790000Y-111990000D02*
X102330000Y-111990000D01*
X102330000Y-109250000D02*
X102330000Y-109580000D01*
X102330000Y-111990000D02*
X102330000Y-111660000D01*
%TO.C,C1*%
X121780000Y-106160000D02*
X121780000Y-106785000D01*
X121780000Y-106160000D02*
X125820000Y-106160000D01*
X121780000Y-108375000D02*
X121780000Y-109000000D01*
X121780000Y-109000000D02*
X125820000Y-109000000D01*
X125820000Y-106160000D02*
X125820000Y-106785000D01*
X125820000Y-108375000D02*
X125820000Y-109000000D01*
%TO.C,R10*%
X123760000Y-133810000D02*
X123760000Y-127270000D01*
X124090000Y-133810000D02*
X123760000Y-133810000D01*
X126170000Y-133810000D02*
X126500000Y-133810000D01*
X126500000Y-133810000D02*
X126500000Y-127270000D01*
X123760000Y-127270000D02*
X124090000Y-127270000D01*
X126500000Y-127270000D02*
X126170000Y-127270000D01*
%TO.C,J3*%
X81330000Y-137930000D02*
X81330000Y-145550000D01*
X81330000Y-145550000D02*
X91490000Y-145550000D01*
X91490000Y-137930000D02*
X81330000Y-137930000D01*
X91490000Y-144280000D02*
X81330000Y-144280000D01*
X91490000Y-145550000D02*
X91490000Y-137930000D01*
%TO.C,U3*%
X110660000Y-111110000D02*
X110660000Y-121390000D01*
X110660000Y-121390000D02*
X115960000Y-121390000D01*
X112310000Y-111110000D02*
X110660000Y-111110000D01*
X115960000Y-111110000D02*
X114310000Y-111110000D01*
X115960000Y-121390000D02*
X115960000Y-111110000D01*
X112310000Y-111110000D02*
G75*
G03*
X114310000Y-111110000I1000000J0D01*
G01*
%TO.C,Q3*%
X127330000Y-118300000D02*
X127330000Y-114700000D01*
X123030001Y-117320000D02*
G75*
G03*
X127321740Y-118311874I2449999J820000D01*
G01*
X127307684Y-114691555D02*
G75*
G03*
X123030000Y-115720000I-1827684J-1808445D01*
G01*
%TO.C,R5*%
X89250000Y-116610000D02*
X82710000Y-116610000D01*
X89250000Y-116280000D02*
X89250000Y-116610000D01*
X89250000Y-114200000D02*
X89250000Y-113870000D01*
X89250000Y-113870000D02*
X82710000Y-113870000D01*
X82710000Y-116610000D02*
X82710000Y-116280000D01*
X82710000Y-113870000D02*
X82710000Y-114200000D01*
%TO.C,U1*%
X124020000Y-94800000D02*
X124020000Y-105080000D01*
X124020000Y-105080000D02*
X129320000Y-105080000D01*
X125670000Y-94800000D02*
X124020000Y-94800000D01*
X129320000Y-94800000D02*
X127670000Y-94800000D01*
X129320000Y-105080000D02*
X129320000Y-94800000D01*
X125670000Y-94800000D02*
G75*
G03*
X127670000Y-94800000I1000000J0D01*
G01*
%TO.C,C4*%
X111280000Y-105880000D02*
X111280000Y-106505000D01*
X111280000Y-105880000D02*
X115320000Y-105880000D01*
X111280000Y-108095000D02*
X111280000Y-108720000D01*
X111280000Y-108720000D02*
X115320000Y-108720000D01*
X115320000Y-105880000D02*
X115320000Y-106505000D01*
X115320000Y-108095000D02*
X115320000Y-108720000D01*
%TO.C,R15*%
X102350000Y-116630000D02*
X95810000Y-116630000D01*
X102350000Y-116300000D02*
X102350000Y-116630000D01*
X102350000Y-114220000D02*
X102350000Y-113890000D01*
X102350000Y-113890000D02*
X95810000Y-113890000D01*
X95810000Y-116630000D02*
X95810000Y-116300000D01*
X95810000Y-113890000D02*
X95810000Y-114220000D01*
%TO.C,R2*%
X134610000Y-119630000D02*
X134610000Y-113090000D01*
X134940000Y-119630000D02*
X134610000Y-119630000D01*
X137020000Y-119630000D02*
X137350000Y-119630000D01*
X137350000Y-119630000D02*
X137350000Y-113090000D01*
X134610000Y-113090000D02*
X134940000Y-113090000D01*
X137350000Y-113090000D02*
X137020000Y-113090000D01*
%TD*%
M02*
