%TF.GenerationSoftware,KiCad,Pcbnew,7.0.6*%
%TF.CreationDate,2023-09-05T08:02:31-07:00*%
%TF.ProjectId,KICAD_lightning_trigger,4b494341-445f-46c6-9967-68746e696e67,rev?*%
%TF.SameCoordinates,Original*%
%TF.FileFunction,Copper,L2,Bot*%
%TF.FilePolarity,Positive*%
%FSLAX46Y46*%
G04 Gerber Fmt 4.6, Leading zero omitted, Abs format (unit mm)*
G04 Created by KiCad (PCBNEW 7.0.6) date 2023-09-05 08:02:31*
%MOMM*%
%LPD*%
G01*
G04 APERTURE LIST*
G04 Aperture macros list*
%AMRoundRect*
0 Rectangle with rounded corners*
0 $1 Rounding radius*
0 $2 $3 $4 $5 $6 $7 $8 $9 X,Y pos of 4 corners*
0 Add a 4 corners polygon primitive as box body*
4,1,4,$2,$3,$4,$5,$6,$7,$8,$9,$2,$3,0*
0 Add four circle primitives for the rounded corners*
1,1,$1+$1,$2,$3*
1,1,$1+$1,$4,$5*
1,1,$1+$1,$6,$7*
1,1,$1+$1,$8,$9*
0 Add four rect primitives between the rounded corners*
20,1,$1+$1,$2,$3,$4,$5,0*
20,1,$1+$1,$4,$5,$6,$7,0*
20,1,$1+$1,$6,$7,$8,$9,0*
20,1,$1+$1,$8,$9,$2,$3,0*%
G04 Aperture macros list end*
%TA.AperFunction,ComponentPad*%
%ADD10C,1.600000*%
%TD*%
%TA.AperFunction,ComponentPad*%
%ADD11O,1.600000X1.600000*%
%TD*%
%TA.AperFunction,ComponentPad*%
%ADD12R,1.700000X1.700000*%
%TD*%
%TA.AperFunction,ComponentPad*%
%ADD13O,1.700000X1.700000*%
%TD*%
%TA.AperFunction,ComponentPad*%
%ADD14R,3.000000X3.000000*%
%TD*%
%TA.AperFunction,ComponentPad*%
%ADD15C,3.000000*%
%TD*%
%TA.AperFunction,ComponentPad*%
%ADD16R,1.600000X1.600000*%
%TD*%
%TA.AperFunction,ComponentPad*%
%ADD17R,1.800000X1.800000*%
%TD*%
%TA.AperFunction,ComponentPad*%
%ADD18C,1.800000*%
%TD*%
%TA.AperFunction,ComponentPad*%
%ADD19C,2.000000*%
%TD*%
%TA.AperFunction,ComponentPad*%
%ADD20R,2.000000X2.000000*%
%TD*%
%TA.AperFunction,ComponentPad*%
%ADD21O,2.000000X2.000000*%
%TD*%
%TA.AperFunction,ComponentPad*%
%ADD22R,2.550000X2.500000*%
%TD*%
%TA.AperFunction,ComponentPad*%
%ADD23C,2.500000*%
%TD*%
%TA.AperFunction,ComponentPad*%
%ADD24R,1.100000X1.800000*%
%TD*%
%TA.AperFunction,ComponentPad*%
%ADD25RoundRect,0.275000X0.275000X0.625000X-0.275000X0.625000X-0.275000X-0.625000X0.275000X-0.625000X0*%
%TD*%
%TA.AperFunction,ComponentPad*%
%ADD26C,5.460000*%
%TD*%
%TA.AperFunction,ComponentPad*%
%ADD27C,4.740000*%
%TD*%
%TA.AperFunction,ComponentPad*%
%ADD28C,2.775000*%
%TD*%
%TA.AperFunction,ComponentPad*%
%ADD29R,1.800000X1.100000*%
%TD*%
%TA.AperFunction,ComponentPad*%
%ADD30RoundRect,0.275000X0.625000X-0.275000X0.625000X0.275000X-0.625000X0.275000X-0.625000X-0.275000X0*%
%TD*%
%TA.AperFunction,Conductor*%
%ADD31C,0.508000*%
%TD*%
G04 APERTURE END LIST*
D10*
%TO.P,R4,1*%
%TO.N,/V1*%
X95180000Y-95940000D03*
D11*
%TO.P,R4,2*%
%TO.N,Net-(C3-Pad1)*%
X102800000Y-95940000D03*
%TD*%
D10*
%TO.P,R7,1*%
%TO.N,Net-(U3--)*%
X112590000Y-130070000D03*
D11*
%TO.P,R7,2*%
%TO.N,Net-(C4-Pad2)*%
X120210000Y-130070000D03*
%TD*%
D10*
%TO.P,R9,1*%
%TO.N,Net-(C4-Pad2)*%
X120260000Y-134280000D03*
D11*
%TO.P,R9,2*%
%TO.N,GND*%
X112640000Y-134280000D03*
%TD*%
D12*
%TO.P,J6,1,Pin_1*%
%TO.N,/V1*%
X125360000Y-142170000D03*
D13*
%TO.P,J6,2,Pin_2*%
%TO.N,/V2*%
X127900000Y-142170000D03*
%TO.P,J6,3,Pin_3*%
%TO.N,/Vout*%
X130440000Y-142170000D03*
%TD*%
D14*
%TO.P,J1,1,Pin_1*%
%TO.N,GND*%
X61720000Y-88080000D03*
D15*
%TO.P,J1,2,Pin_2*%
%TO.N,+9V*%
X61720000Y-93160000D03*
%TD*%
D14*
%TO.P,J4,1,Pin_1*%
%TO.N,/Vin*%
X102760000Y-141900000D03*
D15*
%TO.P,J4,2,Pin_2*%
%TO.N,GND*%
X107840000Y-141900000D03*
%TD*%
D16*
%TO.P,U2,1,NULL*%
%TO.N,unconnected-(U2-NULL-Pad1)*%
X109500000Y-96080000D03*
D11*
%TO.P,U2,2,-*%
%TO.N,/V1*%
X109500000Y-98620000D03*
%TO.P,U2,3,+*%
%TO.N,/Vin*%
X109500000Y-101160000D03*
%TO.P,U2,4,V-*%
%TO.N,GND*%
X109500000Y-103700000D03*
%TO.P,U2,5,NULL*%
%TO.N,unconnected-(U2-NULL-Pad5)*%
X117120000Y-103700000D03*
%TO.P,U2,6*%
%TO.N,/V1*%
X117120000Y-101160000D03*
%TO.P,U2,7,V+*%
%TO.N,/VCC*%
X117120000Y-98620000D03*
%TO.P,U2,8,NC*%
%TO.N,unconnected-(U2-NC-Pad8)*%
X117120000Y-96080000D03*
%TD*%
D17*
%TO.P,D1,1,K*%
%TO.N,GND*%
X87065000Y-106060000D03*
D18*
%TO.P,D1,2,A*%
%TO.N,Net-(D1-A)*%
X84525000Y-106060000D03*
%TD*%
D10*
%TO.P,R3,1*%
%TO.N,GND*%
X130920000Y-120100000D03*
D11*
%TO.P,R3,2*%
%TO.N,/Vout*%
X130920000Y-112480000D03*
%TD*%
D10*
%TO.P,R13,1*%
%TO.N,GND*%
X102840000Y-105820000D03*
D11*
%TO.P,R13,2*%
%TO.N,/TRIG*%
X95220000Y-105820000D03*
%TD*%
D19*
%TO.P,S2,1,1*%
%TO.N,/TRIG*%
X71300000Y-141430000D03*
%TO.P,S2,2,2*%
X58800000Y-141430000D03*
%TO.P,S2,3,3*%
%TO.N,Net-(R1-Pad1)*%
X71300000Y-136430000D03*
%TO.P,S2,4,4*%
X58800000Y-136430000D03*
%TD*%
D20*
%TO.P,D3,1,K*%
%TO.N,/SHUTTER*%
X101530000Y-130020000D03*
D21*
%TO.P,D3,2,A*%
%TO.N,GND*%
X96450000Y-130020000D03*
%TD*%
D10*
%TO.P,R1,1*%
%TO.N,Net-(R1-Pad1)*%
X82020000Y-129880000D03*
D11*
%TO.P,R1,2*%
%TO.N,GND*%
X89640000Y-129880000D03*
%TD*%
D10*
%TO.P,R11,1*%
%TO.N,Net-(Q1-B)*%
X131020000Y-134400000D03*
D11*
%TO.P,R11,2*%
%TO.N,/Vout*%
X131020000Y-126780000D03*
%TD*%
D10*
%TO.P,R16,1*%
%TO.N,GND*%
X95170000Y-119720000D03*
D11*
%TO.P,R16,2*%
%TO.N,/SHUTTER*%
X102790000Y-119720000D03*
%TD*%
D10*
%TO.P,R12,1*%
%TO.N,/TRIG*%
X95260000Y-101020000D03*
D11*
%TO.P,R12,2*%
%TO.N,/VCC*%
X102880000Y-101020000D03*
%TD*%
D22*
%TO.P,J5,1,SLEEVE*%
%TO.N,GND*%
X138650000Y-96680000D03*
D23*
%TO.P,J5,2,TIP_1*%
%TO.N,/SHUTTER*%
X136800000Y-101580000D03*
%TO.P,J5,3,TIP_2*%
X140500000Y-101580000D03*
%TO.P,J5,4,RING*%
X138650000Y-103580000D03*
%TD*%
D24*
%TO.P,Q2,1,E*%
%TO.N,GND*%
X87090000Y-96800000D03*
D25*
%TO.P,Q2,2,B*%
%TO.N,Net-(Q2-B)*%
X85820000Y-98870000D03*
%TO.P,Q2,3,C*%
%TO.N,/SHUTTER_ON*%
X84550000Y-96800000D03*
%TD*%
D10*
%TO.P,R6,1*%
%TO.N,/VCC*%
X89580000Y-124570000D03*
D11*
%TO.P,R6,2*%
%TO.N,Net-(D2-A)*%
X81960000Y-124570000D03*
%TD*%
D26*
%TO.P,J2,1*%
%TO.N,+9V*%
X72160000Y-104770000D03*
D27*
%TO.P,J2,2*%
%TO.N,GND*%
X66160000Y-104770000D03*
%TD*%
D10*
%TO.P,C2,1*%
%TO.N,GND*%
X128390000Y-107560000D03*
%TO.P,C2,2*%
%TO.N,Net-(U1-DIS)*%
X130890000Y-107560000D03*
%TD*%
%TO.P,R8,1*%
%TO.N,/VCC*%
X89680000Y-120080000D03*
D11*
%TO.P,R8,2*%
%TO.N,Net-(BZ1--)*%
X82060000Y-120080000D03*
%TD*%
D28*
%TO.P,S1,1,NC*%
%TO.N,unconnected-(S1-NC-Pad1)*%
X71650000Y-89450000D03*
%TO.P,S1,2,COM*%
%TO.N,+9V*%
X76350000Y-89450000D03*
%TO.P,S1,3,NO*%
%TO.N,/VCC*%
X81050000Y-89450000D03*
%TD*%
D17*
%TO.P,D2,1,K*%
%TO.N,/SHUTTER_ON*%
X72605000Y-124730000D03*
D18*
%TO.P,D2,2,A*%
%TO.N,Net-(D2-A)*%
X75145000Y-124730000D03*
%TD*%
D10*
%TO.P,C3,1*%
%TO.N,Net-(C3-Pad1)*%
X105840000Y-130120000D03*
%TO.P,C3,2*%
%TO.N,Net-(U3--)*%
X108340000Y-130120000D03*
%TD*%
D20*
%TO.P,BZ1,1,-*%
%TO.N,Net-(BZ1--)*%
X63300000Y-117120000D03*
D19*
%TO.P,BZ1,2,+*%
%TO.N,/SHUTTER_ON*%
X63300000Y-124720000D03*
%TD*%
D24*
%TO.P,Q1,1,E*%
%TO.N,GND*%
X138900000Y-129720000D03*
D25*
%TO.P,Q1,2,B*%
%TO.N,Net-(Q1-B)*%
X137630000Y-131790000D03*
%TO.P,Q1,3,C*%
%TO.N,/SHUTTER*%
X136360000Y-129720000D03*
%TD*%
D10*
%TO.P,R14,1*%
%TO.N,Net-(Q2-B)*%
X95250000Y-110620000D03*
D11*
%TO.P,R14,2*%
%TO.N,/Vout*%
X102870000Y-110620000D03*
%TD*%
D10*
%TO.P,C1,1*%
%TO.N,GND*%
X122550000Y-107580000D03*
%TO.P,C1,2*%
%TO.N,Net-(U1-CV)*%
X125050000Y-107580000D03*
%TD*%
%TO.P,R10,1*%
%TO.N,Net-(C4-Pad2)*%
X125130000Y-134350000D03*
D11*
%TO.P,R10,2*%
%TO.N,/V2*%
X125130000Y-126730000D03*
%TD*%
D14*
%TO.P,J3,1,Pin_1*%
%TO.N,/VCC*%
X83870000Y-141740000D03*
D15*
%TO.P,J3,2,Pin_2*%
%TO.N,/Vin*%
X88950000Y-141740000D03*
%TD*%
D16*
%TO.P,U3,1,NULL*%
%TO.N,unconnected-(U3-NULL-Pad1)*%
X109500000Y-112440000D03*
D11*
%TO.P,U3,2,-*%
%TO.N,Net-(U3--)*%
X109500000Y-114980000D03*
%TO.P,U3,3,+*%
%TO.N,GND*%
X109500000Y-117520000D03*
%TO.P,U3,4,V-*%
X109500000Y-120060000D03*
%TO.P,U3,5,NULL*%
%TO.N,unconnected-(U3-NULL-Pad5)*%
X117120000Y-120060000D03*
%TO.P,U3,6*%
%TO.N,Net-(C4-Pad2)*%
X117120000Y-117520000D03*
%TO.P,U3,7,V+*%
%TO.N,/VCC*%
X117120000Y-114980000D03*
%TO.P,U3,8,NC*%
%TO.N,unconnected-(U3-NC-Pad8)*%
X117120000Y-112440000D03*
%TD*%
D29*
%TO.P,Q3,1,E*%
%TO.N,GND*%
X125880000Y-117770000D03*
D30*
%TO.P,Q3,2,B*%
%TO.N,/V2*%
X123810000Y-116500000D03*
%TO.P,Q3,3,C*%
%TO.N,/TRIG*%
X125880000Y-115230000D03*
%TD*%
D10*
%TO.P,R5,1*%
%TO.N,/VCC*%
X89790000Y-115240000D03*
D11*
%TO.P,R5,2*%
%TO.N,Net-(D1-A)*%
X82170000Y-115240000D03*
%TD*%
D16*
%TO.P,U1,1,GND*%
%TO.N,GND*%
X122860000Y-96130000D03*
D11*
%TO.P,U1,2,TR*%
%TO.N,/TRIG*%
X122860000Y-98670000D03*
%TO.P,U1,3,Q*%
%TO.N,/Vout*%
X122860000Y-101210000D03*
%TO.P,U1,4,R*%
%TO.N,/VCC*%
X122860000Y-103750000D03*
%TO.P,U1,5,CV*%
%TO.N,Net-(U1-CV)*%
X130480000Y-103750000D03*
%TO.P,U1,6,THR*%
%TO.N,Net-(U1-DIS)*%
X130480000Y-101210000D03*
%TO.P,U1,7,DIS*%
X130480000Y-98670000D03*
%TO.P,U1,8,VCC*%
%TO.N,/VCC*%
X130480000Y-96130000D03*
%TD*%
D10*
%TO.P,C4,1*%
%TO.N,Net-(U3--)*%
X112050000Y-107300000D03*
%TO.P,C4,2*%
%TO.N,Net-(C4-Pad2)*%
X114550000Y-107300000D03*
%TD*%
%TO.P,R15,1*%
%TO.N,/SHUTTER*%
X102890000Y-115260000D03*
D11*
%TO.P,R15,2*%
%TO.N,/VCC*%
X95270000Y-115260000D03*
%TD*%
D10*
%TO.P,R2,1*%
%TO.N,/VCC*%
X135980000Y-120170000D03*
D11*
%TO.P,R2,2*%
%TO.N,Net-(U1-DIS)*%
X135980000Y-112550000D03*
%TD*%
D31*
%TO.N,/SHUTTER_ON*%
X77690000Y-111980000D02*
X72605000Y-117065000D01*
X72605000Y-117065000D02*
X72605000Y-124730000D01*
X84550000Y-97200000D02*
X77690000Y-104060000D01*
X77690000Y-104060000D02*
X77690000Y-111980000D01*
%TO.N,Net-(C3-Pad1)*%
X105840000Y-98980000D02*
X105840000Y-130120000D01*
X102800000Y-95940000D02*
X105840000Y-98980000D01*
%TO.N,Net-(C4-Pad2)*%
X120260000Y-130120000D02*
X120210000Y-130070000D01*
X120260000Y-134280000D02*
X120260000Y-130120000D01*
%TO.N,/V1*%
X125360000Y-142170000D02*
X122360000Y-139170000D01*
X109500000Y-98620000D02*
X114580000Y-98620000D01*
X122360000Y-139170000D02*
X122360000Y-127560000D01*
X95180000Y-95940000D02*
X97360000Y-93760000D01*
X119670000Y-103710000D02*
X117120000Y-101160000D01*
X104640000Y-93760000D02*
X109500000Y-98620000D01*
X114580000Y-98620000D02*
X117120000Y-101160000D01*
X122360000Y-127560000D02*
X119670000Y-124870000D01*
X119670000Y-124870000D02*
X119670000Y-103710000D01*
X97360000Y-93760000D02*
X104640000Y-93760000D01*
%TO.N,/V2*%
X127900000Y-142170000D02*
X127900000Y-129500000D01*
X127900000Y-129500000D02*
X125130000Y-126730000D01*
%TO.N,/Vout*%
X129590000Y-141320000D02*
X129590000Y-128210000D01*
X130440000Y-142170000D02*
X129590000Y-141320000D01*
X129590000Y-128210000D02*
X131020000Y-126780000D01*
%TO.N,/TRIG*%
X126304000Y-102114000D02*
X126304000Y-114406000D01*
X122860000Y-98670000D02*
X126304000Y-102114000D01*
X92280000Y-131790000D02*
X89210000Y-134860000D01*
X126304000Y-114406000D02*
X125480000Y-115230000D01*
X89210000Y-134860000D02*
X77870000Y-134860000D01*
X92280000Y-108760000D02*
X92280000Y-131790000D01*
X95220000Y-105820000D02*
X92280000Y-108760000D01*
X77870000Y-134860000D02*
X71300000Y-141430000D01*
%TD*%
%TA.AperFunction,Conductor*%
%TO.N,GND*%
G36*
X87986256Y-78830431D02*
G01*
X88053279Y-78850170D01*
X88098991Y-78903011D01*
X88101043Y-78907775D01*
X93125002Y-91279023D01*
X93125170Y-91279585D01*
X93129537Y-91290190D01*
X93129616Y-91290381D01*
X93129617Y-91290382D01*
X93129618Y-91290384D01*
X93129619Y-91290384D01*
X93129696Y-91290460D01*
X93129912Y-91290551D01*
X93131735Y-91290518D01*
X93159433Y-91290814D01*
X93160864Y-91290458D01*
X145655399Y-91220664D01*
X145722462Y-91240260D01*
X145768287Y-91293003D01*
X145779561Y-91344603D01*
X145809437Y-151805452D01*
X145789786Y-151872501D01*
X145737004Y-151918282D01*
X145685450Y-151929513D01*
X51124478Y-151939485D01*
X51057437Y-151919808D01*
X51011676Y-151867008D01*
X51000465Y-151815519D01*
X51000462Y-151805452D01*
X50998202Y-143538926D01*
X63874500Y-143538926D01*
X63914530Y-143753069D01*
X63949677Y-143843793D01*
X63993226Y-143956207D01*
X63993229Y-143956213D01*
X64107906Y-144141423D01*
X64107912Y-144141432D01*
X64254678Y-144302427D01*
X64428528Y-144433712D01*
X64623541Y-144530817D01*
X64833077Y-144590435D01*
X64995653Y-144605500D01*
X64995656Y-144605500D01*
X65104344Y-144605500D01*
X65104347Y-144605500D01*
X65266923Y-144590435D01*
X65476459Y-144530817D01*
X65671472Y-144433712D01*
X65845322Y-144302427D01*
X65992088Y-144141432D01*
X66106772Y-143956210D01*
X66185470Y-143753069D01*
X66225500Y-143538926D01*
X66225500Y-143321074D01*
X66219293Y-143287870D01*
X81869500Y-143287870D01*
X81869501Y-143287876D01*
X81875908Y-143347483D01*
X81926202Y-143482328D01*
X81926206Y-143482335D01*
X82012452Y-143597544D01*
X82012455Y-143597547D01*
X82127664Y-143683793D01*
X82127671Y-143683797D01*
X82262517Y-143734091D01*
X82262516Y-143734091D01*
X82269444Y-143734835D01*
X82322127Y-143740500D01*
X85417872Y-143740499D01*
X85477483Y-143734091D01*
X85612331Y-143683796D01*
X85727546Y-143597546D01*
X85813796Y-143482331D01*
X85864091Y-143347483D01*
X85870500Y-143287873D01*
X85870500Y-141740001D01*
X86944390Y-141740001D01*
X86964804Y-142025433D01*
X87025628Y-142305037D01*
X87025630Y-142305043D01*
X87025631Y-142305046D01*
X87063064Y-142405408D01*
X87125635Y-142573166D01*
X87262770Y-142824309D01*
X87262775Y-142824317D01*
X87434254Y-143053387D01*
X87434270Y-143053405D01*
X87636594Y-143255729D01*
X87636612Y-143255745D01*
X87865682Y-143427224D01*
X87865690Y-143427229D01*
X88116833Y-143564364D01*
X88116832Y-143564364D01*
X88116836Y-143564365D01*
X88116839Y-143564367D01*
X88384954Y-143664369D01*
X88384960Y-143664370D01*
X88384962Y-143664371D01*
X88664566Y-143725195D01*
X88664568Y-143725195D01*
X88664572Y-143725196D01*
X88918220Y-143743337D01*
X88949999Y-143745610D01*
X88950000Y-143745610D01*
X88950001Y-143745610D01*
X88978595Y-143743564D01*
X89235428Y-143725196D01*
X89425742Y-143683796D01*
X89515037Y-143664371D01*
X89515037Y-143664370D01*
X89515046Y-143664369D01*
X89783161Y-143564367D01*
X89996508Y-143447870D01*
X100759500Y-143447870D01*
X100759501Y-143447876D01*
X100765908Y-143507483D01*
X100816202Y-143642328D01*
X100816206Y-143642335D01*
X100902452Y-143757544D01*
X100902455Y-143757547D01*
X101017664Y-143843793D01*
X101017671Y-143843797D01*
X101152517Y-143894091D01*
X101152516Y-143894091D01*
X101159444Y-143894835D01*
X101212127Y-143900500D01*
X104307872Y-143900499D01*
X104367483Y-143894091D01*
X104502331Y-143843796D01*
X104617546Y-143757546D01*
X104703796Y-143642331D01*
X104754091Y-143507483D01*
X104760500Y-143447873D01*
X104760499Y-140352128D01*
X104754091Y-140292517D01*
X104716648Y-140192128D01*
X104703797Y-140157671D01*
X104703793Y-140157664D01*
X104617547Y-140042455D01*
X104617544Y-140042452D01*
X104502335Y-139956206D01*
X104502328Y-139956202D01*
X104367482Y-139905908D01*
X104367483Y-139905908D01*
X104307883Y-139899501D01*
X104307881Y-139899500D01*
X104307873Y-139899500D01*
X104307864Y-139899500D01*
X101212129Y-139899500D01*
X101212123Y-139899501D01*
X101152516Y-139905908D01*
X101017671Y-139956202D01*
X101017664Y-139956206D01*
X100902455Y-140042452D01*
X100902452Y-140042455D01*
X100816206Y-140157664D01*
X100816202Y-140157671D01*
X100765908Y-140292517D01*
X100759501Y-140352116D01*
X100759501Y-140352123D01*
X100759500Y-140352135D01*
X100759500Y-143447870D01*
X89996508Y-143447870D01*
X90034315Y-143427226D01*
X90263395Y-143255739D01*
X90465739Y-143053395D01*
X90637226Y-142824315D01*
X90774367Y-142573161D01*
X90874369Y-142305046D01*
X90935196Y-142025428D01*
X90955610Y-141740000D01*
X90935196Y-141454572D01*
X90929849Y-141429994D01*
X90874371Y-141174962D01*
X90874370Y-141174960D01*
X90874369Y-141174954D01*
X90774367Y-140906839D01*
X90768501Y-140896097D01*
X90637229Y-140655690D01*
X90637224Y-140655682D01*
X90465745Y-140426612D01*
X90465729Y-140426594D01*
X90263405Y-140224270D01*
X90263387Y-140224254D01*
X90034317Y-140052775D01*
X90034309Y-140052770D01*
X89783166Y-139915635D01*
X89783167Y-139915635D01*
X89675915Y-139875632D01*
X89515046Y-139815631D01*
X89515043Y-139815630D01*
X89515037Y-139815628D01*
X89235433Y-139754804D01*
X88950001Y-139734390D01*
X88949999Y-139734390D01*
X88664566Y-139754804D01*
X88384962Y-139815628D01*
X88116833Y-139915635D01*
X87865690Y-140052770D01*
X87865682Y-140052775D01*
X87636612Y-140224254D01*
X87636594Y-140224270D01*
X87434270Y-140426594D01*
X87434254Y-140426612D01*
X87262775Y-140655682D01*
X87262770Y-140655690D01*
X87125635Y-140906833D01*
X87025628Y-141174962D01*
X86964804Y-141454566D01*
X86944390Y-141739998D01*
X86944390Y-141740001D01*
X85870500Y-141740001D01*
X85870499Y-140192128D01*
X85864091Y-140132517D01*
X85834347Y-140052770D01*
X85813797Y-139997671D01*
X85813793Y-139997664D01*
X85727547Y-139882455D01*
X85727544Y-139882452D01*
X85612335Y-139796206D01*
X85612328Y-139796202D01*
X85477482Y-139745908D01*
X85477483Y-139745908D01*
X85417883Y-139739501D01*
X85417881Y-139739500D01*
X85417873Y-139739500D01*
X85417864Y-139739500D01*
X82322129Y-139739500D01*
X82322123Y-139739501D01*
X82262516Y-139745908D01*
X82127671Y-139796202D01*
X82127664Y-139796206D01*
X82012455Y-139882452D01*
X82012452Y-139882455D01*
X81926206Y-139997664D01*
X81926202Y-139997671D01*
X81875908Y-140132517D01*
X81869501Y-140192116D01*
X81869501Y-140192123D01*
X81869500Y-140192135D01*
X81869500Y-143287870D01*
X66219293Y-143287870D01*
X66185470Y-143106931D01*
X66106772Y-142903790D01*
X66097967Y-142889570D01*
X65992093Y-142718576D01*
X65992092Y-142718575D01*
X65992088Y-142718568D01*
X65845322Y-142557573D01*
X65671472Y-142426288D01*
X65671471Y-142426288D01*
X65476462Y-142329184D01*
X65476459Y-142329183D01*
X65266923Y-142269565D01*
X65266920Y-142269564D01*
X65266918Y-142269564D01*
X65159819Y-142259640D01*
X65104347Y-142254500D01*
X64995653Y-142254500D01*
X64945845Y-142259115D01*
X64833081Y-142269564D01*
X64623537Y-142329184D01*
X64428527Y-142426288D01*
X64254676Y-142557574D01*
X64107913Y-142718566D01*
X64107906Y-142718576D01*
X63993229Y-142903786D01*
X63993226Y-142903792D01*
X63939919Y-143041395D01*
X63914530Y-143106931D01*
X63874500Y-143321074D01*
X63874500Y-143538926D01*
X50998202Y-143538926D01*
X50997625Y-141430005D01*
X57294357Y-141430005D01*
X57314890Y-141677812D01*
X57314892Y-141677824D01*
X57375936Y-141918881D01*
X57475826Y-142146606D01*
X57611833Y-142354782D01*
X57611836Y-142354785D01*
X57780256Y-142537738D01*
X57976491Y-142690474D01*
X58195190Y-142808828D01*
X58430386Y-142889571D01*
X58675665Y-142930500D01*
X58924335Y-142930500D01*
X59169614Y-142889571D01*
X59404810Y-142808828D01*
X59623509Y-142690474D01*
X59819744Y-142537738D01*
X59988164Y-142354785D01*
X60124173Y-142146607D01*
X60224063Y-141918881D01*
X60285108Y-141677821D01*
X60285109Y-141677812D01*
X60305643Y-141430005D01*
X69794357Y-141430005D01*
X69814890Y-141677812D01*
X69814892Y-141677824D01*
X69875936Y-141918881D01*
X69975826Y-142146606D01*
X70111833Y-142354782D01*
X70111836Y-142354785D01*
X70280256Y-142537738D01*
X70476491Y-142690474D01*
X70695190Y-142808828D01*
X70930386Y-142889571D01*
X71175665Y-142930500D01*
X71424335Y-142930500D01*
X71669614Y-142889571D01*
X71904810Y-142808828D01*
X72123509Y-142690474D01*
X72319744Y-142537738D01*
X72488164Y-142354785D01*
X72624173Y-142146607D01*
X72724063Y-141918881D01*
X72785108Y-141677821D01*
X72785109Y-141677812D01*
X72805643Y-141430005D01*
X72805643Y-141429994D01*
X72785109Y-141182187D01*
X72785108Y-141182183D01*
X72785108Y-141182179D01*
X72785105Y-141182166D01*
X72768000Y-141114620D01*
X72770624Y-141044800D01*
X72800522Y-140996500D01*
X78146204Y-135650819D01*
X78207528Y-135617334D01*
X78233886Y-135614500D01*
X89146000Y-135614500D01*
X89163969Y-135615809D01*
X89169350Y-135616596D01*
X89187906Y-135619315D01*
X89240248Y-135614735D01*
X89245649Y-135614500D01*
X89253934Y-135614500D01*
X89253941Y-135614500D01*
X89286674Y-135610674D01*
X89363612Y-135603943D01*
X89363615Y-135603941D01*
X89370693Y-135602481D01*
X89370704Y-135602535D01*
X89378163Y-135600881D01*
X89378151Y-135600827D01*
X89385178Y-135599160D01*
X89385184Y-135599160D01*
X89439600Y-135579354D01*
X89457740Y-135572752D01*
X89531034Y-135548465D01*
X89537581Y-135545412D01*
X89537604Y-135545462D01*
X89544498Y-135542125D01*
X89544473Y-135542075D01*
X89550916Y-135538838D01*
X89550924Y-135538836D01*
X89593937Y-135510545D01*
X89615443Y-135496401D01*
X89645051Y-135478138D01*
X89681154Y-135455870D01*
X89681159Y-135455864D01*
X89686823Y-135451387D01*
X89686857Y-135451430D01*
X89692782Y-135446604D01*
X89692747Y-135446562D01*
X89698283Y-135441916D01*
X89698282Y-135441916D01*
X89698285Y-135441915D01*
X89751271Y-135385752D01*
X92768264Y-132368758D01*
X92781883Y-132356988D01*
X92801294Y-132342539D01*
X92835075Y-132302279D01*
X92838709Y-132298313D01*
X92844583Y-132292441D01*
X92865027Y-132266584D01*
X92914667Y-132207427D01*
X92914669Y-132207422D01*
X92918637Y-132201390D01*
X92918683Y-132201420D01*
X92922795Y-132194965D01*
X92922748Y-132194936D01*
X92926532Y-132188799D01*
X92926539Y-132188791D01*
X92959172Y-132118808D01*
X92993824Y-132049811D01*
X92993826Y-132049799D01*
X92996293Y-132043024D01*
X92996346Y-132043043D01*
X92998858Y-132035815D01*
X92998807Y-132035798D01*
X93001077Y-132028945D01*
X93001077Y-132028943D01*
X93001079Y-132028940D01*
X93016695Y-131953310D01*
X93034500Y-131878188D01*
X93034500Y-131878183D01*
X93035338Y-131871015D01*
X93035392Y-131871021D01*
X93036170Y-131863405D01*
X93036117Y-131863401D01*
X93036746Y-131856210D01*
X93034500Y-131779018D01*
X93034500Y-131067870D01*
X100029500Y-131067870D01*
X100029501Y-131067876D01*
X100035908Y-131127483D01*
X100086202Y-131262328D01*
X100086206Y-131262335D01*
X100172452Y-131377544D01*
X100172455Y-131377547D01*
X100287664Y-131463793D01*
X100287671Y-131463797D01*
X100422517Y-131514091D01*
X100422516Y-131514091D01*
X100429444Y-131514835D01*
X100482127Y-131520500D01*
X102577872Y-131520499D01*
X102637483Y-131514091D01*
X102772331Y-131463796D01*
X102887546Y-131377546D01*
X102973796Y-131262331D01*
X103024091Y-131127483D01*
X103030500Y-131067873D01*
X103030499Y-128972128D01*
X103024091Y-128912517D01*
X103011945Y-128879953D01*
X102973797Y-128777671D01*
X102973793Y-128777664D01*
X102887547Y-128662455D01*
X102887544Y-128662452D01*
X102772335Y-128576206D01*
X102772328Y-128576202D01*
X102637482Y-128525908D01*
X102637483Y-128525908D01*
X102577883Y-128519501D01*
X102577881Y-128519500D01*
X102577873Y-128519500D01*
X102577864Y-128519500D01*
X100482129Y-128519500D01*
X100482123Y-128519501D01*
X100422516Y-128525908D01*
X100287671Y-128576202D01*
X100287664Y-128576206D01*
X100172455Y-128662452D01*
X100172452Y-128662455D01*
X100086206Y-128777664D01*
X100086202Y-128777671D01*
X100035908Y-128912517D01*
X100029501Y-128972116D01*
X100029501Y-128972123D01*
X100029500Y-128972135D01*
X100029500Y-131067870D01*
X93034500Y-131067870D01*
X93034500Y-119720001D01*
X101484532Y-119720001D01*
X101504364Y-119946686D01*
X101504366Y-119946697D01*
X101563258Y-120166488D01*
X101563261Y-120166497D01*
X101659431Y-120372732D01*
X101659432Y-120372734D01*
X101789954Y-120559141D01*
X101950858Y-120720045D01*
X101950861Y-120720047D01*
X102137266Y-120850568D01*
X102343504Y-120946739D01*
X102563308Y-121005635D01*
X102725230Y-121019801D01*
X102789998Y-121025468D01*
X102790000Y-121025468D01*
X102790002Y-121025468D01*
X102846673Y-121020509D01*
X103016692Y-121005635D01*
X103236496Y-120946739D01*
X103442734Y-120850568D01*
X103629139Y-120720047D01*
X103790047Y-120559139D01*
X103920568Y-120372734D01*
X104016739Y-120166496D01*
X104075635Y-119946692D01*
X104095161Y-119723511D01*
X104095468Y-119720001D01*
X104095468Y-119719998D01*
X104075635Y-119493313D01*
X104075635Y-119493308D01*
X104016739Y-119273504D01*
X103920568Y-119067266D01*
X103790047Y-118880861D01*
X103790045Y-118880858D01*
X103629141Y-118719954D01*
X103442734Y-118589432D01*
X103442732Y-118589431D01*
X103236497Y-118493261D01*
X103236488Y-118493258D01*
X103016697Y-118434366D01*
X103016693Y-118434365D01*
X103016692Y-118434365D01*
X103016691Y-118434364D01*
X103016686Y-118434364D01*
X102790002Y-118414532D01*
X102789998Y-118414532D01*
X102563313Y-118434364D01*
X102563302Y-118434366D01*
X102343511Y-118493258D01*
X102343502Y-118493261D01*
X102137267Y-118589431D01*
X102137265Y-118589432D01*
X101950858Y-118719954D01*
X101789954Y-118880858D01*
X101659432Y-119067265D01*
X101659431Y-119067267D01*
X101563261Y-119273502D01*
X101563258Y-119273511D01*
X101504366Y-119493302D01*
X101504364Y-119493313D01*
X101484532Y-119719998D01*
X101484532Y-119720001D01*
X93034500Y-119720001D01*
X93034500Y-115260001D01*
X93964532Y-115260001D01*
X93984364Y-115486686D01*
X93984366Y-115486697D01*
X94043258Y-115706488D01*
X94043261Y-115706497D01*
X94139431Y-115912732D01*
X94139432Y-115912734D01*
X94269954Y-116099141D01*
X94430858Y-116260045D01*
X94439134Y-116265840D01*
X94617266Y-116390568D01*
X94823504Y-116486739D01*
X94823509Y-116486740D01*
X94823511Y-116486741D01*
X94865572Y-116498011D01*
X95043308Y-116545635D01*
X95205230Y-116559801D01*
X95269998Y-116565468D01*
X95270000Y-116565468D01*
X95270002Y-116565468D01*
X95326672Y-116560509D01*
X95496692Y-116545635D01*
X95716496Y-116486739D01*
X95922734Y-116390568D01*
X96109139Y-116260047D01*
X96270047Y-116099139D01*
X96400568Y-115912734D01*
X96496739Y-115706496D01*
X96555635Y-115486692D01*
X96575468Y-115260001D01*
X101584532Y-115260001D01*
X101604364Y-115486686D01*
X101604366Y-115486697D01*
X101663258Y-115706488D01*
X101663261Y-115706497D01*
X101759431Y-115912732D01*
X101759432Y-115912734D01*
X101889954Y-116099141D01*
X102050858Y-116260045D01*
X102059134Y-116265840D01*
X102237266Y-116390568D01*
X102443504Y-116486739D01*
X102443509Y-116486740D01*
X102443511Y-116486741D01*
X102485572Y-116498011D01*
X102663308Y-116545635D01*
X102825230Y-116559801D01*
X102889998Y-116565468D01*
X102890000Y-116565468D01*
X102890002Y-116565468D01*
X102946673Y-116560509D01*
X103116692Y-116545635D01*
X103336496Y-116486739D01*
X103542734Y-116390568D01*
X103729139Y-116260047D01*
X103890047Y-116099139D01*
X104020568Y-115912734D01*
X104116739Y-115706496D01*
X104175635Y-115486692D01*
X104195468Y-115260000D01*
X104175635Y-115033308D01*
X104116739Y-114813504D01*
X104020568Y-114607266D01*
X103890047Y-114420861D01*
X103890045Y-114420858D01*
X103729141Y-114259954D01*
X103542734Y-114129432D01*
X103542732Y-114129431D01*
X103336497Y-114033261D01*
X103336488Y-114033258D01*
X103116697Y-113974366D01*
X103116693Y-113974365D01*
X103116692Y-113974365D01*
X103116691Y-113974364D01*
X103116686Y-113974364D01*
X102890002Y-113954532D01*
X102889998Y-113954532D01*
X102663313Y-113974364D01*
X102663302Y-113974366D01*
X102443511Y-114033258D01*
X102443502Y-114033261D01*
X102237267Y-114129431D01*
X102237265Y-114129432D01*
X102050858Y-114259954D01*
X101889954Y-114420858D01*
X101759432Y-114607265D01*
X101759431Y-114607267D01*
X101663261Y-114813502D01*
X101663258Y-114813511D01*
X101604366Y-115033302D01*
X101604364Y-115033313D01*
X101584532Y-115259998D01*
X101584532Y-115260001D01*
X96575468Y-115260001D01*
X96575468Y-115260000D01*
X96555635Y-115033308D01*
X96496739Y-114813504D01*
X96400568Y-114607266D01*
X96270047Y-114420861D01*
X96270045Y-114420858D01*
X96109141Y-114259954D01*
X95922734Y-114129432D01*
X95922732Y-114129431D01*
X95716497Y-114033261D01*
X95716488Y-114033258D01*
X95496697Y-113974366D01*
X95496693Y-113974365D01*
X95496692Y-113974365D01*
X95496691Y-113974364D01*
X95496686Y-113974364D01*
X95270002Y-113954532D01*
X95269998Y-113954532D01*
X95043313Y-113974364D01*
X95043302Y-113974366D01*
X94823511Y-114033258D01*
X94823502Y-114033261D01*
X94617267Y-114129431D01*
X94617265Y-114129432D01*
X94430858Y-114259954D01*
X94269954Y-114420858D01*
X94139432Y-114607265D01*
X94139431Y-114607267D01*
X94043261Y-114813502D01*
X94043258Y-114813511D01*
X93984366Y-115033302D01*
X93984364Y-115033313D01*
X93964532Y-115259998D01*
X93964532Y-115260001D01*
X93034500Y-115260001D01*
X93034500Y-110620001D01*
X93944532Y-110620001D01*
X93964364Y-110846686D01*
X93964366Y-110846697D01*
X94023258Y-111066488D01*
X94023261Y-111066497D01*
X94119431Y-111272732D01*
X94119432Y-111272734D01*
X94249954Y-111459141D01*
X94410858Y-111620045D01*
X94410861Y-111620047D01*
X94597266Y-111750568D01*
X94803504Y-111846739D01*
X95023308Y-111905635D01*
X95185230Y-111919801D01*
X95249998Y-111925468D01*
X95250000Y-111925468D01*
X95250002Y-111925468D01*
X95306672Y-111920509D01*
X95476692Y-111905635D01*
X95696496Y-111846739D01*
X95902734Y-111750568D01*
X96089139Y-111620047D01*
X96250047Y-111459139D01*
X96380568Y-111272734D01*
X96476739Y-111066496D01*
X96535635Y-110846692D01*
X96555468Y-110620001D01*
X101564532Y-110620001D01*
X101584364Y-110846686D01*
X101584366Y-110846697D01*
X101643258Y-111066488D01*
X101643261Y-111066497D01*
X101739431Y-111272732D01*
X101739432Y-111272734D01*
X101869954Y-111459141D01*
X102030858Y-111620045D01*
X102030861Y-111620047D01*
X102217266Y-111750568D01*
X102423504Y-111846739D01*
X102643308Y-111905635D01*
X102805230Y-111919801D01*
X102869998Y-111925468D01*
X102870000Y-111925468D01*
X102870002Y-111925468D01*
X102926673Y-111920509D01*
X103096692Y-111905635D01*
X103316496Y-111846739D01*
X103522734Y-111750568D01*
X103709139Y-111620047D01*
X103870047Y-111459139D01*
X104000568Y-111272734D01*
X104096739Y-111066496D01*
X104155635Y-110846692D01*
X104175468Y-110620000D01*
X104155635Y-110393308D01*
X104096739Y-110173504D01*
X104000568Y-109967266D01*
X103870047Y-109780861D01*
X103870045Y-109780858D01*
X103709141Y-109619954D01*
X103522734Y-109489432D01*
X103522732Y-109489431D01*
X103316497Y-109393261D01*
X103316488Y-109393258D01*
X103096697Y-109334366D01*
X103096693Y-109334365D01*
X103096692Y-109334365D01*
X103096691Y-109334364D01*
X103096686Y-109334364D01*
X102870002Y-109314532D01*
X102869998Y-109314532D01*
X102643313Y-109334364D01*
X102643302Y-109334366D01*
X102423511Y-109393258D01*
X102423502Y-109393261D01*
X102217267Y-109489431D01*
X102217265Y-109489432D01*
X102030858Y-109619954D01*
X101869954Y-109780858D01*
X101739432Y-109967265D01*
X101739431Y-109967267D01*
X101643261Y-110173502D01*
X101643258Y-110173511D01*
X101584366Y-110393302D01*
X101584364Y-110393313D01*
X101564532Y-110619998D01*
X101564532Y-110620001D01*
X96555468Y-110620001D01*
X96555468Y-110620000D01*
X96535635Y-110393308D01*
X96476739Y-110173504D01*
X96380568Y-109967266D01*
X96250047Y-109780861D01*
X96250045Y-109780858D01*
X96089141Y-109619954D01*
X95902734Y-109489432D01*
X95902732Y-109489431D01*
X95696497Y-109393261D01*
X95696488Y-109393258D01*
X95476697Y-109334366D01*
X95476693Y-109334365D01*
X95476692Y-109334365D01*
X95476691Y-109334364D01*
X95476686Y-109334364D01*
X95250002Y-109314532D01*
X95249998Y-109314532D01*
X95023313Y-109334364D01*
X95023302Y-109334366D01*
X94803511Y-109393258D01*
X94803502Y-109393261D01*
X94597267Y-109489431D01*
X94597265Y-109489432D01*
X94410858Y-109619954D01*
X94249954Y-109780858D01*
X94119432Y-109967265D01*
X94119431Y-109967267D01*
X94023261Y-110173502D01*
X94023258Y-110173511D01*
X93964366Y-110393302D01*
X93964364Y-110393313D01*
X93944532Y-110619998D01*
X93944532Y-110620001D01*
X93034500Y-110620001D01*
X93034500Y-109123885D01*
X93054185Y-109056846D01*
X93070814Y-109036209D01*
X94959853Y-107147169D01*
X95021174Y-107113686D01*
X95058336Y-107111324D01*
X95197384Y-107123489D01*
X95219999Y-107125468D01*
X95220000Y-107125468D01*
X95220002Y-107125468D01*
X95276673Y-107120509D01*
X95446692Y-107105635D01*
X95666496Y-107046739D01*
X95872734Y-106950568D01*
X96059139Y-106820047D01*
X96220047Y-106659139D01*
X96350568Y-106472734D01*
X96446739Y-106266496D01*
X96505635Y-106046692D01*
X96525468Y-105820000D01*
X96505635Y-105593308D01*
X96460916Y-105426415D01*
X96446741Y-105373511D01*
X96446738Y-105373502D01*
X96350568Y-105167267D01*
X96350567Y-105167265D01*
X96220045Y-104980858D01*
X96059141Y-104819954D01*
X95872734Y-104689432D01*
X95872732Y-104689431D01*
X95666497Y-104593261D01*
X95666488Y-104593258D01*
X95446697Y-104534366D01*
X95446693Y-104534365D01*
X95446692Y-104534365D01*
X95446691Y-104534364D01*
X95446686Y-104534364D01*
X95220002Y-104514532D01*
X95219998Y-104514532D01*
X94993313Y-104534364D01*
X94993302Y-104534366D01*
X94773511Y-104593258D01*
X94773502Y-104593261D01*
X94567267Y-104689431D01*
X94567265Y-104689432D01*
X94380858Y-104819954D01*
X94219954Y-104980858D01*
X94089432Y-105167265D01*
X94089431Y-105167267D01*
X93993261Y-105373502D01*
X93993258Y-105373511D01*
X93934366Y-105593302D01*
X93934364Y-105593313D01*
X93914532Y-105819998D01*
X93914532Y-105820003D01*
X93928674Y-105981660D01*
X93914907Y-106050159D01*
X93892827Y-106080147D01*
X91791742Y-108181232D01*
X91778113Y-108193011D01*
X91758706Y-108207459D01*
X91724939Y-108247700D01*
X91721295Y-108251678D01*
X91715419Y-108257555D01*
X91694972Y-108283414D01*
X91645334Y-108342570D01*
X91641366Y-108348605D01*
X91641322Y-108348576D01*
X91637209Y-108355031D01*
X91637254Y-108355059D01*
X91633459Y-108361211D01*
X91600827Y-108431191D01*
X91566176Y-108500188D01*
X91563704Y-108506979D01*
X91563655Y-108506961D01*
X91561141Y-108514193D01*
X91561191Y-108514210D01*
X91558920Y-108521062D01*
X91543304Y-108596688D01*
X91525498Y-108671818D01*
X91524661Y-108678987D01*
X91524607Y-108678980D01*
X91523830Y-108686596D01*
X91523883Y-108686601D01*
X91523253Y-108693790D01*
X91525500Y-108770981D01*
X91525500Y-131426114D01*
X91505815Y-131493153D01*
X91489181Y-131513795D01*
X88933795Y-134069181D01*
X88872472Y-134102666D01*
X88846114Y-134105500D01*
X77933999Y-134105500D01*
X77916030Y-134104191D01*
X77892090Y-134100684D01*
X77847466Y-134104589D01*
X77839752Y-134105264D01*
X77834350Y-134105500D01*
X77826055Y-134105500D01*
X77799873Y-134108560D01*
X77793327Y-134109325D01*
X77787598Y-134109826D01*
X77716387Y-134116056D01*
X77709321Y-134117516D01*
X77709310Y-134117464D01*
X77701832Y-134119122D01*
X77701845Y-134119174D01*
X77694819Y-134120839D01*
X77694816Y-134120839D01*
X77694816Y-134120840D01*
X77688035Y-134123308D01*
X77622260Y-134147247D01*
X77548962Y-134171536D01*
X77542420Y-134174587D01*
X77542397Y-134174539D01*
X77535507Y-134177875D01*
X77535531Y-134177922D01*
X77529076Y-134181163D01*
X77464555Y-134223598D01*
X77398849Y-134264127D01*
X77393179Y-134268611D01*
X77393146Y-134268569D01*
X77387214Y-134273401D01*
X77387248Y-134273442D01*
X77381717Y-134278082D01*
X77328728Y-134334247D01*
X71734400Y-139928574D01*
X71673077Y-139962059D01*
X71626310Y-139963202D01*
X71424335Y-139929500D01*
X71175665Y-139929500D01*
X70930383Y-139970429D01*
X70695197Y-140051169D01*
X70695188Y-140051172D01*
X70476493Y-140169524D01*
X70280257Y-140322261D01*
X70111833Y-140505217D01*
X69975826Y-140713393D01*
X69875936Y-140941118D01*
X69814892Y-141182175D01*
X69814890Y-141182187D01*
X69794357Y-141429994D01*
X69794357Y-141430005D01*
X60305643Y-141430005D01*
X60305643Y-141429994D01*
X60285109Y-141182187D01*
X60285107Y-141182175D01*
X60224063Y-140941118D01*
X60124173Y-140713393D01*
X59988166Y-140505217D01*
X59915788Y-140426594D01*
X59819744Y-140322262D01*
X59623509Y-140169526D01*
X59623507Y-140169525D01*
X59623506Y-140169524D01*
X59404811Y-140051172D01*
X59404802Y-140051169D01*
X59169616Y-139970429D01*
X58924335Y-139929500D01*
X58675665Y-139929500D01*
X58430383Y-139970429D01*
X58195197Y-140051169D01*
X58195188Y-140051172D01*
X57976493Y-140169524D01*
X57780257Y-140322261D01*
X57611833Y-140505217D01*
X57475826Y-140713393D01*
X57375936Y-140941118D01*
X57314892Y-141182175D01*
X57314890Y-141182187D01*
X57294357Y-141429994D01*
X57294357Y-141430005D01*
X50997625Y-141430005D01*
X50996258Y-136430005D01*
X57294357Y-136430005D01*
X57314890Y-136677812D01*
X57314892Y-136677824D01*
X57375936Y-136918881D01*
X57475826Y-137146606D01*
X57611833Y-137354782D01*
X57611836Y-137354785D01*
X57780256Y-137537738D01*
X57976491Y-137690474D01*
X58195190Y-137808828D01*
X58430386Y-137889571D01*
X58675665Y-137930500D01*
X58924335Y-137930500D01*
X59169614Y-137889571D01*
X59404810Y-137808828D01*
X59623509Y-137690474D01*
X59819744Y-137537738D01*
X59988164Y-137354785D01*
X60124173Y-137146607D01*
X60224063Y-136918881D01*
X60285108Y-136677821D01*
X60305643Y-136430005D01*
X69794357Y-136430005D01*
X69814890Y-136677812D01*
X69814892Y-136677824D01*
X69875936Y-136918881D01*
X69975826Y-137146606D01*
X70111833Y-137354782D01*
X70111836Y-137354785D01*
X70280256Y-137537738D01*
X70476491Y-137690474D01*
X70695190Y-137808828D01*
X70930386Y-137889571D01*
X71175665Y-137930500D01*
X71424335Y-137930500D01*
X71669614Y-137889571D01*
X71904810Y-137808828D01*
X72123509Y-137690474D01*
X72319744Y-137537738D01*
X72488164Y-137354785D01*
X72624173Y-137146607D01*
X72724063Y-136918881D01*
X72785108Y-136677821D01*
X72805643Y-136430000D01*
X72785108Y-136182179D01*
X72724063Y-135941119D01*
X72624173Y-135713393D01*
X72583292Y-135650819D01*
X72488166Y-135505217D01*
X72465474Y-135480567D01*
X72319744Y-135322262D01*
X72123509Y-135169526D01*
X72123507Y-135169525D01*
X72123506Y-135169524D01*
X71904811Y-135051172D01*
X71904802Y-135051169D01*
X71669616Y-134970429D01*
X71424335Y-134929500D01*
X71175665Y-134929500D01*
X70930383Y-134970429D01*
X70695197Y-135051169D01*
X70695188Y-135051172D01*
X70476493Y-135169524D01*
X70280257Y-135322261D01*
X70111833Y-135505217D01*
X69975826Y-135713393D01*
X69875936Y-135941118D01*
X69814892Y-136182175D01*
X69814890Y-136182187D01*
X69794357Y-136429994D01*
X69794357Y-136430005D01*
X60305643Y-136430005D01*
X60305643Y-136430000D01*
X60285108Y-136182179D01*
X60224063Y-135941119D01*
X60124173Y-135713393D01*
X60083292Y-135650819D01*
X59988166Y-135505217D01*
X59965474Y-135480567D01*
X59819744Y-135322262D01*
X59623509Y-135169526D01*
X59623507Y-135169525D01*
X59623506Y-135169524D01*
X59404811Y-135051172D01*
X59404802Y-135051169D01*
X59169616Y-134970429D01*
X58924335Y-134929500D01*
X58675665Y-134929500D01*
X58430383Y-134970429D01*
X58195197Y-135051169D01*
X58195188Y-135051172D01*
X57976493Y-135169524D01*
X57780257Y-135322261D01*
X57611833Y-135505217D01*
X57475826Y-135713393D01*
X57375936Y-135941118D01*
X57314892Y-136182175D01*
X57314890Y-136182187D01*
X57294357Y-136429994D01*
X57294357Y-136430005D01*
X50996258Y-136430005D01*
X50995741Y-134538926D01*
X63874500Y-134538926D01*
X63914530Y-134753069D01*
X63950721Y-134846488D01*
X63993226Y-134956207D01*
X63993229Y-134956213D01*
X64094110Y-135119141D01*
X64107912Y-135141432D01*
X64254678Y-135302427D01*
X64428528Y-135433712D01*
X64623541Y-135530817D01*
X64833077Y-135590435D01*
X64995653Y-135605500D01*
X64995656Y-135605500D01*
X65104344Y-135605500D01*
X65104347Y-135605500D01*
X65266923Y-135590435D01*
X65476459Y-135530817D01*
X65671472Y-135433712D01*
X65845322Y-135302427D01*
X65992088Y-135141432D01*
X66106772Y-134956210D01*
X66185470Y-134753069D01*
X66225500Y-134538926D01*
X66225500Y-134321074D01*
X66185470Y-134106931D01*
X66106772Y-133903790D01*
X66106599Y-133903511D01*
X65992093Y-133718576D01*
X65992092Y-133718575D01*
X65992088Y-133718568D01*
X65845322Y-133557573D01*
X65671472Y-133426288D01*
X65671471Y-133426287D01*
X65476462Y-133329184D01*
X65476459Y-133329183D01*
X65266923Y-133269565D01*
X65266920Y-133269564D01*
X65266918Y-133269564D01*
X65159819Y-133259640D01*
X65104347Y-133254500D01*
X64995653Y-133254500D01*
X64945845Y-133259115D01*
X64833081Y-133269564D01*
X64623537Y-133329184D01*
X64428527Y-133426288D01*
X64254676Y-133557574D01*
X64107913Y-133718566D01*
X64107906Y-133718576D01*
X63993229Y-133903786D01*
X63993226Y-133903792D01*
X63935306Y-134053302D01*
X63914530Y-134106931D01*
X63874500Y-134321074D01*
X63874500Y-134538926D01*
X50995741Y-134538926D01*
X50994467Y-129880001D01*
X80714532Y-129880001D01*
X80734364Y-130106686D01*
X80734366Y-130106697D01*
X80793258Y-130326488D01*
X80793261Y-130326497D01*
X80889431Y-130532732D01*
X80889432Y-130532734D01*
X81019954Y-130719141D01*
X81180858Y-130880045D01*
X81180861Y-130880047D01*
X81367266Y-131010568D01*
X81573504Y-131106739D01*
X81793308Y-131165635D01*
X81955230Y-131179801D01*
X82019998Y-131185468D01*
X82020000Y-131185468D01*
X82020002Y-131185468D01*
X82076673Y-131180509D01*
X82246692Y-131165635D01*
X82466496Y-131106739D01*
X82672734Y-131010568D01*
X82859139Y-130880047D01*
X83020047Y-130719139D01*
X83150568Y-130532734D01*
X83246739Y-130326496D01*
X83305635Y-130106692D01*
X83325468Y-129880000D01*
X83305635Y-129653308D01*
X83246739Y-129433504D01*
X83150568Y-129227266D01*
X83020047Y-129040861D01*
X83020045Y-129040858D01*
X82859141Y-128879954D01*
X82672734Y-128749432D01*
X82672732Y-128749431D01*
X82466497Y-128653261D01*
X82466488Y-128653258D01*
X82246697Y-128594366D01*
X82246693Y-128594365D01*
X82246692Y-128594365D01*
X82246691Y-128594364D01*
X82246686Y-128594364D01*
X82020002Y-128574532D01*
X82019998Y-128574532D01*
X81793313Y-128594364D01*
X81793302Y-128594366D01*
X81573511Y-128653258D01*
X81573502Y-128653261D01*
X81367267Y-128749431D01*
X81367265Y-128749432D01*
X81180858Y-128879954D01*
X81019954Y-129040858D01*
X80889432Y-129227265D01*
X80889431Y-129227267D01*
X80793261Y-129433502D01*
X80793258Y-129433511D01*
X80734366Y-129653302D01*
X80734364Y-129653313D01*
X80714532Y-129879998D01*
X80714532Y-129880001D01*
X50994467Y-129880001D01*
X50993056Y-124720005D01*
X61794357Y-124720005D01*
X61814890Y-124967812D01*
X61814892Y-124967824D01*
X61875936Y-125208881D01*
X61975826Y-125436606D01*
X62111833Y-125644782D01*
X62111836Y-125644785D01*
X62280256Y-125827738D01*
X62476491Y-125980474D01*
X62476493Y-125980475D01*
X62683123Y-126092298D01*
X62695190Y-126098828D01*
X62930386Y-126179571D01*
X63175665Y-126220500D01*
X63424335Y-126220500D01*
X63669614Y-126179571D01*
X63904810Y-126098828D01*
X64123509Y-125980474D01*
X64319744Y-125827738D01*
X64457707Y-125677870D01*
X71204500Y-125677870D01*
X71204501Y-125677876D01*
X71210908Y-125737483D01*
X71261202Y-125872328D01*
X71261206Y-125872335D01*
X71347452Y-125987544D01*
X71347455Y-125987547D01*
X71462664Y-126073793D01*
X71462671Y-126073797D01*
X71597517Y-126124091D01*
X71597516Y-126124091D01*
X71604444Y-126124835D01*
X71657127Y-126130500D01*
X73552872Y-126130499D01*
X73612483Y-126124091D01*
X73747331Y-126073796D01*
X73862546Y-125987546D01*
X73948796Y-125872331D01*
X73965428Y-125827738D01*
X73977455Y-125795493D01*
X74019326Y-125739559D01*
X74084790Y-125715141D01*
X74153063Y-125729992D01*
X74184866Y-125754843D01*
X74192302Y-125762920D01*
X74193215Y-125763912D01*
X74193222Y-125763918D01*
X74376365Y-125906464D01*
X74376371Y-125906468D01*
X74376374Y-125906470D01*
X74580497Y-126016936D01*
X74694487Y-126056068D01*
X74800015Y-126092297D01*
X74800017Y-126092297D01*
X74800019Y-126092298D01*
X75028951Y-126130500D01*
X75028952Y-126130500D01*
X75261048Y-126130500D01*
X75261049Y-126130500D01*
X75489981Y-126092298D01*
X75709503Y-126016936D01*
X75913626Y-125906470D01*
X75933685Y-125890858D01*
X76054610Y-125796738D01*
X76096784Y-125763913D01*
X76253979Y-125593153D01*
X76380924Y-125398849D01*
X76474157Y-125186300D01*
X76531134Y-124961305D01*
X76531135Y-124961297D01*
X76550300Y-124730006D01*
X76550300Y-124729993D01*
X76537043Y-124570001D01*
X80654532Y-124570001D01*
X80674364Y-124796686D01*
X80674366Y-124796697D01*
X80733258Y-125016488D01*
X80733261Y-125016497D01*
X80829431Y-125222732D01*
X80829432Y-125222734D01*
X80959954Y-125409141D01*
X81120858Y-125570045D01*
X81167693Y-125602839D01*
X81307266Y-125700568D01*
X81513504Y-125796739D01*
X81733308Y-125855635D01*
X81895230Y-125869801D01*
X81959998Y-125875468D01*
X81960000Y-125875468D01*
X81960002Y-125875468D01*
X82016672Y-125870509D01*
X82186692Y-125855635D01*
X82406496Y-125796739D01*
X82612734Y-125700568D01*
X82799139Y-125570047D01*
X82960047Y-125409139D01*
X83090568Y-125222734D01*
X83186739Y-125016496D01*
X83245635Y-124796692D01*
X83265468Y-124570001D01*
X88274532Y-124570001D01*
X88294364Y-124796686D01*
X88294366Y-124796697D01*
X88353258Y-125016488D01*
X88353261Y-125016497D01*
X88449431Y-125222732D01*
X88449432Y-125222734D01*
X88579954Y-125409141D01*
X88740858Y-125570045D01*
X88787693Y-125602839D01*
X88927266Y-125700568D01*
X89133504Y-125796739D01*
X89353308Y-125855635D01*
X89515230Y-125869801D01*
X89579998Y-125875468D01*
X89580000Y-125875468D01*
X89580002Y-125875468D01*
X89636672Y-125870509D01*
X89806692Y-125855635D01*
X90026496Y-125796739D01*
X90232734Y-125700568D01*
X90419139Y-125570047D01*
X90580047Y-125409139D01*
X90710568Y-125222734D01*
X90806739Y-125016496D01*
X90865635Y-124796692D01*
X90885468Y-124570000D01*
X90865635Y-124343308D01*
X90806739Y-124123504D01*
X90710568Y-123917266D01*
X90580047Y-123730861D01*
X90580045Y-123730858D01*
X90419141Y-123569954D01*
X90232734Y-123439432D01*
X90232732Y-123439431D01*
X90026497Y-123343261D01*
X90026488Y-123343258D01*
X89806697Y-123284366D01*
X89806693Y-123284365D01*
X89806692Y-123284365D01*
X89806691Y-123284364D01*
X89806686Y-123284364D01*
X89580002Y-123264532D01*
X89579998Y-123264532D01*
X89353313Y-123284364D01*
X89353302Y-123284366D01*
X89133511Y-123343258D01*
X89133502Y-123343261D01*
X88927267Y-123439431D01*
X88927265Y-123439432D01*
X88740858Y-123569954D01*
X88579954Y-123730858D01*
X88449432Y-123917265D01*
X88449431Y-123917267D01*
X88353261Y-124123502D01*
X88353258Y-124123511D01*
X88294366Y-124343302D01*
X88294364Y-124343313D01*
X88274532Y-124569998D01*
X88274532Y-124570001D01*
X83265468Y-124570001D01*
X83265468Y-124570000D01*
X83245635Y-124343308D01*
X83186739Y-124123504D01*
X83090568Y-123917266D01*
X82960047Y-123730861D01*
X82960045Y-123730858D01*
X82799141Y-123569954D01*
X82612734Y-123439432D01*
X82612732Y-123439431D01*
X82406497Y-123343261D01*
X82406488Y-123343258D01*
X82186697Y-123284366D01*
X82186693Y-123284365D01*
X82186692Y-123284365D01*
X82186691Y-123284364D01*
X82186686Y-123284364D01*
X81960002Y-123264532D01*
X81959998Y-123264532D01*
X81733313Y-123284364D01*
X81733302Y-123284366D01*
X81513511Y-123343258D01*
X81513502Y-123343261D01*
X81307267Y-123439431D01*
X81307265Y-123439432D01*
X81120858Y-123569954D01*
X80959954Y-123730858D01*
X80829432Y-123917265D01*
X80829431Y-123917267D01*
X80733261Y-124123502D01*
X80733258Y-124123511D01*
X80674366Y-124343302D01*
X80674364Y-124343313D01*
X80654532Y-124569998D01*
X80654532Y-124570001D01*
X76537043Y-124570001D01*
X76531135Y-124498702D01*
X76531133Y-124498691D01*
X76474157Y-124273699D01*
X76380924Y-124061151D01*
X76253983Y-123866852D01*
X76253980Y-123866849D01*
X76253979Y-123866847D01*
X76096784Y-123696087D01*
X76096779Y-123696083D01*
X76096777Y-123696081D01*
X75913634Y-123553535D01*
X75913628Y-123553531D01*
X75709504Y-123443064D01*
X75709495Y-123443061D01*
X75489984Y-123367702D01*
X75299450Y-123335908D01*
X75261049Y-123329500D01*
X75028951Y-123329500D01*
X74990550Y-123335908D01*
X74800015Y-123367702D01*
X74580504Y-123443061D01*
X74580495Y-123443064D01*
X74376371Y-123553531D01*
X74376365Y-123553535D01*
X74193222Y-123696081D01*
X74193218Y-123696085D01*
X74184866Y-123705158D01*
X74124979Y-123741148D01*
X74055141Y-123739047D01*
X73997525Y-123699522D01*
X73977455Y-123664507D01*
X73948797Y-123587671D01*
X73948793Y-123587664D01*
X73862547Y-123472455D01*
X73862544Y-123472452D01*
X73747335Y-123386206D01*
X73747328Y-123386202D01*
X73612482Y-123335908D01*
X73612483Y-123335908D01*
X73552883Y-123329501D01*
X73552881Y-123329500D01*
X73552873Y-123329500D01*
X73552865Y-123329500D01*
X73483500Y-123329500D01*
X73416461Y-123309815D01*
X73370706Y-123257011D01*
X73359500Y-123205500D01*
X73359500Y-120080001D01*
X80754532Y-120080001D01*
X80774364Y-120306686D01*
X80774366Y-120306697D01*
X80833258Y-120526488D01*
X80833261Y-120526497D01*
X80929431Y-120732732D01*
X80929432Y-120732734D01*
X81059954Y-120919141D01*
X81220858Y-121080045D01*
X81220861Y-121080047D01*
X81407266Y-121210568D01*
X81613504Y-121306739D01*
X81833308Y-121365635D01*
X81995230Y-121379801D01*
X82059998Y-121385468D01*
X82060000Y-121385468D01*
X82060002Y-121385468D01*
X82116673Y-121380509D01*
X82286692Y-121365635D01*
X82506496Y-121306739D01*
X82712734Y-121210568D01*
X82899139Y-121080047D01*
X83060047Y-120919139D01*
X83190568Y-120732734D01*
X83286739Y-120526496D01*
X83345635Y-120306692D01*
X83365468Y-120080001D01*
X88374532Y-120080001D01*
X88394364Y-120306686D01*
X88394366Y-120306697D01*
X88453258Y-120526488D01*
X88453261Y-120526497D01*
X88549431Y-120732732D01*
X88549432Y-120732734D01*
X88679954Y-120919141D01*
X88840858Y-121080045D01*
X88840861Y-121080047D01*
X89027266Y-121210568D01*
X89233504Y-121306739D01*
X89453308Y-121365635D01*
X89615230Y-121379801D01*
X89679998Y-121385468D01*
X89680000Y-121385468D01*
X89680002Y-121385468D01*
X89736672Y-121380509D01*
X89906692Y-121365635D01*
X90126496Y-121306739D01*
X90332734Y-121210568D01*
X90519139Y-121080047D01*
X90680047Y-120919139D01*
X90810568Y-120732734D01*
X90906739Y-120526496D01*
X90965635Y-120306692D01*
X90985468Y-120080000D01*
X90965635Y-119853308D01*
X90906739Y-119633504D01*
X90810568Y-119427266D01*
X90680047Y-119240861D01*
X90680045Y-119240858D01*
X90519141Y-119079954D01*
X90332734Y-118949432D01*
X90332732Y-118949431D01*
X90126497Y-118853261D01*
X90126488Y-118853258D01*
X89906697Y-118794366D01*
X89906693Y-118794365D01*
X89906692Y-118794365D01*
X89906691Y-118794364D01*
X89906686Y-118794364D01*
X89680002Y-118774532D01*
X89679998Y-118774532D01*
X89453313Y-118794364D01*
X89453302Y-118794366D01*
X89233511Y-118853258D01*
X89233502Y-118853261D01*
X89027267Y-118949431D01*
X89027265Y-118949432D01*
X88840858Y-119079954D01*
X88679954Y-119240858D01*
X88549432Y-119427265D01*
X88549431Y-119427267D01*
X88453261Y-119633502D01*
X88453258Y-119633511D01*
X88394366Y-119853302D01*
X88394364Y-119853313D01*
X88374532Y-120079998D01*
X88374532Y-120080001D01*
X83365468Y-120080001D01*
X83365468Y-120080000D01*
X83345635Y-119853308D01*
X83286739Y-119633504D01*
X83190568Y-119427266D01*
X83060047Y-119240861D01*
X83060045Y-119240858D01*
X82899141Y-119079954D01*
X82712734Y-118949432D01*
X82712732Y-118949431D01*
X82506497Y-118853261D01*
X82506488Y-118853258D01*
X82286697Y-118794366D01*
X82286693Y-118794365D01*
X82286692Y-118794365D01*
X82286691Y-118794364D01*
X82286686Y-118794364D01*
X82060002Y-118774532D01*
X82059998Y-118774532D01*
X81833313Y-118794364D01*
X81833302Y-118794366D01*
X81613511Y-118853258D01*
X81613502Y-118853261D01*
X81407267Y-118949431D01*
X81407265Y-118949432D01*
X81220858Y-119079954D01*
X81059954Y-119240858D01*
X80929432Y-119427265D01*
X80929431Y-119427267D01*
X80833261Y-119633502D01*
X80833258Y-119633511D01*
X80774366Y-119853302D01*
X80774364Y-119853313D01*
X80754532Y-120079998D01*
X80754532Y-120080001D01*
X73359500Y-120080001D01*
X73359500Y-117428884D01*
X73379185Y-117361845D01*
X73395814Y-117341208D01*
X75497021Y-115240001D01*
X80864532Y-115240001D01*
X80884364Y-115466686D01*
X80884366Y-115466697D01*
X80943258Y-115686488D01*
X80943261Y-115686497D01*
X81039431Y-115892732D01*
X81039432Y-115892734D01*
X81169954Y-116079141D01*
X81330858Y-116240045D01*
X81345075Y-116250000D01*
X81517266Y-116370568D01*
X81723504Y-116466739D01*
X81943308Y-116525635D01*
X82105230Y-116539801D01*
X82169998Y-116545468D01*
X82170000Y-116545468D01*
X82170002Y-116545468D01*
X82226673Y-116540509D01*
X82396692Y-116525635D01*
X82616496Y-116466739D01*
X82822734Y-116370568D01*
X83009139Y-116240047D01*
X83170047Y-116079139D01*
X83300568Y-115892734D01*
X83396739Y-115686496D01*
X83455635Y-115466692D01*
X83475468Y-115240001D01*
X88484532Y-115240001D01*
X88504364Y-115466686D01*
X88504366Y-115466697D01*
X88563258Y-115686488D01*
X88563261Y-115686497D01*
X88659431Y-115892732D01*
X88659432Y-115892734D01*
X88789954Y-116079141D01*
X88950858Y-116240045D01*
X88965075Y-116250000D01*
X89137266Y-116370568D01*
X89343504Y-116466739D01*
X89563308Y-116525635D01*
X89725230Y-116539801D01*
X89789998Y-116545468D01*
X89790000Y-116545468D01*
X89790002Y-116545468D01*
X89846672Y-116540509D01*
X90016692Y-116525635D01*
X90236496Y-116466739D01*
X90442734Y-116370568D01*
X90629139Y-116240047D01*
X90790047Y-116079139D01*
X90920568Y-115892734D01*
X91016739Y-115686496D01*
X91075635Y-115466692D01*
X91095468Y-115240000D01*
X91075635Y-115013308D01*
X91016739Y-114793504D01*
X90920568Y-114587266D01*
X90790047Y-114400861D01*
X90790045Y-114400858D01*
X90629141Y-114239954D01*
X90442734Y-114109432D01*
X90442732Y-114109431D01*
X90236497Y-114013261D01*
X90236488Y-114013258D01*
X90016697Y-113954366D01*
X90016693Y-113954365D01*
X90016692Y-113954365D01*
X90016691Y-113954364D01*
X90016686Y-113954364D01*
X89790002Y-113934532D01*
X89789998Y-113934532D01*
X89563313Y-113954364D01*
X89563302Y-113954366D01*
X89343511Y-114013258D01*
X89343502Y-114013261D01*
X89137267Y-114109431D01*
X89137265Y-114109432D01*
X88950858Y-114239954D01*
X88789954Y-114400858D01*
X88659432Y-114587265D01*
X88659431Y-114587267D01*
X88563261Y-114793502D01*
X88563258Y-114793511D01*
X88504366Y-115013302D01*
X88504364Y-115013313D01*
X88484532Y-115239998D01*
X88484532Y-115240001D01*
X83475468Y-115240001D01*
X83475468Y-115240000D01*
X83455635Y-115013308D01*
X83396739Y-114793504D01*
X83300568Y-114587266D01*
X83170047Y-114400861D01*
X83170045Y-114400858D01*
X83009141Y-114239954D01*
X82822734Y-114109432D01*
X82822732Y-114109431D01*
X82616497Y-114013261D01*
X82616488Y-114013258D01*
X82396697Y-113954366D01*
X82396693Y-113954365D01*
X82396692Y-113954365D01*
X82396691Y-113954364D01*
X82396686Y-113954364D01*
X82170002Y-113934532D01*
X82169998Y-113934532D01*
X81943313Y-113954364D01*
X81943302Y-113954366D01*
X81723511Y-114013258D01*
X81723502Y-114013261D01*
X81517267Y-114109431D01*
X81517265Y-114109432D01*
X81330858Y-114239954D01*
X81169954Y-114400858D01*
X81039432Y-114587265D01*
X81039431Y-114587267D01*
X80943261Y-114793502D01*
X80943258Y-114793511D01*
X80884366Y-115013302D01*
X80884364Y-115013313D01*
X80864532Y-115239998D01*
X80864532Y-115240001D01*
X75497021Y-115240001D01*
X78178264Y-112558758D01*
X78191883Y-112546988D01*
X78211294Y-112532539D01*
X78245075Y-112492279D01*
X78248709Y-112488313D01*
X78254583Y-112482441D01*
X78275027Y-112456584D01*
X78324667Y-112397427D01*
X78324669Y-112397422D01*
X78328637Y-112391390D01*
X78328683Y-112391420D01*
X78332795Y-112384965D01*
X78332748Y-112384936D01*
X78336532Y-112378799D01*
X78336539Y-112378791D01*
X78369172Y-112308808D01*
X78403824Y-112239811D01*
X78403826Y-112239799D01*
X78406293Y-112233024D01*
X78406346Y-112233043D01*
X78408858Y-112225815D01*
X78408807Y-112225798D01*
X78411077Y-112218945D01*
X78411077Y-112218943D01*
X78411079Y-112218940D01*
X78426695Y-112143310D01*
X78444500Y-112068188D01*
X78444500Y-112068183D01*
X78445338Y-112061015D01*
X78445392Y-112061021D01*
X78446170Y-112053405D01*
X78446117Y-112053401D01*
X78446746Y-112046210D01*
X78444500Y-111969018D01*
X78444500Y-106060006D01*
X83119700Y-106060006D01*
X83138864Y-106291297D01*
X83138866Y-106291308D01*
X83195842Y-106516300D01*
X83289075Y-106728848D01*
X83416016Y-106923147D01*
X83416019Y-106923151D01*
X83416021Y-106923153D01*
X83573216Y-107093913D01*
X83573219Y-107093915D01*
X83573222Y-107093918D01*
X83756365Y-107236464D01*
X83756371Y-107236468D01*
X83756374Y-107236470D01*
X83960497Y-107346936D01*
X84074487Y-107386068D01*
X84180015Y-107422297D01*
X84180017Y-107422297D01*
X84180019Y-107422298D01*
X84408951Y-107460500D01*
X84408952Y-107460500D01*
X84641048Y-107460500D01*
X84641049Y-107460500D01*
X84869981Y-107422298D01*
X85089503Y-107346936D01*
X85293626Y-107236470D01*
X85476784Y-107093913D01*
X85633979Y-106923153D01*
X85644359Y-106907266D01*
X85701341Y-106820047D01*
X85760924Y-106728849D01*
X85854157Y-106516300D01*
X85911134Y-106291305D01*
X85913190Y-106266496D01*
X85930300Y-106060006D01*
X85930300Y-106059993D01*
X85911135Y-105828702D01*
X85911133Y-105828691D01*
X85854157Y-105603699D01*
X85760924Y-105391151D01*
X85633983Y-105196852D01*
X85633980Y-105196849D01*
X85633979Y-105196847D01*
X85476784Y-105026087D01*
X85476779Y-105026083D01*
X85476777Y-105026081D01*
X85293634Y-104883535D01*
X85293628Y-104883531D01*
X85089504Y-104773064D01*
X85089495Y-104773061D01*
X84869984Y-104697702D01*
X84698282Y-104669050D01*
X84641049Y-104659500D01*
X84408951Y-104659500D01*
X84363164Y-104667140D01*
X84180015Y-104697702D01*
X83960504Y-104773061D01*
X83960495Y-104773064D01*
X83756371Y-104883531D01*
X83756365Y-104883535D01*
X83573222Y-105026081D01*
X83573219Y-105026084D01*
X83573216Y-105026086D01*
X83573216Y-105026087D01*
X83546169Y-105055468D01*
X83416016Y-105196852D01*
X83289075Y-105391151D01*
X83195842Y-105603699D01*
X83138866Y-105828691D01*
X83138864Y-105828702D01*
X83119700Y-106059993D01*
X83119700Y-106060006D01*
X78444500Y-106060006D01*
X78444500Y-104423885D01*
X78464185Y-104356846D01*
X78480814Y-104336209D01*
X81797022Y-101020001D01*
X93954532Y-101020001D01*
X93974364Y-101246686D01*
X93974366Y-101246697D01*
X94033258Y-101466488D01*
X94033261Y-101466497D01*
X94129431Y-101672732D01*
X94129432Y-101672734D01*
X94259954Y-101859141D01*
X94420858Y-102020045D01*
X94420861Y-102020047D01*
X94607266Y-102150568D01*
X94813504Y-102246739D01*
X95033308Y-102305635D01*
X95195230Y-102319801D01*
X95259998Y-102325468D01*
X95260000Y-102325468D01*
X95260002Y-102325468D01*
X95316673Y-102320509D01*
X95486692Y-102305635D01*
X95706496Y-102246739D01*
X95912734Y-102150568D01*
X96099139Y-102020047D01*
X96260047Y-101859139D01*
X96390568Y-101672734D01*
X96486739Y-101466496D01*
X96545635Y-101246692D01*
X96565468Y-101020001D01*
X101574532Y-101020001D01*
X101594364Y-101246686D01*
X101594366Y-101246697D01*
X101653258Y-101466488D01*
X101653261Y-101466497D01*
X101749431Y-101672732D01*
X101749432Y-101672734D01*
X101879954Y-101859141D01*
X102040858Y-102020045D01*
X102040861Y-102020047D01*
X102227266Y-102150568D01*
X102433504Y-102246739D01*
X102653308Y-102305635D01*
X102815230Y-102319801D01*
X102879998Y-102325468D01*
X102880000Y-102325468D01*
X102880002Y-102325468D01*
X102936672Y-102320509D01*
X103106692Y-102305635D01*
X103326496Y-102246739D01*
X103532734Y-102150568D01*
X103719139Y-102020047D01*
X103880047Y-101859139D01*
X104010568Y-101672734D01*
X104106739Y-101466496D01*
X104165635Y-101246692D01*
X104185468Y-101020000D01*
X104165635Y-100793308D01*
X104106739Y-100573504D01*
X104010568Y-100367266D01*
X103880047Y-100180861D01*
X103880045Y-100180858D01*
X103719141Y-100019954D01*
X103532734Y-99889432D01*
X103532732Y-99889431D01*
X103326497Y-99793261D01*
X103326488Y-99793258D01*
X103106697Y-99734366D01*
X103106693Y-99734365D01*
X103106692Y-99734365D01*
X103106691Y-99734364D01*
X103106686Y-99734364D01*
X102880002Y-99714532D01*
X102879998Y-99714532D01*
X102653313Y-99734364D01*
X102653302Y-99734366D01*
X102433511Y-99793258D01*
X102433502Y-99793261D01*
X102227267Y-99889431D01*
X102227265Y-99889432D01*
X102040858Y-100019954D01*
X101879954Y-100180858D01*
X101749432Y-100367265D01*
X101749431Y-100367267D01*
X101653261Y-100573502D01*
X101653258Y-100573511D01*
X101594366Y-100793302D01*
X101594364Y-100793313D01*
X101574532Y-101019998D01*
X101574532Y-101020001D01*
X96565468Y-101020001D01*
X96565468Y-101020000D01*
X96545635Y-100793308D01*
X96486739Y-100573504D01*
X96390568Y-100367266D01*
X96260047Y-100180861D01*
X96260045Y-100180858D01*
X96099141Y-100019954D01*
X95912734Y-99889432D01*
X95912732Y-99889431D01*
X95706497Y-99793261D01*
X95706488Y-99793258D01*
X95486697Y-99734366D01*
X95486693Y-99734365D01*
X95486692Y-99734365D01*
X95486691Y-99734364D01*
X95486686Y-99734364D01*
X95260002Y-99714532D01*
X95259998Y-99714532D01*
X95033313Y-99734364D01*
X95033302Y-99734366D01*
X94813511Y-99793258D01*
X94813502Y-99793261D01*
X94607267Y-99889431D01*
X94607265Y-99889432D01*
X94420858Y-100019954D01*
X94259954Y-100180858D01*
X94129432Y-100367265D01*
X94129431Y-100367267D01*
X94033261Y-100573502D01*
X94033258Y-100573511D01*
X93974366Y-100793302D01*
X93974364Y-100793313D01*
X93954532Y-101019998D01*
X93954532Y-101020001D01*
X81797022Y-101020001D01*
X84557819Y-98259204D01*
X84619142Y-98225720D01*
X84688834Y-98230704D01*
X84744767Y-98272576D01*
X84769184Y-98338040D01*
X84769500Y-98346886D01*
X84769500Y-99538558D01*
X84784157Y-99668648D01*
X84784159Y-99668658D01*
X84840441Y-99829500D01*
X84841878Y-99833606D01*
X84934853Y-99981576D01*
X85058424Y-100105147D01*
X85206394Y-100198122D01*
X85371343Y-100255841D01*
X85371349Y-100255841D01*
X85371351Y-100255842D01*
X85412750Y-100260506D01*
X85501442Y-100270499D01*
X85501445Y-100270500D01*
X85501448Y-100270500D01*
X86138555Y-100270500D01*
X86138556Y-100270499D01*
X86268657Y-100255841D01*
X86433606Y-100198122D01*
X86581576Y-100105147D01*
X86705147Y-99981576D01*
X86798122Y-99833606D01*
X86855841Y-99668657D01*
X86870500Y-99538552D01*
X86870500Y-98201448D01*
X86855841Y-98071343D01*
X86798122Y-97906394D01*
X86705147Y-97758424D01*
X86581576Y-97634853D01*
X86433606Y-97541878D01*
X86433605Y-97541877D01*
X86433604Y-97541877D01*
X86268658Y-97484159D01*
X86268648Y-97484157D01*
X86138558Y-97469500D01*
X86138552Y-97469500D01*
X85724500Y-97469500D01*
X85657461Y-97449815D01*
X85611706Y-97397011D01*
X85600500Y-97345500D01*
X85600500Y-96131445D01*
X85600499Y-96131441D01*
X85600336Y-96129998D01*
X85585841Y-96001343D01*
X85564376Y-95940001D01*
X93874532Y-95940001D01*
X93894364Y-96166686D01*
X93894366Y-96166697D01*
X93953258Y-96386488D01*
X93953261Y-96386497D01*
X94049431Y-96592732D01*
X94049432Y-96592734D01*
X94179954Y-96779141D01*
X94340858Y-96940045D01*
X94340861Y-96940047D01*
X94527266Y-97070568D01*
X94733504Y-97166739D01*
X94953308Y-97225635D01*
X95115230Y-97239801D01*
X95179998Y-97245468D01*
X95180000Y-97245468D01*
X95180002Y-97245468D01*
X95236672Y-97240509D01*
X95406692Y-97225635D01*
X95626496Y-97166739D01*
X95832734Y-97070568D01*
X96019139Y-96940047D01*
X96180047Y-96779139D01*
X96310568Y-96592734D01*
X96406739Y-96386496D01*
X96465635Y-96166692D01*
X96485468Y-95940000D01*
X96471324Y-95778338D01*
X96485090Y-95709840D01*
X96507168Y-95679854D01*
X97636204Y-94550819D01*
X97697528Y-94517334D01*
X97723886Y-94514500D01*
X102220422Y-94514500D01*
X102287461Y-94534185D01*
X102333216Y-94586989D01*
X102343160Y-94656147D01*
X102314135Y-94719703D01*
X102272828Y-94750880D01*
X102222109Y-94774532D01*
X102147267Y-94809431D01*
X102147265Y-94809432D01*
X101960858Y-94939954D01*
X101799954Y-95100858D01*
X101669432Y-95287265D01*
X101669431Y-95287267D01*
X101573261Y-95493502D01*
X101573258Y-95493511D01*
X101514366Y-95713302D01*
X101514364Y-95713313D01*
X101494532Y-95939998D01*
X101494532Y-95940001D01*
X101514364Y-96166686D01*
X101514366Y-96166697D01*
X101573258Y-96386488D01*
X101573261Y-96386497D01*
X101669431Y-96592732D01*
X101669432Y-96592734D01*
X101799954Y-96779141D01*
X101960858Y-96940045D01*
X101960861Y-96940047D01*
X102147266Y-97070568D01*
X102353504Y-97166739D01*
X102573308Y-97225635D01*
X102735230Y-97239801D01*
X102799998Y-97245468D01*
X102800000Y-97245468D01*
X102800001Y-97245468D01*
X102819220Y-97243786D01*
X102961660Y-97231324D01*
X103030158Y-97245090D01*
X103060147Y-97267171D01*
X105049180Y-99256204D01*
X105082665Y-99317527D01*
X105085499Y-99343885D01*
X105085499Y-128996138D01*
X105065814Y-129063177D01*
X105032624Y-129097712D01*
X105000863Y-129119951D01*
X104839951Y-129280862D01*
X104709432Y-129467265D01*
X104709431Y-129467267D01*
X104613261Y-129673502D01*
X104613258Y-129673511D01*
X104554366Y-129893302D01*
X104554364Y-129893313D01*
X104534532Y-130119998D01*
X104534532Y-130120001D01*
X104554364Y-130346686D01*
X104554366Y-130346697D01*
X104613258Y-130566488D01*
X104613261Y-130566497D01*
X104709431Y-130772732D01*
X104709432Y-130772734D01*
X104839954Y-130959141D01*
X105000858Y-131120045D01*
X105002862Y-131121448D01*
X105187266Y-131250568D01*
X105393504Y-131346739D01*
X105613308Y-131405635D01*
X105775230Y-131419801D01*
X105839998Y-131425468D01*
X105840000Y-131425468D01*
X105840002Y-131425468D01*
X105896672Y-131420509D01*
X106066692Y-131405635D01*
X106286496Y-131346739D01*
X106492734Y-131250568D01*
X106679139Y-131120047D01*
X106840047Y-130959139D01*
X106970568Y-130772734D01*
X106977618Y-130757614D01*
X107023789Y-130705176D01*
X107090982Y-130686023D01*
X107157864Y-130706238D01*
X107202381Y-130757614D01*
X107209432Y-130772733D01*
X107209432Y-130772734D01*
X107339954Y-130959141D01*
X107500858Y-131120045D01*
X107502862Y-131121448D01*
X107687266Y-131250568D01*
X107893504Y-131346739D01*
X108113308Y-131405635D01*
X108275230Y-131419801D01*
X108339998Y-131425468D01*
X108340000Y-131425468D01*
X108340002Y-131425468D01*
X108396673Y-131420509D01*
X108566692Y-131405635D01*
X108786496Y-131346739D01*
X108992734Y-131250568D01*
X109179139Y-131120047D01*
X109340047Y-130959139D01*
X109470568Y-130772734D01*
X109566739Y-130566496D01*
X109625635Y-130346692D01*
X109645468Y-130120000D01*
X109641094Y-130070001D01*
X111284532Y-130070001D01*
X111304364Y-130296686D01*
X111304366Y-130296697D01*
X111363258Y-130516488D01*
X111363261Y-130516497D01*
X111459431Y-130722732D01*
X111459432Y-130722734D01*
X111589954Y-130909141D01*
X111750858Y-131070045D01*
X111750861Y-131070047D01*
X111937266Y-131200568D01*
X112143504Y-131296739D01*
X112363308Y-131355635D01*
X112525230Y-131369801D01*
X112589998Y-131375468D01*
X112590000Y-131375468D01*
X112590002Y-131375468D01*
X112646672Y-131370509D01*
X112816692Y-131355635D01*
X113036496Y-131296739D01*
X113242734Y-131200568D01*
X113429139Y-131070047D01*
X113590047Y-130909139D01*
X113720568Y-130722734D01*
X113816739Y-130516496D01*
X113875635Y-130296692D01*
X113895468Y-130070000D01*
X113875635Y-129843308D01*
X113816739Y-129623504D01*
X113720568Y-129417266D01*
X113590047Y-129230861D01*
X113590045Y-129230858D01*
X113429141Y-129069954D01*
X113242734Y-128939432D01*
X113242732Y-128939431D01*
X113036497Y-128843261D01*
X113036488Y-128843258D01*
X112816697Y-128784366D01*
X112816693Y-128784365D01*
X112816692Y-128784365D01*
X112816691Y-128784364D01*
X112816686Y-128784364D01*
X112590002Y-128764532D01*
X112589998Y-128764532D01*
X112363313Y-128784364D01*
X112363302Y-128784366D01*
X112143511Y-128843258D01*
X112143502Y-128843261D01*
X111937267Y-128939431D01*
X111937265Y-128939432D01*
X111750858Y-129069954D01*
X111589954Y-129230858D01*
X111459432Y-129417265D01*
X111459431Y-129417267D01*
X111363261Y-129623502D01*
X111363258Y-129623511D01*
X111304366Y-129843302D01*
X111304364Y-129843313D01*
X111284532Y-130069998D01*
X111284532Y-130070001D01*
X109641094Y-130070001D01*
X109625635Y-129893308D01*
X109566739Y-129673504D01*
X109470568Y-129467266D01*
X109340047Y-129280861D01*
X109340045Y-129280858D01*
X109179141Y-129119954D01*
X108992734Y-128989432D01*
X108992732Y-128989431D01*
X108786497Y-128893261D01*
X108786488Y-128893258D01*
X108566697Y-128834366D01*
X108566693Y-128834365D01*
X108566692Y-128834365D01*
X108566691Y-128834364D01*
X108566686Y-128834364D01*
X108340002Y-128814532D01*
X108339998Y-128814532D01*
X108113313Y-128834364D01*
X108113302Y-128834366D01*
X107893511Y-128893258D01*
X107893502Y-128893261D01*
X107687267Y-128989431D01*
X107687265Y-128989432D01*
X107500858Y-129119954D01*
X107339954Y-129280858D01*
X107233072Y-129433504D01*
X107209432Y-129467266D01*
X107202380Y-129482387D01*
X107156209Y-129534825D01*
X107089015Y-129553976D01*
X107022134Y-129533760D01*
X106977619Y-129482387D01*
X106970568Y-129467266D01*
X106840047Y-129280861D01*
X106679139Y-129119953D01*
X106647374Y-129097710D01*
X106603751Y-129043135D01*
X106594500Y-128996138D01*
X106594500Y-120060001D01*
X115814532Y-120060001D01*
X115834364Y-120286686D01*
X115834366Y-120286697D01*
X115893258Y-120506488D01*
X115893261Y-120506497D01*
X115989431Y-120712732D01*
X115989432Y-120712734D01*
X116119954Y-120899141D01*
X116280858Y-121060045D01*
X116280861Y-121060047D01*
X116467266Y-121190568D01*
X116673504Y-121286739D01*
X116893308Y-121345635D01*
X117055230Y-121359801D01*
X117119998Y-121365468D01*
X117120000Y-121365468D01*
X117120002Y-121365468D01*
X117176672Y-121360509D01*
X117346692Y-121345635D01*
X117566496Y-121286739D01*
X117772734Y-121190568D01*
X117959139Y-121060047D01*
X118120047Y-120899139D01*
X118250568Y-120712734D01*
X118346739Y-120506496D01*
X118405635Y-120286692D01*
X118425468Y-120060000D01*
X118405635Y-119833308D01*
X118346739Y-119613504D01*
X118250568Y-119407266D01*
X118120047Y-119220861D01*
X118120045Y-119220858D01*
X117959141Y-119059954D01*
X117772734Y-118929432D01*
X117772728Y-118929429D01*
X117714725Y-118902382D01*
X117662285Y-118856210D01*
X117643133Y-118789017D01*
X117663348Y-118722135D01*
X117714725Y-118677618D01*
X117772734Y-118650568D01*
X117959139Y-118520047D01*
X118120047Y-118359139D01*
X118250568Y-118172734D01*
X118346739Y-117966496D01*
X118405635Y-117746692D01*
X118425468Y-117520000D01*
X118405635Y-117293308D01*
X118346739Y-117073504D01*
X118250568Y-116867266D01*
X118120047Y-116680861D01*
X118120045Y-116680858D01*
X117959141Y-116519954D01*
X117772734Y-116389432D01*
X117772728Y-116389429D01*
X117714725Y-116362382D01*
X117662285Y-116316210D01*
X117643133Y-116249017D01*
X117663348Y-116182135D01*
X117714725Y-116137618D01*
X117772734Y-116110568D01*
X117959139Y-115980047D01*
X118120047Y-115819139D01*
X118250568Y-115632734D01*
X118346739Y-115426496D01*
X118405635Y-115206692D01*
X118425468Y-114980000D01*
X118405635Y-114753308D01*
X118346739Y-114533504D01*
X118250568Y-114327266D01*
X118120047Y-114140861D01*
X118120045Y-114140858D01*
X117959141Y-113979954D01*
X117772735Y-113849433D01*
X117772736Y-113849433D01*
X117772734Y-113849432D01*
X117714722Y-113822380D01*
X117662284Y-113776208D01*
X117643133Y-113709014D01*
X117663349Y-113642133D01*
X117714721Y-113597619D01*
X117772734Y-113570568D01*
X117959139Y-113440047D01*
X118120047Y-113279139D01*
X118250568Y-113092734D01*
X118346739Y-112886496D01*
X118405635Y-112666692D01*
X118425468Y-112440000D01*
X118405635Y-112213308D01*
X118346739Y-111993504D01*
X118250568Y-111787266D01*
X118120047Y-111600861D01*
X118120045Y-111600858D01*
X117959141Y-111439954D01*
X117772734Y-111309432D01*
X117772732Y-111309431D01*
X117566497Y-111213261D01*
X117566488Y-111213258D01*
X117346697Y-111154366D01*
X117346693Y-111154365D01*
X117346692Y-111154365D01*
X117346691Y-111154364D01*
X117346686Y-111154364D01*
X117120002Y-111134532D01*
X117119998Y-111134532D01*
X116893313Y-111154364D01*
X116893302Y-111154366D01*
X116673511Y-111213258D01*
X116673502Y-111213261D01*
X116467267Y-111309431D01*
X116467265Y-111309432D01*
X116280858Y-111439954D01*
X116119954Y-111600858D01*
X115989432Y-111787265D01*
X115989431Y-111787267D01*
X115893261Y-111993502D01*
X115893258Y-111993511D01*
X115834366Y-112213302D01*
X115834364Y-112213313D01*
X115814532Y-112439998D01*
X115814532Y-112440001D01*
X115834364Y-112666686D01*
X115834366Y-112666697D01*
X115893258Y-112886488D01*
X115893261Y-112886497D01*
X115989431Y-113092732D01*
X115989432Y-113092734D01*
X116119954Y-113279141D01*
X116280858Y-113440045D01*
X116337985Y-113480045D01*
X116467266Y-113570568D01*
X116525278Y-113597619D01*
X116577713Y-113643788D01*
X116596866Y-113710982D01*
X116576651Y-113777863D01*
X116525277Y-113822380D01*
X116467268Y-113849430D01*
X116467265Y-113849432D01*
X116280858Y-113979954D01*
X116119954Y-114140858D01*
X115989432Y-114327265D01*
X115989431Y-114327267D01*
X115893261Y-114533502D01*
X115893258Y-114533511D01*
X115834366Y-114753302D01*
X115834364Y-114753313D01*
X115814532Y-114979998D01*
X115814532Y-114980001D01*
X115834364Y-115206686D01*
X115834366Y-115206697D01*
X115893258Y-115426488D01*
X115893261Y-115426497D01*
X115989431Y-115632732D01*
X115989432Y-115632734D01*
X116119954Y-115819141D01*
X116280858Y-115980045D01*
X116280861Y-115980047D01*
X116467266Y-116110568D01*
X116525275Y-116137618D01*
X116577714Y-116183791D01*
X116596866Y-116250984D01*
X116576650Y-116317865D01*
X116525275Y-116362382D01*
X116467267Y-116389431D01*
X116467265Y-116389432D01*
X116280858Y-116519954D01*
X116119954Y-116680858D01*
X115989432Y-116867265D01*
X115989431Y-116867267D01*
X115893261Y-117073502D01*
X115893258Y-117073511D01*
X115834366Y-117293302D01*
X115834364Y-117293313D01*
X115814532Y-117519998D01*
X115814532Y-117520001D01*
X115834364Y-117746686D01*
X115834366Y-117746697D01*
X115893258Y-117966488D01*
X115893261Y-117966497D01*
X115989431Y-118172732D01*
X115989432Y-118172734D01*
X116119954Y-118359141D01*
X116280858Y-118520045D01*
X116280861Y-118520047D01*
X116467266Y-118650568D01*
X116525275Y-118677618D01*
X116577714Y-118723791D01*
X116596866Y-118790984D01*
X116576650Y-118857865D01*
X116525275Y-118902382D01*
X116467267Y-118929431D01*
X116467265Y-118929432D01*
X116280858Y-119059954D01*
X116119954Y-119220858D01*
X115989432Y-119407265D01*
X115989431Y-119407267D01*
X115893261Y-119613502D01*
X115893258Y-119613511D01*
X115834366Y-119833302D01*
X115834364Y-119833313D01*
X115814532Y-120059998D01*
X115814532Y-120060001D01*
X106594500Y-120060001D01*
X106594500Y-114980001D01*
X108194532Y-114980001D01*
X108214364Y-115206686D01*
X108214366Y-115206697D01*
X108273258Y-115426488D01*
X108273261Y-115426497D01*
X108369431Y-115632732D01*
X108369432Y-115632734D01*
X108499954Y-115819141D01*
X108660858Y-115980045D01*
X108660861Y-115980047D01*
X108847266Y-116110568D01*
X109053504Y-116206739D01*
X109273308Y-116265635D01*
X109435230Y-116279801D01*
X109499998Y-116285468D01*
X109500000Y-116285468D01*
X109500002Y-116285468D01*
X109558007Y-116280393D01*
X109726692Y-116265635D01*
X109946496Y-116206739D01*
X110152734Y-116110568D01*
X110339139Y-115980047D01*
X110500047Y-115819139D01*
X110630568Y-115632734D01*
X110726739Y-115426496D01*
X110785635Y-115206692D01*
X110805468Y-114980000D01*
X110785635Y-114753308D01*
X110726739Y-114533504D01*
X110630568Y-114327266D01*
X110500047Y-114140861D01*
X110500045Y-114140858D01*
X110339143Y-113979956D01*
X110314536Y-113962726D01*
X110270912Y-113908149D01*
X110263719Y-113838650D01*
X110295241Y-113776296D01*
X110355471Y-113740882D01*
X110372404Y-113737861D01*
X110407483Y-113734091D01*
X110542331Y-113683796D01*
X110657546Y-113597546D01*
X110743796Y-113482331D01*
X110794091Y-113347483D01*
X110800500Y-113287873D01*
X110800499Y-111592128D01*
X110794091Y-111532517D01*
X110774486Y-111479954D01*
X110743797Y-111397671D01*
X110743793Y-111397664D01*
X110657547Y-111282455D01*
X110657544Y-111282452D01*
X110542335Y-111196206D01*
X110542328Y-111196202D01*
X110407482Y-111145908D01*
X110407483Y-111145908D01*
X110347883Y-111139501D01*
X110347881Y-111139500D01*
X110347873Y-111139500D01*
X110347864Y-111139500D01*
X108652129Y-111139500D01*
X108652123Y-111139501D01*
X108592516Y-111145908D01*
X108457671Y-111196202D01*
X108457664Y-111196206D01*
X108342455Y-111282452D01*
X108342452Y-111282455D01*
X108256206Y-111397664D01*
X108256202Y-111397671D01*
X108205908Y-111532517D01*
X108199501Y-111592116D01*
X108199501Y-111592123D01*
X108199500Y-111592135D01*
X108199500Y-113287870D01*
X108199501Y-113287876D01*
X108205908Y-113347483D01*
X108256202Y-113482328D01*
X108256206Y-113482335D01*
X108342452Y-113597544D01*
X108342455Y-113597547D01*
X108457664Y-113683793D01*
X108457671Y-113683797D01*
X108502618Y-113700560D01*
X108592517Y-113734091D01*
X108627596Y-113737862D01*
X108692144Y-113764599D01*
X108731993Y-113821991D01*
X108734488Y-113891816D01*
X108698836Y-113951905D01*
X108685464Y-113962725D01*
X108660858Y-113979954D01*
X108499954Y-114140858D01*
X108369432Y-114327265D01*
X108369431Y-114327267D01*
X108273261Y-114533502D01*
X108273258Y-114533511D01*
X108214366Y-114753302D01*
X108214364Y-114753313D01*
X108194532Y-114979998D01*
X108194532Y-114980001D01*
X106594500Y-114980001D01*
X106594500Y-107300001D01*
X110744532Y-107300001D01*
X110764364Y-107526686D01*
X110764366Y-107526697D01*
X110823258Y-107746488D01*
X110823261Y-107746497D01*
X110919431Y-107952732D01*
X110919432Y-107952734D01*
X111049954Y-108139141D01*
X111210858Y-108300045D01*
X111210861Y-108300047D01*
X111397266Y-108430568D01*
X111603504Y-108526739D01*
X111823308Y-108585635D01*
X111985230Y-108599801D01*
X112049998Y-108605468D01*
X112050000Y-108605468D01*
X112050002Y-108605468D01*
X112106672Y-108600509D01*
X112276692Y-108585635D01*
X112496496Y-108526739D01*
X112702734Y-108430568D01*
X112889139Y-108300047D01*
X113050047Y-108139139D01*
X113180568Y-107952734D01*
X113187618Y-107937614D01*
X113233789Y-107885176D01*
X113300982Y-107866023D01*
X113367864Y-107886238D01*
X113412381Y-107937614D01*
X113419432Y-107952733D01*
X113419432Y-107952734D01*
X113549954Y-108139141D01*
X113710858Y-108300045D01*
X113710861Y-108300047D01*
X113897266Y-108430568D01*
X114103504Y-108526739D01*
X114323308Y-108585635D01*
X114485230Y-108599801D01*
X114549998Y-108605468D01*
X114550000Y-108605468D01*
X114550002Y-108605468D01*
X114606673Y-108600509D01*
X114776692Y-108585635D01*
X114996496Y-108526739D01*
X115202734Y-108430568D01*
X115389139Y-108300047D01*
X115550047Y-108139139D01*
X115680568Y-107952734D01*
X115776739Y-107746496D01*
X115835635Y-107526692D01*
X115855468Y-107300000D01*
X115835635Y-107073308D01*
X115776739Y-106853504D01*
X115680568Y-106647266D01*
X115571457Y-106491438D01*
X115550045Y-106460858D01*
X115389141Y-106299954D01*
X115202734Y-106169432D01*
X115202732Y-106169431D01*
X114996497Y-106073261D01*
X114996488Y-106073258D01*
X114776697Y-106014366D01*
X114776693Y-106014365D01*
X114776692Y-106014365D01*
X114776691Y-106014364D01*
X114776686Y-106014364D01*
X114550002Y-105994532D01*
X114549998Y-105994532D01*
X114323313Y-106014364D01*
X114323302Y-106014366D01*
X114103511Y-106073258D01*
X114103502Y-106073261D01*
X113897267Y-106169431D01*
X113897265Y-106169432D01*
X113710858Y-106299954D01*
X113549954Y-106460858D01*
X113419433Y-106647264D01*
X113419432Y-106647266D01*
X113412380Y-106662387D01*
X113366209Y-106714825D01*
X113299015Y-106733976D01*
X113232134Y-106713760D01*
X113187619Y-106662387D01*
X113180568Y-106647266D01*
X113068798Y-106487640D01*
X113050045Y-106460858D01*
X112889141Y-106299954D01*
X112702734Y-106169432D01*
X112702732Y-106169431D01*
X112496497Y-106073261D01*
X112496488Y-106073258D01*
X112276697Y-106014366D01*
X112276693Y-106014365D01*
X112276692Y-106014365D01*
X112276691Y-106014364D01*
X112276686Y-106014364D01*
X112050002Y-105994532D01*
X112049998Y-105994532D01*
X111823313Y-106014364D01*
X111823302Y-106014366D01*
X111603511Y-106073258D01*
X111603502Y-106073261D01*
X111397267Y-106169431D01*
X111397265Y-106169432D01*
X111210858Y-106299954D01*
X111049954Y-106460858D01*
X110919432Y-106647265D01*
X110919431Y-106647267D01*
X110823261Y-106853502D01*
X110823258Y-106853511D01*
X110764366Y-107073302D01*
X110764364Y-107073313D01*
X110744532Y-107299998D01*
X110744532Y-107300001D01*
X106594500Y-107300001D01*
X106594500Y-99043992D01*
X106595809Y-99026022D01*
X106596194Y-99023388D01*
X106599314Y-99002093D01*
X106594735Y-98949759D01*
X106594500Y-98944358D01*
X106594500Y-98936065D01*
X106594500Y-98936059D01*
X106590672Y-98903312D01*
X106583943Y-98826388D01*
X106583941Y-98826384D01*
X106582483Y-98819318D01*
X106582537Y-98819306D01*
X106580881Y-98811837D01*
X106580827Y-98811850D01*
X106579160Y-98804822D01*
X106579160Y-98804816D01*
X106552752Y-98732260D01*
X106528464Y-98658964D01*
X106528461Y-98658960D01*
X106525412Y-98652419D01*
X106525461Y-98652395D01*
X106522128Y-98645509D01*
X106522079Y-98645534D01*
X106518835Y-98639075D01*
X106506289Y-98620000D01*
X106476400Y-98574555D01*
X106435870Y-98508846D01*
X106435868Y-98508844D01*
X106431392Y-98503183D01*
X106431434Y-98503149D01*
X106426597Y-98497211D01*
X106426556Y-98497246D01*
X106421912Y-98491711D01*
X106365752Y-98438728D01*
X104127171Y-96200147D01*
X104093686Y-96138824D01*
X104091324Y-96101662D01*
X104105468Y-95940000D01*
X104085635Y-95713308D01*
X104026739Y-95493504D01*
X103930568Y-95287266D01*
X103800047Y-95100861D01*
X103800045Y-95100858D01*
X103639141Y-94939954D01*
X103452734Y-94809432D01*
X103452732Y-94809431D01*
X103377891Y-94774532D01*
X103327171Y-94750881D01*
X103274734Y-94704710D01*
X103255582Y-94637516D01*
X103275798Y-94570635D01*
X103328963Y-94525300D01*
X103379578Y-94514500D01*
X104276114Y-94514500D01*
X104343153Y-94534185D01*
X104363795Y-94550819D01*
X108172827Y-98359851D01*
X108206312Y-98421174D01*
X108208674Y-98458338D01*
X108194532Y-98619996D01*
X108194532Y-98620001D01*
X108214364Y-98846686D01*
X108214366Y-98846697D01*
X108273258Y-99066488D01*
X108273261Y-99066497D01*
X108369431Y-99272732D01*
X108369432Y-99272734D01*
X108499954Y-99459141D01*
X108660858Y-99620045D01*
X108660861Y-99620047D01*
X108847266Y-99750568D01*
X108905275Y-99777618D01*
X108957714Y-99823791D01*
X108976866Y-99890984D01*
X108956650Y-99957865D01*
X108905275Y-100002381D01*
X108893516Y-100007865D01*
X108847267Y-100029431D01*
X108847265Y-100029432D01*
X108660858Y-100159954D01*
X108499954Y-100320858D01*
X108369432Y-100507265D01*
X108369431Y-100507267D01*
X108273261Y-100713502D01*
X108273258Y-100713511D01*
X108214366Y-100933302D01*
X108214364Y-100933313D01*
X108194532Y-101159998D01*
X108194532Y-101160001D01*
X108214364Y-101386686D01*
X108214366Y-101386697D01*
X108273258Y-101606488D01*
X108273261Y-101606497D01*
X108369431Y-101812732D01*
X108369432Y-101812734D01*
X108499954Y-101999141D01*
X108660858Y-102160045D01*
X108660861Y-102160047D01*
X108847266Y-102290568D01*
X109053504Y-102386739D01*
X109273308Y-102445635D01*
X109435230Y-102459801D01*
X109499998Y-102465468D01*
X109500000Y-102465468D01*
X109500002Y-102465468D01*
X109556672Y-102460509D01*
X109726692Y-102445635D01*
X109946496Y-102386739D01*
X110152734Y-102290568D01*
X110339139Y-102160047D01*
X110500047Y-101999139D01*
X110630568Y-101812734D01*
X110726739Y-101606496D01*
X110785635Y-101386692D01*
X110805468Y-101160000D01*
X110785635Y-100933308D01*
X110726739Y-100713504D01*
X110630568Y-100507266D01*
X110500047Y-100320861D01*
X110500045Y-100320858D01*
X110339141Y-100159954D01*
X110152734Y-100029432D01*
X110152728Y-100029429D01*
X110125038Y-100016517D01*
X110094724Y-100002381D01*
X110042285Y-99956210D01*
X110023133Y-99889017D01*
X110043348Y-99822135D01*
X110094725Y-99777618D01*
X110152734Y-99750568D01*
X110339139Y-99620047D01*
X110500047Y-99459139D01*
X110522286Y-99427377D01*
X110576863Y-99383752D01*
X110623862Y-99374500D01*
X114216114Y-99374500D01*
X114283153Y-99394185D01*
X114303795Y-99410819D01*
X115792827Y-100899851D01*
X115826312Y-100961174D01*
X115828674Y-100998338D01*
X115814532Y-101159996D01*
X115814532Y-101160001D01*
X115834364Y-101386686D01*
X115834366Y-101386697D01*
X115893258Y-101606488D01*
X115893261Y-101606497D01*
X115989431Y-101812732D01*
X115989432Y-101812734D01*
X116119954Y-101999141D01*
X116280858Y-102160045D01*
X116280861Y-102160047D01*
X116467266Y-102290568D01*
X116525275Y-102317618D01*
X116577714Y-102363791D01*
X116596866Y-102430984D01*
X116576650Y-102497865D01*
X116525275Y-102542381D01*
X116513516Y-102547865D01*
X116467267Y-102569431D01*
X116467265Y-102569432D01*
X116280858Y-102699954D01*
X116119954Y-102860858D01*
X115989432Y-103047265D01*
X115989431Y-103047267D01*
X115893261Y-103253502D01*
X115893258Y-103253511D01*
X115834366Y-103473302D01*
X115834364Y-103473313D01*
X115814532Y-103699998D01*
X115814532Y-103700001D01*
X115834364Y-103926686D01*
X115834366Y-103926697D01*
X115893258Y-104146488D01*
X115893261Y-104146497D01*
X115989431Y-104352732D01*
X115989432Y-104352734D01*
X116119954Y-104539141D01*
X116280858Y-104700045D01*
X116280861Y-104700047D01*
X116467266Y-104830568D01*
X116673504Y-104926739D01*
X116893308Y-104985635D01*
X117055230Y-104999801D01*
X117119998Y-105005468D01*
X117120000Y-105005468D01*
X117120002Y-105005468D01*
X117176672Y-105000509D01*
X117346692Y-104985635D01*
X117566496Y-104926739D01*
X117772734Y-104830568D01*
X117959139Y-104700047D01*
X118120047Y-104539139D01*
X118250568Y-104352734D01*
X118346739Y-104146496D01*
X118405635Y-103926692D01*
X118415767Y-103810871D01*
X118441219Y-103745805D01*
X118497810Y-103704827D01*
X118567572Y-103700948D01*
X118626976Y-103734000D01*
X118879181Y-103986205D01*
X118912666Y-104047528D01*
X118915500Y-104073886D01*
X118915500Y-124806000D01*
X118914191Y-124823969D01*
X118910684Y-124847909D01*
X118915263Y-124900241D01*
X118915499Y-124905640D01*
X118915499Y-124913936D01*
X118919325Y-124946675D01*
X118926056Y-125023610D01*
X118927516Y-125030677D01*
X118927464Y-125030687D01*
X118929123Y-125038167D01*
X118929174Y-125038155D01*
X118930839Y-125045180D01*
X118957247Y-125117740D01*
X118981535Y-125191034D01*
X118984586Y-125197575D01*
X118984536Y-125197598D01*
X118987876Y-125204497D01*
X118987925Y-125204473D01*
X118991162Y-125210920D01*
X118991164Y-125210924D01*
X119033598Y-125275443D01*
X119033599Y-125275444D01*
X119074131Y-125341156D01*
X119078611Y-125346822D01*
X119078569Y-125346855D01*
X119083401Y-125352786D01*
X119083443Y-125352752D01*
X119088081Y-125358280D01*
X119088085Y-125358285D01*
X119116166Y-125384778D01*
X119144247Y-125411272D01*
X121569181Y-127836205D01*
X121602666Y-127897528D01*
X121605500Y-127923886D01*
X121605500Y-129426086D01*
X121585815Y-129493125D01*
X121533011Y-129538880D01*
X121463853Y-129548824D01*
X121400297Y-129519799D01*
X121369118Y-129478492D01*
X121363884Y-129467267D01*
X121340568Y-129417266D01*
X121210047Y-129230861D01*
X121210045Y-129230858D01*
X121049141Y-129069954D01*
X120862734Y-128939432D01*
X120862732Y-128939431D01*
X120656497Y-128843261D01*
X120656488Y-128843258D01*
X120436697Y-128784366D01*
X120436693Y-128784365D01*
X120436692Y-128784365D01*
X120436691Y-128784364D01*
X120436686Y-128784364D01*
X120210002Y-128764532D01*
X120209998Y-128764532D01*
X119983313Y-128784364D01*
X119983302Y-128784366D01*
X119763511Y-128843258D01*
X119763502Y-128843261D01*
X119557267Y-128939431D01*
X119557265Y-128939432D01*
X119370858Y-129069954D01*
X119209954Y-129230858D01*
X119079432Y-129417265D01*
X119079431Y-129417267D01*
X118983261Y-129623502D01*
X118983258Y-129623511D01*
X118924366Y-129843302D01*
X118924364Y-129843313D01*
X118904532Y-130069998D01*
X118904532Y-130070001D01*
X118924364Y-130296686D01*
X118924366Y-130296697D01*
X118983258Y-130516488D01*
X118983261Y-130516497D01*
X119079431Y-130722732D01*
X119079432Y-130722734D01*
X119209954Y-130909141D01*
X119370857Y-131070044D01*
X119370860Y-131070046D01*
X119370861Y-131070047D01*
X119452623Y-131127297D01*
X119496248Y-131181871D01*
X119505500Y-131228871D01*
X119505500Y-133156138D01*
X119485815Y-133223177D01*
X119452626Y-133257710D01*
X119435888Y-133269431D01*
X119420861Y-133279953D01*
X119259951Y-133440862D01*
X119129432Y-133627265D01*
X119129431Y-133627267D01*
X119033261Y-133833502D01*
X119033258Y-133833511D01*
X118974366Y-134053302D01*
X118974364Y-134053313D01*
X118954532Y-134279998D01*
X118954532Y-134280001D01*
X118974364Y-134506686D01*
X118974366Y-134506697D01*
X119033258Y-134726488D01*
X119033261Y-134726497D01*
X119129431Y-134932732D01*
X119129432Y-134932734D01*
X119259954Y-135119141D01*
X119420858Y-135280045D01*
X119420861Y-135280047D01*
X119607266Y-135410568D01*
X119813504Y-135506739D01*
X119813509Y-135506740D01*
X119813511Y-135506741D01*
X119866415Y-135520916D01*
X120033308Y-135565635D01*
X120195230Y-135579801D01*
X120259998Y-135585468D01*
X120260000Y-135585468D01*
X120260002Y-135585468D01*
X120316673Y-135580509D01*
X120486692Y-135565635D01*
X120706496Y-135506739D01*
X120912734Y-135410568D01*
X121099139Y-135280047D01*
X121260047Y-135119139D01*
X121379926Y-134947931D01*
X121434501Y-134904308D01*
X121503999Y-134897114D01*
X121566354Y-134928636D01*
X121601769Y-134988866D01*
X121605500Y-135019056D01*
X121605500Y-139106000D01*
X121604191Y-139123969D01*
X121600684Y-139147908D01*
X121605264Y-139200241D01*
X121605500Y-139205648D01*
X121605500Y-139213946D01*
X121609325Y-139246674D01*
X121616056Y-139323610D01*
X121617516Y-139330677D01*
X121617464Y-139330687D01*
X121619123Y-139338167D01*
X121619174Y-139338155D01*
X121620839Y-139345180D01*
X121647247Y-139417740D01*
X121671535Y-139491034D01*
X121674586Y-139497575D01*
X121674536Y-139497598D01*
X121677876Y-139504497D01*
X121677925Y-139504473D01*
X121681165Y-139510925D01*
X121723599Y-139575444D01*
X121764131Y-139641156D01*
X121768611Y-139646822D01*
X121768569Y-139646855D01*
X121773401Y-139652786D01*
X121773443Y-139652752D01*
X121778081Y-139658280D01*
X121778085Y-139658285D01*
X121806165Y-139684777D01*
X121834247Y-139711272D01*
X123973181Y-141850205D01*
X124006666Y-141911528D01*
X124009500Y-141937886D01*
X124009500Y-143067870D01*
X124009501Y-143067876D01*
X124015908Y-143127483D01*
X124066202Y-143262328D01*
X124066206Y-143262335D01*
X124152452Y-143377544D01*
X124152455Y-143377547D01*
X124267664Y-143463793D01*
X124267671Y-143463797D01*
X124402517Y-143514091D01*
X124402516Y-143514091D01*
X124409444Y-143514835D01*
X124462127Y-143520500D01*
X126257872Y-143520499D01*
X126317483Y-143514091D01*
X126452331Y-143463796D01*
X126567546Y-143377546D01*
X126653796Y-143262331D01*
X126702810Y-143130916D01*
X126744681Y-143074984D01*
X126810145Y-143050566D01*
X126878418Y-143065417D01*
X126906673Y-143086569D01*
X127028599Y-143208495D01*
X127125384Y-143276264D01*
X127222165Y-143344032D01*
X127222167Y-143344033D01*
X127222170Y-143344035D01*
X127436337Y-143443903D01*
X127436343Y-143443904D01*
X127436344Y-143443905D01*
X127491285Y-143458626D01*
X127664592Y-143505063D01*
X127841034Y-143520500D01*
X127899999Y-143525659D01*
X127900000Y-143525659D01*
X127900001Y-143525659D01*
X127958966Y-143520500D01*
X128135408Y-143505063D01*
X128363663Y-143443903D01*
X128577830Y-143344035D01*
X128771401Y-143208495D01*
X128938495Y-143041401D01*
X129068424Y-142855842D01*
X129123002Y-142812217D01*
X129192500Y-142805023D01*
X129254855Y-142836546D01*
X129271575Y-142855842D01*
X129401500Y-143041395D01*
X129401505Y-143041401D01*
X129568599Y-143208495D01*
X129665384Y-143276264D01*
X129762165Y-143344032D01*
X129762167Y-143344033D01*
X129762170Y-143344035D01*
X129976337Y-143443903D01*
X129976343Y-143443904D01*
X129976344Y-143443905D01*
X130031285Y-143458626D01*
X130204592Y-143505063D01*
X130381034Y-143520500D01*
X130439999Y-143525659D01*
X130440000Y-143525659D01*
X130440001Y-143525659D01*
X130498966Y-143520500D01*
X130675408Y-143505063D01*
X130903663Y-143443903D01*
X131117830Y-143344035D01*
X131311401Y-143208495D01*
X131478495Y-143041401D01*
X131614035Y-142847830D01*
X131713903Y-142633663D01*
X131775063Y-142405408D01*
X131795659Y-142170000D01*
X131775063Y-141934592D01*
X131713903Y-141706337D01*
X131614035Y-141492171D01*
X131570499Y-141429994D01*
X131478494Y-141298597D01*
X131311402Y-141131506D01*
X131311395Y-141131501D01*
X131117834Y-140995967D01*
X131117830Y-140995965D01*
X131094528Y-140985099D01*
X130903663Y-140896097D01*
X130903659Y-140896096D01*
X130903655Y-140896094D01*
X130675413Y-140834938D01*
X130675403Y-140834936D01*
X130457691Y-140815888D01*
X130392622Y-140790435D01*
X130351644Y-140733844D01*
X130344499Y-140692360D01*
X130344499Y-138806113D01*
X130344499Y-135714589D01*
X130364184Y-135647554D01*
X130416988Y-135601799D01*
X130486146Y-135591855D01*
X130520903Y-135602210D01*
X130573504Y-135626739D01*
X130793308Y-135685635D01*
X130955230Y-135699801D01*
X131019998Y-135705468D01*
X131020000Y-135705468D01*
X131020002Y-135705468D01*
X131076673Y-135700509D01*
X131246692Y-135685635D01*
X131466496Y-135626739D01*
X131672734Y-135530568D01*
X131859139Y-135400047D01*
X132020047Y-135239139D01*
X132150568Y-135052734D01*
X132246739Y-134846496D01*
X132305635Y-134626692D01*
X132325468Y-134400000D01*
X132305635Y-134173308D01*
X132246739Y-133953504D01*
X132150568Y-133747266D01*
X132020047Y-133560861D01*
X132020045Y-133560858D01*
X131859141Y-133399954D01*
X131672734Y-133269432D01*
X131672732Y-133269431D01*
X131466497Y-133173261D01*
X131466488Y-133173258D01*
X131246697Y-133114366D01*
X131246693Y-133114365D01*
X131246692Y-133114365D01*
X131246691Y-133114364D01*
X131246686Y-133114364D01*
X131020002Y-133094532D01*
X131019998Y-133094532D01*
X130793313Y-133114364D01*
X130793302Y-133114366D01*
X130573511Y-133173258D01*
X130573501Y-133173262D01*
X130520902Y-133197789D01*
X130451825Y-133208280D01*
X130388041Y-133179759D01*
X130349802Y-133121282D01*
X130344499Y-133085412D01*
X130344499Y-130388558D01*
X135309500Y-130388558D01*
X135324157Y-130518648D01*
X135324159Y-130518658D01*
X135381877Y-130683604D01*
X135381878Y-130683606D01*
X135474853Y-130831576D01*
X135598424Y-130955147D01*
X135746394Y-131048122D01*
X135911343Y-131105841D01*
X135911349Y-131105841D01*
X135911351Y-131105842D01*
X135952750Y-131110506D01*
X136041442Y-131120499D01*
X136041445Y-131120500D01*
X136041448Y-131120500D01*
X136455500Y-131120500D01*
X136522539Y-131140185D01*
X136568294Y-131192989D01*
X136579500Y-131244500D01*
X136579500Y-132458558D01*
X136594157Y-132588648D01*
X136594159Y-132588657D01*
X136651878Y-132753606D01*
X136744853Y-132901576D01*
X136868424Y-133025147D01*
X137016394Y-133118122D01*
X137181343Y-133175841D01*
X137181349Y-133175841D01*
X137181351Y-133175842D01*
X137216117Y-133179759D01*
X137311442Y-133190499D01*
X137311445Y-133190500D01*
X137311448Y-133190500D01*
X137948555Y-133190500D01*
X137948556Y-133190499D01*
X138078657Y-133175841D01*
X138243606Y-133118122D01*
X138391576Y-133025147D01*
X138515147Y-132901576D01*
X138608122Y-132753606D01*
X138665841Y-132588657D01*
X138680500Y-132458552D01*
X138680500Y-131121448D01*
X138665841Y-130991343D01*
X138608122Y-130826394D01*
X138515147Y-130678424D01*
X138391576Y-130554853D01*
X138243606Y-130461878D01*
X138243605Y-130461877D01*
X138243604Y-130461877D01*
X138078658Y-130404159D01*
X138078648Y-130404157D01*
X137948558Y-130389500D01*
X137948552Y-130389500D01*
X137534500Y-130389500D01*
X137467461Y-130369815D01*
X137421706Y-130317011D01*
X137410500Y-130265500D01*
X137410500Y-129051445D01*
X137410499Y-129051441D01*
X137407953Y-129028848D01*
X137395841Y-128921343D01*
X137338122Y-128756394D01*
X137245147Y-128608424D01*
X137121576Y-128484853D01*
X136973606Y-128391878D01*
X136973605Y-128391877D01*
X136973604Y-128391877D01*
X136808658Y-128334159D01*
X136808648Y-128334157D01*
X136678558Y-128319500D01*
X136678552Y-128319500D01*
X136041448Y-128319500D01*
X136041441Y-128319500D01*
X135911351Y-128334157D01*
X135911341Y-128334159D01*
X135746395Y-128391877D01*
X135598423Y-128484853D01*
X135474853Y-128608423D01*
X135381877Y-128756395D01*
X135324159Y-128921341D01*
X135324157Y-128921351D01*
X135309500Y-129051441D01*
X135309500Y-130388558D01*
X130344499Y-130388558D01*
X130344499Y-128573884D01*
X130364184Y-128506846D01*
X130380813Y-128486209D01*
X130759853Y-128107169D01*
X130821174Y-128073686D01*
X130858336Y-128071324D01*
X130997384Y-128083489D01*
X131019999Y-128085468D01*
X131020000Y-128085468D01*
X131020002Y-128085468D01*
X131076672Y-128080509D01*
X131246692Y-128065635D01*
X131466496Y-128006739D01*
X131672734Y-127910568D01*
X131859139Y-127780047D01*
X132020047Y-127619139D01*
X132150568Y-127432734D01*
X132246739Y-127226496D01*
X132305635Y-127006692D01*
X132325468Y-126780000D01*
X132305635Y-126553308D01*
X132246739Y-126333504D01*
X132150568Y-126127266D01*
X132020047Y-125940861D01*
X132020045Y-125940858D01*
X131859141Y-125779954D01*
X131672734Y-125649432D01*
X131672732Y-125649431D01*
X131466497Y-125553261D01*
X131466488Y-125553258D01*
X131246697Y-125494366D01*
X131246693Y-125494365D01*
X131246692Y-125494365D01*
X131246691Y-125494364D01*
X131246686Y-125494364D01*
X131020002Y-125474532D01*
X131019998Y-125474532D01*
X130793313Y-125494364D01*
X130793302Y-125494366D01*
X130573511Y-125553258D01*
X130573502Y-125553261D01*
X130367267Y-125649431D01*
X130367265Y-125649432D01*
X130180858Y-125779954D01*
X130019954Y-125940858D01*
X129889432Y-126127265D01*
X129889431Y-126127267D01*
X129793261Y-126333502D01*
X129793258Y-126333511D01*
X129734366Y-126553302D01*
X129734364Y-126553313D01*
X129714532Y-126779998D01*
X129714532Y-126780003D01*
X129728674Y-126941660D01*
X129714907Y-127010159D01*
X129692827Y-127040147D01*
X129101742Y-127631232D01*
X129088113Y-127643011D01*
X129068706Y-127657459D01*
X129034939Y-127697700D01*
X129031295Y-127701678D01*
X129025419Y-127707555D01*
X129004972Y-127733414D01*
X128955334Y-127792570D01*
X128951366Y-127798605D01*
X128951322Y-127798576D01*
X128947209Y-127805031D01*
X128947254Y-127805059D01*
X128943459Y-127811211D01*
X128910827Y-127881191D01*
X128876176Y-127950188D01*
X128873704Y-127956979D01*
X128873655Y-127956961D01*
X128871141Y-127964193D01*
X128871191Y-127964210D01*
X128868920Y-127971062D01*
X128853304Y-128046688D01*
X128835498Y-128121818D01*
X128834661Y-128128987D01*
X128834607Y-128128980D01*
X128833830Y-128136596D01*
X128833883Y-128136601D01*
X128833253Y-128143790D01*
X128835500Y-128220981D01*
X128835500Y-129156047D01*
X128815815Y-129223086D01*
X128763011Y-129268841D01*
X128693853Y-129278785D01*
X128630297Y-129249760D01*
X128593794Y-129195051D01*
X128588464Y-129178965D01*
X128588461Y-129178961D01*
X128588461Y-129178959D01*
X128585409Y-129172412D01*
X128585458Y-129172389D01*
X128582125Y-129165504D01*
X128582076Y-129165529D01*
X128578838Y-129159083D01*
X128578836Y-129159076D01*
X128576844Y-129156047D01*
X128536400Y-129094554D01*
X128503279Y-129040858D01*
X128495871Y-129028847D01*
X128495867Y-129028843D01*
X128491390Y-129023180D01*
X128491432Y-129023146D01*
X128486597Y-129017211D01*
X128486556Y-129017246D01*
X128481912Y-129011711D01*
X128425752Y-128958728D01*
X126457171Y-126990147D01*
X126423686Y-126928824D01*
X126421324Y-126891662D01*
X126435468Y-126730000D01*
X126415635Y-126503308D01*
X126356739Y-126283504D01*
X126260568Y-126077266D01*
X126162839Y-125937693D01*
X126130045Y-125890858D01*
X125969141Y-125729954D01*
X125782734Y-125599432D01*
X125782732Y-125599431D01*
X125576497Y-125503261D01*
X125576488Y-125503258D01*
X125356697Y-125444366D01*
X125356693Y-125444365D01*
X125356692Y-125444365D01*
X125356691Y-125444364D01*
X125356686Y-125444364D01*
X125130002Y-125424532D01*
X125129998Y-125424532D01*
X124903313Y-125444364D01*
X124903302Y-125444366D01*
X124683511Y-125503258D01*
X124683502Y-125503261D01*
X124477267Y-125599431D01*
X124477265Y-125599432D01*
X124290858Y-125729954D01*
X124129954Y-125890858D01*
X123999432Y-126077265D01*
X123999431Y-126077267D01*
X123903261Y-126283502D01*
X123903258Y-126283511D01*
X123844366Y-126503302D01*
X123844364Y-126503313D01*
X123824532Y-126729998D01*
X123824532Y-126730001D01*
X123844364Y-126956686D01*
X123844366Y-126956697D01*
X123903258Y-127176488D01*
X123903261Y-127176497D01*
X123999431Y-127382732D01*
X123999432Y-127382734D01*
X124129954Y-127569141D01*
X124290858Y-127730045D01*
X124295671Y-127733415D01*
X124477266Y-127860568D01*
X124683504Y-127956739D01*
X124683509Y-127956740D01*
X124683511Y-127956741D01*
X124699376Y-127960992D01*
X124903308Y-128015635D01*
X125065230Y-128029801D01*
X125129998Y-128035468D01*
X125130000Y-128035468D01*
X125130001Y-128035468D01*
X125149220Y-128033786D01*
X125291660Y-128021324D01*
X125360158Y-128035090D01*
X125390147Y-128057171D01*
X127109180Y-129776204D01*
X127142665Y-129837527D01*
X127145499Y-129863885D01*
X127145500Y-140985099D01*
X127125815Y-141052138D01*
X127092624Y-141086674D01*
X127028601Y-141131503D01*
X126906673Y-141253431D01*
X126845350Y-141286915D01*
X126775658Y-141281931D01*
X126719725Y-141240059D01*
X126702810Y-141209082D01*
X126653797Y-141077671D01*
X126653793Y-141077664D01*
X126567547Y-140962455D01*
X126567544Y-140962452D01*
X126452335Y-140876206D01*
X126452328Y-140876202D01*
X126317482Y-140825908D01*
X126317483Y-140825908D01*
X126257883Y-140819501D01*
X126257881Y-140819500D01*
X126257873Y-140819500D01*
X126257865Y-140819500D01*
X125127887Y-140819500D01*
X125060848Y-140799815D01*
X125040206Y-140783181D01*
X123150819Y-138893794D01*
X123117334Y-138832471D01*
X123114500Y-138806113D01*
X123114500Y-134350001D01*
X123824532Y-134350001D01*
X123844364Y-134576686D01*
X123844366Y-134576697D01*
X123903258Y-134796488D01*
X123903261Y-134796497D01*
X123999431Y-135002732D01*
X123999432Y-135002734D01*
X124129954Y-135189141D01*
X124290858Y-135350045D01*
X124290861Y-135350047D01*
X124477266Y-135480568D01*
X124683504Y-135576739D01*
X124903308Y-135635635D01*
X125039543Y-135647554D01*
X125129998Y-135655468D01*
X125130000Y-135655468D01*
X125130002Y-135655468D01*
X125186673Y-135650509D01*
X125356692Y-135635635D01*
X125576496Y-135576739D01*
X125782734Y-135480568D01*
X125969139Y-135350047D01*
X126130047Y-135189139D01*
X126260568Y-135002734D01*
X126356739Y-134796496D01*
X126415635Y-134576692D01*
X126435468Y-134350000D01*
X126415635Y-134123308D01*
X126356739Y-133903504D01*
X126260568Y-133697266D01*
X126130047Y-133510861D01*
X126130045Y-133510858D01*
X125969141Y-133349954D01*
X125782734Y-133219432D01*
X125782732Y-133219431D01*
X125576497Y-133123261D01*
X125576488Y-133123258D01*
X125356697Y-133064366D01*
X125356693Y-133064365D01*
X125356692Y-133064365D01*
X125356691Y-133064364D01*
X125356686Y-133064364D01*
X125130002Y-133044532D01*
X125129998Y-133044532D01*
X124903313Y-133064364D01*
X124903302Y-133064366D01*
X124683511Y-133123258D01*
X124683502Y-133123261D01*
X124477267Y-133219431D01*
X124477265Y-133219432D01*
X124290858Y-133349954D01*
X124129954Y-133510858D01*
X123999432Y-133697265D01*
X123999431Y-133697267D01*
X123903261Y-133903502D01*
X123903258Y-133903511D01*
X123844366Y-134123302D01*
X123844364Y-134123313D01*
X123824532Y-134349998D01*
X123824532Y-134350001D01*
X123114500Y-134350001D01*
X123114500Y-127623992D01*
X123115809Y-127606022D01*
X123116194Y-127603388D01*
X123119314Y-127582093D01*
X123114735Y-127529763D01*
X123114500Y-127524361D01*
X123114500Y-127516066D01*
X123114500Y-127516059D01*
X123110670Y-127483292D01*
X123103942Y-127406388D01*
X123103940Y-127406383D01*
X123102482Y-127399318D01*
X123102535Y-127399306D01*
X123100878Y-127391830D01*
X123100825Y-127391843D01*
X123099161Y-127384824D01*
X123099160Y-127384816D01*
X123072747Y-127312246D01*
X123048464Y-127238964D01*
X123048460Y-127238957D01*
X123045410Y-127232416D01*
X123045460Y-127232392D01*
X123042128Y-127225509D01*
X123042079Y-127225534D01*
X123038835Y-127219075D01*
X123010825Y-127176488D01*
X122996400Y-127154555D01*
X122955870Y-127088846D01*
X122955868Y-127088844D01*
X122951392Y-127083183D01*
X122951434Y-127083149D01*
X122946597Y-127077211D01*
X122946556Y-127077246D01*
X122941912Y-127071711D01*
X122885752Y-127018728D01*
X120460819Y-124593794D01*
X120427334Y-124532471D01*
X120424500Y-124506113D01*
X120424500Y-120170001D01*
X134674532Y-120170001D01*
X134694364Y-120396686D01*
X134694366Y-120396697D01*
X134753258Y-120616488D01*
X134753261Y-120616497D01*
X134849431Y-120822732D01*
X134849432Y-120822734D01*
X134979954Y-121009141D01*
X135140858Y-121170045D01*
X135140861Y-121170047D01*
X135327266Y-121300568D01*
X135533504Y-121396739D01*
X135753308Y-121455635D01*
X135915230Y-121469801D01*
X135979998Y-121475468D01*
X135980000Y-121475468D01*
X135980002Y-121475468D01*
X136036672Y-121470509D01*
X136206692Y-121455635D01*
X136426496Y-121396739D01*
X136632734Y-121300568D01*
X136819139Y-121170047D01*
X136980047Y-121009139D01*
X137110568Y-120822734D01*
X137206739Y-120616496D01*
X137265635Y-120396692D01*
X137285468Y-120170000D01*
X137285161Y-120166496D01*
X137265931Y-119946692D01*
X137265635Y-119943308D01*
X137206739Y-119723504D01*
X137110568Y-119517266D01*
X136980047Y-119330861D01*
X136980045Y-119330858D01*
X136819141Y-119169954D01*
X136632734Y-119039432D01*
X136632732Y-119039431D01*
X136426497Y-118943261D01*
X136426488Y-118943258D01*
X136206697Y-118884366D01*
X136206693Y-118884365D01*
X136206692Y-118884365D01*
X136206691Y-118884364D01*
X136206686Y-118884364D01*
X135980002Y-118864532D01*
X135979998Y-118864532D01*
X135753313Y-118884364D01*
X135753302Y-118884366D01*
X135533511Y-118943258D01*
X135533502Y-118943261D01*
X135327267Y-119039431D01*
X135327265Y-119039432D01*
X135140858Y-119169954D01*
X134979954Y-119330858D01*
X134849432Y-119517265D01*
X134849431Y-119517267D01*
X134753261Y-119723502D01*
X134753258Y-119723511D01*
X134694366Y-119943302D01*
X134694364Y-119943313D01*
X134674532Y-120169998D01*
X134674532Y-120170001D01*
X120424500Y-120170001D01*
X120424500Y-103773999D01*
X120425809Y-103756029D01*
X120426692Y-103750001D01*
X121554532Y-103750001D01*
X121574364Y-103976686D01*
X121574366Y-103976697D01*
X121633258Y-104196488D01*
X121633261Y-104196497D01*
X121729431Y-104402732D01*
X121729432Y-104402734D01*
X121859954Y-104589141D01*
X122020858Y-104750045D01*
X122020861Y-104750047D01*
X122207266Y-104880568D01*
X122413504Y-104976739D01*
X122413509Y-104976740D01*
X122413511Y-104976741D01*
X122446697Y-104985633D01*
X122633308Y-105035635D01*
X122795230Y-105049801D01*
X122859998Y-105055468D01*
X122860000Y-105055468D01*
X122860002Y-105055468D01*
X122916673Y-105050509D01*
X123086692Y-105035635D01*
X123306496Y-104976739D01*
X123512734Y-104880568D01*
X123699139Y-104750047D01*
X123860047Y-104589139D01*
X123990568Y-104402734D01*
X124086739Y-104196496D01*
X124145635Y-103976692D01*
X124165468Y-103750000D01*
X124163901Y-103732094D01*
X124156597Y-103648605D01*
X124145635Y-103523308D01*
X124086739Y-103303504D01*
X123990568Y-103097266D01*
X123860047Y-102910861D01*
X123860045Y-102910858D01*
X123699141Y-102749954D01*
X123512734Y-102619432D01*
X123512728Y-102619429D01*
X123454725Y-102592382D01*
X123402285Y-102546210D01*
X123383133Y-102479017D01*
X123403348Y-102412135D01*
X123454725Y-102367618D01*
X123462932Y-102363791D01*
X123512734Y-102340568D01*
X123699139Y-102210047D01*
X123860047Y-102049139D01*
X123990568Y-101862734D01*
X124086739Y-101656496D01*
X124145635Y-101436692D01*
X124155767Y-101320871D01*
X124181219Y-101255805D01*
X124237810Y-101214827D01*
X124307572Y-101210948D01*
X124366976Y-101244000D01*
X125513181Y-102390205D01*
X125546666Y-102451528D01*
X125549500Y-102477886D01*
X125549500Y-106205863D01*
X125529815Y-106272902D01*
X125477011Y-106318657D01*
X125407853Y-106328601D01*
X125393407Y-106325638D01*
X125276697Y-106294366D01*
X125276693Y-106294365D01*
X125276692Y-106294365D01*
X125276691Y-106294364D01*
X125276686Y-106294364D01*
X125050002Y-106274532D01*
X125049998Y-106274532D01*
X124823313Y-106294364D01*
X124823302Y-106294366D01*
X124603511Y-106353258D01*
X124603502Y-106353261D01*
X124397267Y-106449431D01*
X124397265Y-106449432D01*
X124210858Y-106579954D01*
X124049954Y-106740858D01*
X123919432Y-106927265D01*
X123919431Y-106927267D01*
X123823261Y-107133502D01*
X123823258Y-107133511D01*
X123764366Y-107353302D01*
X123764364Y-107353313D01*
X123744532Y-107579998D01*
X123744532Y-107580001D01*
X123764364Y-107806686D01*
X123764366Y-107806697D01*
X123823258Y-108026488D01*
X123823261Y-108026497D01*
X123919431Y-108232732D01*
X123919432Y-108232734D01*
X124049954Y-108419141D01*
X124210858Y-108580045D01*
X124234627Y-108596688D01*
X124397266Y-108710568D01*
X124603504Y-108806739D01*
X124823308Y-108865635D01*
X124985230Y-108879801D01*
X125049998Y-108885468D01*
X125050000Y-108885468D01*
X125050002Y-108885468D01*
X125106673Y-108880509D01*
X125276692Y-108865635D01*
X125393408Y-108834361D01*
X125463256Y-108836024D01*
X125521119Y-108875186D01*
X125548623Y-108939415D01*
X125549500Y-108954136D01*
X125549499Y-114042113D01*
X125529814Y-114109152D01*
X125513187Y-114129788D01*
X125506494Y-114136481D01*
X125499799Y-114143176D01*
X125438481Y-114176664D01*
X125412114Y-114179500D01*
X125211441Y-114179500D01*
X125081351Y-114194157D01*
X125081341Y-114194159D01*
X124916395Y-114251877D01*
X124768423Y-114344853D01*
X124644853Y-114468423D01*
X124551877Y-114616395D01*
X124494159Y-114781341D01*
X124494157Y-114781351D01*
X124479500Y-114911441D01*
X124479500Y-115325500D01*
X124459815Y-115392539D01*
X124407011Y-115438294D01*
X124355500Y-115449500D01*
X123141441Y-115449500D01*
X123011351Y-115464157D01*
X123011341Y-115464159D01*
X122846395Y-115521877D01*
X122698423Y-115614853D01*
X122574853Y-115738423D01*
X122481877Y-115886395D01*
X122424159Y-116051341D01*
X122424157Y-116051351D01*
X122409500Y-116181441D01*
X122409500Y-116818558D01*
X122424157Y-116948648D01*
X122424159Y-116948658D01*
X122467845Y-117073504D01*
X122481878Y-117113606D01*
X122574853Y-117261576D01*
X122698424Y-117385147D01*
X122846394Y-117478122D01*
X123011343Y-117535841D01*
X123011349Y-117535841D01*
X123011351Y-117535842D01*
X123052750Y-117540506D01*
X123141442Y-117550499D01*
X123141445Y-117550500D01*
X123141448Y-117550500D01*
X124478555Y-117550500D01*
X124478556Y-117550499D01*
X124608657Y-117535841D01*
X124773606Y-117478122D01*
X124921576Y-117385147D01*
X125045147Y-117261576D01*
X125138122Y-117113606D01*
X125195841Y-116948657D01*
X125210500Y-116818552D01*
X125210500Y-116404500D01*
X125230185Y-116337461D01*
X125282989Y-116291706D01*
X125334500Y-116280500D01*
X126548555Y-116280500D01*
X126548556Y-116280499D01*
X126678657Y-116265841D01*
X126843606Y-116208122D01*
X126991576Y-116115147D01*
X127115147Y-115991576D01*
X127208122Y-115843606D01*
X127265841Y-115678657D01*
X127280500Y-115548552D01*
X127280500Y-114911448D01*
X127265841Y-114781343D01*
X127208122Y-114616394D01*
X127115147Y-114468424D01*
X127094817Y-114448094D01*
X127061333Y-114386770D01*
X127058500Y-114360414D01*
X127058500Y-112480001D01*
X129614532Y-112480001D01*
X129634364Y-112706686D01*
X129634366Y-112706697D01*
X129693258Y-112926488D01*
X129693261Y-112926497D01*
X129789431Y-113132732D01*
X129789432Y-113132734D01*
X129919954Y-113319141D01*
X130080858Y-113480045D01*
X130127693Y-113512839D01*
X130267266Y-113610568D01*
X130473504Y-113706739D01*
X130693308Y-113765635D01*
X130833075Y-113777863D01*
X130919998Y-113785468D01*
X130920000Y-113785468D01*
X130920002Y-113785468D01*
X130976672Y-113780509D01*
X131146692Y-113765635D01*
X131366496Y-113706739D01*
X131572734Y-113610568D01*
X131759139Y-113480047D01*
X131920047Y-113319139D01*
X132050568Y-113132734D01*
X132146739Y-112926496D01*
X132205635Y-112706692D01*
X132219344Y-112550001D01*
X134674532Y-112550001D01*
X134694364Y-112776686D01*
X134694366Y-112776697D01*
X134753258Y-112996488D01*
X134753261Y-112996497D01*
X134849431Y-113202732D01*
X134849432Y-113202734D01*
X134979954Y-113389141D01*
X135140858Y-113550045D01*
X135140861Y-113550047D01*
X135327266Y-113680568D01*
X135533504Y-113776739D01*
X135533509Y-113776740D01*
X135533511Y-113776741D01*
X135566081Y-113785468D01*
X135753308Y-113835635D01*
X135911008Y-113849432D01*
X135979998Y-113855468D01*
X135980000Y-113855468D01*
X135980002Y-113855468D01*
X136048980Y-113849433D01*
X136206692Y-113835635D01*
X136426496Y-113776739D01*
X136632734Y-113680568D01*
X136819139Y-113550047D01*
X136980047Y-113389139D01*
X137110568Y-113202734D01*
X137206739Y-112996496D01*
X137265635Y-112776692D01*
X137285468Y-112550000D01*
X137265635Y-112323308D01*
X137206739Y-112103504D01*
X137110568Y-111897266D01*
X136980047Y-111710861D01*
X136980045Y-111710858D01*
X136819141Y-111549954D01*
X136632734Y-111419432D01*
X136632732Y-111419431D01*
X136426497Y-111323261D01*
X136426488Y-111323258D01*
X136206697Y-111264366D01*
X136206693Y-111264365D01*
X136206692Y-111264365D01*
X136206691Y-111264364D01*
X136206686Y-111264364D01*
X135980002Y-111244532D01*
X135979998Y-111244532D01*
X135753313Y-111264364D01*
X135753302Y-111264366D01*
X135533511Y-111323258D01*
X135533502Y-111323261D01*
X135327267Y-111419431D01*
X135327265Y-111419432D01*
X135140858Y-111549954D01*
X134979954Y-111710858D01*
X134849432Y-111897265D01*
X134849431Y-111897267D01*
X134753261Y-112103502D01*
X134753258Y-112103511D01*
X134694366Y-112323302D01*
X134694364Y-112323313D01*
X134674532Y-112549998D01*
X134674532Y-112550001D01*
X132219344Y-112550001D01*
X132224742Y-112488299D01*
X132225468Y-112480001D01*
X132225468Y-112479998D01*
X132217375Y-112387501D01*
X132205635Y-112253308D01*
X132153057Y-112057083D01*
X132146741Y-112033511D01*
X132146738Y-112033502D01*
X132128090Y-111993511D01*
X132050568Y-111827266D01*
X131920047Y-111640861D01*
X131920045Y-111640858D01*
X131759141Y-111479954D01*
X131572734Y-111349432D01*
X131572732Y-111349431D01*
X131366497Y-111253261D01*
X131366488Y-111253258D01*
X131146697Y-111194366D01*
X131146693Y-111194365D01*
X131146692Y-111194365D01*
X131146691Y-111194364D01*
X131146686Y-111194364D01*
X130920002Y-111174532D01*
X130919998Y-111174532D01*
X130693313Y-111194364D01*
X130693302Y-111194366D01*
X130473511Y-111253258D01*
X130473502Y-111253261D01*
X130267267Y-111349431D01*
X130267265Y-111349432D01*
X130080858Y-111479954D01*
X129919954Y-111640858D01*
X129789432Y-111827265D01*
X129789431Y-111827267D01*
X129693261Y-112033502D01*
X129693258Y-112033511D01*
X129634366Y-112253302D01*
X129634364Y-112253313D01*
X129614532Y-112479998D01*
X129614532Y-112480001D01*
X127058500Y-112480001D01*
X127058500Y-107560001D01*
X129584532Y-107560001D01*
X129604364Y-107786686D01*
X129604366Y-107786697D01*
X129663258Y-108006488D01*
X129663261Y-108006497D01*
X129759431Y-108212732D01*
X129759432Y-108212734D01*
X129889954Y-108399141D01*
X130050858Y-108560045D01*
X130050861Y-108560047D01*
X130237266Y-108690568D01*
X130443504Y-108786739D01*
X130663308Y-108845635D01*
X130825230Y-108859801D01*
X130889998Y-108865468D01*
X130890000Y-108865468D01*
X130890002Y-108865468D01*
X130946673Y-108860509D01*
X131116692Y-108845635D01*
X131336496Y-108786739D01*
X131542734Y-108690568D01*
X131729139Y-108560047D01*
X131890047Y-108399139D01*
X132020568Y-108212734D01*
X132116739Y-108006496D01*
X132175635Y-107786692D01*
X132195468Y-107560000D01*
X132175635Y-107333308D01*
X132116739Y-107113504D01*
X132020568Y-106907266D01*
X131890047Y-106720861D01*
X131890045Y-106720858D01*
X131729141Y-106559954D01*
X131542734Y-106429432D01*
X131542732Y-106429431D01*
X131336497Y-106333261D01*
X131336488Y-106333258D01*
X131116697Y-106274366D01*
X131116693Y-106274365D01*
X131116692Y-106274365D01*
X131116691Y-106274364D01*
X131116686Y-106274364D01*
X130890002Y-106254532D01*
X130889998Y-106254532D01*
X130663313Y-106274364D01*
X130663302Y-106274366D01*
X130443511Y-106333258D01*
X130443502Y-106333261D01*
X130237267Y-106429431D01*
X130237265Y-106429432D01*
X130050858Y-106559954D01*
X129889954Y-106720858D01*
X129759432Y-106907265D01*
X129759431Y-106907267D01*
X129663261Y-107113502D01*
X129663258Y-107113511D01*
X129604366Y-107333302D01*
X129604364Y-107333313D01*
X129584532Y-107559998D01*
X129584532Y-107560001D01*
X127058500Y-107560001D01*
X127058500Y-103750001D01*
X129174532Y-103750001D01*
X129194364Y-103976686D01*
X129194366Y-103976697D01*
X129253258Y-104196488D01*
X129253261Y-104196497D01*
X129349431Y-104402732D01*
X129349432Y-104402734D01*
X129479954Y-104589141D01*
X129640858Y-104750045D01*
X129640861Y-104750047D01*
X129827266Y-104880568D01*
X130033504Y-104976739D01*
X130033509Y-104976740D01*
X130033511Y-104976741D01*
X130066697Y-104985633D01*
X130253308Y-105035635D01*
X130415230Y-105049801D01*
X130479998Y-105055468D01*
X130480000Y-105055468D01*
X130480002Y-105055468D01*
X130536673Y-105050509D01*
X130706692Y-105035635D01*
X130926496Y-104976739D01*
X131132734Y-104880568D01*
X131319139Y-104750047D01*
X131480047Y-104589139D01*
X131610568Y-104402734D01*
X131706739Y-104196496D01*
X131765635Y-103976692D01*
X131785468Y-103750000D01*
X131783901Y-103732094D01*
X131776597Y-103648605D01*
X131765635Y-103523308D01*
X131706739Y-103303504D01*
X131610568Y-103097266D01*
X131480047Y-102910861D01*
X131480045Y-102910858D01*
X131319141Y-102749954D01*
X131132734Y-102619432D01*
X131132728Y-102619429D01*
X131074725Y-102592382D01*
X131022285Y-102546210D01*
X131003133Y-102479017D01*
X131023348Y-102412135D01*
X131074725Y-102367618D01*
X131082932Y-102363791D01*
X131132734Y-102340568D01*
X131319139Y-102210047D01*
X131480047Y-102049139D01*
X131610568Y-101862734D01*
X131706739Y-101656496D01*
X131727235Y-101580004D01*
X135044592Y-101580004D01*
X135064196Y-101841620D01*
X135064197Y-101841625D01*
X135122576Y-102097402D01*
X135122578Y-102097411D01*
X135122580Y-102097416D01*
X135218432Y-102341643D01*
X135349614Y-102568857D01*
X135481736Y-102734533D01*
X135513198Y-102773985D01*
X135660717Y-102910861D01*
X135705521Y-102952433D01*
X135922296Y-103100228D01*
X135922301Y-103100230D01*
X135922302Y-103100231D01*
X135922303Y-103100232D01*
X136047843Y-103160688D01*
X136158673Y-103214061D01*
X136158674Y-103214061D01*
X136158677Y-103214063D01*
X136409385Y-103291396D01*
X136668818Y-103330500D01*
X136779649Y-103330500D01*
X136846688Y-103350185D01*
X136892443Y-103402989D01*
X136903302Y-103463766D01*
X136894592Y-103579995D01*
X136894592Y-103580004D01*
X136914196Y-103841620D01*
X136914197Y-103841625D01*
X136972576Y-104097402D01*
X136972578Y-104097411D01*
X136972580Y-104097416D01*
X137068432Y-104341643D01*
X137199614Y-104568857D01*
X137302365Y-104697702D01*
X137363198Y-104773985D01*
X137544753Y-104942441D01*
X137555521Y-104952433D01*
X137772296Y-105100228D01*
X137772301Y-105100230D01*
X137772302Y-105100231D01*
X137772303Y-105100232D01*
X137897843Y-105160688D01*
X138008673Y-105214061D01*
X138008674Y-105214061D01*
X138008677Y-105214063D01*
X138259385Y-105291396D01*
X138518818Y-105330500D01*
X138781182Y-105330500D01*
X139040615Y-105291396D01*
X139291323Y-105214063D01*
X139527704Y-105100228D01*
X139744479Y-104952433D01*
X139936805Y-104773981D01*
X140100386Y-104568857D01*
X140231568Y-104341643D01*
X140327420Y-104097416D01*
X140385802Y-103841630D01*
X140385803Y-103841620D01*
X140405408Y-103580004D01*
X140405408Y-103579995D01*
X140396698Y-103463766D01*
X140411317Y-103395443D01*
X140460555Y-103345870D01*
X140520351Y-103330500D01*
X140631182Y-103330500D01*
X140890615Y-103291396D01*
X141141323Y-103214063D01*
X141377704Y-103100228D01*
X141594479Y-102952433D01*
X141786805Y-102773981D01*
X141950386Y-102568857D01*
X142081568Y-102341643D01*
X142177420Y-102097416D01*
X142235802Y-101841630D01*
X142236711Y-101829500D01*
X142255408Y-101580004D01*
X142255408Y-101579995D01*
X142235803Y-101318379D01*
X142235802Y-101318374D01*
X142235802Y-101318370D01*
X142177420Y-101062584D01*
X142081568Y-100818357D01*
X141950386Y-100591143D01*
X141786805Y-100386019D01*
X141786804Y-100386018D01*
X141786801Y-100386014D01*
X141594479Y-100207567D01*
X141580626Y-100198122D01*
X141377704Y-100059772D01*
X141377700Y-100059770D01*
X141377697Y-100059768D01*
X141377696Y-100059767D01*
X141141325Y-99945938D01*
X141141327Y-99945938D01*
X140890623Y-99868606D01*
X140890619Y-99868605D01*
X140890615Y-99868604D01*
X140765823Y-99849794D01*
X140631187Y-99829500D01*
X140631182Y-99829500D01*
X140368818Y-99829500D01*
X140368812Y-99829500D01*
X140207247Y-99853853D01*
X140109385Y-99868604D01*
X140109381Y-99868605D01*
X140109382Y-99868605D01*
X140109376Y-99868606D01*
X139858673Y-99945938D01*
X139622303Y-100059767D01*
X139622302Y-100059768D01*
X139405520Y-100207567D01*
X139213198Y-100386014D01*
X139049614Y-100591143D01*
X138918432Y-100818356D01*
X138822582Y-101062578D01*
X138822576Y-101062597D01*
X138770891Y-101289047D01*
X138736782Y-101350026D01*
X138675121Y-101382884D01*
X138605484Y-101377189D01*
X138549980Y-101334749D01*
X138529109Y-101289047D01*
X138511066Y-101209998D01*
X138477420Y-101062584D01*
X138381568Y-100818357D01*
X138250386Y-100591143D01*
X138086805Y-100386019D01*
X138086804Y-100386018D01*
X138086801Y-100386014D01*
X137894479Y-100207567D01*
X137880626Y-100198122D01*
X137677704Y-100059772D01*
X137677700Y-100059770D01*
X137677697Y-100059768D01*
X137677696Y-100059767D01*
X137441325Y-99945938D01*
X137441327Y-99945938D01*
X137190623Y-99868606D01*
X137190619Y-99868605D01*
X137190615Y-99868604D01*
X137065823Y-99849794D01*
X136931187Y-99829500D01*
X136931182Y-99829500D01*
X136668818Y-99829500D01*
X136668812Y-99829500D01*
X136507247Y-99853853D01*
X136409385Y-99868604D01*
X136409381Y-99868605D01*
X136409382Y-99868605D01*
X136409376Y-99868606D01*
X136158673Y-99945938D01*
X135922303Y-100059767D01*
X135922302Y-100059768D01*
X135705520Y-100207567D01*
X135513198Y-100386014D01*
X135349614Y-100591143D01*
X135218432Y-100818356D01*
X135122582Y-101062578D01*
X135122576Y-101062597D01*
X135064197Y-101318374D01*
X135064196Y-101318379D01*
X135044592Y-101579995D01*
X135044592Y-101580004D01*
X131727235Y-101580004D01*
X131765635Y-101436692D01*
X131785468Y-101210000D01*
X131765635Y-100983308D01*
X131706739Y-100763504D01*
X131610568Y-100557266D01*
X131480047Y-100370861D01*
X131480045Y-100370858D01*
X131319141Y-100209954D01*
X131132734Y-100079432D01*
X131132728Y-100079429D01*
X131090573Y-100059772D01*
X131074724Y-100052381D01*
X131022285Y-100006210D01*
X131003133Y-99939017D01*
X131023348Y-99872135D01*
X131074725Y-99827618D01*
X131082932Y-99823791D01*
X131132734Y-99800568D01*
X131319139Y-99670047D01*
X131480047Y-99509139D01*
X131610568Y-99322734D01*
X131706739Y-99116496D01*
X131728928Y-99033685D01*
X137795740Y-99033685D01*
X137805755Y-99218406D01*
X137805755Y-99218411D01*
X137855244Y-99396656D01*
X137855247Y-99396662D01*
X137941898Y-99560102D01*
X138035286Y-99670047D01*
X138061663Y-99701100D01*
X138208936Y-99813054D01*
X138376833Y-99890732D01*
X138376834Y-99890732D01*
X138376836Y-99890733D01*
X138404123Y-99896739D01*
X138557503Y-99930500D01*
X138557506Y-99930500D01*
X138696107Y-99930500D01*
X138696113Y-99930500D01*
X138833910Y-99915514D01*
X139009221Y-99856444D01*
X139167736Y-99761070D01*
X139302041Y-99633849D01*
X139405858Y-99480730D01*
X139474331Y-99308875D01*
X139504260Y-99126317D01*
X139494245Y-98941593D01*
X139494244Y-98941588D01*
X139444755Y-98763343D01*
X139444752Y-98763337D01*
X139358101Y-98599897D01*
X139238337Y-98458900D01*
X139159449Y-98398931D01*
X139091064Y-98346946D01*
X138923167Y-98269268D01*
X138923163Y-98269266D01*
X138742497Y-98229500D01*
X138603887Y-98229500D01*
X138603883Y-98229500D01*
X138466088Y-98244486D01*
X138290776Y-98303557D01*
X138290774Y-98303558D01*
X138132262Y-98398931D01*
X138132261Y-98398932D01*
X137997959Y-98526149D01*
X137894138Y-98679276D01*
X137825669Y-98851122D01*
X137795740Y-99033685D01*
X131728928Y-99033685D01*
X131765635Y-98896692D01*
X131782634Y-98702384D01*
X131785468Y-98670001D01*
X131785468Y-98669998D01*
X131772883Y-98526151D01*
X131765635Y-98443308D01*
X131706739Y-98223504D01*
X131610568Y-98017266D01*
X131480047Y-97830861D01*
X131480045Y-97830858D01*
X131319141Y-97669954D01*
X131132734Y-97539432D01*
X131132728Y-97539429D01*
X131074725Y-97512382D01*
X131022285Y-97466210D01*
X131003133Y-97399017D01*
X131023348Y-97332135D01*
X131074725Y-97287618D01*
X131082932Y-97283791D01*
X131132734Y-97260568D01*
X131319139Y-97130047D01*
X131480047Y-96969139D01*
X131610568Y-96782734D01*
X131706739Y-96576496D01*
X131765635Y-96356692D01*
X131785468Y-96130000D01*
X131765635Y-95903308D01*
X131706739Y-95683504D01*
X131610568Y-95477266D01*
X131480047Y-95290861D01*
X131480045Y-95290858D01*
X131319141Y-95129954D01*
X131132734Y-94999432D01*
X131132732Y-94999431D01*
X130926497Y-94903261D01*
X130926488Y-94903258D01*
X130706697Y-94844366D01*
X130706693Y-94844365D01*
X130706692Y-94844365D01*
X130706691Y-94844364D01*
X130706686Y-94844364D01*
X130480002Y-94824532D01*
X130479998Y-94824532D01*
X130253313Y-94844364D01*
X130253302Y-94844366D01*
X130033511Y-94903258D01*
X130033502Y-94903261D01*
X129827267Y-94999431D01*
X129827265Y-94999432D01*
X129640858Y-95129954D01*
X129479954Y-95290858D01*
X129349432Y-95477265D01*
X129349431Y-95477267D01*
X129253261Y-95683502D01*
X129253258Y-95683511D01*
X129194366Y-95903302D01*
X129194364Y-95903313D01*
X129174532Y-96129998D01*
X129174532Y-96130001D01*
X129194364Y-96356686D01*
X129194366Y-96356697D01*
X129253258Y-96576488D01*
X129253261Y-96576497D01*
X129349431Y-96782732D01*
X129349432Y-96782734D01*
X129479954Y-96969141D01*
X129640858Y-97130045D01*
X129687693Y-97162839D01*
X129827266Y-97260568D01*
X129877068Y-97283791D01*
X129885275Y-97287618D01*
X129937714Y-97333791D01*
X129956866Y-97400984D01*
X129936650Y-97467865D01*
X129885275Y-97512382D01*
X129827267Y-97539431D01*
X129827265Y-97539432D01*
X129640858Y-97669954D01*
X129479954Y-97830858D01*
X129349432Y-98017265D01*
X129349431Y-98017267D01*
X129253261Y-98223502D01*
X129253258Y-98223511D01*
X129194366Y-98443302D01*
X129194364Y-98443313D01*
X129174532Y-98669998D01*
X129174532Y-98670001D01*
X129194364Y-98896686D01*
X129194366Y-98896697D01*
X129253258Y-99116488D01*
X129253261Y-99116497D01*
X129349431Y-99322732D01*
X129349432Y-99322734D01*
X129479954Y-99509141D01*
X129640858Y-99670045D01*
X129640861Y-99670047D01*
X129827266Y-99800568D01*
X129877068Y-99823791D01*
X129885275Y-99827618D01*
X129937714Y-99873791D01*
X129956866Y-99940984D01*
X129936650Y-100007865D01*
X129885275Y-100052382D01*
X129827267Y-100079431D01*
X129827265Y-100079432D01*
X129640858Y-100209954D01*
X129479954Y-100370858D01*
X129349432Y-100557265D01*
X129349431Y-100557267D01*
X129253261Y-100763502D01*
X129253258Y-100763511D01*
X129194366Y-100983302D01*
X129194364Y-100983313D01*
X129174532Y-101209998D01*
X129174532Y-101210001D01*
X129194364Y-101436686D01*
X129194366Y-101436697D01*
X129253258Y-101656488D01*
X129253261Y-101656497D01*
X129349431Y-101862732D01*
X129349432Y-101862734D01*
X129479954Y-102049141D01*
X129640858Y-102210045D01*
X129640861Y-102210047D01*
X129827266Y-102340568D01*
X129877068Y-102363791D01*
X129885275Y-102367618D01*
X129937714Y-102413791D01*
X129956866Y-102480984D01*
X129936650Y-102547865D01*
X129885275Y-102592382D01*
X129827267Y-102619431D01*
X129827265Y-102619432D01*
X129640858Y-102749954D01*
X129479954Y-102910858D01*
X129349432Y-103097265D01*
X129349431Y-103097267D01*
X129253261Y-103303502D01*
X129253258Y-103303511D01*
X129194366Y-103523302D01*
X129194364Y-103523313D01*
X129174532Y-103749998D01*
X129174532Y-103750001D01*
X127058500Y-103750001D01*
X127058500Y-102177999D01*
X127059809Y-102160029D01*
X127061195Y-102150567D01*
X127063315Y-102136094D01*
X127058735Y-102083753D01*
X127058500Y-102078350D01*
X127058500Y-102070066D01*
X127058500Y-102070059D01*
X127054674Y-102037325D01*
X127047943Y-101960388D01*
X127047941Y-101960383D01*
X127046483Y-101953319D01*
X127046536Y-101953307D01*
X127044878Y-101945827D01*
X127044824Y-101945840D01*
X127043160Y-101938822D01*
X127043160Y-101938816D01*
X127016749Y-101866254D01*
X126992464Y-101792965D01*
X126992461Y-101792961D01*
X126992461Y-101792959D01*
X126989409Y-101786412D01*
X126989458Y-101786389D01*
X126986125Y-101779504D01*
X126986076Y-101779529D01*
X126982838Y-101773083D01*
X126982836Y-101773076D01*
X126982831Y-101773068D01*
X126940400Y-101708554D01*
X126908290Y-101656497D01*
X126899871Y-101642847D01*
X126899867Y-101642843D01*
X126895390Y-101637180D01*
X126895432Y-101637146D01*
X126890597Y-101631211D01*
X126890556Y-101631246D01*
X126885912Y-101625711D01*
X126829752Y-101572728D01*
X124187171Y-98930147D01*
X124153686Y-98868824D01*
X124151324Y-98831662D01*
X124165468Y-98670000D01*
X124164502Y-98658964D01*
X124152883Y-98526151D01*
X124145635Y-98443308D01*
X124086739Y-98223504D01*
X123990568Y-98017266D01*
X123860047Y-97830861D01*
X123860045Y-97830858D01*
X123699141Y-97669954D01*
X123512734Y-97539432D01*
X123512732Y-97539431D01*
X123306497Y-97443261D01*
X123306488Y-97443258D01*
X123086697Y-97384366D01*
X123086693Y-97384365D01*
X123086692Y-97384365D01*
X123086691Y-97384364D01*
X123086686Y-97384364D01*
X122860002Y-97364532D01*
X122859998Y-97364532D01*
X122633313Y-97384364D01*
X122633302Y-97384366D01*
X122413511Y-97443258D01*
X122413502Y-97443261D01*
X122207267Y-97539431D01*
X122207265Y-97539432D01*
X122020858Y-97669954D01*
X121859954Y-97830858D01*
X121729432Y-98017265D01*
X121729431Y-98017267D01*
X121633261Y-98223502D01*
X121633258Y-98223511D01*
X121574366Y-98443302D01*
X121574364Y-98443313D01*
X121554532Y-98669998D01*
X121554532Y-98670001D01*
X121574364Y-98896686D01*
X121574366Y-98896697D01*
X121633258Y-99116488D01*
X121633261Y-99116497D01*
X121729431Y-99322732D01*
X121729432Y-99322734D01*
X121859954Y-99509141D01*
X122020858Y-99670045D01*
X122020861Y-99670047D01*
X122207266Y-99800568D01*
X122257068Y-99823791D01*
X122265275Y-99827618D01*
X122317714Y-99873791D01*
X122336866Y-99940984D01*
X122316650Y-100007865D01*
X122265275Y-100052382D01*
X122207267Y-100079431D01*
X122207265Y-100079432D01*
X122020858Y-100209954D01*
X121859954Y-100370858D01*
X121729432Y-100557265D01*
X121729431Y-100557267D01*
X121633261Y-100763502D01*
X121633258Y-100763511D01*
X121574366Y-100983302D01*
X121574364Y-100983313D01*
X121554532Y-101209998D01*
X121554532Y-101210001D01*
X121574364Y-101436686D01*
X121574366Y-101436697D01*
X121633258Y-101656488D01*
X121633261Y-101656497D01*
X121729431Y-101862732D01*
X121729432Y-101862734D01*
X121859954Y-102049141D01*
X122020858Y-102210045D01*
X122020861Y-102210047D01*
X122207266Y-102340568D01*
X122257068Y-102363791D01*
X122265275Y-102367618D01*
X122317714Y-102413791D01*
X122336866Y-102480984D01*
X122316650Y-102547865D01*
X122265275Y-102592382D01*
X122207267Y-102619431D01*
X122207265Y-102619432D01*
X122020858Y-102749954D01*
X121859954Y-102910858D01*
X121729432Y-103097265D01*
X121729431Y-103097267D01*
X121633261Y-103303502D01*
X121633258Y-103303511D01*
X121574366Y-103523302D01*
X121574364Y-103523313D01*
X121554532Y-103749998D01*
X121554532Y-103750001D01*
X120426692Y-103750001D01*
X120426692Y-103749998D01*
X120429315Y-103732094D01*
X120426625Y-103701352D01*
X120424736Y-103679756D01*
X120424500Y-103674350D01*
X120424500Y-103666066D01*
X120424500Y-103666059D01*
X120420674Y-103633325D01*
X120413943Y-103556388D01*
X120413941Y-103556383D01*
X120412483Y-103549319D01*
X120412536Y-103549307D01*
X120410878Y-103541827D01*
X120410824Y-103541840D01*
X120409160Y-103534822D01*
X120409160Y-103534816D01*
X120382749Y-103462254D01*
X120358464Y-103388965D01*
X120358461Y-103388961D01*
X120358461Y-103388959D01*
X120355409Y-103382412D01*
X120355458Y-103382389D01*
X120352125Y-103375504D01*
X120352076Y-103375529D01*
X120348838Y-103369083D01*
X120348836Y-103369076D01*
X120348831Y-103369068D01*
X120306400Y-103304554D01*
X120281332Y-103263914D01*
X120265871Y-103238847D01*
X120265867Y-103238843D01*
X120261390Y-103233180D01*
X120261432Y-103233146D01*
X120256597Y-103227211D01*
X120256556Y-103227246D01*
X120251912Y-103221711D01*
X120195752Y-103168728D01*
X118447171Y-101420147D01*
X118413686Y-101358824D01*
X118411324Y-101321662D01*
X118425468Y-101160000D01*
X118405635Y-100933308D01*
X118346739Y-100713504D01*
X118250568Y-100507266D01*
X118120047Y-100320861D01*
X118120045Y-100320858D01*
X117959141Y-100159954D01*
X117772734Y-100029432D01*
X117772728Y-100029429D01*
X117745038Y-100016517D01*
X117714724Y-100002381D01*
X117662285Y-99956210D01*
X117643133Y-99889017D01*
X117663348Y-99822135D01*
X117714725Y-99777618D01*
X117772734Y-99750568D01*
X117959139Y-99620047D01*
X118120047Y-99459139D01*
X118250568Y-99272734D01*
X118346739Y-99066496D01*
X118405635Y-98846692D01*
X118425468Y-98620000D01*
X118421460Y-98574194D01*
X118415768Y-98509126D01*
X118405635Y-98393308D01*
X118346739Y-98173504D01*
X118250568Y-97967266D01*
X118120047Y-97780861D01*
X118120045Y-97780858D01*
X117959141Y-97619954D01*
X117772734Y-97489432D01*
X117772728Y-97489429D01*
X117727957Y-97468552D01*
X117714724Y-97462381D01*
X117662285Y-97416210D01*
X117643133Y-97349017D01*
X117663348Y-97282135D01*
X117714725Y-97237618D01*
X117772734Y-97210568D01*
X117959139Y-97080047D01*
X118120047Y-96919139D01*
X118250568Y-96732734D01*
X118346739Y-96526496D01*
X118405635Y-96306692D01*
X118425468Y-96080000D01*
X118405635Y-95853308D01*
X118346739Y-95633504D01*
X118250568Y-95427266D01*
X118120047Y-95240861D01*
X118120045Y-95240858D01*
X117959141Y-95079954D01*
X117772734Y-94949432D01*
X117772732Y-94949431D01*
X117566497Y-94853261D01*
X117566488Y-94853258D01*
X117346697Y-94794366D01*
X117346693Y-94794365D01*
X117346692Y-94794365D01*
X117346691Y-94794364D01*
X117346686Y-94794364D01*
X117120002Y-94774532D01*
X117119998Y-94774532D01*
X116893313Y-94794364D01*
X116893302Y-94794366D01*
X116673511Y-94853258D01*
X116673502Y-94853261D01*
X116467267Y-94949431D01*
X116467265Y-94949432D01*
X116280858Y-95079954D01*
X116119954Y-95240858D01*
X115989432Y-95427265D01*
X115989431Y-95427267D01*
X115893261Y-95633502D01*
X115893258Y-95633511D01*
X115834366Y-95853302D01*
X115834364Y-95853313D01*
X115814532Y-96079998D01*
X115814532Y-96080001D01*
X115834364Y-96306686D01*
X115834366Y-96306697D01*
X115893258Y-96526488D01*
X115893261Y-96526497D01*
X115989431Y-96732732D01*
X115989432Y-96732734D01*
X116119954Y-96919141D01*
X116280858Y-97080045D01*
X116280861Y-97080047D01*
X116467266Y-97210568D01*
X116525275Y-97237618D01*
X116577714Y-97283791D01*
X116596866Y-97350984D01*
X116576650Y-97417865D01*
X116525275Y-97462381D01*
X116513516Y-97467865D01*
X116467267Y-97489431D01*
X116467265Y-97489432D01*
X116280858Y-97619954D01*
X116119954Y-97780858D01*
X115989432Y-97967265D01*
X115989431Y-97967267D01*
X115893261Y-98173502D01*
X115893258Y-98173511D01*
X115834366Y-98393302D01*
X115834364Y-98393312D01*
X115824232Y-98509126D01*
X115798779Y-98574194D01*
X115742188Y-98615173D01*
X115672426Y-98619051D01*
X115613023Y-98585999D01*
X115158766Y-98131742D01*
X115146984Y-98118109D01*
X115143604Y-98113569D01*
X115132539Y-98098706D01*
X115132537Y-98098704D01*
X115132538Y-98098704D01*
X115099927Y-98071341D01*
X115092285Y-98064928D01*
X115088310Y-98061286D01*
X115082441Y-98055417D01*
X115082440Y-98055416D01*
X115082438Y-98055414D01*
X115056584Y-98034972D01*
X114997427Y-97985333D01*
X114991394Y-97981365D01*
X114991422Y-97981321D01*
X114984961Y-97977204D01*
X114984934Y-97977250D01*
X114978790Y-97973460D01*
X114908808Y-97940827D01*
X114839815Y-97906177D01*
X114833031Y-97903708D01*
X114833049Y-97903658D01*
X114825807Y-97901141D01*
X114825791Y-97901191D01*
X114818938Y-97898920D01*
X114743311Y-97883304D01*
X114668181Y-97865498D01*
X114661014Y-97864661D01*
X114661020Y-97864607D01*
X114653405Y-97863829D01*
X114653401Y-97863883D01*
X114646210Y-97863253D01*
X114569018Y-97865500D01*
X110623862Y-97865500D01*
X110556823Y-97845815D01*
X110522287Y-97812623D01*
X110500045Y-97780858D01*
X110339143Y-97619956D01*
X110314536Y-97602726D01*
X110270912Y-97548149D01*
X110263719Y-97478650D01*
X110295241Y-97416296D01*
X110355471Y-97380882D01*
X110372404Y-97377861D01*
X110407483Y-97374091D01*
X110542331Y-97323796D01*
X110657546Y-97237546D01*
X110743796Y-97122331D01*
X110794091Y-96987483D01*
X110800500Y-96927873D01*
X110800499Y-95232128D01*
X110794091Y-95172517D01*
X110759567Y-95079954D01*
X110743797Y-95037671D01*
X110743793Y-95037664D01*
X110657547Y-94922455D01*
X110657544Y-94922452D01*
X110542335Y-94836206D01*
X110542328Y-94836202D01*
X110407482Y-94785908D01*
X110407483Y-94785908D01*
X110347883Y-94779501D01*
X110347881Y-94779500D01*
X110347873Y-94779500D01*
X110347864Y-94779500D01*
X108652129Y-94779500D01*
X108652123Y-94779501D01*
X108592516Y-94785908D01*
X108457671Y-94836202D01*
X108457664Y-94836206D01*
X108342455Y-94922452D01*
X108342452Y-94922455D01*
X108256206Y-95037664D01*
X108256202Y-95037671D01*
X108205908Y-95172517D01*
X108199501Y-95232116D01*
X108199499Y-95232135D01*
X108199499Y-95953113D01*
X108179814Y-96020153D01*
X108127010Y-96065907D01*
X108057852Y-96075851D01*
X107994296Y-96046826D01*
X107987818Y-96040794D01*
X105218766Y-93271742D01*
X105206984Y-93258109D01*
X105203604Y-93253569D01*
X105192539Y-93238706D01*
X105192537Y-93238704D01*
X105192538Y-93238704D01*
X105164932Y-93215541D01*
X105152285Y-93204928D01*
X105148310Y-93201286D01*
X105142441Y-93195417D01*
X105142440Y-93195416D01*
X105142438Y-93195414D01*
X105116584Y-93174972D01*
X105057427Y-93125333D01*
X105051394Y-93121365D01*
X105051422Y-93121321D01*
X105044961Y-93117204D01*
X105044934Y-93117250D01*
X105038790Y-93113460D01*
X104968808Y-93080827D01*
X104899815Y-93046177D01*
X104893031Y-93043708D01*
X104893049Y-93043658D01*
X104885807Y-93041141D01*
X104885791Y-93041191D01*
X104878938Y-93038920D01*
X104803311Y-93023304D01*
X104728181Y-93005498D01*
X104721014Y-93004661D01*
X104721020Y-93004607D01*
X104713405Y-93003829D01*
X104713401Y-93003883D01*
X104706210Y-93003253D01*
X104629018Y-93005500D01*
X97424000Y-93005500D01*
X97406031Y-93004191D01*
X97382091Y-93000684D01*
X97342019Y-93004191D01*
X97329751Y-93005264D01*
X97324351Y-93005500D01*
X97316053Y-93005500D01*
X97283325Y-93009325D01*
X97206387Y-93016056D01*
X97199321Y-93017516D01*
X97199310Y-93017464D01*
X97191831Y-93019122D01*
X97191844Y-93019174D01*
X97184817Y-93020839D01*
X97112254Y-93047250D01*
X97038962Y-93071536D01*
X97032421Y-93074587D01*
X97032398Y-93074539D01*
X97025501Y-93077878D01*
X97025525Y-93077925D01*
X97019077Y-93081163D01*
X96954554Y-93123600D01*
X96888853Y-93164124D01*
X96883185Y-93168606D01*
X96883152Y-93168564D01*
X96877214Y-93173401D01*
X96877248Y-93173442D01*
X96871717Y-93178082D01*
X96818728Y-93234247D01*
X95440147Y-94612827D01*
X95378824Y-94646312D01*
X95341660Y-94648674D01*
X95180003Y-94634532D01*
X95179998Y-94634532D01*
X94953313Y-94654364D01*
X94953302Y-94654366D01*
X94733511Y-94713258D01*
X94733502Y-94713261D01*
X94527267Y-94809431D01*
X94527265Y-94809432D01*
X94340858Y-94939954D01*
X94179954Y-95100858D01*
X94049432Y-95287265D01*
X94049431Y-95287267D01*
X93953261Y-95493502D01*
X93953258Y-95493511D01*
X93894366Y-95713302D01*
X93894364Y-95713313D01*
X93874532Y-95939998D01*
X93874532Y-95940001D01*
X85564376Y-95940001D01*
X85528122Y-95836394D01*
X85435147Y-95688424D01*
X85311576Y-95564853D01*
X85163606Y-95471878D01*
X85163605Y-95471877D01*
X85163604Y-95471877D01*
X84998658Y-95414159D01*
X84998648Y-95414157D01*
X84868558Y-95399500D01*
X84868552Y-95399500D01*
X84231448Y-95399500D01*
X84231441Y-95399500D01*
X84101351Y-95414157D01*
X84101341Y-95414159D01*
X83936395Y-95471877D01*
X83788423Y-95564853D01*
X83664853Y-95688423D01*
X83571877Y-95836395D01*
X83514159Y-96001341D01*
X83514157Y-96001351D01*
X83499500Y-96131441D01*
X83499500Y-97132113D01*
X83479815Y-97199152D01*
X83463181Y-97219794D01*
X77201742Y-103481232D01*
X77188113Y-103493011D01*
X77168706Y-103507459D01*
X77134939Y-103547700D01*
X77131295Y-103551678D01*
X77125419Y-103557555D01*
X77104972Y-103583414D01*
X77055334Y-103642570D01*
X77051366Y-103648605D01*
X77051322Y-103648576D01*
X77047209Y-103655031D01*
X77047254Y-103655059D01*
X77043459Y-103661211D01*
X77010827Y-103731191D01*
X76976176Y-103800188D01*
X76973704Y-103806979D01*
X76973655Y-103806961D01*
X76971141Y-103814193D01*
X76971191Y-103814210D01*
X76968920Y-103821062D01*
X76953304Y-103896688D01*
X76935498Y-103971818D01*
X76934661Y-103978987D01*
X76934607Y-103978980D01*
X76933830Y-103986596D01*
X76933883Y-103986601D01*
X76933253Y-103993790D01*
X76935500Y-104070981D01*
X76935500Y-111616112D01*
X76915815Y-111683151D01*
X76899181Y-111703793D01*
X72116742Y-116486232D01*
X72103113Y-116498011D01*
X72083706Y-116512459D01*
X72049939Y-116552700D01*
X72046295Y-116556678D01*
X72040419Y-116562555D01*
X72019972Y-116588414D01*
X71970334Y-116647570D01*
X71966366Y-116653605D01*
X71966322Y-116653576D01*
X71962209Y-116660031D01*
X71962254Y-116660059D01*
X71958459Y-116666211D01*
X71925827Y-116736191D01*
X71891176Y-116805188D01*
X71888704Y-116811979D01*
X71888655Y-116811961D01*
X71886141Y-116819193D01*
X71886191Y-116819210D01*
X71883920Y-116826062D01*
X71868304Y-116901688D01*
X71850498Y-116976818D01*
X71849661Y-116983987D01*
X71849607Y-116983980D01*
X71848830Y-116991596D01*
X71848883Y-116991601D01*
X71848253Y-116998790D01*
X71850500Y-117075981D01*
X71850500Y-123205500D01*
X71830815Y-123272539D01*
X71778011Y-123318294D01*
X71726502Y-123329500D01*
X71657130Y-123329500D01*
X71657123Y-123329501D01*
X71597516Y-123335908D01*
X71462671Y-123386202D01*
X71462664Y-123386206D01*
X71347455Y-123472452D01*
X71347452Y-123472455D01*
X71261206Y-123587664D01*
X71261202Y-123587671D01*
X71210908Y-123722517D01*
X71204501Y-123782116D01*
X71204500Y-123782135D01*
X71204500Y-125677870D01*
X64457707Y-125677870D01*
X64488164Y-125644785D01*
X64624173Y-125436607D01*
X64724063Y-125208881D01*
X64785108Y-124967821D01*
X64786860Y-124946675D01*
X64805643Y-124720005D01*
X64805643Y-124719994D01*
X64785109Y-124472187D01*
X64785107Y-124472175D01*
X64724063Y-124231118D01*
X64624173Y-124003393D01*
X64488166Y-123795217D01*
X64428919Y-123730858D01*
X64319744Y-123612262D01*
X64123509Y-123459526D01*
X64123507Y-123459525D01*
X64123506Y-123459524D01*
X63904811Y-123341172D01*
X63904802Y-123341169D01*
X63669616Y-123260429D01*
X63424335Y-123219500D01*
X63175665Y-123219500D01*
X62930383Y-123260429D01*
X62695197Y-123341169D01*
X62695188Y-123341172D01*
X62476493Y-123459524D01*
X62280257Y-123612261D01*
X62111833Y-123795217D01*
X61975826Y-124003393D01*
X61875936Y-124231118D01*
X61814892Y-124472175D01*
X61814890Y-124472187D01*
X61794357Y-124719994D01*
X61794357Y-124720005D01*
X50993056Y-124720005D01*
X50991264Y-118167870D01*
X61799500Y-118167870D01*
X61799501Y-118167876D01*
X61805908Y-118227483D01*
X61856202Y-118362328D01*
X61856206Y-118362335D01*
X61942452Y-118477544D01*
X61942455Y-118477547D01*
X62057664Y-118563793D01*
X62057671Y-118563797D01*
X62192517Y-118614091D01*
X62192516Y-118614091D01*
X62199444Y-118614835D01*
X62252127Y-118620500D01*
X64347872Y-118620499D01*
X64407483Y-118614091D01*
X64542331Y-118563796D01*
X64657546Y-118477546D01*
X64743796Y-118362331D01*
X64794091Y-118227483D01*
X64800500Y-118167873D01*
X64800499Y-116072128D01*
X64794091Y-116012517D01*
X64781980Y-115980047D01*
X64743797Y-115877671D01*
X64743793Y-115877664D01*
X64657547Y-115762455D01*
X64657544Y-115762452D01*
X64542335Y-115676206D01*
X64542328Y-115676202D01*
X64407482Y-115625908D01*
X64407483Y-115625908D01*
X64347883Y-115619501D01*
X64347881Y-115619500D01*
X64347873Y-115619500D01*
X64347864Y-115619500D01*
X62252129Y-115619500D01*
X62252123Y-115619501D01*
X62192516Y-115625908D01*
X62057671Y-115676202D01*
X62057664Y-115676206D01*
X61942455Y-115762452D01*
X61942452Y-115762455D01*
X61856206Y-115877664D01*
X61856202Y-115877671D01*
X61805908Y-116012517D01*
X61799501Y-116072116D01*
X61799501Y-116072123D01*
X61799500Y-116072135D01*
X61799500Y-118167870D01*
X50991264Y-118167870D01*
X50987601Y-104770000D01*
X68924410Y-104770000D01*
X68944754Y-105132266D01*
X68944756Y-105132278D01*
X69005532Y-105489983D01*
X69005534Y-105489991D01*
X69105980Y-105838645D01*
X69244830Y-106173863D01*
X69244832Y-106173867D01*
X69420350Y-106491442D01*
X69420353Y-106491447D01*
X69597321Y-106740858D01*
X69630314Y-106787357D01*
X69872092Y-107057908D01*
X70142643Y-107299686D01*
X70142646Y-107299688D01*
X70142647Y-107299689D01*
X70438552Y-107509646D01*
X70438557Y-107509649D01*
X70438560Y-107509650D01*
X70438562Y-107509652D01*
X70565847Y-107580000D01*
X70756132Y-107685167D01*
X70756136Y-107685169D01*
X70884599Y-107738379D01*
X71091352Y-107824019D01*
X71440013Y-107924467D01*
X71797729Y-107985245D01*
X72160000Y-108005590D01*
X72522271Y-107985245D01*
X72879987Y-107924467D01*
X73228648Y-107824019D01*
X73563870Y-107685166D01*
X73881438Y-107509652D01*
X73881443Y-107509648D01*
X73881447Y-107509646D01*
X74004553Y-107422297D01*
X74177357Y-107299686D01*
X74447908Y-107057908D01*
X74689686Y-106787357D01*
X74812867Y-106613749D01*
X74899646Y-106491447D01*
X74899649Y-106491442D01*
X74899652Y-106491438D01*
X75075166Y-106173870D01*
X75214019Y-105838648D01*
X75314467Y-105489987D01*
X75375245Y-105132271D01*
X75395590Y-104770000D01*
X75375245Y-104407729D01*
X75314467Y-104050013D01*
X75214019Y-103701352D01*
X75122843Y-103481232D01*
X75075169Y-103366136D01*
X75075167Y-103366132D01*
X75041134Y-103304554D01*
X74899652Y-103048562D01*
X74899650Y-103048560D01*
X74899649Y-103048557D01*
X74899646Y-103048552D01*
X74689689Y-102752647D01*
X74689688Y-102752646D01*
X74689686Y-102752643D01*
X74447908Y-102482092D01*
X74177357Y-102240314D01*
X74177354Y-102240312D01*
X74177352Y-102240310D01*
X73881447Y-102030353D01*
X73881442Y-102030350D01*
X73563867Y-101854832D01*
X73563863Y-101854830D01*
X73289201Y-101741062D01*
X73228648Y-101715981D01*
X73228645Y-101715980D01*
X72879991Y-101615534D01*
X72879983Y-101615532D01*
X72522278Y-101554756D01*
X72522266Y-101554754D01*
X72186238Y-101535883D01*
X72160000Y-101534410D01*
X72159999Y-101534410D01*
X71797733Y-101554754D01*
X71797721Y-101554756D01*
X71440016Y-101615532D01*
X71440008Y-101615534D01*
X71091354Y-101715980D01*
X70756136Y-101854830D01*
X70756132Y-101854832D01*
X70438557Y-102030350D01*
X70438552Y-102030353D01*
X70142647Y-102240310D01*
X69872092Y-102482092D01*
X69630310Y-102752647D01*
X69420353Y-103048552D01*
X69420350Y-103048557D01*
X69244832Y-103366132D01*
X69244830Y-103366136D01*
X69105980Y-103701354D01*
X69005534Y-104050008D01*
X69005532Y-104050016D01*
X68944756Y-104407721D01*
X68944754Y-104407733D01*
X68924410Y-104770000D01*
X50987601Y-104770000D01*
X50984426Y-93160001D01*
X59714390Y-93160001D01*
X59734804Y-93445433D01*
X59795628Y-93725037D01*
X59895635Y-93993166D01*
X60032770Y-94244309D01*
X60032775Y-94244317D01*
X60204254Y-94473387D01*
X60204270Y-94473405D01*
X60406594Y-94675729D01*
X60406612Y-94675745D01*
X60635682Y-94847224D01*
X60635690Y-94847229D01*
X60886833Y-94984364D01*
X60886832Y-94984364D01*
X60886836Y-94984365D01*
X60886839Y-94984367D01*
X61154954Y-95084369D01*
X61154960Y-95084370D01*
X61154962Y-95084371D01*
X61434566Y-95145195D01*
X61434568Y-95145195D01*
X61434572Y-95145196D01*
X61688220Y-95163337D01*
X61719999Y-95165610D01*
X61720000Y-95165610D01*
X61720001Y-95165610D01*
X61748595Y-95163564D01*
X62005428Y-95145196D01*
X62209234Y-95100861D01*
X62285037Y-95084371D01*
X62285037Y-95084370D01*
X62285046Y-95084369D01*
X62553161Y-94984367D01*
X62804315Y-94847226D01*
X63033395Y-94675739D01*
X63235739Y-94473395D01*
X63407226Y-94244315D01*
X63544367Y-93993161D01*
X63644369Y-93725046D01*
X63705196Y-93445428D01*
X63724753Y-93171982D01*
X63725610Y-93160001D01*
X63725610Y-93159998D01*
X63719972Y-93081164D01*
X63705196Y-92874572D01*
X63644369Y-92594954D01*
X63544367Y-92326839D01*
X63407226Y-92075685D01*
X63407224Y-92075682D01*
X63235745Y-91846612D01*
X63235729Y-91846594D01*
X63033405Y-91644270D01*
X63033387Y-91644254D01*
X62804317Y-91472775D01*
X62804309Y-91472770D01*
X62553166Y-91335635D01*
X62553167Y-91335635D01*
X62431324Y-91290190D01*
X62285046Y-91235631D01*
X62285043Y-91235630D01*
X62285037Y-91235628D01*
X62005433Y-91174804D01*
X61720001Y-91154390D01*
X61719999Y-91154390D01*
X61434566Y-91174804D01*
X61154962Y-91235628D01*
X60886833Y-91335635D01*
X60635690Y-91472770D01*
X60635682Y-91472775D01*
X60406612Y-91644254D01*
X60406594Y-91644270D01*
X60204270Y-91846594D01*
X60204254Y-91846612D01*
X60032775Y-92075682D01*
X60032770Y-92075690D01*
X59895635Y-92326833D01*
X59795628Y-92594962D01*
X59734804Y-92874566D01*
X59714390Y-93159998D01*
X59714390Y-93160001D01*
X50984426Y-93160001D01*
X50983411Y-89450001D01*
X69757177Y-89450001D01*
X69776443Y-89719382D01*
X69833848Y-89983263D01*
X69833850Y-89983270D01*
X69892448Y-90140377D01*
X69928228Y-90236308D01*
X69928230Y-90236312D01*
X70057652Y-90473331D01*
X70057657Y-90473339D01*
X70219493Y-90689527D01*
X70219509Y-90689545D01*
X70410454Y-90880490D01*
X70410472Y-90880506D01*
X70626660Y-91042342D01*
X70626668Y-91042347D01*
X70863687Y-91171769D01*
X70863691Y-91171771D01*
X70863693Y-91171772D01*
X71116730Y-91266150D01*
X71240170Y-91293003D01*
X71380617Y-91323556D01*
X71380619Y-91323556D01*
X71380623Y-91323557D01*
X71620007Y-91340677D01*
X71649999Y-91342823D01*
X71650000Y-91342823D01*
X71650001Y-91342823D01*
X71676987Y-91340892D01*
X71919377Y-91323557D01*
X72183270Y-91266150D01*
X72436307Y-91171772D01*
X72673337Y-91042344D01*
X72889535Y-90880500D01*
X73080500Y-90689535D01*
X73242344Y-90473337D01*
X73371772Y-90236307D01*
X73466150Y-89983270D01*
X73523557Y-89719377D01*
X73542823Y-89450001D01*
X74457177Y-89450001D01*
X74476443Y-89719382D01*
X74533848Y-89983263D01*
X74533850Y-89983270D01*
X74592448Y-90140377D01*
X74628228Y-90236308D01*
X74628230Y-90236312D01*
X74757652Y-90473331D01*
X74757657Y-90473339D01*
X74919493Y-90689527D01*
X74919509Y-90689545D01*
X75110454Y-90880490D01*
X75110472Y-90880506D01*
X75326660Y-91042342D01*
X75326668Y-91042347D01*
X75563687Y-91171769D01*
X75563691Y-91171771D01*
X75563693Y-91171772D01*
X75816730Y-91266150D01*
X75940170Y-91293003D01*
X76080617Y-91323556D01*
X76080619Y-91323556D01*
X76080623Y-91323557D01*
X76320007Y-91340677D01*
X76349999Y-91342823D01*
X76350000Y-91342823D01*
X76350001Y-91342823D01*
X76376987Y-91340892D01*
X76619377Y-91323557D01*
X76883270Y-91266150D01*
X77136307Y-91171772D01*
X77373337Y-91042344D01*
X77589535Y-90880500D01*
X77780500Y-90689535D01*
X77942344Y-90473337D01*
X78071772Y-90236307D01*
X78166150Y-89983270D01*
X78223557Y-89719377D01*
X78242823Y-89450001D01*
X79157177Y-89450001D01*
X79176443Y-89719382D01*
X79233848Y-89983263D01*
X79233850Y-89983270D01*
X79292448Y-90140377D01*
X79328228Y-90236308D01*
X79328230Y-90236312D01*
X79457652Y-90473331D01*
X79457657Y-90473339D01*
X79619493Y-90689527D01*
X79619509Y-90689545D01*
X79810454Y-90880490D01*
X79810472Y-90880506D01*
X80026660Y-91042342D01*
X80026668Y-91042347D01*
X80263687Y-91171769D01*
X80263691Y-91171771D01*
X80263693Y-91171772D01*
X80516730Y-91266150D01*
X80640170Y-91293003D01*
X80780617Y-91323556D01*
X80780619Y-91323556D01*
X80780623Y-91323557D01*
X81020007Y-91340677D01*
X81049999Y-91342823D01*
X81050000Y-91342823D01*
X81050001Y-91342823D01*
X81076987Y-91340892D01*
X81319377Y-91323557D01*
X81583270Y-91266150D01*
X81836307Y-91171772D01*
X82073337Y-91042344D01*
X82289535Y-90880500D01*
X82480500Y-90689535D01*
X82642344Y-90473337D01*
X82771772Y-90236307D01*
X82866150Y-89983270D01*
X82923557Y-89719377D01*
X82942823Y-89450000D01*
X82923557Y-89180623D01*
X82866150Y-88916730D01*
X82771772Y-88663693D01*
X82642344Y-88426663D01*
X82642342Y-88426660D01*
X82480506Y-88210472D01*
X82480490Y-88210454D01*
X82289545Y-88019509D01*
X82289527Y-88019493D01*
X82073339Y-87857657D01*
X82073331Y-87857652D01*
X81836312Y-87728230D01*
X81836308Y-87728228D01*
X81740377Y-87692448D01*
X81583270Y-87633850D01*
X81583266Y-87633849D01*
X81583263Y-87633848D01*
X81319382Y-87576443D01*
X81050001Y-87557177D01*
X81049999Y-87557177D01*
X80780617Y-87576443D01*
X80516736Y-87633848D01*
X80516731Y-87633849D01*
X80516730Y-87633850D01*
X80455551Y-87656668D01*
X80263691Y-87728228D01*
X80263687Y-87728230D01*
X80026668Y-87857652D01*
X80026660Y-87857657D01*
X79810472Y-88019493D01*
X79810454Y-88019509D01*
X79619509Y-88210454D01*
X79619493Y-88210472D01*
X79457657Y-88426660D01*
X79457652Y-88426668D01*
X79328230Y-88663687D01*
X79328228Y-88663691D01*
X79233848Y-88916736D01*
X79176443Y-89180617D01*
X79157177Y-89449998D01*
X79157177Y-89450001D01*
X78242823Y-89450001D01*
X78242823Y-89450000D01*
X78223557Y-89180623D01*
X78166150Y-88916730D01*
X78071772Y-88663693D01*
X77942344Y-88426663D01*
X77942342Y-88426660D01*
X77780506Y-88210472D01*
X77780490Y-88210454D01*
X77589545Y-88019509D01*
X77589527Y-88019493D01*
X77373339Y-87857657D01*
X77373331Y-87857652D01*
X77136312Y-87728230D01*
X77136308Y-87728228D01*
X77040377Y-87692448D01*
X76883270Y-87633850D01*
X76883266Y-87633849D01*
X76883263Y-87633848D01*
X76619382Y-87576443D01*
X76350001Y-87557177D01*
X76349999Y-87557177D01*
X76080617Y-87576443D01*
X75816736Y-87633848D01*
X75816731Y-87633849D01*
X75816730Y-87633850D01*
X75755551Y-87656668D01*
X75563691Y-87728228D01*
X75563687Y-87728230D01*
X75326668Y-87857652D01*
X75326660Y-87857657D01*
X75110472Y-88019493D01*
X75110454Y-88019509D01*
X74919509Y-88210454D01*
X74919493Y-88210472D01*
X74757657Y-88426660D01*
X74757652Y-88426668D01*
X74628230Y-88663687D01*
X74628228Y-88663691D01*
X74533848Y-88916736D01*
X74476443Y-89180617D01*
X74457177Y-89449998D01*
X74457177Y-89450001D01*
X73542823Y-89450001D01*
X73542823Y-89450000D01*
X73523557Y-89180623D01*
X73466150Y-88916730D01*
X73371772Y-88663693D01*
X73242344Y-88426663D01*
X73242342Y-88426660D01*
X73080506Y-88210472D01*
X73080490Y-88210454D01*
X72889545Y-88019509D01*
X72889527Y-88019493D01*
X72673339Y-87857657D01*
X72673331Y-87857652D01*
X72436312Y-87728230D01*
X72436308Y-87728228D01*
X72340377Y-87692448D01*
X72183270Y-87633850D01*
X72183266Y-87633849D01*
X72183263Y-87633848D01*
X71919382Y-87576443D01*
X71650001Y-87557177D01*
X71649999Y-87557177D01*
X71380617Y-87576443D01*
X71116736Y-87633848D01*
X71116731Y-87633849D01*
X71116730Y-87633850D01*
X71055551Y-87656668D01*
X70863691Y-87728228D01*
X70863687Y-87728230D01*
X70626668Y-87857652D01*
X70626660Y-87857657D01*
X70410472Y-88019493D01*
X70410454Y-88019509D01*
X70219509Y-88210454D01*
X70219493Y-88210472D01*
X70057657Y-88426660D01*
X70057652Y-88426668D01*
X69928230Y-88663687D01*
X69928228Y-88663691D01*
X69833848Y-88916736D01*
X69776443Y-89180617D01*
X69757177Y-89449998D01*
X69757177Y-89450001D01*
X50983411Y-89450001D01*
X50980533Y-78924630D01*
X51000199Y-78857589D01*
X51052991Y-78811820D01*
X51104631Y-78800600D01*
X87986256Y-78830431D01*
G37*
%TD.AperFunction*%
%TD*%
M02*
