%TF.GenerationSoftware,KiCad,Pcbnew,7.0.6*%
%TF.CreationDate,2023-09-05T08:02:31-07:00*%
%TF.ProjectId,KICAD_lightning_trigger,4b494341-445f-46c6-9967-68746e696e67,rev?*%
%TF.SameCoordinates,Original*%
%TF.FileFunction,Copper,L1,Top*%
%TF.FilePolarity,Positive*%
%FSLAX46Y46*%
G04 Gerber Fmt 4.6, Leading zero omitted, Abs format (unit mm)*
G04 Created by KiCad (PCBNEW 7.0.6) date 2023-09-05 08:02:31*
%MOMM*%
%LPD*%
G01*
G04 APERTURE LIST*
G04 Aperture macros list*
%AMRoundRect*
0 Rectangle with rounded corners*
0 $1 Rounding radius*
0 $2 $3 $4 $5 $6 $7 $8 $9 X,Y pos of 4 corners*
0 Add a 4 corners polygon primitive as box body*
4,1,4,$2,$3,$4,$5,$6,$7,$8,$9,$2,$3,0*
0 Add four circle primitives for the rounded corners*
1,1,$1+$1,$2,$3*
1,1,$1+$1,$4,$5*
1,1,$1+$1,$6,$7*
1,1,$1+$1,$8,$9*
0 Add four rect primitives between the rounded corners*
20,1,$1+$1,$2,$3,$4,$5,0*
20,1,$1+$1,$4,$5,$6,$7,0*
20,1,$1+$1,$6,$7,$8,$9,0*
20,1,$1+$1,$8,$9,$2,$3,0*%
G04 Aperture macros list end*
%TA.AperFunction,ComponentPad*%
%ADD10C,1.600000*%
%TD*%
%TA.AperFunction,ComponentPad*%
%ADD11O,1.600000X1.600000*%
%TD*%
%TA.AperFunction,ComponentPad*%
%ADD12R,1.700000X1.700000*%
%TD*%
%TA.AperFunction,ComponentPad*%
%ADD13O,1.700000X1.700000*%
%TD*%
%TA.AperFunction,ComponentPad*%
%ADD14R,3.000000X3.000000*%
%TD*%
%TA.AperFunction,ComponentPad*%
%ADD15C,3.000000*%
%TD*%
%TA.AperFunction,ComponentPad*%
%ADD16R,1.600000X1.600000*%
%TD*%
%TA.AperFunction,ComponentPad*%
%ADD17R,1.800000X1.800000*%
%TD*%
%TA.AperFunction,ComponentPad*%
%ADD18C,1.800000*%
%TD*%
%TA.AperFunction,ComponentPad*%
%ADD19C,2.000000*%
%TD*%
%TA.AperFunction,ComponentPad*%
%ADD20R,2.000000X2.000000*%
%TD*%
%TA.AperFunction,ComponentPad*%
%ADD21O,2.000000X2.000000*%
%TD*%
%TA.AperFunction,ComponentPad*%
%ADD22R,2.550000X2.500000*%
%TD*%
%TA.AperFunction,ComponentPad*%
%ADD23C,2.500000*%
%TD*%
%TA.AperFunction,ComponentPad*%
%ADD24R,1.100000X1.800000*%
%TD*%
%TA.AperFunction,ComponentPad*%
%ADD25RoundRect,0.275000X0.275000X0.625000X-0.275000X0.625000X-0.275000X-0.625000X0.275000X-0.625000X0*%
%TD*%
%TA.AperFunction,ComponentPad*%
%ADD26C,5.460000*%
%TD*%
%TA.AperFunction,ComponentPad*%
%ADD27C,4.740000*%
%TD*%
%TA.AperFunction,ComponentPad*%
%ADD28C,2.775000*%
%TD*%
%TA.AperFunction,ComponentPad*%
%ADD29R,1.800000X1.100000*%
%TD*%
%TA.AperFunction,ComponentPad*%
%ADD30RoundRect,0.275000X0.625000X-0.275000X0.625000X0.275000X-0.625000X0.275000X-0.625000X-0.275000X0*%
%TD*%
%TA.AperFunction,Conductor*%
%ADD31C,0.508000*%
%TD*%
G04 APERTURE END LIST*
D10*
%TO.P,R4,1*%
%TO.N,/V1*%
X95180000Y-95940000D03*
D11*
%TO.P,R4,2*%
%TO.N,Net-(C3-Pad1)*%
X102800000Y-95940000D03*
%TD*%
D10*
%TO.P,R7,1*%
%TO.N,Net-(U3--)*%
X112590000Y-130070000D03*
D11*
%TO.P,R7,2*%
%TO.N,Net-(C4-Pad2)*%
X120210000Y-130070000D03*
%TD*%
D10*
%TO.P,R9,1*%
%TO.N,Net-(C4-Pad2)*%
X120260000Y-134280000D03*
D11*
%TO.P,R9,2*%
%TO.N,GND*%
X112640000Y-134280000D03*
%TD*%
D12*
%TO.P,J6,1,Pin_1*%
%TO.N,/V1*%
X125360000Y-142170000D03*
D13*
%TO.P,J6,2,Pin_2*%
%TO.N,/V2*%
X127900000Y-142170000D03*
%TO.P,J6,3,Pin_3*%
%TO.N,/Vout*%
X130440000Y-142170000D03*
%TD*%
D14*
%TO.P,J1,1,Pin_1*%
%TO.N,GND*%
X61720000Y-88080000D03*
D15*
%TO.P,J1,2,Pin_2*%
%TO.N,+9V*%
X61720000Y-93160000D03*
%TD*%
D14*
%TO.P,J4,1,Pin_1*%
%TO.N,/Vin*%
X102760000Y-141900000D03*
D15*
%TO.P,J4,2,Pin_2*%
%TO.N,GND*%
X107840000Y-141900000D03*
%TD*%
D16*
%TO.P,U2,1,NULL*%
%TO.N,unconnected-(U2-NULL-Pad1)*%
X109500000Y-96080000D03*
D11*
%TO.P,U2,2,-*%
%TO.N,/V1*%
X109500000Y-98620000D03*
%TO.P,U2,3,+*%
%TO.N,/Vin*%
X109500000Y-101160000D03*
%TO.P,U2,4,V-*%
%TO.N,GND*%
X109500000Y-103700000D03*
%TO.P,U2,5,NULL*%
%TO.N,unconnected-(U2-NULL-Pad5)*%
X117120000Y-103700000D03*
%TO.P,U2,6*%
%TO.N,/V1*%
X117120000Y-101160000D03*
%TO.P,U2,7,V+*%
%TO.N,/VCC*%
X117120000Y-98620000D03*
%TO.P,U2,8,NC*%
%TO.N,unconnected-(U2-NC-Pad8)*%
X117120000Y-96080000D03*
%TD*%
D17*
%TO.P,D1,1,K*%
%TO.N,GND*%
X87065000Y-106060000D03*
D18*
%TO.P,D1,2,A*%
%TO.N,Net-(D1-A)*%
X84525000Y-106060000D03*
%TD*%
D10*
%TO.P,R3,1*%
%TO.N,GND*%
X130920000Y-120100000D03*
D11*
%TO.P,R3,2*%
%TO.N,/Vout*%
X130920000Y-112480000D03*
%TD*%
D10*
%TO.P,R13,1*%
%TO.N,GND*%
X102840000Y-105820000D03*
D11*
%TO.P,R13,2*%
%TO.N,/TRIG*%
X95220000Y-105820000D03*
%TD*%
D19*
%TO.P,S2,1,1*%
%TO.N,/TRIG*%
X71300000Y-141430000D03*
%TO.P,S2,2,2*%
X58800000Y-141430000D03*
%TO.P,S2,3,3*%
%TO.N,Net-(R1-Pad1)*%
X71300000Y-136430000D03*
%TO.P,S2,4,4*%
X58800000Y-136430000D03*
%TD*%
D20*
%TO.P,D3,1,K*%
%TO.N,/SHUTTER*%
X101530000Y-130020000D03*
D21*
%TO.P,D3,2,A*%
%TO.N,GND*%
X96450000Y-130020000D03*
%TD*%
D10*
%TO.P,R1,1*%
%TO.N,Net-(R1-Pad1)*%
X82020000Y-129880000D03*
D11*
%TO.P,R1,2*%
%TO.N,GND*%
X89640000Y-129880000D03*
%TD*%
D10*
%TO.P,R11,1*%
%TO.N,Net-(Q1-B)*%
X131020000Y-134400000D03*
D11*
%TO.P,R11,2*%
%TO.N,/Vout*%
X131020000Y-126780000D03*
%TD*%
D10*
%TO.P,R16,1*%
%TO.N,GND*%
X95170000Y-119720000D03*
D11*
%TO.P,R16,2*%
%TO.N,/SHUTTER*%
X102790000Y-119720000D03*
%TD*%
D10*
%TO.P,R12,1*%
%TO.N,/TRIG*%
X95260000Y-101020000D03*
D11*
%TO.P,R12,2*%
%TO.N,/VCC*%
X102880000Y-101020000D03*
%TD*%
D22*
%TO.P,J5,1,SLEEVE*%
%TO.N,GND*%
X138650000Y-96680000D03*
D23*
%TO.P,J5,2,TIP_1*%
%TO.N,/SHUTTER*%
X136800000Y-101580000D03*
%TO.P,J5,3,TIP_2*%
X140500000Y-101580000D03*
%TO.P,J5,4,RING*%
X138650000Y-103580000D03*
%TD*%
D24*
%TO.P,Q2,1,E*%
%TO.N,GND*%
X87090000Y-96800000D03*
D25*
%TO.P,Q2,2,B*%
%TO.N,Net-(Q2-B)*%
X85820000Y-98870000D03*
%TO.P,Q2,3,C*%
%TO.N,/SHUTTER_ON*%
X84550000Y-96800000D03*
%TD*%
D10*
%TO.P,R6,1*%
%TO.N,/VCC*%
X89580000Y-124570000D03*
D11*
%TO.P,R6,2*%
%TO.N,Net-(D2-A)*%
X81960000Y-124570000D03*
%TD*%
D26*
%TO.P,J2,1*%
%TO.N,+9V*%
X72160000Y-104770000D03*
D27*
%TO.P,J2,2*%
%TO.N,GND*%
X66160000Y-104770000D03*
%TD*%
D10*
%TO.P,C2,1*%
%TO.N,GND*%
X128390000Y-107560000D03*
%TO.P,C2,2*%
%TO.N,Net-(U1-DIS)*%
X130890000Y-107560000D03*
%TD*%
%TO.P,R8,1*%
%TO.N,/VCC*%
X89680000Y-120080000D03*
D11*
%TO.P,R8,2*%
%TO.N,Net-(BZ1--)*%
X82060000Y-120080000D03*
%TD*%
D28*
%TO.P,S1,1,NC*%
%TO.N,unconnected-(S1-NC-Pad1)*%
X71650000Y-89450000D03*
%TO.P,S1,2,COM*%
%TO.N,+9V*%
X76350000Y-89450000D03*
%TO.P,S1,3,NO*%
%TO.N,/VCC*%
X81050000Y-89450000D03*
%TD*%
D17*
%TO.P,D2,1,K*%
%TO.N,/SHUTTER_ON*%
X72605000Y-124730000D03*
D18*
%TO.P,D2,2,A*%
%TO.N,Net-(D2-A)*%
X75145000Y-124730000D03*
%TD*%
D10*
%TO.P,C3,1*%
%TO.N,Net-(C3-Pad1)*%
X105840000Y-130120000D03*
%TO.P,C3,2*%
%TO.N,Net-(U3--)*%
X108340000Y-130120000D03*
%TD*%
D20*
%TO.P,BZ1,1,-*%
%TO.N,Net-(BZ1--)*%
X63300000Y-117120000D03*
D19*
%TO.P,BZ1,2,+*%
%TO.N,/SHUTTER_ON*%
X63300000Y-124720000D03*
%TD*%
D24*
%TO.P,Q1,1,E*%
%TO.N,GND*%
X138900000Y-129720000D03*
D25*
%TO.P,Q1,2,B*%
%TO.N,Net-(Q1-B)*%
X137630000Y-131790000D03*
%TO.P,Q1,3,C*%
%TO.N,/SHUTTER*%
X136360000Y-129720000D03*
%TD*%
D10*
%TO.P,R14,1*%
%TO.N,Net-(Q2-B)*%
X95250000Y-110620000D03*
D11*
%TO.P,R14,2*%
%TO.N,/Vout*%
X102870000Y-110620000D03*
%TD*%
D10*
%TO.P,C1,1*%
%TO.N,GND*%
X122550000Y-107580000D03*
%TO.P,C1,2*%
%TO.N,Net-(U1-CV)*%
X125050000Y-107580000D03*
%TD*%
%TO.P,R10,1*%
%TO.N,Net-(C4-Pad2)*%
X125130000Y-134350000D03*
D11*
%TO.P,R10,2*%
%TO.N,/V2*%
X125130000Y-126730000D03*
%TD*%
D14*
%TO.P,J3,1,Pin_1*%
%TO.N,/VCC*%
X83870000Y-141740000D03*
D15*
%TO.P,J3,2,Pin_2*%
%TO.N,/Vin*%
X88950000Y-141740000D03*
%TD*%
D16*
%TO.P,U3,1,NULL*%
%TO.N,unconnected-(U3-NULL-Pad1)*%
X109500000Y-112440000D03*
D11*
%TO.P,U3,2,-*%
%TO.N,Net-(U3--)*%
X109500000Y-114980000D03*
%TO.P,U3,3,+*%
%TO.N,GND*%
X109500000Y-117520000D03*
%TO.P,U3,4,V-*%
X109500000Y-120060000D03*
%TO.P,U3,5,NULL*%
%TO.N,unconnected-(U3-NULL-Pad5)*%
X117120000Y-120060000D03*
%TO.P,U3,6*%
%TO.N,Net-(C4-Pad2)*%
X117120000Y-117520000D03*
%TO.P,U3,7,V+*%
%TO.N,/VCC*%
X117120000Y-114980000D03*
%TO.P,U3,8,NC*%
%TO.N,unconnected-(U3-NC-Pad8)*%
X117120000Y-112440000D03*
%TD*%
D29*
%TO.P,Q3,1,E*%
%TO.N,GND*%
X125880000Y-117770000D03*
D30*
%TO.P,Q3,2,B*%
%TO.N,/V2*%
X123810000Y-116500000D03*
%TO.P,Q3,3,C*%
%TO.N,/TRIG*%
X125880000Y-115230000D03*
%TD*%
D10*
%TO.P,R5,1*%
%TO.N,/VCC*%
X89790000Y-115240000D03*
D11*
%TO.P,R5,2*%
%TO.N,Net-(D1-A)*%
X82170000Y-115240000D03*
%TD*%
D16*
%TO.P,U1,1,GND*%
%TO.N,GND*%
X122860000Y-96130000D03*
D11*
%TO.P,U1,2,TR*%
%TO.N,/TRIG*%
X122860000Y-98670000D03*
%TO.P,U1,3,Q*%
%TO.N,/Vout*%
X122860000Y-101210000D03*
%TO.P,U1,4,R*%
%TO.N,/VCC*%
X122860000Y-103750000D03*
%TO.P,U1,5,CV*%
%TO.N,Net-(U1-CV)*%
X130480000Y-103750000D03*
%TO.P,U1,6,THR*%
%TO.N,Net-(U1-DIS)*%
X130480000Y-101210000D03*
%TO.P,U1,7,DIS*%
X130480000Y-98670000D03*
%TO.P,U1,8,VCC*%
%TO.N,/VCC*%
X130480000Y-96130000D03*
%TD*%
D10*
%TO.P,C4,1*%
%TO.N,Net-(U3--)*%
X112050000Y-107300000D03*
%TO.P,C4,2*%
%TO.N,Net-(C4-Pad2)*%
X114550000Y-107300000D03*
%TD*%
%TO.P,R15,1*%
%TO.N,/SHUTTER*%
X102890000Y-115260000D03*
D11*
%TO.P,R15,2*%
%TO.N,/VCC*%
X95270000Y-115260000D03*
%TD*%
D10*
%TO.P,R2,1*%
%TO.N,/VCC*%
X135980000Y-120170000D03*
D11*
%TO.P,R2,2*%
%TO.N,Net-(U1-DIS)*%
X135980000Y-112550000D03*
%TD*%
D31*
%TO.N,Net-(BZ1--)*%
X63300000Y-117120000D02*
X79100000Y-117120000D01*
X79100000Y-117120000D02*
X82060000Y-120080000D01*
%TO.N,/SHUTTER_ON*%
X72595000Y-124720000D02*
X72605000Y-124730000D01*
X63300000Y-124720000D02*
X72595000Y-124720000D01*
%TO.N,Net-(U1-CV)*%
X128880000Y-103750000D02*
X125050000Y-107580000D01*
X130480000Y-103750000D02*
X128880000Y-103750000D01*
%TO.N,Net-(U1-DIS)*%
X130480000Y-98670000D02*
X130480000Y-101210000D01*
X130890000Y-107560000D02*
X135880000Y-112550000D01*
X135880000Y-112550000D02*
X135980000Y-112550000D01*
X132890000Y-103620000D02*
X130480000Y-101210000D01*
X130890000Y-107560000D02*
X132890000Y-105560000D01*
X132890000Y-105560000D02*
X132890000Y-103620000D01*
%TO.N,Net-(U3--)*%
X107540001Y-116939999D02*
X109500000Y-114980000D01*
X108340000Y-130120000D02*
X112540000Y-130120000D01*
X110960000Y-114980000D02*
X109500000Y-114980000D01*
X112050000Y-107300000D02*
X112050000Y-113890000D01*
X112540000Y-130120000D02*
X112590000Y-130070000D01*
X112050000Y-113890000D02*
X110960000Y-114980000D01*
X108340000Y-130120000D02*
X107540001Y-129320001D01*
X107540001Y-129320001D02*
X107540001Y-116939999D01*
%TO.N,Net-(C4-Pad2)*%
X114550000Y-114950000D02*
X117120000Y-117520000D01*
X117120000Y-117520000D02*
X120210000Y-120610000D01*
X120330000Y-134350000D02*
X120260000Y-134280000D01*
X114550000Y-107300000D02*
X114550000Y-114950000D01*
X125130000Y-134350000D02*
X120330000Y-134350000D01*
X120210000Y-120610000D02*
X120210000Y-130070000D01*
%TO.N,Net-(D1-A)*%
X82170000Y-115240000D02*
X82170000Y-108415000D01*
X82170000Y-108415000D02*
X84525000Y-106060000D01*
%TO.N,Net-(D2-A)*%
X75145000Y-124730000D02*
X81800000Y-124730000D01*
X81800000Y-124730000D02*
X81960000Y-124570000D01*
%TO.N,/SHUTTER*%
X134320000Y-132160000D02*
X103590000Y-132160000D01*
X136800000Y-101730000D02*
X138650000Y-103580000D01*
X103590000Y-132080000D02*
X101530000Y-130020000D01*
X101930000Y-120580000D02*
X101930000Y-129620000D01*
X140500000Y-101580000D02*
X140500000Y-101730000D01*
X102790000Y-119720000D02*
X102790000Y-115360000D01*
X101930000Y-129620000D02*
X101530000Y-130020000D01*
X136360000Y-130120000D02*
X138650000Y-127830000D01*
X103590000Y-132160000D02*
X103590000Y-132080000D01*
X140500000Y-101730000D02*
X138650000Y-103580000D01*
X102790000Y-119720000D02*
X101930000Y-120580000D01*
X102790000Y-115360000D02*
X102890000Y-115260000D01*
X136800000Y-101580000D02*
X136800000Y-101730000D01*
X138650000Y-127830000D02*
X138650000Y-103580000D01*
X136360000Y-130120000D02*
X134320000Y-132160000D01*
%TO.N,+9V*%
X76350000Y-89450000D02*
X76350000Y-100580000D01*
X61720000Y-93160000D02*
X72160000Y-103600000D01*
X76350000Y-100580000D02*
X72160000Y-104770000D01*
X72160000Y-103600000D02*
X72160000Y-104770000D01*
%TO.N,/Vin*%
X102600000Y-141740000D02*
X102760000Y-141900000D01*
X88950000Y-141740000D02*
X102600000Y-141740000D01*
X99380000Y-111280000D02*
X99380000Y-138520000D01*
X99380000Y-138520000D02*
X102760000Y-141900000D01*
X109500000Y-101160000D02*
X99380000Y-111280000D01*
%TO.N,/V2*%
X124210000Y-125810000D02*
X125130000Y-126730000D01*
X124210000Y-116500000D02*
X124210000Y-125810000D01*
%TO.N,/Vout*%
X133010000Y-124790000D02*
X133010000Y-114570000D01*
X122430000Y-112480000D02*
X118720000Y-108770000D01*
X133010000Y-114570000D02*
X130920000Y-112480000D01*
X108140000Y-105350000D02*
X118720000Y-105350000D01*
X102870000Y-110620000D02*
X108140000Y-105350000D01*
X130920000Y-112480000D02*
X122430000Y-112480000D01*
X118720000Y-105350000D02*
X122860000Y-101210000D01*
X118720000Y-108770000D02*
X118720000Y-105350000D01*
X131020000Y-126780000D02*
X133010000Y-124790000D01*
%TO.N,Net-(Q1-B)*%
X134620000Y-134400000D02*
X137630000Y-131390000D01*
X131020000Y-134400000D02*
X134620000Y-134400000D01*
%TO.N,Net-(Q2-B)*%
X95250000Y-109010000D02*
X95250000Y-110620000D01*
X85820000Y-99580000D02*
X95250000Y-109010000D01*
X85820000Y-98470000D02*
X85820000Y-99580000D01*
%TO.N,/TRIG*%
X95220000Y-101060000D02*
X95260000Y-101020000D01*
X107810000Y-93500000D02*
X100290000Y-101020000D01*
X117690000Y-93500000D02*
X107810000Y-93500000D01*
X122860000Y-98670000D02*
X117690000Y-93500000D01*
X100290000Y-101020000D02*
X95260000Y-101020000D01*
X58800000Y-141430000D02*
X71300000Y-141430000D01*
X95220000Y-105820000D02*
X95220000Y-101060000D01*
%TO.N,Net-(R1-Pad1)*%
X82020000Y-129880000D02*
X77850000Y-129880000D01*
X77850000Y-129880000D02*
X71300000Y-136430000D01*
X58800000Y-136430000D02*
X71300000Y-136430000D01*
%TD*%
%TA.AperFunction,Conductor*%
%TO.N,/VCC*%
G36*
X87986256Y-78830431D02*
G01*
X88053279Y-78850170D01*
X88098991Y-78903011D01*
X88101043Y-78907775D01*
X93125002Y-91279023D01*
X93125170Y-91279585D01*
X93129537Y-91290190D01*
X93129616Y-91290381D01*
X93129617Y-91290382D01*
X93129618Y-91290384D01*
X93129619Y-91290384D01*
X93129696Y-91290460D01*
X93129912Y-91290551D01*
X93131735Y-91290518D01*
X93159433Y-91290814D01*
X93160864Y-91290458D01*
X145655399Y-91220664D01*
X145722462Y-91240260D01*
X145768287Y-91293003D01*
X145779561Y-91344603D01*
X145809437Y-151805452D01*
X145789786Y-151872501D01*
X145737004Y-151918282D01*
X145685450Y-151929513D01*
X51124478Y-151939485D01*
X51057437Y-151919808D01*
X51011676Y-151867008D01*
X51000465Y-151815519D01*
X51000462Y-151805452D01*
X50997625Y-141430005D01*
X57294357Y-141430005D01*
X57314890Y-141677812D01*
X57314892Y-141677824D01*
X57375936Y-141918881D01*
X57475826Y-142146606D01*
X57611833Y-142354782D01*
X57611836Y-142354785D01*
X57780256Y-142537738D01*
X57976491Y-142690474D01*
X58195190Y-142808828D01*
X58430386Y-142889571D01*
X58675665Y-142930500D01*
X58924335Y-142930500D01*
X59169614Y-142889571D01*
X59404810Y-142808828D01*
X59623509Y-142690474D01*
X59819744Y-142537738D01*
X59988164Y-142354785D01*
X60062712Y-142240679D01*
X60115859Y-142195322D01*
X60166522Y-142184500D01*
X64386888Y-142184500D01*
X64453927Y-142204185D01*
X64499682Y-142256989D01*
X64509626Y-142326147D01*
X64480601Y-142389703D01*
X64442160Y-142419500D01*
X64428527Y-142426288D01*
X64254676Y-142557574D01*
X64107913Y-142718566D01*
X64107906Y-142718576D01*
X63993229Y-142903786D01*
X63993226Y-142903792D01*
X63962034Y-142984309D01*
X63914530Y-143106931D01*
X63874500Y-143321074D01*
X63874500Y-143538926D01*
X63914530Y-143753069D01*
X63942152Y-143824369D01*
X63993226Y-143956207D01*
X63993229Y-143956213D01*
X64107906Y-144141423D01*
X64107912Y-144141432D01*
X64254678Y-144302427D01*
X64428528Y-144433712D01*
X64623541Y-144530817D01*
X64833077Y-144590435D01*
X64995653Y-144605500D01*
X64995656Y-144605500D01*
X65104344Y-144605500D01*
X65104347Y-144605500D01*
X65266923Y-144590435D01*
X65476459Y-144530817D01*
X65671472Y-144433712D01*
X65845322Y-144302427D01*
X65992088Y-144141432D01*
X66106772Y-143956210D01*
X66185470Y-143753069D01*
X66225500Y-143538926D01*
X66225500Y-143321074D01*
X66185470Y-143106931D01*
X66106772Y-142903790D01*
X66097967Y-142889570D01*
X65992093Y-142718576D01*
X65992092Y-142718575D01*
X65992088Y-142718568D01*
X65845322Y-142557573D01*
X65671472Y-142426288D01*
X65657840Y-142419500D01*
X65606603Y-142371997D01*
X65589182Y-142304334D01*
X65611108Y-142237993D01*
X65665419Y-142194039D01*
X65713112Y-142184500D01*
X69933478Y-142184500D01*
X70000517Y-142204185D01*
X70037287Y-142240679D01*
X70111833Y-142354782D01*
X70111836Y-142354785D01*
X70280256Y-142537738D01*
X70476491Y-142690474D01*
X70695190Y-142808828D01*
X70930386Y-142889571D01*
X71175665Y-142930500D01*
X71424335Y-142930500D01*
X71669614Y-142889571D01*
X71904810Y-142808828D01*
X72123509Y-142690474D01*
X72319744Y-142537738D01*
X72488164Y-142354785D01*
X72624173Y-142146607D01*
X72724063Y-141918881D01*
X72785108Y-141677821D01*
X72790349Y-141614572D01*
X72805643Y-141430005D01*
X72805643Y-141429994D01*
X72785109Y-141182187D01*
X72785107Y-141182175D01*
X72724063Y-140941118D01*
X72624173Y-140713393D01*
X72488166Y-140505217D01*
X72376826Y-140384270D01*
X72319744Y-140322262D01*
X72123509Y-140169526D01*
X72123507Y-140169525D01*
X72123506Y-140169524D01*
X71904811Y-140051172D01*
X71904802Y-140051169D01*
X71669616Y-139970429D01*
X71424335Y-139929500D01*
X71175665Y-139929500D01*
X70930383Y-139970429D01*
X70695197Y-140051169D01*
X70695188Y-140051172D01*
X70476493Y-140169524D01*
X70280257Y-140322261D01*
X70111833Y-140505217D01*
X70037287Y-140619321D01*
X69984141Y-140664678D01*
X69933478Y-140675500D01*
X60166522Y-140675500D01*
X60099483Y-140655815D01*
X60062713Y-140619321D01*
X59988166Y-140505217D01*
X59876826Y-140384270D01*
X59819744Y-140322262D01*
X59623509Y-140169526D01*
X59623507Y-140169525D01*
X59623506Y-140169524D01*
X59404811Y-140051172D01*
X59404802Y-140051169D01*
X59169616Y-139970429D01*
X58924335Y-139929500D01*
X58675665Y-139929500D01*
X58430383Y-139970429D01*
X58195197Y-140051169D01*
X58195188Y-140051172D01*
X57976493Y-140169524D01*
X57780257Y-140322261D01*
X57611833Y-140505217D01*
X57475826Y-140713393D01*
X57375936Y-140941118D01*
X57314892Y-141182175D01*
X57314890Y-141182187D01*
X57294357Y-141429994D01*
X57294357Y-141430005D01*
X50997625Y-141430005D01*
X50996258Y-136430005D01*
X57294357Y-136430005D01*
X57314890Y-136677812D01*
X57314892Y-136677824D01*
X57375936Y-136918881D01*
X57475826Y-137146606D01*
X57611833Y-137354782D01*
X57611836Y-137354785D01*
X57780256Y-137537738D01*
X57976491Y-137690474D01*
X58195190Y-137808828D01*
X58430386Y-137889571D01*
X58675665Y-137930500D01*
X58924335Y-137930500D01*
X59169614Y-137889571D01*
X59404810Y-137808828D01*
X59623509Y-137690474D01*
X59819744Y-137537738D01*
X59988164Y-137354785D01*
X60062712Y-137240679D01*
X60115859Y-137195322D01*
X60166522Y-137184500D01*
X69933478Y-137184500D01*
X70000517Y-137204185D01*
X70037287Y-137240679D01*
X70111833Y-137354782D01*
X70111836Y-137354785D01*
X70280256Y-137537738D01*
X70476491Y-137690474D01*
X70695190Y-137808828D01*
X70930386Y-137889571D01*
X71175665Y-137930500D01*
X71424335Y-137930500D01*
X71669614Y-137889571D01*
X71904810Y-137808828D01*
X72123509Y-137690474D01*
X72319744Y-137537738D01*
X72488164Y-137354785D01*
X72624173Y-137146607D01*
X72724063Y-136918881D01*
X72785108Y-136677821D01*
X72805643Y-136430000D01*
X72785108Y-136182179D01*
X72785105Y-136182166D01*
X72768000Y-136114620D01*
X72770624Y-136044800D01*
X72800522Y-135996500D01*
X78126204Y-130670819D01*
X78187528Y-130637334D01*
X78213886Y-130634500D01*
X80896138Y-130634500D01*
X80963177Y-130654185D01*
X80997713Y-130687377D01*
X81019954Y-130719141D01*
X81180858Y-130880045D01*
X81180861Y-130880047D01*
X81367266Y-131010568D01*
X81573504Y-131106739D01*
X81793308Y-131165635D01*
X81948402Y-131179204D01*
X82019998Y-131185468D01*
X82020000Y-131185468D01*
X82020002Y-131185468D01*
X82076673Y-131180509D01*
X82246692Y-131165635D01*
X82466496Y-131106739D01*
X82672734Y-131010568D01*
X82859139Y-130880047D01*
X83020047Y-130719139D01*
X83150568Y-130532734D01*
X83246739Y-130326496D01*
X83305635Y-130106692D01*
X83324304Y-129893302D01*
X83325468Y-129880001D01*
X88334532Y-129880001D01*
X88354364Y-130106686D01*
X88354366Y-130106697D01*
X88413258Y-130326488D01*
X88413261Y-130326497D01*
X88509431Y-130532732D01*
X88509432Y-130532734D01*
X88639954Y-130719141D01*
X88800858Y-130880045D01*
X88800861Y-130880047D01*
X88987266Y-131010568D01*
X89193504Y-131106739D01*
X89413308Y-131165635D01*
X89568402Y-131179204D01*
X89639998Y-131185468D01*
X89640000Y-131185468D01*
X89640002Y-131185468D01*
X89696672Y-131180509D01*
X89866692Y-131165635D01*
X90086496Y-131106739D01*
X90292734Y-131010568D01*
X90479139Y-130880047D01*
X90640047Y-130719139D01*
X90770568Y-130532734D01*
X90866739Y-130326496D01*
X90925635Y-130106692D01*
X90933219Y-130020005D01*
X94944357Y-130020005D01*
X94964890Y-130267812D01*
X94964892Y-130267824D01*
X95025936Y-130508881D01*
X95125826Y-130736606D01*
X95261833Y-130944782D01*
X95291993Y-130977544D01*
X95430256Y-131127738D01*
X95626491Y-131280474D01*
X95626493Y-131280475D01*
X95802024Y-131375468D01*
X95845190Y-131398828D01*
X96080386Y-131479571D01*
X96325665Y-131520500D01*
X96574335Y-131520500D01*
X96819614Y-131479571D01*
X97054810Y-131398828D01*
X97273509Y-131280474D01*
X97469744Y-131127738D01*
X97638164Y-130944785D01*
X97774173Y-130736607D01*
X97874063Y-130508881D01*
X97935108Y-130267821D01*
X97935109Y-130267812D01*
X97955643Y-130020005D01*
X97955643Y-130019994D01*
X97935109Y-129772187D01*
X97935107Y-129772175D01*
X97874063Y-129531118D01*
X97774173Y-129303393D01*
X97638166Y-129095217D01*
X97594434Y-129047712D01*
X97469744Y-128912262D01*
X97273509Y-128759526D01*
X97273507Y-128759525D01*
X97273506Y-128759524D01*
X97054811Y-128641172D01*
X97054802Y-128641169D01*
X96819616Y-128560429D01*
X96574335Y-128519500D01*
X96325665Y-128519500D01*
X96080383Y-128560429D01*
X95845197Y-128641169D01*
X95845188Y-128641172D01*
X95626493Y-128759524D01*
X95430257Y-128912261D01*
X95261833Y-129095217D01*
X95125826Y-129303393D01*
X95025936Y-129531118D01*
X94964892Y-129772175D01*
X94964890Y-129772187D01*
X94944357Y-130019994D01*
X94944357Y-130020005D01*
X90933219Y-130020005D01*
X90944304Y-129893302D01*
X90945468Y-129880001D01*
X90945468Y-129879998D01*
X90939801Y-129815230D01*
X90925635Y-129653308D01*
X90866739Y-129433504D01*
X90770568Y-129227266D01*
X90640047Y-129040861D01*
X90640045Y-129040858D01*
X90479141Y-128879954D01*
X90292734Y-128749432D01*
X90292732Y-128749431D01*
X90086497Y-128653261D01*
X90086488Y-128653258D01*
X89866697Y-128594366D01*
X89866693Y-128594365D01*
X89866692Y-128594365D01*
X89866691Y-128594364D01*
X89866686Y-128594364D01*
X89640002Y-128574532D01*
X89639998Y-128574532D01*
X89413313Y-128594364D01*
X89413302Y-128594366D01*
X89193511Y-128653258D01*
X89193502Y-128653261D01*
X88987267Y-128749431D01*
X88987265Y-128749432D01*
X88800858Y-128879954D01*
X88639954Y-129040858D01*
X88509432Y-129227265D01*
X88509431Y-129227267D01*
X88413261Y-129433502D01*
X88413258Y-129433511D01*
X88354366Y-129653302D01*
X88354364Y-129653313D01*
X88334532Y-129879998D01*
X88334532Y-129880001D01*
X83325468Y-129880001D01*
X83325468Y-129879998D01*
X83319801Y-129815230D01*
X83305635Y-129653308D01*
X83246739Y-129433504D01*
X83150568Y-129227266D01*
X83020047Y-129040861D01*
X83020045Y-129040858D01*
X82859141Y-128879954D01*
X82672734Y-128749432D01*
X82672732Y-128749431D01*
X82466497Y-128653261D01*
X82466488Y-128653258D01*
X82246697Y-128594366D01*
X82246693Y-128594365D01*
X82246692Y-128594365D01*
X82246691Y-128594364D01*
X82246686Y-128594364D01*
X82020002Y-128574532D01*
X82019998Y-128574532D01*
X81793313Y-128594364D01*
X81793302Y-128594366D01*
X81573511Y-128653258D01*
X81573502Y-128653261D01*
X81367267Y-128749431D01*
X81367265Y-128749432D01*
X81180858Y-128879954D01*
X81019954Y-129040858D01*
X80997713Y-129072623D01*
X80943137Y-129116248D01*
X80896138Y-129125500D01*
X77914000Y-129125500D01*
X77896031Y-129124191D01*
X77872091Y-129120684D01*
X77832019Y-129124191D01*
X77819751Y-129125264D01*
X77814351Y-129125500D01*
X77806053Y-129125500D01*
X77773325Y-129129325D01*
X77696387Y-129136056D01*
X77689321Y-129137516D01*
X77689310Y-129137464D01*
X77681832Y-129139122D01*
X77681845Y-129139174D01*
X77674819Y-129140839D01*
X77602260Y-129167247D01*
X77528962Y-129191536D01*
X77522420Y-129194587D01*
X77522397Y-129194539D01*
X77515507Y-129197875D01*
X77515531Y-129197922D01*
X77509075Y-129201164D01*
X77444569Y-129243590D01*
X77378852Y-129284124D01*
X77373184Y-129288606D01*
X77373151Y-129288565D01*
X77367214Y-129293402D01*
X77367248Y-129293442D01*
X77361713Y-129298086D01*
X77308745Y-129354229D01*
X71734400Y-134928574D01*
X71673077Y-134962059D01*
X71626310Y-134963202D01*
X71424335Y-134929500D01*
X71175665Y-134929500D01*
X70930383Y-134970429D01*
X70695197Y-135051169D01*
X70695188Y-135051172D01*
X70476493Y-135169524D01*
X70280257Y-135322261D01*
X70111833Y-135505217D01*
X70037287Y-135619321D01*
X69984141Y-135664678D01*
X69933478Y-135675500D01*
X65713112Y-135675500D01*
X65646073Y-135655815D01*
X65600318Y-135603011D01*
X65590374Y-135533853D01*
X65619399Y-135470297D01*
X65657840Y-135440500D01*
X65658684Y-135440079D01*
X65671472Y-135433712D01*
X65845322Y-135302427D01*
X65992088Y-135141432D01*
X66106772Y-134956210D01*
X66185470Y-134753069D01*
X66225500Y-134538926D01*
X66225500Y-134321074D01*
X66185470Y-134106931D01*
X66106772Y-133903790D01*
X66106599Y-133903511D01*
X65992093Y-133718576D01*
X65992092Y-133718575D01*
X65992088Y-133718568D01*
X65845322Y-133557573D01*
X65671472Y-133426288D01*
X65671471Y-133426287D01*
X65476462Y-133329184D01*
X65476459Y-133329183D01*
X65266923Y-133269565D01*
X65266920Y-133269564D01*
X65266918Y-133269564D01*
X65159819Y-133259640D01*
X65104347Y-133254500D01*
X64995653Y-133254500D01*
X64945845Y-133259115D01*
X64833081Y-133269564D01*
X64833077Y-133269564D01*
X64833077Y-133269565D01*
X64728309Y-133299374D01*
X64623537Y-133329184D01*
X64428527Y-133426288D01*
X64254676Y-133557574D01*
X64107913Y-133718566D01*
X64107906Y-133718576D01*
X63993229Y-133903786D01*
X63993226Y-133903792D01*
X63935306Y-134053302D01*
X63914530Y-134106931D01*
X63874500Y-134321074D01*
X63874500Y-134538926D01*
X63914530Y-134753069D01*
X63950721Y-134846488D01*
X63993226Y-134956207D01*
X63993229Y-134956213D01*
X64107906Y-135141423D01*
X64107912Y-135141432D01*
X64254678Y-135302427D01*
X64428528Y-135433712D01*
X64440574Y-135439710D01*
X64442160Y-135440500D01*
X64493397Y-135488003D01*
X64510818Y-135555666D01*
X64488892Y-135622007D01*
X64434581Y-135665961D01*
X64386888Y-135675500D01*
X60166522Y-135675500D01*
X60099483Y-135655815D01*
X60062713Y-135619321D01*
X59988166Y-135505217D01*
X59956020Y-135470297D01*
X59819744Y-135322262D01*
X59623509Y-135169526D01*
X59623507Y-135169525D01*
X59623506Y-135169524D01*
X59404811Y-135051172D01*
X59404802Y-135051169D01*
X59169616Y-134970429D01*
X58924335Y-134929500D01*
X58675665Y-134929500D01*
X58430383Y-134970429D01*
X58195197Y-135051169D01*
X58195188Y-135051172D01*
X57976493Y-135169524D01*
X57780257Y-135322261D01*
X57611833Y-135505217D01*
X57475826Y-135713393D01*
X57375936Y-135941118D01*
X57314892Y-136182175D01*
X57314890Y-136182187D01*
X57294357Y-136429994D01*
X57294357Y-136430005D01*
X50996258Y-136430005D01*
X50993056Y-124720005D01*
X61794357Y-124720005D01*
X61814890Y-124967812D01*
X61814892Y-124967824D01*
X61875936Y-125208881D01*
X61975826Y-125436606D01*
X62111833Y-125644782D01*
X62111836Y-125644785D01*
X62280256Y-125827738D01*
X62476491Y-125980474D01*
X62476493Y-125980475D01*
X62683123Y-126092298D01*
X62695190Y-126098828D01*
X62930386Y-126179571D01*
X63175665Y-126220500D01*
X63424335Y-126220500D01*
X63669614Y-126179571D01*
X63904810Y-126098828D01*
X64123509Y-125980474D01*
X64319744Y-125827738D01*
X64488164Y-125644785D01*
X64488166Y-125644782D01*
X64562713Y-125530679D01*
X64615859Y-125485322D01*
X64666522Y-125474500D01*
X71080501Y-125474500D01*
X71147540Y-125494185D01*
X71193295Y-125546989D01*
X71204501Y-125598500D01*
X71204501Y-125677876D01*
X71210908Y-125737483D01*
X71261202Y-125872328D01*
X71261206Y-125872335D01*
X71347452Y-125987544D01*
X71347455Y-125987547D01*
X71462664Y-126073793D01*
X71462671Y-126073797D01*
X71597517Y-126124091D01*
X71597516Y-126124091D01*
X71604444Y-126124835D01*
X71657127Y-126130500D01*
X73552872Y-126130499D01*
X73612483Y-126124091D01*
X73747331Y-126073796D01*
X73862546Y-125987546D01*
X73948796Y-125872331D01*
X73958748Y-125845648D01*
X73977455Y-125795493D01*
X74019326Y-125739559D01*
X74084790Y-125715141D01*
X74153063Y-125729992D01*
X74184866Y-125754843D01*
X74192302Y-125762920D01*
X74193215Y-125763912D01*
X74193222Y-125763918D01*
X74376365Y-125906464D01*
X74376371Y-125906468D01*
X74376374Y-125906470D01*
X74580497Y-126016936D01*
X74694487Y-126056068D01*
X74800015Y-126092297D01*
X74800017Y-126092297D01*
X74800019Y-126092298D01*
X75028951Y-126130500D01*
X75028952Y-126130500D01*
X75261048Y-126130500D01*
X75261049Y-126130500D01*
X75489981Y-126092298D01*
X75709503Y-126016936D01*
X75913626Y-125906470D01*
X75933685Y-125890858D01*
X76054610Y-125796738D01*
X76096784Y-125763913D01*
X76253979Y-125593153D01*
X76288261Y-125540679D01*
X76341408Y-125495322D01*
X76392071Y-125484500D01*
X80983952Y-125484500D01*
X81050991Y-125504185D01*
X81071634Y-125520820D01*
X81120859Y-125570046D01*
X81227453Y-125644683D01*
X81307266Y-125700568D01*
X81513504Y-125796739D01*
X81733308Y-125855635D01*
X81895230Y-125869801D01*
X81959998Y-125875468D01*
X81960000Y-125875468D01*
X81960002Y-125875468D01*
X82016672Y-125870509D01*
X82186692Y-125855635D01*
X82406496Y-125796739D01*
X82612734Y-125700568D01*
X82799139Y-125570047D01*
X82960047Y-125409139D01*
X83090568Y-125222734D01*
X83186739Y-125016496D01*
X83245635Y-124796692D01*
X83265468Y-124570000D01*
X83245635Y-124343308D01*
X83186739Y-124123504D01*
X83090568Y-123917266D01*
X82960047Y-123730861D01*
X82960045Y-123730858D01*
X82799141Y-123569954D01*
X82612734Y-123439432D01*
X82612732Y-123439431D01*
X82406497Y-123343261D01*
X82406488Y-123343258D01*
X82186697Y-123284366D01*
X82186693Y-123284365D01*
X82186692Y-123284365D01*
X82186691Y-123284364D01*
X82186686Y-123284364D01*
X81960002Y-123264532D01*
X81959998Y-123264532D01*
X81733313Y-123284364D01*
X81733302Y-123284366D01*
X81513511Y-123343258D01*
X81513502Y-123343261D01*
X81307267Y-123439431D01*
X81307265Y-123439432D01*
X81120858Y-123569954D01*
X80959954Y-123730858D01*
X80826327Y-123921701D01*
X80824406Y-123920356D01*
X80781069Y-123961701D01*
X80724220Y-123975500D01*
X76392071Y-123975500D01*
X76325032Y-123955815D01*
X76288262Y-123919321D01*
X76253980Y-123866849D01*
X76253979Y-123866847D01*
X76096784Y-123696087D01*
X76096779Y-123696083D01*
X76096777Y-123696081D01*
X75913634Y-123553535D01*
X75913628Y-123553531D01*
X75709504Y-123443064D01*
X75709495Y-123443061D01*
X75489984Y-123367702D01*
X75299450Y-123335908D01*
X75261049Y-123329500D01*
X75028951Y-123329500D01*
X74990550Y-123335908D01*
X74800015Y-123367702D01*
X74580504Y-123443061D01*
X74580495Y-123443064D01*
X74376371Y-123553531D01*
X74376365Y-123553535D01*
X74193222Y-123696081D01*
X74193218Y-123696085D01*
X74184866Y-123705158D01*
X74124979Y-123741148D01*
X74055141Y-123739047D01*
X73997525Y-123699522D01*
X73977455Y-123664507D01*
X73948797Y-123587671D01*
X73948793Y-123587664D01*
X73862547Y-123472455D01*
X73862544Y-123472452D01*
X73747335Y-123386206D01*
X73747328Y-123386202D01*
X73612482Y-123335908D01*
X73612483Y-123335908D01*
X73552883Y-123329501D01*
X73552881Y-123329500D01*
X73552873Y-123329500D01*
X73552864Y-123329500D01*
X71657129Y-123329500D01*
X71657123Y-123329501D01*
X71597516Y-123335908D01*
X71462671Y-123386202D01*
X71462664Y-123386206D01*
X71347455Y-123472452D01*
X71347452Y-123472455D01*
X71261206Y-123587664D01*
X71261202Y-123587671D01*
X71210908Y-123722517D01*
X71204501Y-123782116D01*
X71204500Y-123782135D01*
X71204500Y-123841500D01*
X71184815Y-123908539D01*
X71132011Y-123954294D01*
X71080500Y-123965500D01*
X64666522Y-123965500D01*
X64599483Y-123945815D01*
X64562713Y-123909321D01*
X64488166Y-123795217D01*
X64428919Y-123730858D01*
X64319744Y-123612262D01*
X64123509Y-123459526D01*
X64123507Y-123459525D01*
X64123506Y-123459524D01*
X63904811Y-123341172D01*
X63904802Y-123341169D01*
X63669616Y-123260429D01*
X63424335Y-123219500D01*
X63175665Y-123219500D01*
X62930383Y-123260429D01*
X62695197Y-123341169D01*
X62695188Y-123341172D01*
X62476493Y-123459524D01*
X62280257Y-123612261D01*
X62111833Y-123795217D01*
X61975826Y-124003393D01*
X61875936Y-124231118D01*
X61814892Y-124472175D01*
X61814890Y-124472187D01*
X61794357Y-124719994D01*
X61794357Y-124720005D01*
X50993056Y-124720005D01*
X50991264Y-118167870D01*
X61799500Y-118167870D01*
X61799501Y-118167876D01*
X61805908Y-118227483D01*
X61856202Y-118362328D01*
X61856206Y-118362335D01*
X61942452Y-118477544D01*
X61942455Y-118477547D01*
X62057664Y-118563793D01*
X62057671Y-118563797D01*
X62192517Y-118614091D01*
X62192516Y-118614091D01*
X62199444Y-118614835D01*
X62252127Y-118620500D01*
X64347872Y-118620499D01*
X64407483Y-118614091D01*
X64542331Y-118563796D01*
X64657546Y-118477546D01*
X64743796Y-118362331D01*
X64794091Y-118227483D01*
X64800500Y-118167873D01*
X64800500Y-117998500D01*
X64820185Y-117931461D01*
X64872989Y-117885706D01*
X64924500Y-117874500D01*
X78736114Y-117874500D01*
X78803153Y-117894185D01*
X78823795Y-117910819D01*
X80732827Y-119819851D01*
X80766312Y-119881174D01*
X80768674Y-119918338D01*
X80754532Y-120079996D01*
X80754532Y-120080001D01*
X80774364Y-120306686D01*
X80774366Y-120306697D01*
X80833258Y-120526488D01*
X80833261Y-120526497D01*
X80929431Y-120732732D01*
X80929432Y-120732734D01*
X81059954Y-120919141D01*
X81220858Y-121080045D01*
X81249421Y-121100045D01*
X81407266Y-121210568D01*
X81613504Y-121306739D01*
X81833308Y-121365635D01*
X81995230Y-121379801D01*
X82059998Y-121385468D01*
X82060000Y-121385468D01*
X82060002Y-121385468D01*
X82116673Y-121380509D01*
X82286692Y-121365635D01*
X82506496Y-121306739D01*
X82712734Y-121210568D01*
X82899139Y-121080047D01*
X83060047Y-120919139D01*
X83190568Y-120732734D01*
X83286739Y-120526496D01*
X83345635Y-120306692D01*
X83365468Y-120080000D01*
X83365254Y-120077559D01*
X83353805Y-119946692D01*
X83345635Y-119853308D01*
X83309916Y-119720001D01*
X93864532Y-119720001D01*
X93884364Y-119946686D01*
X93884366Y-119946697D01*
X93943258Y-120166488D01*
X93943261Y-120166497D01*
X94039431Y-120372732D01*
X94039432Y-120372734D01*
X94169954Y-120559141D01*
X94330858Y-120720045D01*
X94330861Y-120720047D01*
X94517266Y-120850568D01*
X94723504Y-120946739D01*
X94723509Y-120946740D01*
X94723511Y-120946741D01*
X94776415Y-120960916D01*
X94943308Y-121005635D01*
X95105230Y-121019801D01*
X95169998Y-121025468D01*
X95170000Y-121025468D01*
X95170002Y-121025468D01*
X95226672Y-121020509D01*
X95396692Y-121005635D01*
X95616496Y-120946739D01*
X95822734Y-120850568D01*
X96009139Y-120720047D01*
X96170047Y-120559139D01*
X96300568Y-120372734D01*
X96396739Y-120166496D01*
X96455635Y-119946692D01*
X96475468Y-119720000D01*
X96455635Y-119493308D01*
X96396739Y-119273504D01*
X96300568Y-119067266D01*
X96170047Y-118880861D01*
X96170045Y-118880858D01*
X96009141Y-118719954D01*
X95822734Y-118589432D01*
X95822732Y-118589431D01*
X95616497Y-118493261D01*
X95616488Y-118493258D01*
X95396697Y-118434366D01*
X95396693Y-118434365D01*
X95396692Y-118434365D01*
X95396691Y-118434364D01*
X95396686Y-118434364D01*
X95170002Y-118414532D01*
X95169998Y-118414532D01*
X94943313Y-118434364D01*
X94943302Y-118434366D01*
X94723511Y-118493258D01*
X94723502Y-118493261D01*
X94517267Y-118589431D01*
X94517265Y-118589432D01*
X94330858Y-118719954D01*
X94169954Y-118880858D01*
X94039432Y-119067265D01*
X94039431Y-119067267D01*
X93943261Y-119273502D01*
X93943258Y-119273511D01*
X93884366Y-119493302D01*
X93884364Y-119493313D01*
X93864532Y-119719998D01*
X93864532Y-119720001D01*
X83309916Y-119720001D01*
X83286739Y-119633504D01*
X83190568Y-119427266D01*
X83060047Y-119240861D01*
X83060045Y-119240858D01*
X82899141Y-119079954D01*
X82712734Y-118949432D01*
X82712732Y-118949431D01*
X82506497Y-118853261D01*
X82506488Y-118853258D01*
X82286697Y-118794366D01*
X82286693Y-118794365D01*
X82286692Y-118794365D01*
X82286691Y-118794364D01*
X82286686Y-118794364D01*
X82060002Y-118774532D01*
X82059997Y-118774532D01*
X81898338Y-118788674D01*
X81829838Y-118774907D01*
X81799851Y-118752827D01*
X79678766Y-116631742D01*
X79666984Y-116618109D01*
X79661833Y-116611190D01*
X79652539Y-116598706D01*
X79652537Y-116598704D01*
X79652538Y-116598704D01*
X79624932Y-116575541D01*
X79612285Y-116564928D01*
X79608310Y-116561286D01*
X79602441Y-116555417D01*
X79602440Y-116555416D01*
X79602438Y-116555414D01*
X79576584Y-116534972D01*
X79517427Y-116485333D01*
X79511394Y-116481365D01*
X79511422Y-116481321D01*
X79504961Y-116477204D01*
X79504934Y-116477250D01*
X79498790Y-116473460D01*
X79428808Y-116440827D01*
X79359815Y-116406177D01*
X79353031Y-116403708D01*
X79353049Y-116403658D01*
X79345807Y-116401141D01*
X79345791Y-116401191D01*
X79338938Y-116398920D01*
X79263311Y-116383304D01*
X79188181Y-116365498D01*
X79181014Y-116364661D01*
X79181020Y-116364607D01*
X79173405Y-116363829D01*
X79173401Y-116363883D01*
X79166210Y-116363253D01*
X79089018Y-116365500D01*
X64924499Y-116365500D01*
X64857460Y-116345815D01*
X64811705Y-116293011D01*
X64800499Y-116241500D01*
X64800499Y-116072129D01*
X64800498Y-116072123D01*
X64800497Y-116072116D01*
X64794091Y-116012517D01*
X64781980Y-115980047D01*
X64743797Y-115877671D01*
X64743793Y-115877664D01*
X64657547Y-115762455D01*
X64657544Y-115762452D01*
X64542335Y-115676206D01*
X64542328Y-115676202D01*
X64407482Y-115625908D01*
X64407483Y-115625908D01*
X64347883Y-115619501D01*
X64347881Y-115619500D01*
X64347873Y-115619500D01*
X64347864Y-115619500D01*
X62252129Y-115619500D01*
X62252123Y-115619501D01*
X62192516Y-115625908D01*
X62057671Y-115676202D01*
X62057664Y-115676206D01*
X61942455Y-115762452D01*
X61942452Y-115762455D01*
X61856206Y-115877664D01*
X61856202Y-115877671D01*
X61805908Y-116012517D01*
X61799501Y-116072116D01*
X61799501Y-116072123D01*
X61799500Y-116072135D01*
X61799500Y-118167870D01*
X50991264Y-118167870D01*
X50990463Y-115240001D01*
X80864532Y-115240001D01*
X80884364Y-115466686D01*
X80884366Y-115466697D01*
X80943258Y-115686488D01*
X80943261Y-115686497D01*
X81039431Y-115892732D01*
X81039432Y-115892734D01*
X81169954Y-116079141D01*
X81330858Y-116240045D01*
X81345075Y-116250000D01*
X81517266Y-116370568D01*
X81723504Y-116466739D01*
X81943308Y-116525635D01*
X82105230Y-116539801D01*
X82169998Y-116545468D01*
X82170000Y-116545468D01*
X82170002Y-116545468D01*
X82226673Y-116540509D01*
X82396692Y-116525635D01*
X82616496Y-116466739D01*
X82822734Y-116370568D01*
X83009139Y-116240047D01*
X83170047Y-116079139D01*
X83300568Y-115892734D01*
X83396739Y-115686496D01*
X83455635Y-115466692D01*
X83475468Y-115240000D01*
X83455635Y-115013308D01*
X83396739Y-114793504D01*
X83300568Y-114587266D01*
X83234781Y-114493312D01*
X83170048Y-114400862D01*
X83091446Y-114322260D01*
X83009139Y-114239953D01*
X82977374Y-114217710D01*
X82933751Y-114163135D01*
X82924500Y-114116138D01*
X82924500Y-108778885D01*
X82944185Y-108711846D01*
X82960814Y-108691209D01*
X84177485Y-107474537D01*
X84238806Y-107441054D01*
X84285569Y-107439911D01*
X84408951Y-107460500D01*
X84408952Y-107460500D01*
X84641048Y-107460500D01*
X84641049Y-107460500D01*
X84869981Y-107422298D01*
X85089503Y-107346936D01*
X85293626Y-107236470D01*
X85476784Y-107093913D01*
X85485130Y-107084846D01*
X85545010Y-107048854D01*
X85614849Y-107050949D01*
X85672468Y-107090469D01*
X85692544Y-107125491D01*
X85721203Y-107202330D01*
X85721206Y-107202335D01*
X85807452Y-107317544D01*
X85807455Y-107317547D01*
X85922664Y-107403793D01*
X85922671Y-107403797D01*
X86057517Y-107454091D01*
X86057516Y-107454091D01*
X86064444Y-107454835D01*
X86117127Y-107460500D01*
X88012872Y-107460499D01*
X88072483Y-107454091D01*
X88207331Y-107403796D01*
X88322546Y-107317546D01*
X88408796Y-107202331D01*
X88459091Y-107067483D01*
X88465500Y-107007873D01*
X88465499Y-105112128D01*
X88459091Y-105052517D01*
X88452794Y-105035635D01*
X88408797Y-104917671D01*
X88408793Y-104917664D01*
X88322547Y-104802455D01*
X88322544Y-104802452D01*
X88207335Y-104716206D01*
X88207328Y-104716202D01*
X88072482Y-104665908D01*
X88072483Y-104665908D01*
X88012883Y-104659501D01*
X88012881Y-104659500D01*
X88012873Y-104659500D01*
X88012864Y-104659500D01*
X86117129Y-104659500D01*
X86117123Y-104659501D01*
X86057516Y-104665908D01*
X85922671Y-104716202D01*
X85922664Y-104716206D01*
X85807455Y-104802452D01*
X85807452Y-104802455D01*
X85721206Y-104917664D01*
X85721203Y-104917670D01*
X85692544Y-104994508D01*
X85650672Y-105050441D01*
X85585208Y-105074858D01*
X85516935Y-105060006D01*
X85485135Y-105035158D01*
X85476784Y-105026087D01*
X85476778Y-105026082D01*
X85476777Y-105026081D01*
X85293634Y-104883535D01*
X85293628Y-104883531D01*
X85089504Y-104773064D01*
X85089495Y-104773061D01*
X84869984Y-104697702D01*
X84691519Y-104667922D01*
X84641049Y-104659500D01*
X84408951Y-104659500D01*
X84370550Y-104665908D01*
X84180015Y-104697702D01*
X83960504Y-104773061D01*
X83960495Y-104773064D01*
X83756371Y-104883531D01*
X83756365Y-104883535D01*
X83573222Y-105026081D01*
X83573219Y-105026084D01*
X83573216Y-105026086D01*
X83573216Y-105026087D01*
X83528319Y-105074858D01*
X83416016Y-105196852D01*
X83289075Y-105391151D01*
X83195842Y-105603699D01*
X83138866Y-105828691D01*
X83138864Y-105828702D01*
X83119700Y-106059993D01*
X83119700Y-106060006D01*
X83138865Y-106291301D01*
X83139312Y-106293066D01*
X83139283Y-106293812D01*
X83139710Y-106296366D01*
X83139184Y-106296453D01*
X83136686Y-106362887D01*
X83106787Y-106411187D01*
X81681742Y-107836232D01*
X81668113Y-107848011D01*
X81648706Y-107862459D01*
X81614939Y-107902700D01*
X81611295Y-107906678D01*
X81605419Y-107912555D01*
X81584972Y-107938414D01*
X81535334Y-107997570D01*
X81531366Y-108003605D01*
X81531322Y-108003576D01*
X81527209Y-108010031D01*
X81527254Y-108010059D01*
X81523459Y-108016211D01*
X81490827Y-108086191D01*
X81456176Y-108155188D01*
X81453704Y-108161979D01*
X81453655Y-108161961D01*
X81451141Y-108169193D01*
X81451191Y-108169210D01*
X81448920Y-108176062D01*
X81433304Y-108251688D01*
X81415498Y-108326818D01*
X81414661Y-108333987D01*
X81414607Y-108333980D01*
X81413830Y-108341596D01*
X81413883Y-108341601D01*
X81413253Y-108348790D01*
X81415500Y-108425981D01*
X81415500Y-114116138D01*
X81395815Y-114183177D01*
X81362626Y-114217710D01*
X81346395Y-114229076D01*
X81330861Y-114239953D01*
X81169951Y-114400862D01*
X81039432Y-114587265D01*
X81039431Y-114587267D01*
X80943261Y-114793502D01*
X80943258Y-114793511D01*
X80884366Y-115013302D01*
X80884364Y-115013313D01*
X80864532Y-115239998D01*
X80864532Y-115240001D01*
X50990463Y-115240001D01*
X50984426Y-93160001D01*
X59714390Y-93160001D01*
X59734804Y-93445433D01*
X59795628Y-93725037D01*
X59895635Y-93993166D01*
X60032770Y-94244309D01*
X60032775Y-94244317D01*
X60204254Y-94473387D01*
X60204270Y-94473405D01*
X60406594Y-94675729D01*
X60406612Y-94675745D01*
X60635682Y-94847224D01*
X60635690Y-94847229D01*
X60886833Y-94984364D01*
X60886832Y-94984364D01*
X60886836Y-94984365D01*
X60886839Y-94984367D01*
X61154954Y-95084369D01*
X61154960Y-95084370D01*
X61154962Y-95084371D01*
X61434566Y-95145195D01*
X61434568Y-95145195D01*
X61434572Y-95145196D01*
X61688220Y-95163337D01*
X61719999Y-95165610D01*
X61720000Y-95165610D01*
X61720001Y-95165610D01*
X61748595Y-95163564D01*
X62005428Y-95145196D01*
X62285046Y-95084369D01*
X62423274Y-95032811D01*
X62492964Y-95027827D01*
X62554285Y-95061309D01*
X62554288Y-95061312D01*
X69837792Y-102344816D01*
X69871277Y-102406139D01*
X69866293Y-102475831D01*
X69842571Y-102515123D01*
X69630316Y-102752638D01*
X69630311Y-102752646D01*
X69420353Y-103048552D01*
X69420350Y-103048557D01*
X69244832Y-103366132D01*
X69244830Y-103366136D01*
X69105979Y-103701355D01*
X69089407Y-103758880D01*
X69051932Y-103817850D01*
X68988525Y-103847198D01*
X68919317Y-103837607D01*
X68866280Y-103792122D01*
X68856394Y-103773666D01*
X68846595Y-103750949D01*
X68729520Y-103479539D01*
X68599019Y-103253504D01*
X68562331Y-103189959D01*
X68362660Y-102921754D01*
X68362655Y-102921748D01*
X68200574Y-102749953D01*
X68133195Y-102678535D01*
X68133188Y-102678529D01*
X68133186Y-102678527D01*
X67877053Y-102463605D01*
X67689982Y-102340567D01*
X67597683Y-102279861D01*
X67592625Y-102277321D01*
X67298881Y-102129797D01*
X67298880Y-102129796D01*
X66984670Y-102015432D01*
X66984671Y-102015432D01*
X66984666Y-102015430D01*
X66984664Y-102015430D01*
X66783832Y-101967832D01*
X66659299Y-101938317D01*
X66512342Y-101921141D01*
X66327188Y-101899500D01*
X65992812Y-101899500D01*
X65821316Y-101919544D01*
X65660700Y-101938317D01*
X65503873Y-101975486D01*
X65335336Y-102015430D01*
X65335333Y-102015430D01*
X65335329Y-102015432D01*
X65021119Y-102129796D01*
X65021118Y-102129797D01*
X64722320Y-102279859D01*
X64442946Y-102463605D01*
X64186813Y-102678527D01*
X64186803Y-102678537D01*
X63957344Y-102921748D01*
X63957339Y-102921754D01*
X63757668Y-103189959D01*
X63590482Y-103479534D01*
X63590476Y-103479547D01*
X63458040Y-103786567D01*
X63362140Y-104106898D01*
X63362137Y-104106912D01*
X63304078Y-104436178D01*
X63304077Y-104436189D01*
X63284635Y-104769996D01*
X63284635Y-104770003D01*
X63304077Y-105103810D01*
X63304078Y-105103821D01*
X63362137Y-105433087D01*
X63362140Y-105433101D01*
X63458040Y-105753432D01*
X63590476Y-106060452D01*
X63590482Y-106060465D01*
X63757668Y-106350040D01*
X63957339Y-106618245D01*
X63957344Y-106618251D01*
X64054149Y-106720858D01*
X64186805Y-106861465D01*
X64186811Y-106861470D01*
X64186813Y-106861472D01*
X64442946Y-107076394D01*
X64464346Y-107090469D01*
X64722317Y-107260139D01*
X64922627Y-107360738D01*
X65021118Y-107410202D01*
X65021119Y-107410203D01*
X65021122Y-107410204D01*
X65021126Y-107410206D01*
X65335336Y-107524570D01*
X65660698Y-107601682D01*
X65992812Y-107640500D01*
X65992819Y-107640500D01*
X66327181Y-107640500D01*
X66327188Y-107640500D01*
X66659302Y-107601682D01*
X66984664Y-107524570D01*
X67298874Y-107410206D01*
X67597683Y-107260139D01*
X67877049Y-107076397D01*
X67880725Y-107073313D01*
X67999367Y-106973760D01*
X68133195Y-106861465D01*
X68362657Y-106618249D01*
X68562332Y-106350039D01*
X68729520Y-106060461D01*
X68856395Y-105766331D01*
X68901022Y-105712573D01*
X68967630Y-105691475D01*
X69035071Y-105709737D01*
X69081932Y-105761561D01*
X69089407Y-105781119D01*
X69105980Y-105838645D01*
X69244830Y-106173863D01*
X69244832Y-106173867D01*
X69420350Y-106491442D01*
X69420353Y-106491447D01*
X69597321Y-106740858D01*
X69630314Y-106787357D01*
X69872092Y-107057908D01*
X70142643Y-107299686D01*
X70142646Y-107299688D01*
X70142647Y-107299689D01*
X70438552Y-107509646D01*
X70438557Y-107509649D01*
X70438560Y-107509650D01*
X70438562Y-107509652D01*
X70675313Y-107640500D01*
X70756132Y-107685167D01*
X70756136Y-107685169D01*
X70844227Y-107721657D01*
X71091352Y-107824019D01*
X71440013Y-107924467D01*
X71797729Y-107985245D01*
X72160000Y-108005590D01*
X72522271Y-107985245D01*
X72879987Y-107924467D01*
X73228648Y-107824019D01*
X73563870Y-107685166D01*
X73881438Y-107509652D01*
X73881443Y-107509648D01*
X73881447Y-107509646D01*
X74091312Y-107360738D01*
X74177357Y-107299686D01*
X74447908Y-107057908D01*
X74689686Y-106787357D01*
X74832038Y-106586731D01*
X74899646Y-106491447D01*
X74899649Y-106491442D01*
X74899652Y-106491438D01*
X75075166Y-106173870D01*
X75214019Y-105838648D01*
X75314467Y-105489987D01*
X75375245Y-105132271D01*
X75395590Y-104770000D01*
X75375245Y-104407729D01*
X75314467Y-104050013D01*
X75214019Y-103701352D01*
X75122139Y-103479534D01*
X75075169Y-103366136D01*
X75075167Y-103366132D01*
X75066353Y-103350185D01*
X75033860Y-103291393D01*
X74962166Y-103161671D01*
X74946966Y-103093475D01*
X74971049Y-103027887D01*
X74983006Y-103014016D01*
X76838264Y-101158758D01*
X76851883Y-101146988D01*
X76871294Y-101132539D01*
X76905075Y-101092279D01*
X76908709Y-101088313D01*
X76914583Y-101082441D01*
X76935027Y-101056584D01*
X76984667Y-100997427D01*
X76984669Y-100997422D01*
X76988637Y-100991390D01*
X76988683Y-100991420D01*
X76992795Y-100984965D01*
X76992748Y-100984936D01*
X76996532Y-100978799D01*
X76996539Y-100978791D01*
X77029172Y-100908808D01*
X77063824Y-100839811D01*
X77063826Y-100839799D01*
X77066293Y-100833024D01*
X77066346Y-100833043D01*
X77068858Y-100825815D01*
X77068807Y-100825798D01*
X77071077Y-100818945D01*
X77071077Y-100818943D01*
X77071079Y-100818940D01*
X77086695Y-100743310D01*
X77104500Y-100668188D01*
X77104500Y-100668183D01*
X77105338Y-100661015D01*
X77105392Y-100661021D01*
X77106170Y-100653405D01*
X77106117Y-100653401D01*
X77106746Y-100646210D01*
X77104500Y-100569018D01*
X77104500Y-97468558D01*
X83499500Y-97468558D01*
X83514157Y-97598648D01*
X83514159Y-97598658D01*
X83566376Y-97747883D01*
X83571878Y-97763606D01*
X83664853Y-97911576D01*
X83788424Y-98035147D01*
X83936394Y-98128122D01*
X84101343Y-98185841D01*
X84101349Y-98185841D01*
X84101351Y-98185842D01*
X84142750Y-98190506D01*
X84231442Y-98200499D01*
X84231445Y-98200500D01*
X84231448Y-98200500D01*
X84645500Y-98200500D01*
X84712539Y-98220185D01*
X84758294Y-98272989D01*
X84769500Y-98324500D01*
X84769500Y-99538558D01*
X84784157Y-99668648D01*
X84784159Y-99668658D01*
X84840441Y-99829500D01*
X84841878Y-99833606D01*
X84934853Y-99981576D01*
X85058424Y-100105147D01*
X85206394Y-100198122D01*
X85324238Y-100239358D01*
X85371339Y-100255840D01*
X85371340Y-100255840D01*
X85371343Y-100255841D01*
X85392997Y-100258280D01*
X85457411Y-100285346D01*
X85466796Y-100293820D01*
X94459181Y-109286205D01*
X94492666Y-109347528D01*
X94495500Y-109373886D01*
X94495500Y-109496138D01*
X94475815Y-109563177D01*
X94442626Y-109597710D01*
X94410861Y-109619953D01*
X94249951Y-109780862D01*
X94119432Y-109967265D01*
X94119431Y-109967267D01*
X94023261Y-110173502D01*
X94023258Y-110173511D01*
X93964366Y-110393302D01*
X93964364Y-110393313D01*
X93944532Y-110619998D01*
X93944532Y-110620001D01*
X93964364Y-110846686D01*
X93964366Y-110846697D01*
X94023258Y-111066488D01*
X94023261Y-111066497D01*
X94119431Y-111272732D01*
X94119432Y-111272734D01*
X94249954Y-111459141D01*
X94410858Y-111620045D01*
X94457693Y-111652839D01*
X94597266Y-111750568D01*
X94803504Y-111846739D01*
X95023308Y-111905635D01*
X95185230Y-111919801D01*
X95249998Y-111925468D01*
X95250000Y-111925468D01*
X95250002Y-111925468D01*
X95306672Y-111920509D01*
X95476692Y-111905635D01*
X95696496Y-111846739D01*
X95902734Y-111750568D01*
X96089139Y-111620047D01*
X96250047Y-111459139D01*
X96380568Y-111272734D01*
X96476739Y-111066496D01*
X96535635Y-110846692D01*
X96555468Y-110620000D01*
X96535635Y-110393308D01*
X96476739Y-110173504D01*
X96380568Y-109967266D01*
X96250047Y-109780861D01*
X96089139Y-109619953D01*
X96057374Y-109597710D01*
X96013751Y-109543135D01*
X96004500Y-109496138D01*
X96004500Y-109073999D01*
X96005809Y-109056029D01*
X96006030Y-109054516D01*
X96009315Y-109032094D01*
X96004735Y-108979753D01*
X96004500Y-108974350D01*
X96004500Y-108966066D01*
X96004500Y-108966059D01*
X96000674Y-108933325D01*
X95993943Y-108856388D01*
X95993941Y-108856383D01*
X95992483Y-108849319D01*
X95992537Y-108849307D01*
X95990881Y-108841837D01*
X95990827Y-108841850D01*
X95989160Y-108834822D01*
X95989160Y-108834816D01*
X95962752Y-108762260D01*
X95938464Y-108688964D01*
X95938461Y-108688960D01*
X95935412Y-108682419D01*
X95935461Y-108682395D01*
X95932128Y-108675509D01*
X95932079Y-108675534D01*
X95928835Y-108669075D01*
X95886400Y-108604555D01*
X95845872Y-108538849D01*
X95841392Y-108533183D01*
X95841434Y-108533149D01*
X95836597Y-108527211D01*
X95836556Y-108527246D01*
X95831912Y-108521711D01*
X95775752Y-108468728D01*
X94484283Y-107177258D01*
X94450798Y-107115935D01*
X94455782Y-107046243D01*
X94497654Y-106990310D01*
X94563118Y-106965893D01*
X94624366Y-106977194D01*
X94773504Y-107046739D01*
X94993308Y-107105635D01*
X95155230Y-107119801D01*
X95219998Y-107125468D01*
X95220000Y-107125468D01*
X95220002Y-107125468D01*
X95276673Y-107120509D01*
X95446692Y-107105635D01*
X95666496Y-107046739D01*
X95872734Y-106950568D01*
X96059139Y-106820047D01*
X96220047Y-106659139D01*
X96350568Y-106472734D01*
X96446739Y-106266496D01*
X96505635Y-106046692D01*
X96525468Y-105820000D01*
X96525451Y-105819811D01*
X96515821Y-105709737D01*
X96505635Y-105593308D01*
X96460916Y-105426415D01*
X96446741Y-105373511D01*
X96446738Y-105373502D01*
X96404906Y-105283794D01*
X96350568Y-105167266D01*
X96220047Y-104980861D01*
X96220045Y-104980858D01*
X96059140Y-104819953D01*
X96027376Y-104797712D01*
X95983751Y-104743135D01*
X95974499Y-104696137D01*
X95974499Y-102171870D01*
X95994184Y-102104831D01*
X96027377Y-102070294D01*
X96099139Y-102020047D01*
X96260047Y-101859139D01*
X96282286Y-101827377D01*
X96336863Y-101783752D01*
X96383862Y-101774500D01*
X100226000Y-101774500D01*
X100243969Y-101775809D01*
X100249350Y-101776596D01*
X100267906Y-101779315D01*
X100320248Y-101774735D01*
X100325649Y-101774500D01*
X100333934Y-101774500D01*
X100333941Y-101774500D01*
X100366674Y-101770674D01*
X100443612Y-101763943D01*
X100443615Y-101763941D01*
X100450693Y-101762481D01*
X100450704Y-101762535D01*
X100458163Y-101760881D01*
X100458151Y-101760827D01*
X100465178Y-101759160D01*
X100465184Y-101759160D01*
X100519600Y-101739354D01*
X100537740Y-101732752D01*
X100611034Y-101708465D01*
X100617581Y-101705412D01*
X100617604Y-101705462D01*
X100624498Y-101702125D01*
X100624473Y-101702075D01*
X100630916Y-101698838D01*
X100630924Y-101698836D01*
X100695297Y-101656497D01*
X100695443Y-101656401D01*
X100725051Y-101638138D01*
X100761154Y-101615870D01*
X100761159Y-101615864D01*
X100766823Y-101611387D01*
X100766857Y-101611430D01*
X100772782Y-101606604D01*
X100772747Y-101606562D01*
X100778283Y-101601916D01*
X100778282Y-101601916D01*
X100778285Y-101601915D01*
X100831271Y-101545752D01*
X104434695Y-97942328D01*
X108086205Y-94290819D01*
X108147528Y-94257334D01*
X108173886Y-94254500D01*
X117326114Y-94254500D01*
X117393153Y-94274185D01*
X117413795Y-94290819D01*
X117836980Y-94714004D01*
X117870465Y-94775327D01*
X117865481Y-94845019D01*
X117823609Y-94900952D01*
X117758145Y-94925369D01*
X117696894Y-94914067D01*
X117637146Y-94886206D01*
X117566496Y-94853261D01*
X117566492Y-94853260D01*
X117566488Y-94853258D01*
X117346697Y-94794366D01*
X117346693Y-94794365D01*
X117346692Y-94794365D01*
X117346691Y-94794364D01*
X117346686Y-94794364D01*
X117120002Y-94774532D01*
X117119998Y-94774532D01*
X116893313Y-94794364D01*
X116893302Y-94794366D01*
X116673511Y-94853258D01*
X116673502Y-94853261D01*
X116467267Y-94949431D01*
X116467265Y-94949432D01*
X116280858Y-95079954D01*
X116119954Y-95240858D01*
X115989432Y-95427265D01*
X115989431Y-95427267D01*
X115893261Y-95633502D01*
X115893258Y-95633511D01*
X115834366Y-95853302D01*
X115834364Y-95853313D01*
X115814532Y-96079998D01*
X115814532Y-96080001D01*
X115834364Y-96306686D01*
X115834366Y-96306697D01*
X115893258Y-96526488D01*
X115893261Y-96526497D01*
X115989431Y-96732732D01*
X115989432Y-96732734D01*
X116119954Y-96919141D01*
X116280858Y-97080045D01*
X116280861Y-97080047D01*
X116467266Y-97210568D01*
X116673504Y-97306739D01*
X116893308Y-97365635D01*
X117033052Y-97377861D01*
X117119998Y-97385468D01*
X117120000Y-97385468D01*
X117120002Y-97385468D01*
X117176796Y-97380499D01*
X117346692Y-97365635D01*
X117566496Y-97306739D01*
X117772734Y-97210568D01*
X117959139Y-97080047D01*
X118120047Y-96919139D01*
X118250568Y-96732734D01*
X118346739Y-96526496D01*
X118405635Y-96306692D01*
X118425468Y-96080000D01*
X118424606Y-96070153D01*
X118415152Y-95962085D01*
X118405635Y-95853308D01*
X118360916Y-95686415D01*
X118346741Y-95633511D01*
X118346738Y-95633502D01*
X118314726Y-95564853D01*
X118285931Y-95503103D01*
X118275440Y-95434028D01*
X118303959Y-95370244D01*
X118362436Y-95332004D01*
X118432303Y-95331449D01*
X118485995Y-95363019D01*
X121532827Y-98409851D01*
X121566312Y-98471174D01*
X121568674Y-98508338D01*
X121554532Y-98669996D01*
X121554532Y-98670001D01*
X121574364Y-98896686D01*
X121574366Y-98896697D01*
X121633258Y-99116488D01*
X121633261Y-99116497D01*
X121729431Y-99322732D01*
X121729432Y-99322734D01*
X121859954Y-99509141D01*
X122020858Y-99670045D01*
X122020861Y-99670047D01*
X122207266Y-99800568D01*
X122257068Y-99823791D01*
X122265275Y-99827618D01*
X122317714Y-99873791D01*
X122336866Y-99940984D01*
X122316650Y-100007865D01*
X122265275Y-100052382D01*
X122207267Y-100079431D01*
X122207265Y-100079432D01*
X122020858Y-100209954D01*
X121859954Y-100370858D01*
X121729432Y-100557265D01*
X121729431Y-100557267D01*
X121633261Y-100763502D01*
X121633258Y-100763511D01*
X121574366Y-100983302D01*
X121574364Y-100983313D01*
X121554532Y-101209998D01*
X121554532Y-101210003D01*
X121568674Y-101371660D01*
X121554907Y-101440159D01*
X121532827Y-101470147D01*
X118443795Y-104559181D01*
X118382472Y-104592666D01*
X118356114Y-104595500D01*
X118318783Y-104595500D01*
X118251744Y-104575815D01*
X118205989Y-104523011D01*
X118196045Y-104453853D01*
X118217208Y-104400377D01*
X118250568Y-104352734D01*
X118346739Y-104146496D01*
X118405635Y-103926692D01*
X118424987Y-103705498D01*
X118425468Y-103700001D01*
X118425468Y-103699998D01*
X118414625Y-103576062D01*
X118405635Y-103473308D01*
X118346739Y-103253504D01*
X118250568Y-103047266D01*
X118120047Y-102860861D01*
X118120045Y-102860858D01*
X117959141Y-102699954D01*
X117772734Y-102569432D01*
X117772728Y-102569429D01*
X117745038Y-102556517D01*
X117714724Y-102542381D01*
X117662285Y-102496210D01*
X117643133Y-102429017D01*
X117663348Y-102362135D01*
X117714725Y-102317618D01*
X117772734Y-102290568D01*
X117959139Y-102160047D01*
X118120047Y-101999139D01*
X118250568Y-101812734D01*
X118346739Y-101606496D01*
X118405635Y-101386692D01*
X118425468Y-101160000D01*
X118423065Y-101132539D01*
X118416420Y-101056584D01*
X118405635Y-100933308D01*
X118354726Y-100743311D01*
X118346741Y-100713511D01*
X118346738Y-100713502D01*
X118250568Y-100507266D01*
X118120047Y-100320861D01*
X118120045Y-100320858D01*
X117959141Y-100159954D01*
X117772734Y-100029432D01*
X117772732Y-100029431D01*
X117566497Y-99933261D01*
X117566488Y-99933258D01*
X117346697Y-99874366D01*
X117346693Y-99874365D01*
X117346692Y-99874365D01*
X117346691Y-99874364D01*
X117346686Y-99874364D01*
X117120002Y-99854532D01*
X117119998Y-99854532D01*
X116893313Y-99874364D01*
X116893302Y-99874366D01*
X116673511Y-99933258D01*
X116673502Y-99933261D01*
X116467267Y-100029431D01*
X116467265Y-100029432D01*
X116280858Y-100159954D01*
X116119954Y-100320858D01*
X115989432Y-100507265D01*
X115989431Y-100507267D01*
X115893261Y-100713502D01*
X115893258Y-100713511D01*
X115834366Y-100933302D01*
X115834364Y-100933313D01*
X115814532Y-101159998D01*
X115814532Y-101160001D01*
X115834364Y-101386686D01*
X115834366Y-101386697D01*
X115893258Y-101606488D01*
X115893261Y-101606497D01*
X115989431Y-101812732D01*
X115989432Y-101812734D01*
X116119954Y-101999141D01*
X116280858Y-102160045D01*
X116280861Y-102160047D01*
X116467266Y-102290568D01*
X116525275Y-102317618D01*
X116577714Y-102363791D01*
X116596866Y-102430984D01*
X116576650Y-102497865D01*
X116525275Y-102542382D01*
X116467267Y-102569431D01*
X116467265Y-102569432D01*
X116280858Y-102699954D01*
X116119954Y-102860858D01*
X115989432Y-103047265D01*
X115989431Y-103047267D01*
X115893261Y-103253502D01*
X115893258Y-103253511D01*
X115834366Y-103473302D01*
X115834364Y-103473313D01*
X115814532Y-103699998D01*
X115814532Y-103700001D01*
X115834364Y-103926686D01*
X115834366Y-103926697D01*
X115893258Y-104146488D01*
X115893261Y-104146497D01*
X115989431Y-104352732D01*
X115989432Y-104352734D01*
X116022792Y-104400377D01*
X116045119Y-104466583D01*
X116028109Y-104534351D01*
X115977160Y-104582163D01*
X115921217Y-104595500D01*
X110698783Y-104595500D01*
X110631744Y-104575815D01*
X110585989Y-104523011D01*
X110576045Y-104453853D01*
X110597208Y-104400377D01*
X110630568Y-104352734D01*
X110726739Y-104146496D01*
X110785635Y-103926692D01*
X110804987Y-103705498D01*
X110805468Y-103700001D01*
X110805468Y-103699998D01*
X110794625Y-103576062D01*
X110785635Y-103473308D01*
X110726739Y-103253504D01*
X110630568Y-103047266D01*
X110500047Y-102860861D01*
X110500045Y-102860858D01*
X110339141Y-102699954D01*
X110152734Y-102569432D01*
X110152728Y-102569429D01*
X110125038Y-102556517D01*
X110094724Y-102542381D01*
X110042285Y-102496210D01*
X110023133Y-102429017D01*
X110043348Y-102362135D01*
X110094725Y-102317618D01*
X110152734Y-102290568D01*
X110339139Y-102160047D01*
X110500047Y-101999139D01*
X110630568Y-101812734D01*
X110726739Y-101606496D01*
X110785635Y-101386692D01*
X110805468Y-101160000D01*
X110803065Y-101132539D01*
X110796420Y-101056584D01*
X110785635Y-100933308D01*
X110734726Y-100743311D01*
X110726741Y-100713511D01*
X110726738Y-100713502D01*
X110630568Y-100507266D01*
X110500047Y-100320861D01*
X110500045Y-100320858D01*
X110339141Y-100159954D01*
X110152734Y-100029432D01*
X110152728Y-100029429D01*
X110125038Y-100016517D01*
X110094724Y-100002381D01*
X110042285Y-99956210D01*
X110023133Y-99889017D01*
X110043348Y-99822135D01*
X110094725Y-99777618D01*
X110152734Y-99750568D01*
X110339139Y-99620047D01*
X110500047Y-99459139D01*
X110630568Y-99272734D01*
X110726739Y-99066496D01*
X110785635Y-98846692D01*
X110805468Y-98620000D01*
X110785635Y-98393308D01*
X110726739Y-98173504D01*
X110630568Y-97967266D01*
X110500047Y-97780861D01*
X110500045Y-97780858D01*
X110339143Y-97619956D01*
X110314536Y-97602726D01*
X110270912Y-97548149D01*
X110263719Y-97478650D01*
X110295241Y-97416296D01*
X110355471Y-97380882D01*
X110372404Y-97377861D01*
X110407483Y-97374091D01*
X110542331Y-97323796D01*
X110657546Y-97237546D01*
X110743796Y-97122331D01*
X110794091Y-96987483D01*
X110800500Y-96927873D01*
X110800499Y-95232128D01*
X110794091Y-95172517D01*
X110761214Y-95084370D01*
X110743797Y-95037671D01*
X110743793Y-95037664D01*
X110657547Y-94922455D01*
X110657544Y-94922452D01*
X110542335Y-94836206D01*
X110542328Y-94836202D01*
X110407482Y-94785908D01*
X110407483Y-94785908D01*
X110347883Y-94779501D01*
X110347881Y-94779500D01*
X110347873Y-94779500D01*
X110347864Y-94779500D01*
X108652129Y-94779500D01*
X108652123Y-94779501D01*
X108592516Y-94785908D01*
X108457671Y-94836202D01*
X108457664Y-94836206D01*
X108342455Y-94922452D01*
X108342452Y-94922455D01*
X108256206Y-95037664D01*
X108256202Y-95037671D01*
X108205908Y-95172517D01*
X108200533Y-95222516D01*
X108199501Y-95232123D01*
X108199500Y-95232135D01*
X108199500Y-96927870D01*
X108199501Y-96927876D01*
X108205908Y-96987483D01*
X108256202Y-97122328D01*
X108256206Y-97122335D01*
X108342452Y-97237544D01*
X108342455Y-97237547D01*
X108457664Y-97323793D01*
X108457671Y-97323797D01*
X108502618Y-97340560D01*
X108592517Y-97374091D01*
X108627596Y-97377862D01*
X108692144Y-97404599D01*
X108731993Y-97461991D01*
X108734488Y-97531816D01*
X108698836Y-97591905D01*
X108685464Y-97602725D01*
X108660858Y-97619954D01*
X108499954Y-97780858D01*
X108369432Y-97967265D01*
X108369431Y-97967267D01*
X108273261Y-98173502D01*
X108273258Y-98173511D01*
X108214366Y-98393302D01*
X108214364Y-98393313D01*
X108194532Y-98619998D01*
X108194532Y-98620001D01*
X108214364Y-98846686D01*
X108214366Y-98846697D01*
X108273258Y-99066488D01*
X108273261Y-99066497D01*
X108369431Y-99272732D01*
X108369432Y-99272734D01*
X108499954Y-99459141D01*
X108660858Y-99620045D01*
X108660861Y-99620047D01*
X108847266Y-99750568D01*
X108905275Y-99777618D01*
X108957714Y-99823791D01*
X108976866Y-99890984D01*
X108956650Y-99957865D01*
X108905275Y-100002381D01*
X108893516Y-100007865D01*
X108847267Y-100029431D01*
X108847265Y-100029432D01*
X108660858Y-100159954D01*
X108499954Y-100320858D01*
X108369432Y-100507265D01*
X108369431Y-100507267D01*
X108273261Y-100713502D01*
X108273258Y-100713511D01*
X108214366Y-100933302D01*
X108214364Y-100933313D01*
X108194532Y-101159998D01*
X108194532Y-101160003D01*
X108208674Y-101321660D01*
X108194907Y-101390159D01*
X108172827Y-101420147D01*
X104240531Y-105352443D01*
X104179208Y-105385928D01*
X104109516Y-105380944D01*
X104053583Y-105339072D01*
X104040468Y-105317167D01*
X104024906Y-105283794D01*
X103970568Y-105167266D01*
X103840047Y-104980861D01*
X103840045Y-104980858D01*
X103679141Y-104819954D01*
X103492734Y-104689432D01*
X103492732Y-104689431D01*
X103286497Y-104593261D01*
X103286488Y-104593258D01*
X103066697Y-104534366D01*
X103066693Y-104534365D01*
X103066692Y-104534365D01*
X103066691Y-104534364D01*
X103066686Y-104534364D01*
X102840002Y-104514532D01*
X102839998Y-104514532D01*
X102613313Y-104534364D01*
X102613302Y-104534366D01*
X102393511Y-104593258D01*
X102393502Y-104593261D01*
X102187267Y-104689431D01*
X102187265Y-104689432D01*
X102000858Y-104819954D01*
X101839954Y-104980858D01*
X101709432Y-105167265D01*
X101709431Y-105167267D01*
X101613261Y-105373502D01*
X101613258Y-105373511D01*
X101554366Y-105593302D01*
X101554364Y-105593313D01*
X101534532Y-105819998D01*
X101534532Y-105820001D01*
X101554364Y-106046686D01*
X101554366Y-106046697D01*
X101613258Y-106266488D01*
X101613261Y-106266497D01*
X101709431Y-106472732D01*
X101709432Y-106472734D01*
X101839954Y-106659141D01*
X102000858Y-106820045D01*
X102000861Y-106820047D01*
X102187266Y-106950568D01*
X102337168Y-107020468D01*
X102389606Y-107066640D01*
X102408758Y-107133834D01*
X102388542Y-107200715D01*
X102372443Y-107220531D01*
X98891742Y-110701232D01*
X98878113Y-110713011D01*
X98858706Y-110727459D01*
X98824939Y-110767700D01*
X98821295Y-110771678D01*
X98815419Y-110777555D01*
X98794972Y-110803414D01*
X98745334Y-110862570D01*
X98741366Y-110868605D01*
X98741322Y-110868576D01*
X98737209Y-110875031D01*
X98737254Y-110875059D01*
X98733459Y-110881211D01*
X98700827Y-110951191D01*
X98666176Y-111020188D01*
X98663704Y-111026979D01*
X98663655Y-111026961D01*
X98661141Y-111034193D01*
X98661191Y-111034210D01*
X98658920Y-111041062D01*
X98643304Y-111116688D01*
X98625498Y-111191818D01*
X98624661Y-111198987D01*
X98624607Y-111198980D01*
X98623830Y-111206596D01*
X98623883Y-111206601D01*
X98623253Y-111213790D01*
X98625500Y-111290981D01*
X98625500Y-138456000D01*
X98624191Y-138473969D01*
X98620684Y-138497909D01*
X98625263Y-138550241D01*
X98625499Y-138555640D01*
X98625499Y-138563936D01*
X98629325Y-138596675D01*
X98636056Y-138673610D01*
X98637516Y-138680677D01*
X98637464Y-138680687D01*
X98639123Y-138688167D01*
X98639174Y-138688155D01*
X98640839Y-138695180D01*
X98667247Y-138767740D01*
X98691535Y-138841034D01*
X98694586Y-138847575D01*
X98694536Y-138847598D01*
X98697876Y-138854497D01*
X98697925Y-138854473D01*
X98701165Y-138860925D01*
X98743599Y-138925444D01*
X98784131Y-138991156D01*
X98788611Y-138996822D01*
X98788569Y-138996855D01*
X98793401Y-139002786D01*
X98793443Y-139002752D01*
X98798081Y-139008280D01*
X98798085Y-139008285D01*
X98826166Y-139034777D01*
X98854247Y-139061272D01*
X100566795Y-140773819D01*
X100600280Y-140835142D01*
X100595296Y-140904834D01*
X100553424Y-140960767D01*
X100487960Y-140985184D01*
X100479114Y-140985500D01*
X90889801Y-140985500D01*
X90822762Y-140965815D01*
X90777007Y-140913011D01*
X90775259Y-140908792D01*
X90774364Y-140906833D01*
X90637229Y-140655690D01*
X90637224Y-140655682D01*
X90465745Y-140426612D01*
X90465729Y-140426594D01*
X90263405Y-140224270D01*
X90263387Y-140224254D01*
X90034317Y-140052775D01*
X90034309Y-140052770D01*
X89783166Y-139915635D01*
X89783167Y-139915635D01*
X89642532Y-139863181D01*
X89515046Y-139815631D01*
X89515043Y-139815630D01*
X89515037Y-139815628D01*
X89235433Y-139754804D01*
X88950001Y-139734390D01*
X88949999Y-139734390D01*
X88664566Y-139754804D01*
X88384962Y-139815628D01*
X88116833Y-139915635D01*
X87865690Y-140052770D01*
X87865682Y-140052775D01*
X87636612Y-140224254D01*
X87636594Y-140224270D01*
X87434270Y-140426594D01*
X87434254Y-140426612D01*
X87262775Y-140655682D01*
X87262770Y-140655690D01*
X87125635Y-140906833D01*
X87025628Y-141174962D01*
X86964804Y-141454566D01*
X86944390Y-141739998D01*
X86944390Y-141740001D01*
X86964804Y-142025433D01*
X87025628Y-142305037D01*
X87025630Y-142305043D01*
X87025631Y-142305046D01*
X87125633Y-142573161D01*
X87125635Y-142573166D01*
X87262770Y-142824309D01*
X87262775Y-142824317D01*
X87434254Y-143053387D01*
X87434270Y-143053405D01*
X87636594Y-143255729D01*
X87636612Y-143255745D01*
X87865682Y-143427224D01*
X87865690Y-143427229D01*
X88116833Y-143564364D01*
X88116832Y-143564364D01*
X88116836Y-143564365D01*
X88116839Y-143564367D01*
X88384954Y-143664369D01*
X88384960Y-143664370D01*
X88384962Y-143664371D01*
X88664566Y-143725195D01*
X88664568Y-143725195D01*
X88664572Y-143725196D01*
X88918220Y-143743337D01*
X88949999Y-143745610D01*
X88950000Y-143745610D01*
X88950001Y-143745610D01*
X88978595Y-143743564D01*
X89235428Y-143725196D01*
X89515046Y-143664369D01*
X89783161Y-143564367D01*
X90034315Y-143427226D01*
X90263395Y-143255739D01*
X90465739Y-143053395D01*
X90637226Y-142824315D01*
X90774367Y-142573161D01*
X90774370Y-142573152D01*
X90776204Y-142569138D01*
X90777637Y-142569792D01*
X90815504Y-142519223D01*
X90880972Y-142494815D01*
X90889801Y-142494500D01*
X100635501Y-142494500D01*
X100702540Y-142514185D01*
X100748295Y-142566989D01*
X100759501Y-142618500D01*
X100759501Y-143447876D01*
X100765908Y-143507483D01*
X100816202Y-143642328D01*
X100816206Y-143642335D01*
X100902452Y-143757544D01*
X100902455Y-143757547D01*
X101017664Y-143843793D01*
X101017671Y-143843797D01*
X101152517Y-143894091D01*
X101152516Y-143894091D01*
X101159444Y-143894835D01*
X101212127Y-143900500D01*
X104307872Y-143900499D01*
X104367483Y-143894091D01*
X104502331Y-143843796D01*
X104617546Y-143757546D01*
X104703796Y-143642331D01*
X104754091Y-143507483D01*
X104760500Y-143447873D01*
X104760500Y-141900001D01*
X105834390Y-141900001D01*
X105854804Y-142185433D01*
X105915628Y-142465037D01*
X105915630Y-142465043D01*
X105915631Y-142465046D01*
X105981644Y-142642032D01*
X106015635Y-142733166D01*
X106152770Y-142984309D01*
X106152775Y-142984317D01*
X106324254Y-143213387D01*
X106324270Y-143213405D01*
X106526594Y-143415729D01*
X106526612Y-143415745D01*
X106755682Y-143587224D01*
X106755690Y-143587229D01*
X107006833Y-143724364D01*
X107006832Y-143724364D01*
X107006836Y-143724365D01*
X107006839Y-143724367D01*
X107274954Y-143824369D01*
X107274960Y-143824370D01*
X107274962Y-143824371D01*
X107554566Y-143885195D01*
X107554568Y-143885195D01*
X107554572Y-143885196D01*
X107808220Y-143903337D01*
X107839999Y-143905610D01*
X107840000Y-143905610D01*
X107840001Y-143905610D01*
X107868595Y-143903564D01*
X108125428Y-143885196D01*
X108315742Y-143843796D01*
X108405037Y-143824371D01*
X108405037Y-143824370D01*
X108405046Y-143824369D01*
X108673161Y-143724367D01*
X108924315Y-143587226D01*
X109153395Y-143415739D01*
X109355739Y-143213395D01*
X109464678Y-143067870D01*
X124009500Y-143067870D01*
X124009501Y-143067876D01*
X124015908Y-143127483D01*
X124066202Y-143262328D01*
X124066206Y-143262335D01*
X124152452Y-143377544D01*
X124152455Y-143377547D01*
X124267664Y-143463793D01*
X124267671Y-143463797D01*
X124402517Y-143514091D01*
X124402516Y-143514091D01*
X124409444Y-143514835D01*
X124462127Y-143520500D01*
X126257872Y-143520499D01*
X126317483Y-143514091D01*
X126452331Y-143463796D01*
X126567546Y-143377546D01*
X126653796Y-143262331D01*
X126702810Y-143130916D01*
X126744681Y-143074984D01*
X126810145Y-143050566D01*
X126878418Y-143065417D01*
X126906673Y-143086569D01*
X127028599Y-143208495D01*
X127125384Y-143276264D01*
X127222165Y-143344032D01*
X127222167Y-143344033D01*
X127222170Y-143344035D01*
X127436337Y-143443903D01*
X127436343Y-143443904D01*
X127436344Y-143443905D01*
X127491285Y-143458626D01*
X127664592Y-143505063D01*
X127841034Y-143520500D01*
X127899999Y-143525659D01*
X127900000Y-143525659D01*
X127900001Y-143525659D01*
X127958966Y-143520500D01*
X128135408Y-143505063D01*
X128363663Y-143443903D01*
X128577830Y-143344035D01*
X128771401Y-143208495D01*
X128938495Y-143041401D01*
X129068424Y-142855842D01*
X129123002Y-142812217D01*
X129192500Y-142805023D01*
X129254855Y-142836546D01*
X129271575Y-142855842D01*
X129401500Y-143041395D01*
X129401505Y-143041401D01*
X129568599Y-143208495D01*
X129665384Y-143276264D01*
X129762165Y-143344032D01*
X129762167Y-143344033D01*
X129762170Y-143344035D01*
X129976337Y-143443903D01*
X129976343Y-143443904D01*
X129976344Y-143443905D01*
X130031285Y-143458626D01*
X130204592Y-143505063D01*
X130381034Y-143520500D01*
X130439999Y-143525659D01*
X130440000Y-143525659D01*
X130440001Y-143525659D01*
X130498966Y-143520500D01*
X130675408Y-143505063D01*
X130903663Y-143443903D01*
X131117830Y-143344035D01*
X131311401Y-143208495D01*
X131478495Y-143041401D01*
X131614035Y-142847830D01*
X131713903Y-142633663D01*
X131775063Y-142405408D01*
X131795659Y-142170000D01*
X131775063Y-141934592D01*
X131713903Y-141706337D01*
X131614035Y-141492171D01*
X131608425Y-141484158D01*
X131478494Y-141298597D01*
X131311402Y-141131506D01*
X131311395Y-141131501D01*
X131117834Y-140995967D01*
X131117830Y-140995965D01*
X131094710Y-140985184D01*
X130903663Y-140896097D01*
X130903659Y-140896096D01*
X130903655Y-140896094D01*
X130675413Y-140834938D01*
X130675403Y-140834936D01*
X130440001Y-140814341D01*
X130439999Y-140814341D01*
X130204596Y-140834936D01*
X130204586Y-140834938D01*
X129976344Y-140896094D01*
X129976335Y-140896098D01*
X129762171Y-140995964D01*
X129762169Y-140995965D01*
X129568597Y-141131505D01*
X129401505Y-141298597D01*
X129271575Y-141484158D01*
X129216998Y-141527783D01*
X129147500Y-141534977D01*
X129085145Y-141503454D01*
X129068425Y-141484158D01*
X128938494Y-141298597D01*
X128771402Y-141131506D01*
X128771395Y-141131501D01*
X128577834Y-140995967D01*
X128577830Y-140995965D01*
X128554710Y-140985184D01*
X128363663Y-140896097D01*
X128363659Y-140896096D01*
X128363655Y-140896094D01*
X128135413Y-140834938D01*
X128135403Y-140834936D01*
X127900001Y-140814341D01*
X127899999Y-140814341D01*
X127664596Y-140834936D01*
X127664586Y-140834938D01*
X127436344Y-140896094D01*
X127436335Y-140896098D01*
X127222171Y-140995964D01*
X127222169Y-140995965D01*
X127028600Y-141131503D01*
X126906673Y-141253430D01*
X126845350Y-141286914D01*
X126775658Y-141281930D01*
X126719725Y-141240058D01*
X126702810Y-141209081D01*
X126653797Y-141077671D01*
X126653793Y-141077664D01*
X126567547Y-140962455D01*
X126567544Y-140962452D01*
X126452335Y-140876206D01*
X126452328Y-140876202D01*
X126317482Y-140825908D01*
X126317483Y-140825908D01*
X126257883Y-140819501D01*
X126257881Y-140819500D01*
X126257873Y-140819500D01*
X126257864Y-140819500D01*
X124462129Y-140819500D01*
X124462123Y-140819501D01*
X124402516Y-140825908D01*
X124267671Y-140876202D01*
X124267664Y-140876206D01*
X124152455Y-140962452D01*
X124152452Y-140962455D01*
X124066206Y-141077664D01*
X124066202Y-141077671D01*
X124015908Y-141212517D01*
X124009501Y-141272116D01*
X124009500Y-141272135D01*
X124009500Y-143067870D01*
X109464678Y-143067870D01*
X109527226Y-142984315D01*
X109664367Y-142733161D01*
X109764369Y-142465046D01*
X109825196Y-142185428D01*
X109845610Y-141900000D01*
X109825196Y-141614572D01*
X109807881Y-141534977D01*
X109764371Y-141334962D01*
X109764370Y-141334960D01*
X109764369Y-141334954D01*
X109664367Y-141066839D01*
X109619952Y-140985500D01*
X109527229Y-140815690D01*
X109527224Y-140815682D01*
X109355745Y-140586612D01*
X109355729Y-140586594D01*
X109153405Y-140384270D01*
X109153387Y-140384254D01*
X108924317Y-140212775D01*
X108924309Y-140212770D01*
X108673166Y-140075635D01*
X108673167Y-140075635D01*
X108565914Y-140035632D01*
X108405046Y-139975631D01*
X108405043Y-139975630D01*
X108405037Y-139975628D01*
X108125433Y-139914804D01*
X107840001Y-139894390D01*
X107839999Y-139894390D01*
X107554566Y-139914804D01*
X107274962Y-139975628D01*
X107006833Y-140075635D01*
X106755690Y-140212770D01*
X106755682Y-140212775D01*
X106526612Y-140384254D01*
X106526594Y-140384270D01*
X106324270Y-140586594D01*
X106324254Y-140586612D01*
X106152775Y-140815682D01*
X106152770Y-140815690D01*
X106015635Y-141066833D01*
X105915628Y-141334962D01*
X105854804Y-141614566D01*
X105834390Y-141899998D01*
X105834390Y-141900001D01*
X104760500Y-141900001D01*
X104760499Y-140352128D01*
X104754091Y-140292517D01*
X104724347Y-140212770D01*
X104703797Y-140157671D01*
X104703793Y-140157664D01*
X104617547Y-140042455D01*
X104617544Y-140042452D01*
X104502335Y-139956206D01*
X104502328Y-139956202D01*
X104367482Y-139905908D01*
X104367483Y-139905908D01*
X104307883Y-139899501D01*
X104307881Y-139899500D01*
X104307873Y-139899500D01*
X104307865Y-139899500D01*
X101877887Y-139899500D01*
X101810848Y-139879815D01*
X101790206Y-139863181D01*
X100170819Y-138243794D01*
X100137334Y-138182471D01*
X100134500Y-138156113D01*
X100134500Y-131585261D01*
X100154185Y-131518222D01*
X100206989Y-131472467D01*
X100276147Y-131462523D01*
X100301833Y-131469079D01*
X100422517Y-131514091D01*
X100422516Y-131514091D01*
X100429444Y-131514835D01*
X100482127Y-131520500D01*
X101912113Y-131520499D01*
X101979152Y-131540184D01*
X101999794Y-131556818D01*
X102872990Y-132430014D01*
X102901830Y-132475282D01*
X102911162Y-132500921D01*
X102917392Y-132510393D01*
X102927648Y-132529414D01*
X102932135Y-132539817D01*
X102932137Y-132539820D01*
X102970607Y-132591495D01*
X102972676Y-132594449D01*
X103008085Y-132648285D01*
X103008087Y-132648287D01*
X103016324Y-132656058D01*
X103030699Y-132672212D01*
X103037454Y-132681286D01*
X103037460Y-132681293D01*
X103037461Y-132681294D01*
X103086825Y-132722715D01*
X103089495Y-132725091D01*
X103136377Y-132769322D01*
X103146186Y-132774985D01*
X103163893Y-132787383D01*
X103172573Y-132794667D01*
X103230166Y-132823590D01*
X103233316Y-132825289D01*
X103289124Y-132857510D01*
X103299979Y-132860759D01*
X103320062Y-132868738D01*
X103330189Y-132873824D01*
X103392909Y-132888689D01*
X103396355Y-132889612D01*
X103458091Y-132908095D01*
X103469394Y-132908753D01*
X103490781Y-132911885D01*
X103501812Y-132914500D01*
X103566253Y-132914500D01*
X103569854Y-132914604D01*
X103634169Y-132918351D01*
X103645325Y-132916383D01*
X103666856Y-132914500D01*
X111931752Y-132914500D01*
X111998791Y-132934185D01*
X112044546Y-132986989D01*
X112054490Y-133056147D01*
X112025465Y-133119703D01*
X111991261Y-133145519D01*
X111991957Y-133146724D01*
X111987265Y-133149432D01*
X111800858Y-133279954D01*
X111639954Y-133440858D01*
X111509432Y-133627265D01*
X111509431Y-133627267D01*
X111413261Y-133833502D01*
X111413258Y-133833511D01*
X111354366Y-134053302D01*
X111354364Y-134053313D01*
X111334532Y-134279998D01*
X111334532Y-134280001D01*
X111354364Y-134506686D01*
X111354366Y-134506697D01*
X111413258Y-134726488D01*
X111413261Y-134726497D01*
X111509431Y-134932732D01*
X111509432Y-134932734D01*
X111639954Y-135119141D01*
X111800858Y-135280045D01*
X111800861Y-135280047D01*
X111987266Y-135410568D01*
X112193504Y-135506739D01*
X112413308Y-135565635D01*
X112575230Y-135579801D01*
X112639998Y-135585468D01*
X112640000Y-135585468D01*
X112640002Y-135585468D01*
X112696673Y-135580509D01*
X112866692Y-135565635D01*
X113086496Y-135506739D01*
X113292734Y-135410568D01*
X113479139Y-135280047D01*
X113640047Y-135119139D01*
X113770568Y-134932734D01*
X113866739Y-134726496D01*
X113925635Y-134506692D01*
X113945468Y-134280000D01*
X113925635Y-134053308D01*
X113866739Y-133833504D01*
X113770568Y-133627266D01*
X113640047Y-133440861D01*
X113640045Y-133440858D01*
X113479141Y-133279954D01*
X113292734Y-133149432D01*
X113288043Y-133146724D01*
X113289080Y-133144927D01*
X113243403Y-133104708D01*
X113224252Y-133037514D01*
X113244469Y-132970633D01*
X113297635Y-132925299D01*
X113348248Y-132914500D01*
X119551752Y-132914500D01*
X119618791Y-132934185D01*
X119664546Y-132986989D01*
X119674490Y-133056147D01*
X119645465Y-133119703D01*
X119611261Y-133145519D01*
X119611957Y-133146724D01*
X119607265Y-133149432D01*
X119420858Y-133279954D01*
X119259954Y-133440858D01*
X119129432Y-133627265D01*
X119129431Y-133627267D01*
X119033261Y-133833502D01*
X119033258Y-133833511D01*
X118974366Y-134053302D01*
X118974364Y-134053313D01*
X118954532Y-134279998D01*
X118954532Y-134280001D01*
X118974364Y-134506686D01*
X118974366Y-134506697D01*
X119033258Y-134726488D01*
X119033261Y-134726497D01*
X119129431Y-134932732D01*
X119129432Y-134932734D01*
X119259954Y-135119141D01*
X119420858Y-135280045D01*
X119420861Y-135280047D01*
X119607266Y-135410568D01*
X119813504Y-135506739D01*
X120033308Y-135565635D01*
X120195230Y-135579801D01*
X120259998Y-135585468D01*
X120260000Y-135585468D01*
X120260002Y-135585468D01*
X120316673Y-135580509D01*
X120486692Y-135565635D01*
X120706496Y-135506739D01*
X120912734Y-135410568D01*
X121099139Y-135280047D01*
X121140047Y-135239139D01*
X121238368Y-135140819D01*
X121299691Y-135107334D01*
X121326049Y-135104500D01*
X124006138Y-135104500D01*
X124073177Y-135124185D01*
X124107713Y-135157377D01*
X124129954Y-135189141D01*
X124290858Y-135350045D01*
X124290861Y-135350047D01*
X124477266Y-135480568D01*
X124683504Y-135576739D01*
X124903308Y-135635635D01*
X125065230Y-135649801D01*
X125129998Y-135655468D01*
X125130000Y-135655468D01*
X125130002Y-135655468D01*
X125186673Y-135650509D01*
X125356692Y-135635635D01*
X125576496Y-135576739D01*
X125782734Y-135480568D01*
X125969139Y-135350047D01*
X126130047Y-135189139D01*
X126260568Y-135002734D01*
X126356739Y-134796496D01*
X126415635Y-134576692D01*
X126435468Y-134350000D01*
X126415635Y-134123308D01*
X126356739Y-133903504D01*
X126260568Y-133697266D01*
X126130047Y-133510861D01*
X126130045Y-133510858D01*
X125969141Y-133349954D01*
X125782734Y-133219432D01*
X125782732Y-133219431D01*
X125635729Y-133150882D01*
X125583290Y-133104709D01*
X125564138Y-133037516D01*
X125584354Y-132970635D01*
X125637519Y-132925300D01*
X125688134Y-132914500D01*
X130597339Y-132914500D01*
X130664378Y-132934185D01*
X130710133Y-132986989D01*
X130720077Y-133056147D01*
X130691052Y-133119703D01*
X130632274Y-133157477D01*
X130629432Y-133158275D01*
X130573511Y-133173258D01*
X130573502Y-133173261D01*
X130367267Y-133269431D01*
X130367265Y-133269432D01*
X130180858Y-133399954D01*
X130019954Y-133560858D01*
X129889432Y-133747265D01*
X129889431Y-133747267D01*
X129793261Y-133953502D01*
X129793258Y-133953511D01*
X129734366Y-134173302D01*
X129734364Y-134173313D01*
X129714532Y-134399998D01*
X129714532Y-134400001D01*
X129734364Y-134626686D01*
X129734366Y-134626697D01*
X129793258Y-134846488D01*
X129793261Y-134846497D01*
X129889431Y-135052732D01*
X129889432Y-135052734D01*
X130019954Y-135239141D01*
X130180858Y-135400045D01*
X130180861Y-135400047D01*
X130367266Y-135530568D01*
X130573504Y-135626739D01*
X130793308Y-135685635D01*
X130955230Y-135699801D01*
X131019998Y-135705468D01*
X131020000Y-135705468D01*
X131020002Y-135705468D01*
X131076673Y-135700509D01*
X131246692Y-135685635D01*
X131466496Y-135626739D01*
X131672734Y-135530568D01*
X131859139Y-135400047D01*
X132020047Y-135239139D01*
X132042286Y-135207377D01*
X132096863Y-135163752D01*
X132143862Y-135154500D01*
X134556000Y-135154500D01*
X134573969Y-135155809D01*
X134579350Y-135156596D01*
X134597906Y-135159315D01*
X134650248Y-135154735D01*
X134655649Y-135154500D01*
X134663934Y-135154500D01*
X134663941Y-135154500D01*
X134696674Y-135150674D01*
X134773612Y-135143943D01*
X134773615Y-135143941D01*
X134780693Y-135142481D01*
X134780704Y-135142535D01*
X134788163Y-135140881D01*
X134788151Y-135140827D01*
X134795178Y-135139160D01*
X134795184Y-135139160D01*
X134850191Y-135119139D01*
X134867740Y-135112752D01*
X134941034Y-135088465D01*
X134947581Y-135085412D01*
X134947604Y-135085462D01*
X134954498Y-135082125D01*
X134954473Y-135082075D01*
X134960916Y-135078838D01*
X134960924Y-135078836D01*
X135003937Y-135050545D01*
X135025443Y-135036401D01*
X135055051Y-135018138D01*
X135091154Y-134995870D01*
X135091159Y-134995864D01*
X135096823Y-134991387D01*
X135096857Y-134991430D01*
X135102782Y-134986604D01*
X135102747Y-134986562D01*
X135108283Y-134981916D01*
X135108282Y-134981916D01*
X135108285Y-134981915D01*
X135161271Y-134925752D01*
X136926120Y-133160902D01*
X136987441Y-133127419D01*
X137054750Y-133131543D01*
X137181343Y-133175841D01*
X137181347Y-133175841D01*
X137181351Y-133175842D01*
X137222750Y-133180506D01*
X137311442Y-133190499D01*
X137311445Y-133190500D01*
X137311448Y-133190500D01*
X137948555Y-133190500D01*
X137948556Y-133190499D01*
X138078657Y-133175841D01*
X138243606Y-133118122D01*
X138391576Y-133025147D01*
X138515147Y-132901576D01*
X138608122Y-132753606D01*
X138665841Y-132588657D01*
X138680500Y-132458552D01*
X138680500Y-131244499D01*
X138700185Y-131177460D01*
X138752989Y-131131705D01*
X138804500Y-131120499D01*
X139497871Y-131120499D01*
X139497872Y-131120499D01*
X139557483Y-131114091D01*
X139692331Y-131063796D01*
X139807546Y-130977546D01*
X139893796Y-130862331D01*
X139944091Y-130727483D01*
X139950500Y-130667873D01*
X139950499Y-128772128D01*
X139944091Y-128712517D01*
X139905266Y-128608423D01*
X139893797Y-128577671D01*
X139893793Y-128577664D01*
X139807547Y-128462455D01*
X139807544Y-128462452D01*
X139692335Y-128376206D01*
X139692328Y-128376202D01*
X139557482Y-128325908D01*
X139557483Y-128325908D01*
X139497883Y-128319501D01*
X139497881Y-128319500D01*
X139497873Y-128319500D01*
X139497865Y-128319500D01*
X139449504Y-128319500D01*
X139382465Y-128299815D01*
X139336710Y-128247011D01*
X139326766Y-128177853D01*
X139338694Y-128139849D01*
X139363820Y-128089819D01*
X139363820Y-128089818D01*
X139363824Y-128089811D01*
X139363826Y-128089802D01*
X139366293Y-128083024D01*
X139366346Y-128083043D01*
X139368858Y-128075815D01*
X139368807Y-128075798D01*
X139371077Y-128068945D01*
X139371077Y-128068943D01*
X139371079Y-128068940D01*
X139386695Y-127993310D01*
X139404500Y-127918188D01*
X139404500Y-127918183D01*
X139405338Y-127911015D01*
X139405392Y-127911021D01*
X139406170Y-127903405D01*
X139406117Y-127903401D01*
X139406746Y-127896210D01*
X139404500Y-127819018D01*
X139404500Y-105237473D01*
X139424185Y-105170434D01*
X139474697Y-105125754D01*
X139527704Y-105100228D01*
X139744479Y-104952433D01*
X139906118Y-104802454D01*
X139936801Y-104773985D01*
X139936801Y-104773983D01*
X139936805Y-104773981D01*
X140100386Y-104568857D01*
X140231568Y-104341643D01*
X140327420Y-104097416D01*
X140385802Y-103841630D01*
X140385803Y-103841620D01*
X140405408Y-103580004D01*
X140405408Y-103579995D01*
X140396698Y-103463766D01*
X140411317Y-103395443D01*
X140460555Y-103345870D01*
X140520351Y-103330500D01*
X140631182Y-103330500D01*
X140890615Y-103291396D01*
X141141323Y-103214063D01*
X141377704Y-103100228D01*
X141594479Y-102952433D01*
X141786805Y-102773981D01*
X141950386Y-102568857D01*
X142081568Y-102341643D01*
X142177420Y-102097416D01*
X142235802Y-101841630D01*
X142236870Y-101827377D01*
X142255408Y-101580004D01*
X142255408Y-101579995D01*
X142235803Y-101318379D01*
X142235802Y-101318374D01*
X142235802Y-101318370D01*
X142177420Y-101062584D01*
X142081568Y-100818357D01*
X141950386Y-100591143D01*
X141786805Y-100386019D01*
X141786804Y-100386018D01*
X141786801Y-100386014D01*
X141594479Y-100207567D01*
X141565357Y-100187712D01*
X141377704Y-100059772D01*
X141377700Y-100059770D01*
X141377697Y-100059768D01*
X141377696Y-100059767D01*
X141141325Y-99945938D01*
X141141327Y-99945938D01*
X140890623Y-99868606D01*
X140890619Y-99868605D01*
X140890615Y-99868604D01*
X140765823Y-99849794D01*
X140631187Y-99829500D01*
X140631182Y-99829500D01*
X140368818Y-99829500D01*
X140368812Y-99829500D01*
X140207247Y-99853853D01*
X140109385Y-99868604D01*
X140109381Y-99868605D01*
X140109382Y-99868605D01*
X140109376Y-99868606D01*
X139858673Y-99945938D01*
X139622303Y-100059767D01*
X139622302Y-100059768D01*
X139405520Y-100207567D01*
X139213198Y-100386014D01*
X139049614Y-100591143D01*
X138918432Y-100818356D01*
X138822582Y-101062578D01*
X138822576Y-101062597D01*
X138770891Y-101289047D01*
X138736782Y-101350026D01*
X138675121Y-101382884D01*
X138605484Y-101377189D01*
X138549980Y-101334749D01*
X138529109Y-101289047D01*
X138511066Y-101209998D01*
X138477420Y-101062584D01*
X138381568Y-100818357D01*
X138250386Y-100591143D01*
X138086805Y-100386019D01*
X138086804Y-100386018D01*
X138086801Y-100386014D01*
X137894479Y-100207567D01*
X137865357Y-100187712D01*
X137677704Y-100059772D01*
X137677700Y-100059770D01*
X137677697Y-100059768D01*
X137677696Y-100059767D01*
X137441325Y-99945938D01*
X137441327Y-99945938D01*
X137190623Y-99868606D01*
X137190619Y-99868605D01*
X137190615Y-99868604D01*
X137065823Y-99849794D01*
X136931187Y-99829500D01*
X136931182Y-99829500D01*
X136668818Y-99829500D01*
X136668812Y-99829500D01*
X136507247Y-99853853D01*
X136409385Y-99868604D01*
X136409381Y-99868605D01*
X136409382Y-99868605D01*
X136409376Y-99868606D01*
X136158673Y-99945938D01*
X135922303Y-100059767D01*
X135922302Y-100059768D01*
X135705520Y-100207567D01*
X135513198Y-100386014D01*
X135349614Y-100591143D01*
X135218432Y-100818356D01*
X135122582Y-101062578D01*
X135122576Y-101062597D01*
X135064197Y-101318374D01*
X135064196Y-101318379D01*
X135044592Y-101579995D01*
X135044592Y-101580004D01*
X135064196Y-101841620D01*
X135064197Y-101841625D01*
X135122576Y-102097402D01*
X135122578Y-102097411D01*
X135122580Y-102097416D01*
X135218432Y-102341643D01*
X135349614Y-102568857D01*
X135481736Y-102734533D01*
X135513198Y-102773985D01*
X135672457Y-102921754D01*
X135705521Y-102952433D01*
X135922296Y-103100228D01*
X135922301Y-103100230D01*
X135922302Y-103100231D01*
X135922303Y-103100232D01*
X136034225Y-103154130D01*
X136158673Y-103214061D01*
X136158674Y-103214061D01*
X136158677Y-103214063D01*
X136409385Y-103291396D01*
X136668818Y-103330500D01*
X136779649Y-103330500D01*
X136846688Y-103350185D01*
X136892443Y-103402989D01*
X136903302Y-103463766D01*
X136894592Y-103579995D01*
X136894592Y-103580004D01*
X136914196Y-103841620D01*
X136914197Y-103841625D01*
X136972576Y-104097402D01*
X136972578Y-104097411D01*
X136972580Y-104097416D01*
X137068432Y-104341643D01*
X137199614Y-104568857D01*
X137301117Y-104696138D01*
X137363198Y-104773985D01*
X137481261Y-104883530D01*
X137555521Y-104952433D01*
X137772296Y-105100228D01*
X137825302Y-105125754D01*
X137877160Y-105172574D01*
X137895500Y-105237473D01*
X137895500Y-127466113D01*
X137875815Y-127533152D01*
X137859181Y-127553794D01*
X137063880Y-128349094D01*
X137002557Y-128382579D01*
X136935244Y-128378454D01*
X136808659Y-128334159D01*
X136808648Y-128334157D01*
X136678558Y-128319500D01*
X136678552Y-128319500D01*
X136041448Y-128319500D01*
X136041441Y-128319500D01*
X135911351Y-128334157D01*
X135911341Y-128334159D01*
X135746395Y-128391877D01*
X135598423Y-128484853D01*
X135474853Y-128608423D01*
X135381877Y-128756395D01*
X135324159Y-128921341D01*
X135324157Y-128921351D01*
X135309500Y-129051441D01*
X135309500Y-130052113D01*
X135289815Y-130119152D01*
X135273181Y-130139794D01*
X134043795Y-131369181D01*
X133982472Y-131402666D01*
X133956114Y-131405500D01*
X120963338Y-131405500D01*
X120896299Y-131385815D01*
X120850544Y-131333011D01*
X120840600Y-131263853D01*
X120869625Y-131200297D01*
X120892213Y-131179926D01*
X121049139Y-131070047D01*
X121210047Y-130909139D01*
X121340568Y-130722734D01*
X121436739Y-130516496D01*
X121495635Y-130296692D01*
X121515468Y-130070000D01*
X121495635Y-129843308D01*
X121436739Y-129623504D01*
X121340568Y-129417266D01*
X121250480Y-129288606D01*
X121210048Y-129230862D01*
X121146433Y-129167247D01*
X121049139Y-129069953D01*
X121017374Y-129047710D01*
X120973751Y-128993135D01*
X120964500Y-128946138D01*
X120964500Y-124856206D01*
X120964500Y-120673985D01*
X120965808Y-120656032D01*
X120969315Y-120632094D01*
X120964735Y-120579753D01*
X120964500Y-120574350D01*
X120964500Y-120566066D01*
X120964500Y-120566059D01*
X120960674Y-120533325D01*
X120953943Y-120456388D01*
X120953941Y-120456383D01*
X120952483Y-120449319D01*
X120952537Y-120449307D01*
X120950881Y-120441837D01*
X120950827Y-120441850D01*
X120949160Y-120434822D01*
X120949160Y-120434816D01*
X120922752Y-120362260D01*
X120898464Y-120288964D01*
X120898461Y-120288960D01*
X120895412Y-120282419D01*
X120895461Y-120282395D01*
X120892128Y-120275509D01*
X120892079Y-120275534D01*
X120888835Y-120269075D01*
X120846400Y-120204555D01*
X120805872Y-120138849D01*
X120801392Y-120133183D01*
X120801434Y-120133149D01*
X120796597Y-120127211D01*
X120796556Y-120127246D01*
X120791912Y-120121711D01*
X120735752Y-120068728D01*
X118447171Y-117780147D01*
X118413686Y-117718824D01*
X118411324Y-117681662D01*
X118425468Y-117520000D01*
X118405635Y-117293308D01*
X118346739Y-117073504D01*
X118250568Y-116867266D01*
X118216463Y-116818558D01*
X122409500Y-116818558D01*
X122424157Y-116948648D01*
X122424159Y-116948658D01*
X122481497Y-117112517D01*
X122481878Y-117113606D01*
X122574853Y-117261576D01*
X122698424Y-117385147D01*
X122846394Y-117478122D01*
X123011343Y-117535841D01*
X123011349Y-117535841D01*
X123011351Y-117535842D01*
X123052750Y-117540506D01*
X123141442Y-117550499D01*
X123141445Y-117550500D01*
X123141448Y-117550500D01*
X123331500Y-117550500D01*
X123398539Y-117570185D01*
X123444294Y-117622989D01*
X123455500Y-117674500D01*
X123455499Y-125746003D01*
X123454190Y-125763972D01*
X123450685Y-125787902D01*
X123450684Y-125787909D01*
X123455264Y-125840241D01*
X123455500Y-125845648D01*
X123455500Y-125853946D01*
X123459325Y-125886674D01*
X123466056Y-125963610D01*
X123467516Y-125970677D01*
X123467464Y-125970687D01*
X123469123Y-125978167D01*
X123469174Y-125978155D01*
X123470839Y-125985180D01*
X123470839Y-125985182D01*
X123470840Y-125985184D01*
X123482397Y-126016938D01*
X123497247Y-126057740D01*
X123521535Y-126131034D01*
X123524586Y-126137575D01*
X123524536Y-126137598D01*
X123527876Y-126144497D01*
X123527925Y-126144473D01*
X123531165Y-126150925D01*
X123573599Y-126215444D01*
X123614131Y-126281156D01*
X123618611Y-126286822D01*
X123618569Y-126286855D01*
X123623401Y-126292786D01*
X123623443Y-126292752D01*
X123628081Y-126298280D01*
X123628085Y-126298285D01*
X123656166Y-126324778D01*
X123684247Y-126351272D01*
X123743537Y-126410561D01*
X123802828Y-126469852D01*
X123836312Y-126531173D01*
X123838674Y-126568338D01*
X123824532Y-126729996D01*
X123824532Y-126730001D01*
X123844364Y-126956686D01*
X123844366Y-126956697D01*
X123903258Y-127176488D01*
X123903261Y-127176497D01*
X123999431Y-127382732D01*
X123999432Y-127382734D01*
X124129954Y-127569141D01*
X124290858Y-127730045D01*
X124290861Y-127730047D01*
X124477266Y-127860568D01*
X124683504Y-127956739D01*
X124903308Y-128015635D01*
X125065230Y-128029801D01*
X125129998Y-128035468D01*
X125130000Y-128035468D01*
X125130002Y-128035468D01*
X125186673Y-128030509D01*
X125356692Y-128015635D01*
X125576496Y-127956739D01*
X125782734Y-127860568D01*
X125969139Y-127730047D01*
X126130047Y-127569139D01*
X126260568Y-127382734D01*
X126356739Y-127176496D01*
X126415635Y-126956692D01*
X126435468Y-126730000D01*
X126415635Y-126503308D01*
X126356739Y-126283504D01*
X126260568Y-126077266D01*
X126162839Y-125937693D01*
X126130045Y-125890858D01*
X125969141Y-125729954D01*
X125782734Y-125599432D01*
X125782732Y-125599431D01*
X125576497Y-125503261D01*
X125576488Y-125503258D01*
X125356697Y-125444366D01*
X125356693Y-125444365D01*
X125356692Y-125444365D01*
X125356691Y-125444364D01*
X125356686Y-125444364D01*
X125130002Y-125424532D01*
X125129998Y-125424532D01*
X125099307Y-125427217D01*
X125030807Y-125413450D01*
X124980624Y-125364835D01*
X124964500Y-125303689D01*
X124964500Y-118944499D01*
X124984185Y-118877460D01*
X125036989Y-118831705D01*
X125088500Y-118820499D01*
X126827871Y-118820499D01*
X126827872Y-118820499D01*
X126887483Y-118814091D01*
X127022331Y-118763796D01*
X127137546Y-118677546D01*
X127223796Y-118562331D01*
X127274091Y-118427483D01*
X127280500Y-118367873D01*
X127280499Y-117172128D01*
X127274091Y-117112517D01*
X127259539Y-117073502D01*
X127223797Y-116977671D01*
X127223793Y-116977664D01*
X127137547Y-116862455D01*
X127137544Y-116862452D01*
X127022335Y-116776206D01*
X127022328Y-116776202D01*
X126887482Y-116725908D01*
X126887483Y-116725908D01*
X126827883Y-116719501D01*
X126827881Y-116719500D01*
X126827873Y-116719500D01*
X126827865Y-116719500D01*
X125334500Y-116719500D01*
X125267461Y-116699815D01*
X125221706Y-116647011D01*
X125210500Y-116595500D01*
X125210500Y-116404500D01*
X125230185Y-116337461D01*
X125282989Y-116291706D01*
X125334500Y-116280500D01*
X126548555Y-116280500D01*
X126548556Y-116280499D01*
X126678657Y-116265841D01*
X126843606Y-116208122D01*
X126991576Y-116115147D01*
X127115147Y-115991576D01*
X127208122Y-115843606D01*
X127265841Y-115678657D01*
X127280500Y-115548552D01*
X127280500Y-114911448D01*
X127265841Y-114781343D01*
X127208122Y-114616394D01*
X127115147Y-114468424D01*
X126991576Y-114344853D01*
X126843606Y-114251878D01*
X126843605Y-114251877D01*
X126843604Y-114251877D01*
X126678658Y-114194159D01*
X126678648Y-114194157D01*
X126548558Y-114179500D01*
X126548552Y-114179500D01*
X125211448Y-114179500D01*
X125211441Y-114179500D01*
X125081351Y-114194157D01*
X125081341Y-114194159D01*
X124916395Y-114251877D01*
X124768423Y-114344853D01*
X124644853Y-114468423D01*
X124551877Y-114616395D01*
X124494159Y-114781341D01*
X124494157Y-114781351D01*
X124479500Y-114911441D01*
X124479500Y-115325500D01*
X124459815Y-115392539D01*
X124407011Y-115438294D01*
X124355500Y-115449500D01*
X123141441Y-115449500D01*
X123011351Y-115464157D01*
X123011341Y-115464159D01*
X122846395Y-115521877D01*
X122698423Y-115614853D01*
X122574853Y-115738423D01*
X122481877Y-115886395D01*
X122424159Y-116051341D01*
X122424157Y-116051351D01*
X122409500Y-116181441D01*
X122409500Y-116818558D01*
X118216463Y-116818558D01*
X118120047Y-116680861D01*
X118120045Y-116680858D01*
X117959141Y-116519954D01*
X117772734Y-116389432D01*
X117772732Y-116389431D01*
X117566497Y-116293261D01*
X117566488Y-116293258D01*
X117346697Y-116234366D01*
X117346693Y-116234365D01*
X117346692Y-116234365D01*
X117346691Y-116234364D01*
X117346686Y-116234364D01*
X117120002Y-116214532D01*
X117119997Y-116214532D01*
X116958339Y-116228674D01*
X116889840Y-116214907D01*
X116859852Y-116192827D01*
X115340818Y-114673793D01*
X115307333Y-114612470D01*
X115304499Y-114586112D01*
X115304499Y-112440001D01*
X115814532Y-112440001D01*
X115834364Y-112666686D01*
X115834366Y-112666697D01*
X115893258Y-112886488D01*
X115893261Y-112886497D01*
X115989431Y-113092732D01*
X115989432Y-113092734D01*
X116119954Y-113279141D01*
X116280858Y-113440045D01*
X116280861Y-113440047D01*
X116467266Y-113570568D01*
X116673504Y-113666739D01*
X116893308Y-113725635D01*
X117033052Y-113737861D01*
X117119998Y-113745468D01*
X117120000Y-113745468D01*
X117120002Y-113745468D01*
X117176796Y-113740499D01*
X117346692Y-113725635D01*
X117566496Y-113666739D01*
X117772734Y-113570568D01*
X117959139Y-113440047D01*
X118120047Y-113279139D01*
X118250568Y-113092734D01*
X118346739Y-112886496D01*
X118405635Y-112666692D01*
X118425468Y-112440000D01*
X118405635Y-112213308D01*
X118346739Y-111993504D01*
X118250568Y-111787266D01*
X118120047Y-111600861D01*
X118120045Y-111600858D01*
X117959141Y-111439954D01*
X117772734Y-111309432D01*
X117772732Y-111309431D01*
X117566497Y-111213261D01*
X117566488Y-111213258D01*
X117346697Y-111154366D01*
X117346693Y-111154365D01*
X117346692Y-111154365D01*
X117346691Y-111154364D01*
X117346686Y-111154364D01*
X117120002Y-111134532D01*
X117119998Y-111134532D01*
X116893313Y-111154364D01*
X116893302Y-111154366D01*
X116673511Y-111213258D01*
X116673502Y-111213261D01*
X116467267Y-111309431D01*
X116467265Y-111309432D01*
X116280858Y-111439954D01*
X116119954Y-111600858D01*
X115989432Y-111787265D01*
X115989431Y-111787267D01*
X115893261Y-111993502D01*
X115893258Y-111993511D01*
X115834366Y-112213302D01*
X115834364Y-112213313D01*
X115814532Y-112439998D01*
X115814532Y-112440001D01*
X115304499Y-112440001D01*
X115304499Y-111532516D01*
X115304499Y-108423857D01*
X115324184Y-108356822D01*
X115357372Y-108322289D01*
X115389139Y-108300047D01*
X115550047Y-108139139D01*
X115680568Y-107952734D01*
X115776739Y-107746496D01*
X115835635Y-107526692D01*
X115855468Y-107300000D01*
X115835635Y-107073308D01*
X115776739Y-106853504D01*
X115680568Y-106647266D01*
X115566744Y-106484707D01*
X115550045Y-106460858D01*
X115405368Y-106316181D01*
X115371883Y-106254858D01*
X115376867Y-106185166D01*
X115418739Y-106129233D01*
X115484203Y-106104816D01*
X115493049Y-106104500D01*
X117841500Y-106104500D01*
X117908539Y-106124185D01*
X117954294Y-106176989D01*
X117965500Y-106228500D01*
X117965500Y-108706000D01*
X117964191Y-108723969D01*
X117960684Y-108747908D01*
X117965264Y-108800241D01*
X117965500Y-108805648D01*
X117965500Y-108813946D01*
X117969325Y-108846674D01*
X117976056Y-108923610D01*
X117977516Y-108930677D01*
X117977464Y-108930687D01*
X117979123Y-108938167D01*
X117979174Y-108938155D01*
X117980839Y-108945180D01*
X117980839Y-108945182D01*
X117980840Y-108945184D01*
X117993423Y-108979756D01*
X118007247Y-109017740D01*
X118031535Y-109091034D01*
X118034586Y-109097575D01*
X118034536Y-109097598D01*
X118037876Y-109104497D01*
X118037925Y-109104473D01*
X118041165Y-109110925D01*
X118083599Y-109175444D01*
X118124131Y-109241156D01*
X118128611Y-109246822D01*
X118128569Y-109246855D01*
X118133401Y-109252786D01*
X118133443Y-109252752D01*
X118138081Y-109258280D01*
X118138085Y-109258285D01*
X118146603Y-109266321D01*
X118194247Y-109311272D01*
X121851234Y-112968258D01*
X121863015Y-112981890D01*
X121877461Y-113001294D01*
X121917715Y-113035071D01*
X121921687Y-113038711D01*
X121927559Y-113044583D01*
X121953415Y-113065027D01*
X122012572Y-113114667D01*
X122018609Y-113118637D01*
X122018579Y-113118682D01*
X122025038Y-113122796D01*
X122025067Y-113122750D01*
X122031206Y-113126537D01*
X122031209Y-113126539D01*
X122101191Y-113159172D01*
X122170189Y-113193824D01*
X122170194Y-113193825D01*
X122176979Y-113196295D01*
X122176960Y-113196347D01*
X122184188Y-113198859D01*
X122184206Y-113198808D01*
X122191057Y-113201077D01*
X122191060Y-113201079D01*
X122266677Y-113216692D01*
X122341812Y-113234500D01*
X122341821Y-113234500D01*
X122348985Y-113235338D01*
X122348978Y-113235391D01*
X122356595Y-113236169D01*
X122356600Y-113236116D01*
X122363789Y-113236745D01*
X122363792Y-113236744D01*
X122363793Y-113236745D01*
X122440947Y-113234500D01*
X129796138Y-113234500D01*
X129863177Y-113254185D01*
X129897713Y-113287377D01*
X129919954Y-113319141D01*
X130080858Y-113480045D01*
X130127693Y-113512839D01*
X130267266Y-113610568D01*
X130473504Y-113706739D01*
X130693308Y-113765635D01*
X130855230Y-113779801D01*
X130919998Y-113785468D01*
X130920000Y-113785468D01*
X130920001Y-113785468D01*
X130939220Y-113783786D01*
X131081660Y-113771324D01*
X131150158Y-113785090D01*
X131180147Y-113807171D01*
X132219181Y-114846205D01*
X132252666Y-114907528D01*
X132255500Y-114933886D01*
X132255500Y-119346661D01*
X132235815Y-119413700D01*
X132183011Y-119459455D01*
X132113853Y-119469399D01*
X132050297Y-119440374D01*
X132029925Y-119417784D01*
X131920045Y-119260858D01*
X131759141Y-119099954D01*
X131572734Y-118969432D01*
X131572732Y-118969431D01*
X131366497Y-118873261D01*
X131366488Y-118873258D01*
X131146697Y-118814366D01*
X131146693Y-118814365D01*
X131146692Y-118814365D01*
X131146691Y-118814364D01*
X131146686Y-118814364D01*
X130920002Y-118794532D01*
X130919998Y-118794532D01*
X130693313Y-118814364D01*
X130693302Y-118814366D01*
X130473511Y-118873258D01*
X130473502Y-118873261D01*
X130267267Y-118969431D01*
X130267265Y-118969432D01*
X130080858Y-119099954D01*
X129919954Y-119260858D01*
X129789432Y-119447265D01*
X129789431Y-119447267D01*
X129693261Y-119653502D01*
X129693258Y-119653511D01*
X129634366Y-119873302D01*
X129634364Y-119873313D01*
X129614532Y-120099998D01*
X129614532Y-120100001D01*
X129634364Y-120326686D01*
X129634366Y-120326697D01*
X129693258Y-120546488D01*
X129693261Y-120546497D01*
X129789431Y-120752732D01*
X129789432Y-120752734D01*
X129919954Y-120939141D01*
X130080858Y-121100045D01*
X130080861Y-121100047D01*
X130267266Y-121230568D01*
X130473504Y-121326739D01*
X130693308Y-121385635D01*
X130855230Y-121399801D01*
X130919998Y-121405468D01*
X130920000Y-121405468D01*
X130920002Y-121405468D01*
X130976673Y-121400509D01*
X131146692Y-121385635D01*
X131366496Y-121326739D01*
X131572734Y-121230568D01*
X131759139Y-121100047D01*
X131920047Y-120939139D01*
X132029925Y-120782214D01*
X132084501Y-120738590D01*
X132154000Y-120731396D01*
X132216354Y-120762918D01*
X132251769Y-120823148D01*
X132255500Y-120853338D01*
X132255500Y-124426113D01*
X132235815Y-124493152D01*
X132219181Y-124513794D01*
X131280147Y-125452827D01*
X131218824Y-125486312D01*
X131181660Y-125488674D01*
X131020003Y-125474532D01*
X131019998Y-125474532D01*
X130793313Y-125494364D01*
X130793302Y-125494366D01*
X130573511Y-125553258D01*
X130573502Y-125553261D01*
X130367267Y-125649431D01*
X130367265Y-125649432D01*
X130180858Y-125779954D01*
X130019954Y-125940858D01*
X129889432Y-126127265D01*
X129889431Y-126127267D01*
X129793261Y-126333502D01*
X129793258Y-126333511D01*
X129734366Y-126553302D01*
X129734364Y-126553313D01*
X129714532Y-126779998D01*
X129714532Y-126780001D01*
X129734364Y-127006686D01*
X129734366Y-127006697D01*
X129793258Y-127226488D01*
X129793261Y-127226497D01*
X129889431Y-127432732D01*
X129889432Y-127432734D01*
X130019954Y-127619141D01*
X130180858Y-127780045D01*
X130180861Y-127780047D01*
X130367266Y-127910568D01*
X130573504Y-128006739D01*
X130793308Y-128065635D01*
X130946151Y-128079007D01*
X131019998Y-128085468D01*
X131020000Y-128085468D01*
X131020002Y-128085468D01*
X131093849Y-128079007D01*
X131246692Y-128065635D01*
X131466496Y-128006739D01*
X131672734Y-127910568D01*
X131859139Y-127780047D01*
X132020047Y-127619139D01*
X132150568Y-127432734D01*
X132246739Y-127226496D01*
X132305635Y-127006692D01*
X132325468Y-126780000D01*
X132311324Y-126618338D01*
X132325090Y-126549840D01*
X132347168Y-126519854D01*
X133498264Y-125368758D01*
X133511883Y-125356988D01*
X133531294Y-125342539D01*
X133565075Y-125302279D01*
X133568709Y-125298313D01*
X133574583Y-125292441D01*
X133595027Y-125266584D01*
X133644667Y-125207427D01*
X133644669Y-125207422D01*
X133648637Y-125201390D01*
X133648683Y-125201420D01*
X133652795Y-125194965D01*
X133652748Y-125194936D01*
X133656532Y-125188799D01*
X133656539Y-125188791D01*
X133689172Y-125118808D01*
X133723824Y-125049811D01*
X133723826Y-125049799D01*
X133726293Y-125043024D01*
X133726346Y-125043043D01*
X133728858Y-125035815D01*
X133728807Y-125035798D01*
X133731077Y-125028945D01*
X133731077Y-125028943D01*
X133731079Y-125028940D01*
X133746695Y-124953310D01*
X133764500Y-124878188D01*
X133764500Y-124878183D01*
X133765338Y-124871015D01*
X133765392Y-124871021D01*
X133766170Y-124863405D01*
X133766117Y-124863401D01*
X133766746Y-124856210D01*
X133764500Y-124779018D01*
X133764500Y-114633993D01*
X133765809Y-114616021D01*
X133767091Y-114607266D01*
X133769314Y-114592093D01*
X133764734Y-114539758D01*
X133764499Y-114534349D01*
X133764499Y-114533502D01*
X133764500Y-114526059D01*
X133760672Y-114493312D01*
X133753943Y-114416388D01*
X133753942Y-114416386D01*
X133752483Y-114409318D01*
X133752537Y-114409306D01*
X133750881Y-114401837D01*
X133750827Y-114401850D01*
X133749160Y-114394822D01*
X133749160Y-114394816D01*
X133722752Y-114322260D01*
X133698464Y-114248964D01*
X133698461Y-114248960D01*
X133695412Y-114242419D01*
X133695461Y-114242395D01*
X133692128Y-114235509D01*
X133692079Y-114235534D01*
X133688835Y-114229075D01*
X133682082Y-114218808D01*
X133646400Y-114164555D01*
X133633131Y-114143043D01*
X133605872Y-114098849D01*
X133601392Y-114093183D01*
X133601434Y-114093149D01*
X133596597Y-114087211D01*
X133596556Y-114087246D01*
X133591912Y-114081711D01*
X133535752Y-114028728D01*
X132247171Y-112740147D01*
X132213686Y-112678824D01*
X132211324Y-112641662D01*
X132225468Y-112480000D01*
X132221968Y-112440000D01*
X132216877Y-112381806D01*
X132205635Y-112253308D01*
X132146739Y-112033504D01*
X132050568Y-111827266D01*
X131942287Y-111672623D01*
X131920045Y-111640858D01*
X131759141Y-111479954D01*
X131572734Y-111349432D01*
X131572732Y-111349431D01*
X131366497Y-111253261D01*
X131366488Y-111253258D01*
X131146697Y-111194366D01*
X131146693Y-111194365D01*
X131146692Y-111194365D01*
X131146691Y-111194364D01*
X131146686Y-111194364D01*
X130920002Y-111174532D01*
X130919998Y-111174532D01*
X130693313Y-111194364D01*
X130693302Y-111194366D01*
X130473511Y-111253258D01*
X130473502Y-111253261D01*
X130267267Y-111349431D01*
X130267265Y-111349432D01*
X130080858Y-111479954D01*
X129919954Y-111640858D01*
X129897713Y-111672623D01*
X129843137Y-111716248D01*
X129796138Y-111725500D01*
X122793886Y-111725500D01*
X122726847Y-111705815D01*
X122706205Y-111689181D01*
X119510819Y-108493795D01*
X119477334Y-108432472D01*
X119474500Y-108406114D01*
X119474500Y-107580001D01*
X121244532Y-107580001D01*
X121264364Y-107806686D01*
X121264366Y-107806697D01*
X121323258Y-108026488D01*
X121323261Y-108026497D01*
X121419431Y-108232732D01*
X121419432Y-108232734D01*
X121549954Y-108419141D01*
X121710858Y-108580045D01*
X121710861Y-108580047D01*
X121897266Y-108710568D01*
X122103504Y-108806739D01*
X122323308Y-108865635D01*
X122485230Y-108879801D01*
X122549998Y-108885468D01*
X122550000Y-108885468D01*
X122550002Y-108885468D01*
X122606673Y-108880509D01*
X122776692Y-108865635D01*
X122996496Y-108806739D01*
X123202734Y-108710568D01*
X123389139Y-108580047D01*
X123550047Y-108419139D01*
X123680568Y-108232734D01*
X123687618Y-108217614D01*
X123733789Y-108165176D01*
X123800982Y-108146023D01*
X123867864Y-108166238D01*
X123912381Y-108217614D01*
X123919432Y-108232733D01*
X123919432Y-108232734D01*
X124049954Y-108419141D01*
X124210858Y-108580045D01*
X124210861Y-108580047D01*
X124397266Y-108710568D01*
X124603504Y-108806739D01*
X124823308Y-108865635D01*
X124985230Y-108879801D01*
X125049998Y-108885468D01*
X125050000Y-108885468D01*
X125050002Y-108885468D01*
X125106673Y-108880509D01*
X125276692Y-108865635D01*
X125496496Y-108806739D01*
X125702734Y-108710568D01*
X125889139Y-108580047D01*
X126050047Y-108419139D01*
X126180568Y-108232734D01*
X126276739Y-108026496D01*
X126335635Y-107806692D01*
X126355468Y-107580000D01*
X126341324Y-107418338D01*
X126355090Y-107349840D01*
X126377168Y-107319854D01*
X129156204Y-104540819D01*
X129217528Y-104507334D01*
X129243886Y-104504500D01*
X129356138Y-104504500D01*
X129423177Y-104524185D01*
X129457713Y-104557377D01*
X129479954Y-104589141D01*
X129640858Y-104750045D01*
X129640861Y-104750047D01*
X129827266Y-104880568D01*
X130033504Y-104976739D01*
X130033509Y-104976740D01*
X130033511Y-104976741D01*
X130048891Y-104980862D01*
X130253308Y-105035635D01*
X130415230Y-105049801D01*
X130479998Y-105055468D01*
X130480000Y-105055468D01*
X130480002Y-105055468D01*
X130537459Y-105050441D01*
X130706692Y-105035635D01*
X130926496Y-104976739D01*
X131132734Y-104880568D01*
X131319139Y-104750047D01*
X131480047Y-104589139D01*
X131610568Y-104402734D01*
X131706739Y-104196496D01*
X131765635Y-103976692D01*
X131775767Y-103860872D01*
X131801219Y-103795806D01*
X131857810Y-103754828D01*
X131927572Y-103750949D01*
X131986974Y-103783999D01*
X132099182Y-103896207D01*
X132132665Y-103957526D01*
X132135499Y-103983885D01*
X132135499Y-105196113D01*
X132115814Y-105263152D01*
X132099180Y-105283794D01*
X131150147Y-106232827D01*
X131088824Y-106266312D01*
X131051660Y-106268674D01*
X130890003Y-106254532D01*
X130889998Y-106254532D01*
X130663313Y-106274364D01*
X130663302Y-106274366D01*
X130443511Y-106333258D01*
X130443502Y-106333261D01*
X130237267Y-106429431D01*
X130237265Y-106429432D01*
X130050858Y-106559954D01*
X129889954Y-106720858D01*
X129759433Y-106907264D01*
X129759432Y-106907266D01*
X129752380Y-106922387D01*
X129706209Y-106974825D01*
X129639015Y-106993976D01*
X129572134Y-106973760D01*
X129527619Y-106922387D01*
X129520568Y-106907266D01*
X129390047Y-106720861D01*
X129390045Y-106720858D01*
X129229141Y-106559954D01*
X129042734Y-106429432D01*
X129042732Y-106429431D01*
X128836497Y-106333261D01*
X128836488Y-106333258D01*
X128616697Y-106274366D01*
X128616693Y-106274365D01*
X128616692Y-106274365D01*
X128616691Y-106274364D01*
X128616686Y-106274364D01*
X128390002Y-106254532D01*
X128389998Y-106254532D01*
X128163313Y-106274364D01*
X128163302Y-106274366D01*
X127943511Y-106333258D01*
X127943502Y-106333261D01*
X127737267Y-106429431D01*
X127737265Y-106429432D01*
X127550858Y-106559954D01*
X127389954Y-106720858D01*
X127259432Y-106907265D01*
X127259431Y-106907267D01*
X127163261Y-107113502D01*
X127163258Y-107113511D01*
X127104366Y-107333302D01*
X127104364Y-107333313D01*
X127084532Y-107559998D01*
X127084532Y-107560001D01*
X127104364Y-107786686D01*
X127104366Y-107786697D01*
X127163258Y-108006488D01*
X127163261Y-108006497D01*
X127259431Y-108212732D01*
X127259432Y-108212734D01*
X127389954Y-108399141D01*
X127550858Y-108560045D01*
X127550861Y-108560047D01*
X127737266Y-108690568D01*
X127943504Y-108786739D01*
X128163308Y-108845635D01*
X128325230Y-108859801D01*
X128389998Y-108865468D01*
X128390000Y-108865468D01*
X128390002Y-108865468D01*
X128446673Y-108860509D01*
X128616692Y-108845635D01*
X128836496Y-108786739D01*
X129042734Y-108690568D01*
X129229139Y-108560047D01*
X129390047Y-108399139D01*
X129520568Y-108212734D01*
X129527618Y-108197614D01*
X129573789Y-108145176D01*
X129640982Y-108126023D01*
X129707864Y-108146238D01*
X129752381Y-108197614D01*
X129759432Y-108212733D01*
X129759432Y-108212734D01*
X129889954Y-108399141D01*
X130050858Y-108560045D01*
X130050861Y-108560047D01*
X130237266Y-108690568D01*
X130443504Y-108786739D01*
X130663308Y-108845635D01*
X130825230Y-108859801D01*
X130889998Y-108865468D01*
X130890000Y-108865468D01*
X130890001Y-108865468D01*
X130909220Y-108863786D01*
X131051660Y-108851324D01*
X131120158Y-108865090D01*
X131150147Y-108887171D01*
X134644782Y-112381806D01*
X134678267Y-112443129D01*
X134680629Y-112480292D01*
X134674532Y-112549995D01*
X134674532Y-112550001D01*
X134694364Y-112776686D01*
X134694366Y-112776697D01*
X134753258Y-112996488D01*
X134753261Y-112996497D01*
X134849431Y-113202732D01*
X134849432Y-113202734D01*
X134979954Y-113389141D01*
X135140858Y-113550045D01*
X135140861Y-113550047D01*
X135327266Y-113680568D01*
X135533504Y-113776739D01*
X135533509Y-113776740D01*
X135533511Y-113776741D01*
X135566081Y-113785468D01*
X135753308Y-113835635D01*
X135911008Y-113849432D01*
X135979998Y-113855468D01*
X135980000Y-113855468D01*
X135980002Y-113855468D01*
X136036673Y-113850509D01*
X136206692Y-113835635D01*
X136426496Y-113776739D01*
X136632734Y-113680568D01*
X136819139Y-113550047D01*
X136980047Y-113389139D01*
X137110568Y-113202734D01*
X137206739Y-112996496D01*
X137265635Y-112776692D01*
X137285468Y-112550000D01*
X137265635Y-112323308D01*
X137206739Y-112103504D01*
X137110568Y-111897266D01*
X136980047Y-111710861D01*
X136980045Y-111710858D01*
X136819141Y-111549954D01*
X136632734Y-111419432D01*
X136632732Y-111419431D01*
X136426497Y-111323261D01*
X136426488Y-111323258D01*
X136206697Y-111264366D01*
X136206693Y-111264365D01*
X136206692Y-111264365D01*
X136206691Y-111264364D01*
X136206686Y-111264364D01*
X135980002Y-111244532D01*
X135979999Y-111244532D01*
X135753313Y-111264364D01*
X135753299Y-111264367D01*
X135749951Y-111265264D01*
X135748420Y-111265227D01*
X135747975Y-111265306D01*
X135747959Y-111265216D01*
X135680101Y-111263592D01*
X135630191Y-111233166D01*
X132217171Y-107820146D01*
X132183686Y-107758823D01*
X132181324Y-107721661D01*
X132195468Y-107560000D01*
X132181324Y-107398338D01*
X132195090Y-107329840D01*
X132217168Y-107299854D01*
X133378264Y-106138758D01*
X133391883Y-106126988D01*
X133411294Y-106112539D01*
X133445075Y-106072279D01*
X133448709Y-106068313D01*
X133454583Y-106062441D01*
X133475027Y-106036584D01*
X133524667Y-105977427D01*
X133524669Y-105977422D01*
X133528637Y-105971390D01*
X133528683Y-105971420D01*
X133532795Y-105964965D01*
X133532748Y-105964936D01*
X133536532Y-105958799D01*
X133536539Y-105958791D01*
X133569172Y-105888808D01*
X133603824Y-105819811D01*
X133603826Y-105819799D01*
X133606293Y-105813024D01*
X133606346Y-105813043D01*
X133608858Y-105805815D01*
X133608807Y-105805798D01*
X133611077Y-105798945D01*
X133611077Y-105798943D01*
X133611079Y-105798940D01*
X133626695Y-105723310D01*
X133644500Y-105648188D01*
X133644500Y-105648183D01*
X133645338Y-105641015D01*
X133645392Y-105641021D01*
X133646170Y-105633405D01*
X133646117Y-105633401D01*
X133646746Y-105626210D01*
X133645788Y-105593302D01*
X133644500Y-105549018D01*
X133644500Y-103683985D01*
X133645808Y-103666032D01*
X133649315Y-103642094D01*
X133644735Y-103589753D01*
X133644500Y-103584350D01*
X133644500Y-103576066D01*
X133644500Y-103576059D01*
X133640674Y-103543325D01*
X133633943Y-103466388D01*
X133633941Y-103466383D01*
X133632483Y-103459319D01*
X133632536Y-103459307D01*
X133630878Y-103451827D01*
X133630824Y-103451840D01*
X133629160Y-103444822D01*
X133629160Y-103444816D01*
X133602749Y-103372254D01*
X133578464Y-103298965D01*
X133578461Y-103298961D01*
X133578461Y-103298959D01*
X133575409Y-103292412D01*
X133575458Y-103292389D01*
X133572125Y-103285504D01*
X133572076Y-103285529D01*
X133568838Y-103279083D01*
X133568836Y-103279076D01*
X133526405Y-103214563D01*
X133494874Y-103163442D01*
X133485872Y-103148847D01*
X133481394Y-103143184D01*
X133481436Y-103143150D01*
X133476597Y-103137210D01*
X133476556Y-103137246D01*
X133471912Y-103131711D01*
X133415770Y-103078745D01*
X131807171Y-101470146D01*
X131773686Y-101408823D01*
X131771324Y-101371660D01*
X131785468Y-101210000D01*
X131765635Y-100983308D01*
X131706739Y-100763504D01*
X131610568Y-100557266D01*
X131480047Y-100370861D01*
X131319139Y-100209953D01*
X131287374Y-100187710D01*
X131243751Y-100133135D01*
X131234500Y-100086138D01*
X131234500Y-99793861D01*
X131254185Y-99726822D01*
X131287375Y-99692287D01*
X131319139Y-99670047D01*
X131480047Y-99509139D01*
X131610568Y-99322734D01*
X131706739Y-99116496D01*
X131765635Y-98896692D01*
X131785468Y-98670000D01*
X131765635Y-98443308D01*
X131706739Y-98223504D01*
X131610568Y-98017266D01*
X131582983Y-97977870D01*
X136874500Y-97977870D01*
X136874501Y-97977876D01*
X136880908Y-98037483D01*
X136931202Y-98172328D01*
X136931206Y-98172335D01*
X137017452Y-98287544D01*
X137017455Y-98287547D01*
X137132664Y-98373793D01*
X137132671Y-98373797D01*
X137177618Y-98390561D01*
X137267517Y-98424091D01*
X137327127Y-98430500D01*
X137828925Y-98430499D01*
X137895963Y-98450183D01*
X137941718Y-98502987D01*
X137951662Y-98572146D01*
X137931558Y-98624085D01*
X137894140Y-98679272D01*
X137894139Y-98679274D01*
X137825669Y-98851122D01*
X137795740Y-99033685D01*
X137805755Y-99218406D01*
X137805755Y-99218411D01*
X137855244Y-99396656D01*
X137855247Y-99396662D01*
X137941898Y-99560102D01*
X138054175Y-99692285D01*
X138061663Y-99701100D01*
X138208936Y-99813054D01*
X138376833Y-99890732D01*
X138376834Y-99890732D01*
X138376836Y-99890733D01*
X138404123Y-99896739D01*
X138557503Y-99930500D01*
X138557506Y-99930500D01*
X138696107Y-99930500D01*
X138696113Y-99930500D01*
X138833910Y-99915514D01*
X139009221Y-99856444D01*
X139167736Y-99761070D01*
X139302041Y-99633849D01*
X139405858Y-99480730D01*
X139474331Y-99308875D01*
X139504260Y-99126317D01*
X139494245Y-98941593D01*
X139481780Y-98896697D01*
X139444755Y-98763343D01*
X139444752Y-98763337D01*
X139364826Y-98612582D01*
X139350815Y-98544132D01*
X139376036Y-98478973D01*
X139432480Y-98437793D01*
X139474381Y-98430499D01*
X139972871Y-98430499D01*
X139972872Y-98430499D01*
X140032483Y-98424091D01*
X140167331Y-98373796D01*
X140282546Y-98287546D01*
X140368796Y-98172331D01*
X140419091Y-98037483D01*
X140425500Y-97977873D01*
X140425499Y-95382128D01*
X140419091Y-95322517D01*
X140405943Y-95287266D01*
X140368797Y-95187671D01*
X140368793Y-95187664D01*
X140282547Y-95072455D01*
X140282544Y-95072452D01*
X140167335Y-94986206D01*
X140167328Y-94986202D01*
X140032482Y-94935908D01*
X140032483Y-94935908D01*
X139972883Y-94929501D01*
X139972881Y-94929500D01*
X139972873Y-94929500D01*
X139972864Y-94929500D01*
X137327129Y-94929500D01*
X137327123Y-94929501D01*
X137267516Y-94935908D01*
X137132671Y-94986202D01*
X137132664Y-94986206D01*
X137017455Y-95072452D01*
X137017452Y-95072455D01*
X136931206Y-95187664D01*
X136931202Y-95187671D01*
X136880908Y-95322517D01*
X136874501Y-95382116D01*
X136874501Y-95382123D01*
X136874500Y-95382135D01*
X136874500Y-97977870D01*
X131582983Y-97977870D01*
X131480047Y-97830861D01*
X131480045Y-97830858D01*
X131319141Y-97669954D01*
X131132734Y-97539432D01*
X131132732Y-97539431D01*
X130926497Y-97443261D01*
X130926488Y-97443258D01*
X130706697Y-97384366D01*
X130706693Y-97384365D01*
X130706692Y-97384365D01*
X130706691Y-97384364D01*
X130706686Y-97384364D01*
X130480002Y-97364532D01*
X130479998Y-97364532D01*
X130253313Y-97384364D01*
X130253302Y-97384366D01*
X130033511Y-97443258D01*
X130033502Y-97443261D01*
X129827267Y-97539431D01*
X129827265Y-97539432D01*
X129640858Y-97669954D01*
X129479954Y-97830858D01*
X129349432Y-98017265D01*
X129349431Y-98017267D01*
X129253261Y-98223502D01*
X129253258Y-98223511D01*
X129194366Y-98443302D01*
X129194364Y-98443313D01*
X129174532Y-98669998D01*
X129174532Y-98670001D01*
X129194364Y-98896686D01*
X129194366Y-98896697D01*
X129253258Y-99116488D01*
X129253261Y-99116497D01*
X129349431Y-99322732D01*
X129349432Y-99322734D01*
X129479954Y-99509141D01*
X129640857Y-99670044D01*
X129640860Y-99670046D01*
X129640861Y-99670047D01*
X129672619Y-99692284D01*
X129672621Y-99692285D01*
X129716247Y-99746862D01*
X129725499Y-99793861D01*
X129725500Y-100086138D01*
X129705816Y-100153177D01*
X129672626Y-100187710D01*
X129644269Y-100207567D01*
X129640861Y-100209953D01*
X129479951Y-100370862D01*
X129349432Y-100557265D01*
X129349431Y-100557267D01*
X129253261Y-100763502D01*
X129253258Y-100763511D01*
X129194366Y-100983302D01*
X129194364Y-100983313D01*
X129174532Y-101209998D01*
X129174532Y-101210001D01*
X129194364Y-101436686D01*
X129194366Y-101436697D01*
X129253258Y-101656488D01*
X129253261Y-101656497D01*
X129349431Y-101862732D01*
X129349432Y-101862734D01*
X129479954Y-102049141D01*
X129640858Y-102210045D01*
X129640861Y-102210047D01*
X129827266Y-102340568D01*
X129877068Y-102363791D01*
X129885275Y-102367618D01*
X129937714Y-102413791D01*
X129956866Y-102480984D01*
X129936650Y-102547865D01*
X129885275Y-102592382D01*
X129827267Y-102619431D01*
X129827265Y-102619432D01*
X129640858Y-102749954D01*
X129479954Y-102910858D01*
X129457713Y-102942623D01*
X129403137Y-102986248D01*
X129356138Y-102995500D01*
X128944000Y-102995500D01*
X128926031Y-102994191D01*
X128902091Y-102990684D01*
X128862019Y-102994191D01*
X128849751Y-102995264D01*
X128844351Y-102995500D01*
X128836053Y-102995500D01*
X128803325Y-102999325D01*
X128726387Y-103006056D01*
X128719321Y-103007516D01*
X128719310Y-103007464D01*
X128711832Y-103009122D01*
X128711845Y-103009174D01*
X128704819Y-103010839D01*
X128632260Y-103037247D01*
X128558962Y-103061536D01*
X128552420Y-103064587D01*
X128552397Y-103064539D01*
X128545507Y-103067875D01*
X128545531Y-103067922D01*
X128539076Y-103071163D01*
X128474555Y-103113598D01*
X128408849Y-103154127D01*
X128403179Y-103158611D01*
X128403146Y-103158569D01*
X128397214Y-103163401D01*
X128397248Y-103163442D01*
X128391717Y-103168082D01*
X128338728Y-103224247D01*
X125310147Y-106252827D01*
X125248824Y-106286312D01*
X125211660Y-106288674D01*
X125050003Y-106274532D01*
X125049998Y-106274532D01*
X124823313Y-106294364D01*
X124823302Y-106294366D01*
X124603511Y-106353258D01*
X124603502Y-106353261D01*
X124397267Y-106449431D01*
X124397265Y-106449432D01*
X124210858Y-106579954D01*
X124049954Y-106740858D01*
X123933436Y-106907266D01*
X123919432Y-106927266D01*
X123912380Y-106942387D01*
X123866209Y-106994825D01*
X123799015Y-107013976D01*
X123732134Y-106993760D01*
X123687619Y-106942387D01*
X123680568Y-106927266D01*
X123550047Y-106740861D01*
X123550045Y-106740858D01*
X123389141Y-106579954D01*
X123202734Y-106449432D01*
X123202732Y-106449431D01*
X122996497Y-106353261D01*
X122996488Y-106353258D01*
X122776697Y-106294366D01*
X122776693Y-106294365D01*
X122776692Y-106294365D01*
X122776691Y-106294364D01*
X122776686Y-106294364D01*
X122550002Y-106274532D01*
X122549998Y-106274532D01*
X122323313Y-106294364D01*
X122323302Y-106294366D01*
X122103511Y-106353258D01*
X122103502Y-106353261D01*
X121897267Y-106449431D01*
X121897265Y-106449432D01*
X121710858Y-106579954D01*
X121549954Y-106740858D01*
X121419432Y-106927265D01*
X121419431Y-106927267D01*
X121323261Y-107133502D01*
X121323258Y-107133511D01*
X121264366Y-107353302D01*
X121264364Y-107353313D01*
X121244532Y-107579998D01*
X121244532Y-107580001D01*
X119474500Y-107580001D01*
X119474500Y-105713885D01*
X119494185Y-105646846D01*
X119510814Y-105626209D01*
X122599853Y-102537169D01*
X122661174Y-102503686D01*
X122698336Y-102501324D01*
X122837384Y-102513489D01*
X122859999Y-102515468D01*
X122860000Y-102515468D01*
X122860002Y-102515468D01*
X122916672Y-102510509D01*
X123086692Y-102495635D01*
X123306496Y-102436739D01*
X123512734Y-102340568D01*
X123699139Y-102210047D01*
X123860047Y-102049139D01*
X123990568Y-101862734D01*
X124086739Y-101656496D01*
X124145635Y-101436692D01*
X124165468Y-101210000D01*
X124145635Y-100983308D01*
X124086739Y-100763504D01*
X123990568Y-100557266D01*
X123860047Y-100370861D01*
X123860045Y-100370858D01*
X123699141Y-100209954D01*
X123512734Y-100079432D01*
X123512728Y-100079429D01*
X123470573Y-100059772D01*
X123454724Y-100052381D01*
X123402285Y-100006210D01*
X123383133Y-99939017D01*
X123403348Y-99872135D01*
X123454725Y-99827618D01*
X123462932Y-99823791D01*
X123512734Y-99800568D01*
X123699139Y-99670047D01*
X123860047Y-99509139D01*
X123990568Y-99322734D01*
X124086739Y-99116496D01*
X124145635Y-98896692D01*
X124165468Y-98670000D01*
X124145635Y-98443308D01*
X124086739Y-98223504D01*
X123990568Y-98017266D01*
X123860047Y-97830861D01*
X123860045Y-97830858D01*
X123699143Y-97669956D01*
X123674536Y-97652726D01*
X123630912Y-97598149D01*
X123623719Y-97528650D01*
X123655241Y-97466296D01*
X123715471Y-97430882D01*
X123732404Y-97427861D01*
X123767483Y-97424091D01*
X123902331Y-97373796D01*
X124017546Y-97287546D01*
X124103796Y-97172331D01*
X124154091Y-97037483D01*
X124160500Y-96977873D01*
X124160499Y-95282128D01*
X124154091Y-95222517D01*
X124141094Y-95187671D01*
X124103797Y-95087671D01*
X124103793Y-95087664D01*
X124017547Y-94972455D01*
X124017544Y-94972452D01*
X123902335Y-94886206D01*
X123902328Y-94886202D01*
X123767482Y-94835908D01*
X123767483Y-94835908D01*
X123707883Y-94829501D01*
X123707881Y-94829500D01*
X123707873Y-94829500D01*
X123707864Y-94829500D01*
X122012129Y-94829500D01*
X122012123Y-94829501D01*
X121952516Y-94835908D01*
X121817671Y-94886202D01*
X121817664Y-94886206D01*
X121702455Y-94972452D01*
X121702452Y-94972455D01*
X121616206Y-95087664D01*
X121616202Y-95087671D01*
X121565908Y-95222517D01*
X121559501Y-95282116D01*
X121559501Y-95282123D01*
X121559500Y-95282135D01*
X121559500Y-96003114D01*
X121539815Y-96070153D01*
X121487011Y-96115908D01*
X121417853Y-96125852D01*
X121354297Y-96096827D01*
X121347819Y-96090795D01*
X118268766Y-93011742D01*
X118256984Y-92998109D01*
X118253604Y-92993569D01*
X118242539Y-92978706D01*
X118242537Y-92978704D01*
X118242538Y-92978704D01*
X118214932Y-92955541D01*
X118202285Y-92944928D01*
X118198310Y-92941286D01*
X118192441Y-92935417D01*
X118192440Y-92935416D01*
X118192438Y-92935414D01*
X118166584Y-92914972D01*
X118107427Y-92865333D01*
X118101394Y-92861365D01*
X118101422Y-92861321D01*
X118094961Y-92857204D01*
X118094934Y-92857250D01*
X118088790Y-92853460D01*
X118018808Y-92820827D01*
X117949815Y-92786177D01*
X117943031Y-92783708D01*
X117943049Y-92783658D01*
X117935807Y-92781141D01*
X117935791Y-92781191D01*
X117928938Y-92778920D01*
X117853311Y-92763304D01*
X117778181Y-92745498D01*
X117771014Y-92744661D01*
X117771020Y-92744607D01*
X117763405Y-92743829D01*
X117763401Y-92743883D01*
X117756210Y-92743253D01*
X117679018Y-92745500D01*
X107874000Y-92745500D01*
X107856031Y-92744191D01*
X107832091Y-92740684D01*
X107792019Y-92744191D01*
X107779751Y-92745264D01*
X107774351Y-92745500D01*
X107766053Y-92745500D01*
X107733325Y-92749325D01*
X107656387Y-92756056D01*
X107649321Y-92757516D01*
X107649310Y-92757464D01*
X107641832Y-92759122D01*
X107641845Y-92759174D01*
X107634819Y-92760839D01*
X107634816Y-92760839D01*
X107634816Y-92760840D01*
X107572239Y-92783615D01*
X107562260Y-92787247D01*
X107488962Y-92811536D01*
X107482420Y-92814587D01*
X107482397Y-92814539D01*
X107475507Y-92817875D01*
X107475531Y-92817922D01*
X107469076Y-92821163D01*
X107404555Y-92863598D01*
X107338849Y-92904127D01*
X107333179Y-92908611D01*
X107333146Y-92908569D01*
X107327214Y-92913401D01*
X107327248Y-92913442D01*
X107321717Y-92918082D01*
X107268728Y-92974247D01*
X104309390Y-95933584D01*
X104248067Y-95967069D01*
X104178375Y-95962085D01*
X104122442Y-95920213D01*
X104098181Y-95856710D01*
X104085635Y-95713313D01*
X104085635Y-95713308D01*
X104026739Y-95493504D01*
X103930568Y-95287266D01*
X103800047Y-95100861D01*
X103800045Y-95100858D01*
X103639141Y-94939954D01*
X103452734Y-94809432D01*
X103452732Y-94809431D01*
X103246497Y-94713261D01*
X103246488Y-94713258D01*
X103026697Y-94654366D01*
X103026693Y-94654365D01*
X103026692Y-94654365D01*
X103026691Y-94654364D01*
X103026686Y-94654364D01*
X102800002Y-94634532D01*
X102799998Y-94634532D01*
X102573313Y-94654364D01*
X102573302Y-94654366D01*
X102353511Y-94713258D01*
X102353502Y-94713261D01*
X102147267Y-94809431D01*
X102147265Y-94809432D01*
X101960858Y-94939954D01*
X101799954Y-95100858D01*
X101669432Y-95287265D01*
X101669431Y-95287267D01*
X101573261Y-95493502D01*
X101573258Y-95493511D01*
X101514366Y-95713302D01*
X101514364Y-95713313D01*
X101494532Y-95939998D01*
X101494532Y-95940001D01*
X101514364Y-96166686D01*
X101514366Y-96166697D01*
X101573258Y-96386488D01*
X101573261Y-96386497D01*
X101669431Y-96592732D01*
X101669432Y-96592734D01*
X101799954Y-96779141D01*
X101960858Y-96940045D01*
X101960861Y-96940047D01*
X102147266Y-97070568D01*
X102353504Y-97166739D01*
X102353509Y-97166740D01*
X102353511Y-97166741D01*
X102406415Y-97180916D01*
X102573308Y-97225635D01*
X102716710Y-97238181D01*
X102781779Y-97263633D01*
X102822758Y-97320224D01*
X102826636Y-97389986D01*
X102793584Y-97449390D01*
X100013795Y-100229181D01*
X99952472Y-100262666D01*
X99926114Y-100265500D01*
X96383862Y-100265500D01*
X96316823Y-100245815D01*
X96282287Y-100212623D01*
X96260045Y-100180858D01*
X96099141Y-100019954D01*
X95912734Y-99889432D01*
X95912732Y-99889431D01*
X95706497Y-99793261D01*
X95706488Y-99793258D01*
X95486697Y-99734366D01*
X95486693Y-99734365D01*
X95486692Y-99734365D01*
X95486691Y-99734364D01*
X95486686Y-99734364D01*
X95260002Y-99714532D01*
X95259998Y-99714532D01*
X95033313Y-99734364D01*
X95033302Y-99734366D01*
X94813511Y-99793258D01*
X94813502Y-99793261D01*
X94607267Y-99889431D01*
X94607265Y-99889432D01*
X94420858Y-100019954D01*
X94259954Y-100180858D01*
X94129432Y-100367265D01*
X94129431Y-100367267D01*
X94033261Y-100573502D01*
X94033258Y-100573511D01*
X93974366Y-100793302D01*
X93974364Y-100793313D01*
X93954532Y-101019998D01*
X93954532Y-101020001D01*
X93974364Y-101246686D01*
X93974366Y-101246697D01*
X94033258Y-101466488D01*
X94033261Y-101466497D01*
X94129431Y-101672732D01*
X94129432Y-101672734D01*
X94259954Y-101859141D01*
X94420855Y-102020042D01*
X94421203Y-102020334D01*
X94421314Y-102020501D01*
X94424689Y-102023876D01*
X94424010Y-102024554D01*
X94459907Y-102078504D01*
X94465500Y-102115326D01*
X94465500Y-104696138D01*
X94445815Y-104763177D01*
X94412626Y-104797710D01*
X94405851Y-104802455D01*
X94380861Y-104819953D01*
X94219951Y-104980862D01*
X94089432Y-105167265D01*
X94089431Y-105167267D01*
X93993261Y-105373502D01*
X93993258Y-105373511D01*
X93934366Y-105593302D01*
X93934364Y-105593313D01*
X93914532Y-105819998D01*
X93914532Y-105820001D01*
X93934364Y-106046686D01*
X93934366Y-106046697D01*
X93993258Y-106266488D01*
X93993260Y-106266492D01*
X93993261Y-106266496D01*
X94038209Y-106362887D01*
X94062804Y-106415630D01*
X94073296Y-106484707D01*
X94044776Y-106548491D01*
X93986300Y-106586731D01*
X93916432Y-106587286D01*
X93862741Y-106555716D01*
X86906819Y-99599794D01*
X86873334Y-99538471D01*
X86870500Y-99512113D01*
X86870500Y-98324499D01*
X86890185Y-98257460D01*
X86942989Y-98211705D01*
X86994500Y-98200499D01*
X87687871Y-98200499D01*
X87687872Y-98200499D01*
X87747483Y-98194091D01*
X87882331Y-98143796D01*
X87997546Y-98057546D01*
X88083796Y-97942331D01*
X88134091Y-97807483D01*
X88140500Y-97747873D01*
X88140499Y-95940001D01*
X93874532Y-95940001D01*
X93894364Y-96166686D01*
X93894366Y-96166697D01*
X93953258Y-96386488D01*
X93953261Y-96386497D01*
X94049431Y-96592732D01*
X94049432Y-96592734D01*
X94179954Y-96779141D01*
X94340858Y-96940045D01*
X94340861Y-96940047D01*
X94527266Y-97070568D01*
X94733504Y-97166739D01*
X94733509Y-97166740D01*
X94733511Y-97166741D01*
X94786415Y-97180916D01*
X94953308Y-97225635D01*
X95115230Y-97239801D01*
X95179998Y-97245468D01*
X95180000Y-97245468D01*
X95180002Y-97245468D01*
X95236672Y-97240509D01*
X95406692Y-97225635D01*
X95626496Y-97166739D01*
X95832734Y-97070568D01*
X96019139Y-96940047D01*
X96180047Y-96779139D01*
X96310568Y-96592734D01*
X96406739Y-96386496D01*
X96465635Y-96166692D01*
X96485468Y-95940000D01*
X96465635Y-95713308D01*
X96406739Y-95493504D01*
X96310568Y-95287266D01*
X96180047Y-95100861D01*
X96180045Y-95100858D01*
X96019141Y-94939954D01*
X95832734Y-94809432D01*
X95832732Y-94809431D01*
X95626497Y-94713261D01*
X95626488Y-94713258D01*
X95406697Y-94654366D01*
X95406693Y-94654365D01*
X95406692Y-94654365D01*
X95406691Y-94654364D01*
X95406686Y-94654364D01*
X95180002Y-94634532D01*
X95179998Y-94634532D01*
X94953313Y-94654364D01*
X94953302Y-94654366D01*
X94733511Y-94713258D01*
X94733502Y-94713261D01*
X94527267Y-94809431D01*
X94527265Y-94809432D01*
X94340858Y-94939954D01*
X94179954Y-95100858D01*
X94049432Y-95287265D01*
X94049431Y-95287267D01*
X93953261Y-95493502D01*
X93953258Y-95493511D01*
X93894366Y-95713302D01*
X93894364Y-95713313D01*
X93874532Y-95939998D01*
X93874532Y-95940001D01*
X88140499Y-95940001D01*
X88140499Y-95852128D01*
X88134091Y-95792517D01*
X88095266Y-95688423D01*
X88083797Y-95657671D01*
X88083793Y-95657664D01*
X87997547Y-95542455D01*
X87997544Y-95542452D01*
X87882335Y-95456206D01*
X87882328Y-95456202D01*
X87747482Y-95405908D01*
X87747483Y-95405908D01*
X87687883Y-95399501D01*
X87687881Y-95399500D01*
X87687873Y-95399500D01*
X87687864Y-95399500D01*
X86492129Y-95399500D01*
X86492123Y-95399501D01*
X86432516Y-95405908D01*
X86297671Y-95456202D01*
X86297664Y-95456206D01*
X86182455Y-95542452D01*
X86182452Y-95542455D01*
X86096206Y-95657664D01*
X86096202Y-95657671D01*
X86045908Y-95792517D01*
X86041191Y-95836395D01*
X86039501Y-95852123D01*
X86039500Y-95852135D01*
X86039501Y-97345500D01*
X86019816Y-97412539D01*
X85967013Y-97458294D01*
X85915501Y-97469500D01*
X85724500Y-97469500D01*
X85657461Y-97449815D01*
X85611706Y-97397011D01*
X85600500Y-97345500D01*
X85600500Y-96131445D01*
X85600499Y-96131441D01*
X85595919Y-96090795D01*
X85585841Y-96001343D01*
X85528122Y-95836394D01*
X85435147Y-95688424D01*
X85311576Y-95564853D01*
X85163606Y-95471878D01*
X85163605Y-95471877D01*
X85163604Y-95471877D01*
X84998658Y-95414159D01*
X84998648Y-95414157D01*
X84868558Y-95399500D01*
X84868552Y-95399500D01*
X84231448Y-95399500D01*
X84231441Y-95399500D01*
X84101351Y-95414157D01*
X84101341Y-95414159D01*
X83936395Y-95471877D01*
X83788423Y-95564853D01*
X83664853Y-95688423D01*
X83571877Y-95836395D01*
X83514159Y-96001341D01*
X83514157Y-96001351D01*
X83499500Y-96131441D01*
X83499500Y-97468558D01*
X77104500Y-97468558D01*
X77104500Y-91262712D01*
X77124185Y-91195673D01*
X77169074Y-91153880D01*
X77373326Y-91042350D01*
X77373325Y-91042350D01*
X77373337Y-91042344D01*
X77589535Y-90880500D01*
X77780500Y-90689535D01*
X77942344Y-90473337D01*
X78071772Y-90236307D01*
X78166150Y-89983270D01*
X78223557Y-89719377D01*
X78242823Y-89450000D01*
X78223557Y-89180623D01*
X78166150Y-88916730D01*
X78071772Y-88663693D01*
X77942344Y-88426663D01*
X77942342Y-88426660D01*
X77780506Y-88210472D01*
X77780490Y-88210454D01*
X77589545Y-88019509D01*
X77589527Y-88019493D01*
X77373339Y-87857657D01*
X77373331Y-87857652D01*
X77136312Y-87728230D01*
X77136308Y-87728228D01*
X77040377Y-87692448D01*
X76883270Y-87633850D01*
X76883266Y-87633849D01*
X76883263Y-87633848D01*
X76619382Y-87576443D01*
X76350001Y-87557177D01*
X76349999Y-87557177D01*
X76080617Y-87576443D01*
X75816736Y-87633848D01*
X75816731Y-87633849D01*
X75816730Y-87633850D01*
X75755551Y-87656668D01*
X75563691Y-87728228D01*
X75563687Y-87728230D01*
X75326668Y-87857652D01*
X75326660Y-87857657D01*
X75110472Y-88019493D01*
X75110454Y-88019509D01*
X74919509Y-88210454D01*
X74919493Y-88210472D01*
X74757657Y-88426660D01*
X74757652Y-88426668D01*
X74628230Y-88663687D01*
X74628228Y-88663691D01*
X74533848Y-88916736D01*
X74476443Y-89180617D01*
X74457177Y-89449998D01*
X74457177Y-89450001D01*
X74476443Y-89719382D01*
X74523903Y-89937546D01*
X74533850Y-89983270D01*
X74548966Y-90023797D01*
X74628228Y-90236308D01*
X74628230Y-90236312D01*
X74757652Y-90473331D01*
X74757657Y-90473339D01*
X74919493Y-90689527D01*
X74919509Y-90689545D01*
X75110454Y-90880490D01*
X75110472Y-90880506D01*
X75326660Y-91042342D01*
X75326673Y-91042350D01*
X75530926Y-91153880D01*
X75580332Y-91203285D01*
X75595500Y-91262712D01*
X75595500Y-100216112D01*
X75575815Y-100283151D01*
X75559181Y-100303793D01*
X73915988Y-101946985D01*
X73854665Y-101980470D01*
X73784973Y-101975486D01*
X73768326Y-101967832D01*
X73563867Y-101854832D01*
X73563863Y-101854830D01*
X73269137Y-101732752D01*
X73228648Y-101715981D01*
X73202560Y-101708465D01*
X72879991Y-101615534D01*
X72879983Y-101615532D01*
X72522278Y-101554756D01*
X72522266Y-101554754D01*
X72186238Y-101535883D01*
X72160000Y-101534410D01*
X72159999Y-101534410D01*
X71797733Y-101554754D01*
X71797721Y-101554756D01*
X71440016Y-101615532D01*
X71440001Y-101615535D01*
X71357004Y-101639446D01*
X71287135Y-101639089D01*
X71234997Y-101607973D01*
X63621312Y-93994288D01*
X63587827Y-93932965D01*
X63592810Y-93863277D01*
X63644369Y-93725046D01*
X63705196Y-93445428D01*
X63725610Y-93160000D01*
X63705196Y-92874572D01*
X63702313Y-92861321D01*
X63644371Y-92594962D01*
X63644370Y-92594960D01*
X63644369Y-92594954D01*
X63544367Y-92326839D01*
X63407226Y-92075685D01*
X63407224Y-92075682D01*
X63235745Y-91846612D01*
X63235729Y-91846594D01*
X63033405Y-91644270D01*
X63033387Y-91644254D01*
X62804317Y-91472775D01*
X62804309Y-91472770D01*
X62553166Y-91335635D01*
X62553167Y-91335635D01*
X62431324Y-91290190D01*
X62285046Y-91235631D01*
X62285043Y-91235630D01*
X62285037Y-91235628D01*
X62005433Y-91174804D01*
X61720001Y-91154390D01*
X61719999Y-91154390D01*
X61434566Y-91174804D01*
X61154962Y-91235628D01*
X60886833Y-91335635D01*
X60635690Y-91472770D01*
X60635682Y-91472775D01*
X60406612Y-91644254D01*
X60406594Y-91644270D01*
X60204270Y-91846594D01*
X60204254Y-91846612D01*
X60032775Y-92075682D01*
X60032770Y-92075690D01*
X59895635Y-92326833D01*
X59795628Y-92594962D01*
X59734804Y-92874566D01*
X59714390Y-93159998D01*
X59714390Y-93160001D01*
X50984426Y-93160001D01*
X50983460Y-89627870D01*
X59719500Y-89627870D01*
X59719501Y-89627876D01*
X59725908Y-89687483D01*
X59776202Y-89822328D01*
X59776206Y-89822335D01*
X59862452Y-89937544D01*
X59862455Y-89937547D01*
X59977664Y-90023793D01*
X59977671Y-90023797D01*
X60112517Y-90074091D01*
X60112516Y-90074091D01*
X60119444Y-90074835D01*
X60172127Y-90080500D01*
X63267872Y-90080499D01*
X63327483Y-90074091D01*
X63462331Y-90023796D01*
X63577546Y-89937546D01*
X63663796Y-89822331D01*
X63714091Y-89687483D01*
X63720500Y-89627873D01*
X63720500Y-89450001D01*
X69757177Y-89450001D01*
X69776443Y-89719382D01*
X69823903Y-89937546D01*
X69833850Y-89983270D01*
X69848966Y-90023797D01*
X69928228Y-90236308D01*
X69928230Y-90236312D01*
X70057652Y-90473331D01*
X70057657Y-90473339D01*
X70219493Y-90689527D01*
X70219509Y-90689545D01*
X70410454Y-90880490D01*
X70410472Y-90880506D01*
X70626660Y-91042342D01*
X70626668Y-91042347D01*
X70863687Y-91171769D01*
X70863691Y-91171771D01*
X70863693Y-91171772D01*
X71116730Y-91266150D01*
X71240170Y-91293003D01*
X71380617Y-91323556D01*
X71380619Y-91323556D01*
X71380623Y-91323557D01*
X71620007Y-91340677D01*
X71649999Y-91342823D01*
X71650000Y-91342823D01*
X71650001Y-91342823D01*
X71676987Y-91340892D01*
X71919377Y-91323557D01*
X72183270Y-91266150D01*
X72436307Y-91171772D01*
X72673337Y-91042344D01*
X72889535Y-90880500D01*
X73080500Y-90689535D01*
X73242344Y-90473337D01*
X73371772Y-90236307D01*
X73466150Y-89983270D01*
X73523557Y-89719377D01*
X73542823Y-89450000D01*
X73523557Y-89180623D01*
X73466150Y-88916730D01*
X73371772Y-88663693D01*
X73242344Y-88426663D01*
X73242342Y-88426660D01*
X73080506Y-88210472D01*
X73080490Y-88210454D01*
X72889545Y-88019509D01*
X72889527Y-88019493D01*
X72673339Y-87857657D01*
X72673331Y-87857652D01*
X72436312Y-87728230D01*
X72436308Y-87728228D01*
X72340377Y-87692448D01*
X72183270Y-87633850D01*
X72183266Y-87633849D01*
X72183263Y-87633848D01*
X71919382Y-87576443D01*
X71650001Y-87557177D01*
X71649999Y-87557177D01*
X71380617Y-87576443D01*
X71116736Y-87633848D01*
X71116731Y-87633849D01*
X71116730Y-87633850D01*
X71055551Y-87656668D01*
X70863691Y-87728228D01*
X70863687Y-87728230D01*
X70626668Y-87857652D01*
X70626660Y-87857657D01*
X70410472Y-88019493D01*
X70410454Y-88019509D01*
X70219509Y-88210454D01*
X70219493Y-88210472D01*
X70057657Y-88426660D01*
X70057652Y-88426668D01*
X69928230Y-88663687D01*
X69928228Y-88663691D01*
X69833848Y-88916736D01*
X69776443Y-89180617D01*
X69757177Y-89449998D01*
X69757177Y-89450001D01*
X63720500Y-89450001D01*
X63720499Y-86532128D01*
X63714091Y-86472517D01*
X63663796Y-86337669D01*
X63663795Y-86337668D01*
X63663793Y-86337664D01*
X63577547Y-86222455D01*
X63577544Y-86222452D01*
X63462335Y-86136206D01*
X63462328Y-86136202D01*
X63327482Y-86085908D01*
X63327483Y-86085908D01*
X63267883Y-86079501D01*
X63267881Y-86079500D01*
X63267873Y-86079500D01*
X63267864Y-86079500D01*
X60172129Y-86079500D01*
X60172123Y-86079501D01*
X60112516Y-86085908D01*
X59977671Y-86136202D01*
X59977664Y-86136206D01*
X59862455Y-86222452D01*
X59862452Y-86222455D01*
X59776206Y-86337664D01*
X59776202Y-86337671D01*
X59725908Y-86472517D01*
X59719501Y-86532116D01*
X59719501Y-86532123D01*
X59719500Y-86532135D01*
X59719500Y-89627870D01*
X50983460Y-89627870D01*
X50980533Y-78924630D01*
X51000199Y-78857589D01*
X51052991Y-78811820D01*
X51104631Y-78800600D01*
X87986256Y-78830431D01*
G37*
%TD.AperFunction*%
%TD*%
M02*
