M48
; DRILL file {KiCad 7.0.6} date Tue Sep  5 08:02:44 2023
; FORMAT={-:-/ absolute / inch / decimal}
; #@! TF.CreationDate,2023-09-05T08:02:44-07:00
; #@! TF.GenerationSoftware,Kicad,Pcbnew,7.0.6
; #@! TF.FileFunction,Plated,1,2,PTH
FMAT,2
INCH
; #@! TA.AperFunction,Plated,PTH,ComponentDrill
T1C0.0295
; #@! TA.AperFunction,Plated,PTH,ComponentDrill
T2C0.0315
; #@! TA.AperFunction,Plated,PTH,ComponentDrill
T3C0.0354
; #@! TA.AperFunction,Plated,PTH,ComponentDrill
T4C0.0394
; #@! TA.AperFunction,Plated,PTH,ComponentDrill
T5C0.0492
; #@! TA.AperFunction,Plated,PTH,ComponentDrill
T6C0.0598
; #@! TA.AperFunction,Plated,PTH,ComponentDrill
T7C0.0669
; #@! TA.AperFunction,Plated,PTH,ComponentDrill
T8C0.0728
; #@! TA.AperFunction,Plated,PTH,ComponentDrill
T9C0.1244
; #@! TA.AperFunction,Plated,PTH,ComponentDrill
T10C0.1433
%
G90
G05
T1
X3.3287Y-3.8268
X3.3787Y-3.8768
X3.4287Y-3.8268
X4.8902Y-4.5866
X4.9402Y-4.5366
X4.9402Y-4.6366
X5.3685Y-5.1228
X5.4185Y-5.1728
X5.4685Y-5.1228
T2
X3.2268Y-4.9043
X3.2291Y-5.1134
X3.2307Y-4.7276
X3.235Y-4.537
X3.5268Y-4.9043
X3.5291Y-5.1134
X3.5307Y-4.7276
X3.535Y-4.537
X3.7469Y-4.7134
X3.7472Y-3.7772
X3.7488Y-4.1661
X3.75Y-4.3551
X3.7504Y-3.9772
X3.7508Y-4.5378
X4.0469Y-4.7134
X4.0472Y-3.7772
X4.0488Y-4.1661
X4.05Y-4.3551
X4.0504Y-3.9772
X4.0508Y-4.5378
X4.1669Y-5.1228
X4.2654Y-5.1228
X4.311Y-3.7827
X4.311Y-3.8827
X4.311Y-3.9827
X4.311Y-4.0827
X4.311Y-4.4268
X4.311Y-4.5268
X4.311Y-4.6268
X4.311Y-4.7268
X4.4114Y-4.2244
X4.4327Y-5.1209
X4.4346Y-5.2866
X4.5098Y-4.2244
X4.611Y-3.7827
X4.611Y-3.8827
X4.611Y-3.9827
X4.611Y-4.0827
X4.611Y-4.4268
X4.611Y-4.5268
X4.611Y-4.6268
X4.611Y-4.7268
X4.7327Y-5.1209
X4.7346Y-5.2866
X4.8248Y-4.2354
X4.837Y-3.7846
X4.837Y-3.8846
X4.837Y-3.9846
X4.837Y-4.0846
X4.9232Y-4.2354
X4.9264Y-4.9894
X4.9264Y-5.2894
X5.0547Y-4.2346
X5.137Y-3.7846
X5.137Y-3.8846
X5.137Y-3.9846
X5.137Y-4.0846
X5.1531Y-4.2346
X5.1543Y-4.4283
X5.1543Y-4.7283
X5.1583Y-4.9913
X5.1583Y-5.2913
X5.3535Y-4.4311
X5.3535Y-4.7311
T3
X2.8585Y-4.9106
X2.9585Y-4.9106
X3.3278Y-4.1756
X3.4278Y-4.1756
T4
X2.4921Y-4.611
X2.4921Y-4.9102
X3.7972Y-5.1189
X3.9972Y-5.1189
X4.9354Y-5.5972
X5.0354Y-5.5972
X5.1354Y-5.5972
T5
X2.315Y-5.3713
X2.315Y-5.5681
X2.8071Y-5.3713
X2.8071Y-5.5681
T6
X2.4299Y-3.4677
X2.4299Y-3.6677
X3.302Y-5.5803
X3.502Y-5.5803
X4.0457Y-5.5866
X4.2457Y-5.5866
T7
X5.3858Y-3.9992
X5.4587Y-3.8063
X5.4587Y-4.078
X5.5315Y-3.9992
T8
X2.8209Y-3.5217
X3.0059Y-3.5217
X3.1909Y-3.5217
T9
X2.6047Y-4.1248
T10
X2.8409Y-4.1248
T0
M30
